<?xml version="1.0" encoding="UTF-8" standalone="no"?><svg xmlns="http://www.w3.org/2000/svg" xmlns:xlink="http://www.w3.org/1999/xlink" clip-rule="evenodd" stroke-miterlimit="4.00" viewBox="0 0 1024 768"><desc>SVG generated by Keynote</desc><defs></defs><g transform="matrix(1.00, 0.00, -0.00, -1.00, 0.0, 768.0)"><path d="M 0.0 768.0 L 1024.0 768.0 L 1024.0 0.0 L 0.0 0.0 Z M 0.0 768.0 " fill="#000000"></path><g><clipPath id="clip-453"><path d="M 0.0 554.0 L 1024.0 554.0 L 1024.0 0.0 L 0.0 0.0 Z M 0.0 554.0 "></path></clipPath><g clip-path="url(#clip-453)"><image xlink:href="9DC9CAF38DBC4CC82423FF8A70EC6210.jpeg" width="1171.00" height="554.00" transform="matrix(1.00, 0.00, -0.00, -1.00, -73.0, 554.0)"></image></g></g><text xml:space="preserve" font-family="Avenir-Light" font-size="62.0" fill="#FEFFFF" transform="matrix(1.00, 0.00, -0.00, -1.00, 56.0, 623.0)">2</text><text xml:space="preserve" font-family="Avenir-Light" font-size="62.0" fill="#FEFFFF" transform="matrix(1.00, 0.00, -0.00, -1.00, 98.2, 623.0)"> </text><text xml:space="preserve" font-family="Avenir-Light" font-size="62.0" fill="#FEFFFF" transform="matrix(1.00, 0.00, -0.00, -1.00, 124.2, 623.0)">J</text><text xml:space="preserve" font-family="Avenir-Light" font-size="62.0" fill="#FEFFFF" transform="matrix(1.00, 0.00, -0.00, -1.00, 164.0, 623.0)">U</text><text xml:space="preserve" font-family="Avenir-Light" font-size="62.0" fill="#FEFFFF" transform="matrix(1.00, 0.00, -0.00, -1.00, 216.3, 623.0)">I</text><text xml:space="preserve" font-family="Avenir-Light" font-size="62.0" fill="#FEFFFF" transform="matrix(1.00, 0.00, -0.00, -1.00, 242.4, 623.0)">N</text><text xml:space="preserve" font-family="Avenir-Light" font-size="62.0" fill="#FEFFFF" transform="matrix(1.00, 0.00, -0.00, -1.00, 300.5, 623.0)"> </text><text xml:space="preserve" font-family="Avenir-Light" font-size="62.0" fill="#FEFFFF" transform="matrix(1.00, 0.00, -0.00, -1.00, 326.6, 623.0)">2</text><text xml:space="preserve" font-family="Avenir-Light" font-size="62.0" fill="#FEFFFF" transform="matrix(1.00, 0.00, -0.00, -1.00, 368.7, 623.0)">0</text><text xml:space="preserve" font-family="Avenir-Light" font-size="62.0" fill="#FEFFFF" transform="matrix(1.00, 0.00, -0.00, -1.00, 410.9, 623.0)">1</text><text xml:space="preserve" font-family="Avenir-Light" font-size="62.0" fill="#FEFFFF" transform="matrix(1.00, 0.00, -0.00, -1.00, 453.0, 623.0)">7</text></g></svg>