<?xml version="1.0" encoding="UTF-8" standalone="no"?><svg xmlns="http://www.w3.org/2000/svg" xmlns:xlink="http://www.w3.org/1999/xlink" clip-rule="evenodd" stroke-miterlimit="4.00" viewBox="0 0 1024 768"><desc>SVG generated by Keynote</desc><defs></defs><g transform="matrix(1.00, 0.00, -0.00, -1.00, 0.0, 768.0)"><path d="M 0.0 768.0 L 1024.0 768.0 L 1024.0 0.0 L 0.0 0.0 Z M 0.0 768.0 " fill="#000000"></path><text xml:space="preserve" font-family="Avenir-Light" font-size="36.0" fill="#FEFFFE" transform="matrix(1.00, 0.00, -0.00, -1.00, 232.0, 394.0)">h</text><text xml:space="preserve" font-family="Avenir-Light" font-size="36.0" fill="#FEFFFE" transform="matrix(1.00, 0.00, -0.00, -1.00, 252.0, 394.0)">t</text><text xml:space="preserve" font-family="Avenir-Light" font-size="36.0" fill="#FEFFFE" transform="matrix(1.00, 0.00, -0.00, -1.00, 264.0, 394.0)">t</text><text xml:space="preserve" font-family="Avenir-Light" font-size="36.0" fill="#FEFFFE" transform="matrix(1.00, 0.00, -0.00, -1.00, 276.0, 394.0)">p</text><text xml:space="preserve" font-family="Avenir-Light" font-size="36.0" fill="#FEFFFE" transform="matrix(1.00, 0.00, -0.00, -1.00, 298.0, 394.0)">:</text><text xml:space="preserve" font-family="Avenir-Light" font-size="36.0" fill="#FEFFFE" transform="matrix(1.00, 0.00, -0.00, -1.00, 307.4, 394.0)">/</text><text xml:space="preserve" font-family="Avenir-Light" font-size="36.0" fill="#FEFFFE" transform="matrix(1.00, 0.00, -0.00, -1.00, 320.7, 394.0)">/</text><text xml:space="preserve" font-family="Avenir-Light" font-size="36.0" fill="#FEFFFE" transform="matrix(1.00, 0.00, -0.00, -1.00, 334.0, 394.0)">z</text><text xml:space="preserve" font-family="Avenir-Light" font-size="36.0" fill="#FEFFFE" transform="matrix(1.00, 0.00, -0.00, -1.00, 349.4, 394.0)">e</text><text xml:space="preserve" font-family="Avenir-Light" font-size="36.0" fill="#FEFFFE" transform="matrix(1.00, 0.00, -0.00, -1.00, 369.4, 394.0)">n</text><text xml:space="preserve" font-family="Avenir-Light" font-size="36.0" fill="#FEFFFE" transform="matrix(1.00, 0.00, -0.00, -1.00, 389.4, 394.0)">i</text><text xml:space="preserve" font-family="Avenir-Light" font-size="36.0" fill="#FEFFFE" transform="matrix(1.00, 0.00, -0.00, -1.00, 398.0, 394.0)">k</text><text xml:space="preserve" font-family="Avenir-Light" font-size="36.0" fill="#FEFFFE" transform="matrix(1.00, 0.00, -0.00, -1.00, 415.3, 394.0)">a</text><text xml:space="preserve" font-family="Avenir-Light" font-size="36.0" fill="#FEFFFE" transform="matrix(1.00, 0.00, -0.00, -1.00, 434.0, 394.0)">.</text><text xml:space="preserve" font-family="Avenir-Light" font-size="36.0" fill="#FEFFFE" transform="matrix(1.00, 0.00, -0.00, -1.00, 443.4, 394.0)">g</text><text xml:space="preserve" font-family="Avenir-Light" font-size="36.0" fill="#FEFFFE" transform="matrix(1.00, 0.00, -0.00, -1.00, 465.4, 394.0)">i</text><text xml:space="preserve" font-family="Avenir-Light" font-size="36.0" fill="#FEFFFE" transform="matrix(1.00, 0.00, -0.00, -1.00, 474.0, 394.0)">t</text><text xml:space="preserve" font-family="Avenir-Light" font-size="36.0" fill="#FEFFFE" transform="matrix(1.00, 0.00, -0.00, -1.00, 486.1, 394.0)">h</text><text xml:space="preserve" font-family="Avenir-Light" font-size="36.0" fill="#FEFFFE" transform="matrix(1.00, 0.00, -0.00, -1.00, 506.1, 394.0)">u</text><text xml:space="preserve" font-family="Avenir-Light" font-size="36.0" fill="#FEFFFE" transform="matrix(1.00, 0.00, -0.00, -1.00, 526.1, 394.0)">b</text><text xml:space="preserve" font-family="Avenir-Light" font-size="36.0" fill="#FEFFFE" transform="matrix(1.00, 0.00, -0.00, -1.00, 548.1, 394.0)">.</text><text xml:space="preserve" font-family="Avenir-Light" font-size="36.0" fill="#FEFFFE" transform="matrix(1.00, 0.00, -0.00, -1.00, 557.4, 394.0)">i</text><text xml:space="preserve" font-family="Avenir-Light" font-size="36.0" fill="#FEFFFE" transform="matrix(1.00, 0.00, -0.00, -1.00, 566.1, 394.0)">o</text><text xml:space="preserve" font-family="Avenir-Light" font-size="36.0" fill="#FEFFFE" transform="matrix(1.00, 0.00, -0.00, -1.00, 587.5, 394.0)">/</text><text xml:space="preserve" font-family="Avenir-Light" font-size="36.0" fill="#FEFFFE" transform="matrix(1.00, 0.00, -0.00, -1.00, 600.8, 394.0)">z</text><text xml:space="preserve" font-family="Avenir-Light" font-size="36.0" fill="#FEFFFE" transform="matrix(1.00, 0.00, -0.00, -1.00, 616.1, 394.0)">e</text><text xml:space="preserve" font-family="Avenir-Light" font-size="36.0" fill="#FEFFFE" transform="matrix(1.00, 0.00, -0.00, -1.00, 636.1, 394.0)">n</text><text xml:space="preserve" font-family="Avenir-Light" font-size="36.0" fill="#FEFFFE" transform="matrix(1.00, 0.00, -0.00, -1.00, 656.2, 394.0)">i</text><text xml:space="preserve" font-family="Avenir-Light" font-size="36.0" fill="#FEFFFE" transform="matrix(1.00, 0.00, -0.00, -1.00, 664.8, 394.0)">k</text><text xml:space="preserve" font-family="Avenir-Light" font-size="36.0" fill="#FEFFFE" transform="matrix(1.00, 0.00, -0.00, -1.00, 682.1, 394.0)">a</text><text xml:space="preserve" font-family="Avenir-Light" font-size="36.0" fill="#FEFFFE" transform="matrix(1.00, 0.00, -0.00, -1.00, 700.8, 394.0)">.</text><text xml:space="preserve" font-family="Avenir-Light" font-size="36.0" fill="#FEFFFE" transform="matrix(1.00, 0.00, -0.00, -1.00, 710.2, 394.0)">c</text><text xml:space="preserve" font-family="Avenir-Light" font-size="36.0" fill="#FEFFFE" transform="matrix(1.00, 0.00, -0.00, -1.00, 727.5, 394.0)">o</text><text xml:space="preserve" font-family="Avenir-Light" font-size="36.0" fill="#FEFFFE" transform="matrix(1.00, 0.00, -0.00, -1.00, 748.9, 394.0)">m</text><text xml:space="preserve" font-family="Avenir-Light" font-size="36.0" fill="#FEFFFE" transform="matrix(1.00, 0.00, -0.00, -1.00, 779.5, 394.0)">/</text><text xml:space="preserve" font-family="Avenir-LightOblique" font-style="italic" font-size="36.0" fill="#FEFFFE" transform="matrix(1.00, 0.00, -0.00, -1.00, 318.0, 160.0)">«</text><text xml:space="preserve" font-family="Avenir-LightOblique" font-style="italic" font-size="36.0" fill="#FEFFFE" transform="matrix(1.00, 0.00, -0.00, -1.00, 335.3, 160.0)"> </text><text xml:space="preserve" font-family="Avenir-LightOblique" font-style="italic" font-size="36.0" fill="#FEFFFE" transform="matrix(1.00, 0.00, -0.00, -1.00, 344.7, 160.0)">V</text><text xml:space="preserve" font-family="Avenir-LightOblique" font-style="italic" font-size="36.0" fill="#FEFFFE" transform="matrix(1.00, 0.00, -0.00, -1.00, 364.0, 160.0)">o</text><text xml:space="preserve" font-family="Avenir-LightOblique" font-style="italic" font-size="36.0" fill="#FEFFFE" transform="matrix(1.00, 0.00, -0.00, -1.00, 385.4, 160.0)">t</text><text xml:space="preserve" font-family="Avenir-LightOblique" font-style="italic" font-size="36.0" fill="#FEFFFE" transform="matrix(1.00, 0.00, -0.00, -1.00, 397.4, 160.0)">r</text><text xml:space="preserve" font-family="Avenir-LightOblique" font-style="italic" font-size="36.0" fill="#FEFFFE" transform="matrix(1.00, 0.00, -0.00, -1.00, 408.8, 160.0)">e</text><text xml:space="preserve" font-family="Avenir-LightOblique" font-style="italic" font-size="36.0" fill="#FEFFFE" transform="matrix(1.00, 0.00, -0.00, -1.00, 428.8, 160.0)"> </text><text xml:space="preserve" font-family="Avenir-LightOblique" font-style="italic" font-size="36.0" fill="#FEFFFE" transform="matrix(1.00, 0.00, -0.00, -1.00, 438.1, 160.0)">a</text><text xml:space="preserve" font-family="Avenir-LightOblique" font-style="italic" font-size="36.0" fill="#FEFFFE" transform="matrix(1.00, 0.00, -0.00, -1.00, 456.8, 160.0)">v</text><text xml:space="preserve" font-family="Avenir-LightOblique" font-style="italic" font-size="36.0" fill="#FEFFFE" transform="matrix(1.00, 0.00, -0.00, -1.00, 473.5, 160.0)">i</text><text xml:space="preserve" font-family="Avenir-LightOblique" font-style="italic" font-size="36.0" fill="#FEFFFE" transform="matrix(1.00, 0.00, -0.00, -1.00, 482.1, 160.0)">s</text><text xml:space="preserve" font-family="Avenir-LightOblique" font-style="italic" font-size="36.0" fill="#FEFFFE" transform="matrix(1.00, 0.00, -0.00, -1.00, 497.5, 160.0)"> </text><text xml:space="preserve" font-family="Avenir-LightOblique" font-style="italic" font-size="36.0" fill="#FEFFFE" transform="matrix(1.00, 0.00, -0.00, -1.00, 506.8, 160.0)">s</text><text xml:space="preserve" font-family="Avenir-LightOblique" font-style="italic" font-size="36.0" fill="#FEFFFE" transform="matrix(1.00, 0.00, -0.00, -1.00, 522.2, 160.0)">u</text><text xml:space="preserve" font-family="Avenir-LightOblique" font-style="italic" font-size="36.0" fill="#FEFFFE" transform="matrix(1.00, 0.00, -0.00, -1.00, 542.2, 160.0)">r</text><text xml:space="preserve" font-family="Avenir-LightOblique" font-style="italic" font-size="36.0" fill="#FEFFFE" transform="matrix(1.00, 0.00, -0.00, -1.00, 554.2, 160.0)"> </text><text xml:space="preserve" font-family="Avenir-LightOblique" font-style="italic" font-size="36.0" fill="#FEFFFE" transform="matrix(1.00, 0.00, -0.00, -1.00, 563.5, 160.0)">l</text><text xml:space="preserve" font-family="Avenir-LightOblique" font-style="italic" font-size="36.0" fill="#FEFFFE" transform="matrix(1.00, 0.00, -0.00, -1.00, 572.2, 160.0)">e</text><text xml:space="preserve" font-family="Avenir-LightOblique" font-style="italic" font-size="36.0" fill="#FEFFFE" transform="matrix(1.00, 0.00, -0.00, -1.00, 592.2, 160.0)"> </text><text xml:space="preserve" font-family="Avenir-LightOblique" font-style="italic" font-size="36.0" fill="#FEFFFE" transform="matrix(1.00, 0.00, -0.00, -1.00, 601.5, 160.0)">s</text><text xml:space="preserve" font-family="Avenir-LightOblique" font-style="italic" font-size="36.0" fill="#FEFFFE" transform="matrix(1.00, 0.00, -0.00, -1.00, 616.9, 160.0)">i</text><text xml:space="preserve" font-family="Avenir-LightOblique" font-style="italic" font-size="36.0" fill="#FEFFFE" transform="matrix(1.00, 0.00, -0.00, -1.00, 625.5, 160.0)">t</text><text xml:space="preserve" font-family="Avenir-LightOblique" font-style="italic" font-size="36.0" fill="#FEFFFE" transform="matrix(1.00, 0.00, -0.00, -1.00, 637.5, 160.0)">e</text><text xml:space="preserve" font-family="Avenir-LightOblique" font-style="italic" font-size="36.0" fill="#FEFFFE" transform="matrix(1.00, 0.00, -0.00, -1.00, 657.5, 160.0)"> </text><text xml:space="preserve" font-family="Avenir-LightOblique" font-style="italic" font-size="36.0" fill="#FEFFFE" transform="matrix(1.00, 0.00, -0.00, -1.00, 666.9, 160.0)">!</text><text xml:space="preserve" font-family="Avenir-LightOblique" font-style="italic" font-size="36.0" fill="#FEFFFE" transform="matrix(1.00, 0.00, -0.00, -1.00, 680.2, 160.0)"> </text><text xml:space="preserve" font-family="Avenir-LightOblique" font-style="italic" font-size="36.0" fill="#FEFFFE" transform="matrix(1.00, 0.00, -0.00, -1.00, 689.6, 160.0)">»</text><text xml:space="preserve" font-family="Avenir-LightOblique" font-style="italic" font-size="36.0" fill="#FEFFFE" transform="matrix(1.00, 0.00, -0.00, -1.00, 706.9, 160.0)"> </text></g></svg>