<?xml version="1.0" encoding="UTF-8" standalone="no"?><svg xmlns="http://www.w3.org/2000/svg" xmlns:xlink="http://www.w3.org/1999/xlink" clip-rule="evenodd" stroke-miterlimit="4.00" viewBox="0 0 302 174"><desc>SVG generated by Keynote</desc><defs></defs><g transform="matrix(1.00, 0.00, -0.00, -1.00, 0.0, 174.0)"><text xml:space="preserve" font-family="Lato-Regular" font-size="37.0" fill="#FFFFFF" transform="matrix(1.00, 0.00, -0.00, -1.00, 13.0, 144.0)">M</text><text xml:space="preserve" font-family="Lato-Regular" font-size="37.0" fill="#FFFFFF" transform="matrix(1.00, 0.00, -0.00, -1.00, 46.8, 144.0)">a</text><text xml:space="preserve" font-family="Lato-Regular" font-size="37.0" fill="#FFFFFF" transform="matrix(1.00, 0.00, -0.00, -1.00, 65.2, 144.0)">i</text><text xml:space="preserve" font-family="Lato-Regular" font-size="37.0" fill="#FFFFFF" transform="matrix(1.00, 0.00, -0.00, -1.00, 74.0, 144.0)">s</text><text xml:space="preserve" font-family="Lato-Regular" font-size="37.0" fill="#FFFFFF" transform="matrix(1.00, 0.00, -0.00, -1.00, 90.1, 144.0)"> </text><text xml:space="preserve" font-family="Lato-Regular" font-size="37.0" fill="#FFFFFF" transform="matrix(1.00, 0.00, -0.00, -1.00, 99.5, 144.0)">c</text><text xml:space="preserve" font-family="Lato-Regular" font-size="37.0" fill="#FFFFFF" transform="matrix(1.00, 0.00, -0.00, -1.00, 116.9, 144.0)">e</text><text xml:space="preserve" font-family="Lato-Regular" font-size="37.0" fill="#FFFFFF" transform="matrix(1.00, 0.00, -0.00, -1.00, 136.4, 144.0)"> </text><text xml:space="preserve" font-family="Lato-Regular" font-size="37.0" fill="#FFFFFF" transform="matrix(1.00, 0.00, -0.00, -1.00, 145.9, 144.0)">n</text><text xml:space="preserve" font-family="Lato-Regular" font-size="37.0" fill="#FFFFFF" transform="matrix(1.00, 0.00, -0.00, -1.00, 165.9, 144.0)">’</text><text xml:space="preserve" font-family="Lato-Regular" font-size="37.0" fill="#FFFFFF" transform="matrix(1.00, 0.00, -0.00, -1.00, 172.6, 144.0)">e</text><text xml:space="preserve" font-family="Lato-Regular" font-size="37.0" fill="#FFFFFF" transform="matrix(1.00, 0.00, -0.00, -1.00, 192.2, 144.0)">s</text><text xml:space="preserve" font-family="Lato-Regular" font-size="37.0" fill="#FFFFFF" transform="matrix(1.00, 0.00, -0.00, -1.00, 208.2, 144.0)">t</text><text xml:space="preserve" font-family="Lato-Regular" font-size="37.0" fill="#FFFFFF" transform="matrix(1.00, 0.00, -0.00, -1.00, 221.4, 144.0)"> </text><text xml:space="preserve" font-family="Lato-Regular" font-size="37.0" fill="#FFFFFF" transform="matrix(1.00, 0.00, -0.00, -1.00, 230.9, 144.0)">p</text><text xml:space="preserve" font-family="Lato-Regular" font-size="37.0" fill="#FFFFFF" transform="matrix(1.00, 0.00, -0.00, -1.00, 251.6, 144.0)">a</text><text xml:space="preserve" font-family="Lato-Regular" font-size="37.0" fill="#FFFFFF" transform="matrix(1.00, 0.00, -0.00, -1.00, 270.0, 144.0)">s</text><text xml:space="preserve" font-family="Lato-Regular" font-size="37.0" fill="#FFFFFF" transform="matrix(1.00, 0.00, -0.00, -1.00, 286.0, 144.0)"> </text><text xml:space="preserve" font-family="Lato-Regular" font-size="37.0" fill="#FFFFFF" transform="matrix(1.00, 0.00, -0.00, -1.00, 41.0, 99.0)">s</text><text xml:space="preserve" font-family="Lato-Regular" font-size="37.0" fill="#FFFFFF" transform="matrix(1.00, 0.00, -0.00, -1.00, 57.0, 99.0)">o</text><text xml:space="preserve" font-family="Lato-Regular" font-size="37.0" fill="#FFFFFF" transform="matrix(1.00, 0.00, -0.00, -1.00, 78.0, 99.0)">u</text><text xml:space="preserve" font-family="Lato-Regular" font-size="37.0" fill="#FFFFFF" transform="matrix(1.00, 0.00, -0.00, -1.00, 98.6, 99.0)">v</text><text xml:space="preserve" font-family="Lato-Regular" font-size="37.0" fill="#FFFFFF" transform="matrix(1.00, 0.00, -0.00, -1.00, 117.2, 99.0)">e</text><text xml:space="preserve" font-family="Lato-Regular" font-size="37.0" fill="#FFFFFF" transform="matrix(1.00, 0.00, -0.00, -1.00, 136.7, 99.0)">n</text><text xml:space="preserve" font-family="Lato-Regular" font-size="37.0" fill="#FFFFFF" transform="matrix(1.00, 0.00, -0.00, -1.00, 157.1, 99.0)">t</text><text xml:space="preserve" font-family="Lato-Regular" font-size="37.0" fill="#FFFFFF" transform="matrix(1.00, 0.00, -0.00, -1.00, 170.4, 99.0)"> </text><text xml:space="preserve" font-family="Lato-Regular" font-size="37.0" fill="#FFFFFF" transform="matrix(1.00, 0.00, -0.00, -1.00, 179.8, 99.0)">b</text><text xml:space="preserve" font-family="Lato-Regular" font-size="37.0" fill="#FFFFFF" transform="matrix(1.00, 0.00, -0.00, -1.00, 200.5, 99.0)">e</text><text xml:space="preserve" font-family="Lato-Regular" font-size="37.0" fill="#FFFFFF" transform="matrix(1.00, 0.00, -0.00, -1.00, 220.1, 99.0)">a</text><text xml:space="preserve" font-family="Lato-Regular" font-size="37.0" fill="#FFFFFF" transform="matrix(1.00, 0.00, -0.00, -1.00, 238.5, 99.0)">u</text><text xml:space="preserve" font-family="Lato-Regular" font-size="37.0" fill="#FFFFFF" transform="matrix(1.00, 0.00, -0.00, -1.00, 259.1, 99.0)"> </text><text xml:space="preserve" font-family="Lato-Regular" font-size="37.0" fill="#FFFFFF" transform="matrix(1.00, 0.00, -0.00, -1.00, 0.0, 54.0)">e</text><text xml:space="preserve" font-family="Lato-Regular" font-size="37.0" fill="#FFFFFF" transform="matrix(1.00, 0.00, -0.00, -1.00, 19.4, 54.0)">t</text><text xml:space="preserve" font-family="Lato-Regular" font-size="37.0" fill="#FFFFFF" transform="matrix(1.00, 0.00, -0.00, -1.00, 32.7, 54.0)"> </text><text xml:space="preserve" font-family="Lato-Regular" font-size="37.0" fill="#FFFFFF" transform="matrix(1.00, 0.00, -0.00, -1.00, 42.1, 54.0)">s</text><text xml:space="preserve" font-family="Lato-Regular" font-size="37.0" fill="#FFFFFF" transform="matrix(1.00, 0.00, -0.00, -1.00, 58.1, 54.0)">o</text><text xml:space="preserve" font-family="Lato-Regular" font-size="37.0" fill="#FFFFFF" transform="matrix(1.00, 0.00, -0.00, -1.00, 79.1, 54.0)">u</text><text xml:space="preserve" font-family="Lato-Regular" font-size="37.0" fill="#FFFFFF" transform="matrix(1.00, 0.00, -0.00, -1.00, 99.7, 54.0)">v</text><text xml:space="preserve" font-family="Lato-Regular" font-size="37.0" fill="#FFFFFF" transform="matrix(1.00, 0.00, -0.00, -1.00, 118.3, 54.0)">e</text><text xml:space="preserve" font-family="Lato-Regular" font-size="37.0" fill="#FFFFFF" transform="matrix(1.00, 0.00, -0.00, -1.00, 137.8, 54.0)">n</text><text xml:space="preserve" font-family="Lato-Regular" font-size="37.0" fill="#FFFFFF" transform="matrix(1.00, 0.00, -0.00, -1.00, 158.2, 54.0)">t</text><text xml:space="preserve" font-family="Lato-Regular" font-size="37.0" fill="#FFFFFF" transform="matrix(1.00, 0.00, -0.00, -1.00, 171.5, 54.0)"> </text><text xml:space="preserve" font-family="Lato-Regular" font-size="37.0" fill="#FFFFFF" transform="matrix(1.00, 0.00, -0.00, -1.00, 180.9, 54.0)">d</text><text xml:space="preserve" font-family="Lato-Regular" font-size="37.0" fill="#FFFFFF" transform="matrix(1.00, 0.00, -0.00, -1.00, 201.7, 54.0)">e</text><text xml:space="preserve" font-family="Lato-Regular" font-size="37.0" fill="#FFFFFF" transform="matrix(1.00, 0.00, -0.00, -1.00, 221.2, 54.0)">s</text><text xml:space="preserve" font-family="Lato-Regular" font-size="37.0" fill="#FFFFFF" transform="matrix(1.00, 0.00, -0.00, -1.00, 237.2, 54.0)">t</text><text xml:space="preserve" font-family="Lato-Regular" font-size="37.0" fill="#FFFFFF" transform="matrix(1.00, 0.00, -0.00, -1.00, 250.5, 54.0)">i</text><text xml:space="preserve" font-family="Lato-Regular" font-size="37.0" fill="#FFFFFF" transform="matrix(1.00, 0.00, -0.00, -1.00, 259.4, 54.0)">n</text><text xml:space="preserve" font-family="Lato-Regular" font-size="37.0" fill="#FFFFFF" transform="matrix(1.00, 0.00, -0.00, -1.00, 280.0, 54.0)">é</text><text xml:space="preserve" font-family="Lato-Regular" font-size="37.0" fill="#FFFFFF" transform="matrix(1.00, 0.00, -0.00, -1.00, 299.5, 54.0)"> </text><text xml:space="preserve" font-family="Lato-Regular" font-size="37.0" fill="#FFFFFF" transform="matrix(1.00, 0.00, -0.00, -1.00, 1.0, 9.0)">à</text><text xml:space="preserve" font-family="Lato-Regular" font-size="37.0" fill="#FFFFFF" transform="matrix(1.00, 0.00, -0.00, -1.00, 19.4, 9.0)"> </text><text xml:space="preserve" font-family="Lato-Regular" font-size="37.0" fill="#FFFFFF" transform="matrix(1.00, 0.00, -0.00, -1.00, 28.9, 9.0)">u</text><text xml:space="preserve" font-family="Lato-Regular" font-size="37.0" fill="#FFFFFF" transform="matrix(1.00, 0.00, -0.00, -1.00, 49.5, 9.0)">n</text><text xml:space="preserve" font-family="Lato-Regular" font-size="37.0" fill="#FFFFFF" transform="matrix(1.00, 0.00, -0.00, -1.00, 70.1, 9.0)"> </text><text xml:space="preserve" font-family="Lato-Regular" font-size="37.0" fill="#FFFFFF" transform="matrix(1.00, 0.00, -0.00, -1.00, 79.6, 9.0)">u</text><text xml:space="preserve" font-family="Lato-Regular" font-size="37.0" fill="#FFFFFF" transform="matrix(1.00, 0.00, -0.00, -1.00, 100.2, 9.0)">s</text><text xml:space="preserve" font-family="Lato-Regular" font-size="37.0" fill="#FFFFFF" transform="matrix(1.00, 0.00, -0.00, -1.00, 116.2, 9.0)">a</text><text xml:space="preserve" font-family="Lato-Regular" font-size="37.0" fill="#FFFFFF" transform="matrix(1.00, 0.00, -0.00, -1.00, 134.6, 9.0)">g</text><text xml:space="preserve" font-family="Lato-Regular" font-size="37.0" fill="#FFFFFF" transform="matrix(1.00, 0.00, -0.00, -1.00, 153.6, 9.0)">e</text><text xml:space="preserve" font-family="Lato-Regular" font-size="37.0" fill="#FFFFFF" transform="matrix(1.00, 0.00, -0.00, -1.00, 173.1, 9.0)"> </text><text xml:space="preserve" font-family="Lato-Regular" font-size="37.0" fill="#FFFFFF" transform="matrix(1.00, 0.00, -0.00, -1.00, 182.6, 9.0)">i</text><text xml:space="preserve" font-family="Lato-Regular" font-size="37.0" fill="#FFFFFF" transform="matrix(1.00, 0.00, -0.00, -1.00, 191.4, 9.0)">n</text><text xml:space="preserve" font-family="Lato-Regular" font-size="37.0" fill="#FFFFFF" transform="matrix(1.00, 0.00, -0.00, -1.00, 211.8, 9.0)">t</text><text xml:space="preserve" font-family="Lato-Regular" font-size="37.0" fill="#FFFFFF" transform="matrix(1.00, 0.00, -0.00, -1.00, 225.0, 9.0)">e</text><text xml:space="preserve" font-family="Lato-Regular" font-size="37.0" fill="#FFFFFF" transform="matrix(1.00, 0.00, -0.00, -1.00, 244.5, 9.0)">r</text><text xml:space="preserve" font-family="Lato-Regular" font-size="37.0" fill="#FFFFFF" transform="matrix(1.00, 0.00, -0.00, -1.00, 258.0, 9.0)">n</text><text xml:space="preserve" font-family="Lato-Regular" font-size="37.0" fill="#FFFFFF" transform="matrix(1.00, 0.00, -0.00, -1.00, 278.6, 9.0)">e</text></g></svg>