<?xml version="1.0" encoding="UTF-8" standalone="no"?><svg xmlns="http://www.w3.org/2000/svg" xmlns:xlink="http://www.w3.org/1999/xlink" clip-rule="evenodd" stroke-miterlimit="4.00" viewBox="0 0 343 39"><desc>SVG generated by Keynote</desc><defs></defs><g transform="matrix(1.00, 0.00, -0.00, -1.00, 0.0, 39.0)"><text xml:space="preserve" font-family="Avenir-Light" font-size="35.0" fill="#FEFFFF" transform="matrix(1.00, 0.00, -0.00, -1.00, -2.0, 10.0)">P</text><text xml:space="preserve" font-family="Avenir-Light" font-size="35.0" fill="#FEFFFF" transform="matrix(1.00, 0.00, -0.00, -1.00, 18.1, 10.0)">a</text><text xml:space="preserve" font-family="Avenir-Light" font-size="35.0" fill="#FEFFFF" transform="matrix(1.00, 0.00, -0.00, -1.00, 36.3, 10.0)">r</text><text xml:space="preserve" font-family="Avenir-Light" font-size="35.0" fill="#FEFFFF" transform="matrix(1.00, 0.00, -0.00, -1.00, 47.9, 10.0)">t</text><text xml:space="preserve" font-family="Avenir-Light" font-size="35.0" fill="#FEFFFF" transform="matrix(1.00, 0.00, -0.00, -1.00, 59.6, 10.0)">a</text><text xml:space="preserve" font-family="Avenir-Light" font-size="35.0" fill="#FEFFFF" transform="matrix(1.00, 0.00, -0.00, -1.00, 77.7, 10.0)">g</text><text xml:space="preserve" font-family="Avenir-Light" font-size="35.0" fill="#FEFFFF" transform="matrix(1.00, 0.00, -0.00, -1.00, 99.1, 10.0)">e</text><text xml:space="preserve" font-family="Avenir-Light" font-size="35.0" fill="#FEFFFF" transform="matrix(1.00, 0.00, -0.00, -1.00, 118.6, 10.0)"> </text><text xml:space="preserve" font-family="Avenir-Light" font-size="35.0" fill="#FEFFFF" transform="matrix(1.00, 0.00, -0.00, -1.00, 127.7, 10.0)">d</text><text xml:space="preserve" font-family="Avenir-Light" font-size="35.0" fill="#FEFFFF" transform="matrix(1.00, 0.00, -0.00, -1.00, 149.1, 10.0)">e</text><text xml:space="preserve" font-family="Avenir-Light" font-size="35.0" fill="#FEFFFF" transform="matrix(1.00, 0.00, -0.00, -1.00, 168.5, 10.0)">s</text><text xml:space="preserve" font-family="Avenir-Light" font-size="35.0" fill="#FEFFFF" transform="matrix(1.00, 0.00, -0.00, -1.00, 183.4, 10.0)"> </text><text xml:space="preserve" font-family="Avenir-Light" font-size="35.0" fill="#FEFFFF" transform="matrix(1.00, 0.00, -0.00, -1.00, 192.5, 10.0)">b</text><text xml:space="preserve" font-family="Avenir-Light" font-size="35.0" fill="#FEFFFF" transform="matrix(1.00, 0.00, -0.00, -1.00, 213.9, 10.0)">é</text><text xml:space="preserve" font-family="Avenir-Light" font-size="35.0" fill="#FEFFFF" transform="matrix(1.00, 0.00, -0.00, -1.00, 233.4, 10.0)">n</text><text xml:space="preserve" font-family="Avenir-Light" font-size="35.0" fill="#FEFFFF" transform="matrix(1.00, 0.00, -0.00, -1.00, 252.8, 10.0)">é</text><text xml:space="preserve" font-family="Avenir-Light" font-size="35.0" fill="#FEFFFF" transform="matrix(1.00, 0.00, -0.00, -1.00, 272.3, 10.0)">f</text><text xml:space="preserve" font-family="Avenir-Light" font-size="35.0" fill="#FEFFFF" transform="matrix(1.00, 0.00, -0.00, -1.00, 282.7, 10.0)">i</text><text xml:space="preserve" font-family="Avenir-Light" font-size="35.0" fill="#FEFFFF" transform="matrix(1.00, 0.00, -0.00, -1.00, 291.1, 10.0)">c</text><text xml:space="preserve" font-family="Avenir-Light" font-size="35.0" fill="#FEFFFF" transform="matrix(1.00, 0.00, -0.00, -1.00, 307.9, 10.0)">e</text><text xml:space="preserve" font-family="Avenir-Light" font-size="35.0" fill="#FEFFFF" transform="matrix(1.00, 0.00, -0.00, -1.00, 327.3, 10.0)">s</text></g></svg>