<?xml version="1.0" encoding="UTF-8" standalone="no"?><svg xmlns="http://www.w3.org/2000/svg" xmlns:xlink="http://www.w3.org/1999/xlink" clip-rule="evenodd" stroke-miterlimit="4.00" viewBox="0 0 1024 768"><desc>SVG generated by Keynote</desc><defs></defs><g transform="matrix(1.00, 0.00, -0.00, -1.00, 0.0, 768.0)"><path d="M 0.0 768.0 L 1024.0 768.0 L 1024.0 0.0 L 0.0 0.0 Z M 0.0 768.0 " fill="#000000"></path><g><clipPath id="clip-549"><path d="M 512.0 768.0 L 1024.0 768.0 L 1024.0 0.0 L 512.0 0.0 Z M 512.0 768.0 "></path></clipPath><g clip-path="url(#clip-549)"><image xlink:href="../../22BC393C-B913-462A-9C79-1A0EA83E9FD3/assets/447BD57C685DAAF71EA7A4072A68B1F7.png" width="593.00" height="768.00" transform="matrix(1.00, 0.00, -0.00, -1.00, 472.0, 768.0)"></image></g></g><text xml:space="preserve" font-family="Avenir-Light" font-size="45.0" fill="#FEFFFF" transform="matrix(1.00, 0.00, -0.00, -1.00, 56.0, 671.0)">F</text><text xml:space="preserve" font-family="Avenir-Light" font-size="45.0" fill="#FEFFFF" transform="matrix(1.00, 0.00, -0.00, -1.00, 88.2, 671.0)">I</text><text xml:space="preserve" font-family="Avenir-Light" font-size="45.0" fill="#FEFFFF" transform="matrix(1.00, 0.00, -0.00, -1.00, 107.1, 671.0)">N</text><text xml:space="preserve" font-family="Avenir-Light" font-size="45.0" fill="#FEFFFF" transform="matrix(1.00, 0.00, -0.00, -1.00, 149.3, 671.0)">A</text><text xml:space="preserve" font-family="Avenir-Light" font-size="45.0" fill="#FEFFFF" transform="matrix(1.00, 0.00, -0.00, -1.00, 187.4, 671.0)">N</text><text xml:space="preserve" font-family="Avenir-Light" font-size="45.0" fill="#FEFFFF" transform="matrix(1.00, 0.00, -0.00, -1.00, 229.6, 671.0)">C</text><text xml:space="preserve" font-family="Avenir-Light" font-size="45.0" fill="#FEFFFF" transform="matrix(1.00, 0.00, -0.00, -1.00, 268.4, 671.0)">E</text><text xml:space="preserve" font-family="Avenir-Light" font-size="45.0" fill="#FEFFFF" transform="matrix(1.00, 0.00, -0.00, -1.00, 302.3, 671.0)">M</text><text xml:space="preserve" font-family="Avenir-Light" font-size="45.0" fill="#FEFFFF" transform="matrix(1.00, 0.00, -0.00, -1.00, 349.5, 671.0)">E</text><text xml:space="preserve" font-family="Avenir-Light" font-size="45.0" fill="#FEFFFF" transform="matrix(1.00, 0.00, -0.00, -1.00, 383.4, 671.0)">N</text><text xml:space="preserve" font-family="Avenir-Light" font-size="45.0" fill="#FEFFFF" transform="matrix(1.00, 0.00, -0.00, -1.00, 425.6, 671.0)">T</text><text xml:space="preserve" font-family="Avenir-Light" font-size="35.0" fill="#FEFFFF" transform="matrix(1.00, 0.00, -0.00, -1.00, 22.0, 463.0)">P</text><text xml:space="preserve" font-family="Avenir-Light" font-size="35.0" fill="#FEFFFF" transform="matrix(1.00, 0.00, -0.00, -1.00, 42.1, 463.0)">a</text><text xml:space="preserve" font-family="Avenir-Light" font-size="35.0" fill="#FEFFFF" transform="matrix(1.00, 0.00, -0.00, -1.00, 60.3, 463.0)">r</text><text xml:space="preserve" font-family="Avenir-Light" font-size="35.0" fill="#FEFFFF" transform="matrix(1.00, 0.00, -0.00, -1.00, 71.9, 463.0)">t</text><text xml:space="preserve" font-family="Avenir-Light" font-size="35.0" fill="#FEFFFF" transform="matrix(1.00, 0.00, -0.00, -1.00, 83.6, 463.0)">a</text><text xml:space="preserve" font-family="Avenir-Light" font-size="35.0" fill="#FEFFFF" transform="matrix(1.00, 0.00, -0.00, -1.00, 101.7, 463.0)">g</text><text xml:space="preserve" font-family="Avenir-Light" font-size="35.0" fill="#FEFFFF" transform="matrix(1.00, 0.00, -0.00, -1.00, 123.1, 463.0)">e</text><text xml:space="preserve" font-family="Avenir-Light" font-size="35.0" fill="#FEFFFF" transform="matrix(1.00, 0.00, -0.00, -1.00, 142.6, 463.0)"> </text><text xml:space="preserve" font-family="Avenir-Light" font-size="35.0" fill="#FEFFFF" transform="matrix(1.00, 0.00, -0.00, -1.00, 151.7, 463.0)">d</text><text xml:space="preserve" font-family="Avenir-Light" font-size="35.0" fill="#FEFFFF" transform="matrix(1.00, 0.00, -0.00, -1.00, 173.1, 463.0)">e</text><text xml:space="preserve" font-family="Avenir-Light" font-size="35.0" fill="#FEFFFF" transform="matrix(1.00, 0.00, -0.00, -1.00, 192.5, 463.0)">s</text><text xml:space="preserve" font-family="Avenir-Light" font-size="35.0" fill="#FEFFFF" transform="matrix(1.00, 0.00, -0.00, -1.00, 207.4, 463.0)"> </text><text xml:space="preserve" font-family="Avenir-Light" font-size="35.0" fill="#FEFFFF" transform="matrix(1.00, 0.00, -0.00, -1.00, 216.5, 463.0)">b</text><text xml:space="preserve" font-family="Avenir-Light" font-size="35.0" fill="#FEFFFF" transform="matrix(1.00, 0.00, -0.00, -1.00, 237.9, 463.0)">é</text><text xml:space="preserve" font-family="Avenir-Light" font-size="35.0" fill="#FEFFFF" transform="matrix(1.00, 0.00, -0.00, -1.00, 257.4, 463.0)">n</text><text xml:space="preserve" font-family="Avenir-Light" font-size="35.0" fill="#FEFFFF" transform="matrix(1.00, 0.00, -0.00, -1.00, 276.8, 463.0)">é</text><text xml:space="preserve" font-family="Avenir-Light" font-size="35.0" fill="#FEFFFF" transform="matrix(1.00, 0.00, -0.00, -1.00, 296.3, 463.0)">f</text><text xml:space="preserve" font-family="Avenir-Light" font-size="35.0" fill="#FEFFFF" transform="matrix(1.00, 0.00, -0.00, -1.00, 306.7, 463.0)">i</text><text xml:space="preserve" font-family="Avenir-Light" font-size="35.0" fill="#FEFFFF" transform="matrix(1.00, 0.00, -0.00, -1.00, 315.1, 463.0)">c</text><text xml:space="preserve" font-family="Avenir-Light" font-size="35.0" fill="#FEFFFF" transform="matrix(1.00, 0.00, -0.00, -1.00, 331.9, 463.0)">e</text><text xml:space="preserve" font-family="Avenir-Light" font-size="35.0" fill="#FEFFFF" transform="matrix(1.00, 0.00, -0.00, -1.00, 351.3, 463.0)">s</text><text xml:space="preserve" font-family="Avenir-Light" font-size="35.0" fill="#FEFFFF" transform="matrix(1.00, 0.00, -0.00, -1.00, 22.0, 383.0)">I</text><text xml:space="preserve" font-family="Avenir-Light" font-size="35.0" fill="#FEFFFF" transform="matrix(1.00, 0.00, -0.00, -1.00, 31.1, 383.0)">n</text><text xml:space="preserve" font-family="Avenir-Light" font-size="35.0" fill="#FEFFFF" transform="matrix(1.00, 0.00, -0.00, -1.00, 50.6, 383.0)">c</text><text xml:space="preserve" font-family="Avenir-Light" font-size="35.0" fill="#FEFFFF" transform="matrix(1.00, 0.00, -0.00, -1.00, 67.4, 383.0)">u</text><text xml:space="preserve" font-family="Avenir-Light" font-size="35.0" fill="#FEFFFF" transform="matrix(1.00, 0.00, -0.00, -1.00, 86.9, 383.0)">b</text><text xml:space="preserve" font-family="Avenir-Light" font-size="35.0" fill="#FEFFFF" transform="matrix(1.00, 0.00, -0.00, -1.00, 108.2, 383.0)">a</text><text xml:space="preserve" font-family="Avenir-Light" font-size="35.0" fill="#FEFFFF" transform="matrix(1.00, 0.00, -0.00, -1.00, 126.4, 383.0)">t</text><text xml:space="preserve" font-family="Avenir-Light" font-size="35.0" fill="#FEFFFF" transform="matrix(1.00, 0.00, -0.00, -1.00, 138.1, 383.0)">i</text><text xml:space="preserve" font-family="Avenir-Light" font-size="35.0" fill="#FEFFFF" transform="matrix(1.00, 0.00, -0.00, -1.00, 146.5, 383.0)">o</text><text xml:space="preserve" font-family="Avenir-Light" font-size="35.0" fill="#FEFFFF" transform="matrix(1.00, 0.00, -0.00, -1.00, 167.3, 383.0)">n</text><text xml:space="preserve" font-family="Avenir-Light" font-size="35.0" fill="#FEFFFF" transform="matrix(1.00, 0.00, -0.00, -1.00, 22.0, 303.0)">R</text><text xml:space="preserve" font-family="Avenir-Light" font-size="35.0" fill="#FEFFFF" transform="matrix(1.00, 0.00, -0.00, -1.00, 42.8, 303.0)">&amp;</text><text xml:space="preserve" font-family="Avenir-Light" font-size="35.0" fill="#FEFFFF" transform="matrix(1.00, 0.00, -0.00, -1.00, 67.4, 303.0)">D</text><text xml:space="preserve" font-family="Avenir-Light" font-size="35.0" fill="#FEFFFF" transform="matrix(1.00, 0.00, -0.00, -1.00, 93.3, 303.0)"> </text><text xml:space="preserve" font-family="Avenir-Light" font-size="35.0" fill="#FEFFFF" transform="matrix(1.00, 0.00, -0.00, -1.00, 102.4, 303.0)">/</text><text xml:space="preserve" font-family="Avenir-Light" font-size="35.0" fill="#FEFFFF" transform="matrix(1.00, 0.00, -0.00, -1.00, 115.4, 303.0)"> </text><text xml:space="preserve" font-family="Avenir-Light" font-size="35.0" fill="#FEFFFF" transform="matrix(1.00, 0.00, -0.00, -1.00, 124.5, 303.0)">O</text><text xml:space="preserve" font-family="Avenir-Light" font-size="35.0" fill="#FEFFFF" transform="matrix(1.00, 0.00, -0.00, -1.00, 153.7, 303.0)">p</text><text xml:space="preserve" font-family="Avenir-Light" font-size="35.0" fill="#FEFFFF" transform="matrix(1.00, 0.00, -0.00, -1.00, 175.1, 303.0)">e</text><text xml:space="preserve" font-family="Avenir-Light" font-size="35.0" fill="#FEFFFF" transform="matrix(1.00, 0.00, -0.00, -1.00, 194.5, 303.0)">n</text><text xml:space="preserve" font-family="Avenir-Light" font-size="35.0" fill="#FEFFFF" transform="matrix(1.00, 0.00, -0.00, -1.00, 214.0, 303.0)"> </text><text xml:space="preserve" font-family="Avenir-Light" font-size="35.0" fill="#FEFFFF" transform="matrix(1.00, 0.00, -0.00, -1.00, 223.1, 303.0)">S</text><text xml:space="preserve" font-family="Avenir-Light" font-size="35.0" fill="#FEFFFF" transform="matrix(1.00, 0.00, -0.00, -1.00, 242.5, 303.0)">o</text><text xml:space="preserve" font-family="Avenir-Light" font-size="35.0" fill="#FEFFFF" transform="matrix(1.00, 0.00, -0.00, -1.00, 263.3, 303.0)">u</text><text xml:space="preserve" font-family="Avenir-Light" font-size="35.0" fill="#FEFFFF" transform="matrix(1.00, 0.00, -0.00, -1.00, 282.8, 303.0)">r</text><text xml:space="preserve" font-family="Avenir-Light" font-size="35.0" fill="#FEFFFF" transform="matrix(1.00, 0.00, -0.00, -1.00, 293.8, 303.0)">c</text><text xml:space="preserve" font-family="Avenir-Light" font-size="35.0" fill="#FEFFFF" transform="matrix(1.00, 0.00, -0.00, -1.00, 310.6, 303.0)">e</text><text xml:space="preserve" font-family="Avenir-Light" font-size="35.0" fill="#FEFFFF" transform="matrix(1.00, 0.00, -0.00, -1.00, 22.0, 223.0)">F</text><text xml:space="preserve" font-family="Avenir-Light" font-size="35.0" fill="#FEFFFF" transform="matrix(1.00, 0.00, -0.00, -1.00, 41.5, 223.0)">o</text><text xml:space="preserve" font-family="Avenir-Light" font-size="35.0" fill="#FEFFFF" transform="matrix(1.00, 0.00, -0.00, -1.00, 62.2, 223.0)">n</text><text xml:space="preserve" font-family="Avenir-Light" font-size="35.0" fill="#FEFFFF" transform="matrix(1.00, 0.00, -0.00, -1.00, 81.7, 223.0)">d</text><text xml:space="preserve" font-family="Avenir-Light" font-size="35.0" fill="#FEFFFF" transform="matrix(1.00, 0.00, -0.00, -1.00, 103.1, 223.0)">a</text><text xml:space="preserve" font-family="Avenir-Light" font-size="35.0" fill="#FEFFFF" transform="matrix(1.00, 0.00, -0.00, -1.00, 121.3, 223.0)">t</text><text xml:space="preserve" font-family="Avenir-Light" font-size="35.0" fill="#FEFFFF" transform="matrix(1.00, 0.00, -0.00, -1.00, 132.9, 223.0)">i</text><text xml:space="preserve" font-family="Avenir-Light" font-size="35.0" fill="#FEFFFF" transform="matrix(1.00, 0.00, -0.00, -1.00, 141.4, 223.0)">o</text><text xml:space="preserve" font-family="Avenir-Light" font-size="35.0" fill="#FEFFFF" transform="matrix(1.00, 0.00, -0.00, -1.00, 162.1, 223.0)">n</text></g></svg>