<?xml version="1.0" encoding="UTF-8" standalone="no"?><svg xmlns="http://www.w3.org/2000/svg" xmlns:xlink="http://www.w3.org/1999/xlink" clip-rule="evenodd" stroke-miterlimit="4.00" viewBox="0 0 419 78"><desc>SVG generated by Keynote</desc><defs></defs><g transform="matrix(1.00, 0.00, -0.00, -1.00, 0.0, 78.0)"><text xml:space="preserve" font-family="Lato-Hairline" font-size="84.0" fill="#FFFFFF" transform="matrix(1.00, 0.00, -0.00, -1.00, -6.0, 16.0)">n</text><text xml:space="preserve" font-family="Lato-Hairline" font-size="84.0" fill="#FFFFFF" transform="matrix(1.00, 0.00, -0.00, -1.00, 39.6, 16.0)">u</text><text xml:space="preserve" font-family="Lato-Hairline" font-size="84.0" fill="#FFFFFF" transform="matrix(1.00, 0.00, -0.00, -1.00, 85.1, 16.0)">m</text><text xml:space="preserve" font-family="Lato-Hairline" font-size="84.0" fill="#FFFFFF" transform="matrix(1.00, 0.00, -0.00, -1.00, 151.4, 16.0)">é</text><text xml:space="preserve" font-family="Lato-Hairline" font-size="84.0" fill="#FFFFFF" transform="matrix(1.00, 0.00, -0.00, -1.00, 194.7, 16.0)">r</text><text xml:space="preserve" font-family="Lato-Hairline" font-size="84.0" fill="#FFFFFF" transform="matrix(1.00, 0.00, -0.00, -1.00, 223.6, 16.0)">i</text><text xml:space="preserve" font-family="Lato-Hairline" font-size="84.0" fill="#FFFFFF" transform="matrix(1.00, 0.00, -0.00, -1.00, 241.0, 16.0)">q</text><text xml:space="preserve" font-family="Lato-Hairline" font-size="84.0" fill="#FFFFFF" transform="matrix(1.00, 0.00, -0.00, -1.00, 286.6, 16.0)">u</text><text xml:space="preserve" font-family="Lato-Hairline" font-size="84.0" fill="#FFFFFF" transform="matrix(1.00, 0.00, -0.00, -1.00, 332.1, 16.0)">e</text><text xml:space="preserve" font-family="Lato-Hairline" font-size="84.0" fill="#FFFFFF" transform="matrix(1.00, 0.00, -0.00, -1.00, 375.4, 16.0)">&gt;</text></g></svg>