<?xml version="1.0" encoding="UTF-8" standalone="no"?><svg xmlns="http://www.w3.org/2000/svg" xmlns:xlink="http://www.w3.org/1999/xlink" clip-rule="evenodd" stroke-miterlimit="4.00" viewBox="0 0 208 216"><desc>SVG generated by Keynote</desc><defs><linearGradient id="gradSh1.2" x1="0.0" y1="0.0" x2="1.0" y2="0.0" gradientUnits="userSpaceOnUse" gradientTransform="matrix(-107.28, 1.82, -3.62, -212.00, 109.9, 106.4)"><stop offset="0.00000" stop-color="#000000"></stop><stop offset="0.51320" stop-color="#010000"></stop><stop offset="0.51466" stop-color="#010101"></stop><stop offset="0.51979" stop-color="#020101"></stop><stop offset="0.52273" stop-color="#020201"></stop><stop offset="0.52419" stop-color="#020202"></stop><stop offset="0.52639" stop-color="#030202"></stop><stop offset="0.53959" stop-color="#050403"></stop><stop offset="0.54179" stop-color="#050404"></stop><stop offset="0.54472" stop-color="#060404"></stop><stop offset="0.57258" stop-color="#0A0807"></stop><stop offset="0.57625" stop-color="#0B0807"></stop><stop offset="0.57771" stop-color="#0B0808"></stop><stop offset="0.58065" stop-color="#0B0908"></stop><stop offset="0.60777" stop-color="#100C0B"></stop><stop offset="0.61510" stop-color="#110D0C"></stop><stop offset="0.63930" stop-color="#15100E"></stop><stop offset="0.64150" stop-color="#15100F"></stop><stop offset="0.69941" stop-color="#201917"></stop><stop offset="0.70088" stop-color="#201918"></stop><stop offset="0.71408" stop-color="#26201E"></stop><stop offset="0.71701" stop-color="#27211F"></stop><stop offset="0.71848" stop-color="#272220"></stop><stop offset="0.71921" stop-color="#282220"></stop><stop offset="0.78299" stop-color="#42403E"></stop><stop offset="0.78446" stop-color="#43403F"></stop><stop offset="0.87757" stop-color="#80807A"></stop><stop offset="0.87830" stop-color="#80807B"></stop><stop offset="1.00000" stop-color="#FFFFFF"></stop></linearGradient></defs><g transform="matrix(1.00, 0.00, -0.00, -1.00, 0.0, 216.0)"><g><clipPath id="clip-589"><path d="M 16.2 214.0 C 9.7 214.0 4.4 208.8 4.2 202.3 L 4.2 202.3 L 1.0 14.2 C 1.0 14.1 1.0 14.1 1.0 14.0 L 1.0 14.0 L 1.0 13.9 C 1.0 13.4 1.0 13.0 1.1 12.6 L 1.1 12.6 C 1.8 6.0 7.8 1.3 14.3 2.1 L 14.3 2.1 C 67.4 7.7 109.0 51.7 109.9 106.2 L 109.9 106.2 C 110.8 160.7 70.8 206.2 18.0 213.9 L 18.0 213.9 C 17.5 213.9 17.1 214.0 16.6 214.0 L 16.6 214.0 C 16.5 214.0 16.5 214.0 16.4 214.0 L 16.4 214.0 Z M 16.2 214.0 "></path></clipPath><g clip-path="url(#clip-589)"><g><clipPath id="clip-590"><path d="M 1.0 2.0 L 207.0 2.0 L 207.0 214.0 L 1.0 214.0 Z M 1.0 2.0 "></path></clipPath><g clip-path="url(#clip-590)"><path d="M 1.0 2.0 L 207.0 2.0 L 207.0 214.0 L 1.0 214.0 Z M 1.0 2.0 " fill="url(#gradSh1.2)"></path></g></g></g></g><g><clipPath id="clip-591"><path d="M 1.0 214.0 L 207.0 214.0 L 207.0 2.0 L 1.0 2.0 Z M 1.0 214.0 "></path></clipPath><g clip-path="url(#clip-591)"><g><clipPath id="clip-592"><path d="M 1.0 2.0 L 207.0 2.0 L 207.0 214.0 L 1.0 214.0 Z M 1.0 2.0 "></path></clipPath><g clip-path="url(#clip-592)"><g><g><clipPath id="clip-593"><path d="M 3.9 61.8 L 207.0 61.8 L 207.0 141.9 L 3.9 141.9 Z M 3.9 61.8 "></path></clipPath><g clip-path="url(#clip-593)"><g><g><clipPath id="clip-594"><path d="M 3.9 61.8 L 207.0 61.8 L 207.0 141.9 L 3.9 141.9 Z M 3.9 61.8 "></path></clipPath><g clip-path="url(#clip-594)"><text xml:space="preserve" font-family="Lato-Hairline" font-size="72.3" fill="#F5A520" transform="matrix(1.00, 0.00, -0.00, -1.00, 3.9, 80.5)">C</text><text xml:space="preserve" font-family="Lato-Hairline" font-size="72.3" fill="#F5A520" transform="matrix(1.00, 0.00, -0.00, -1.00, 52.8, 80.5)">O</text><text xml:space="preserve" font-family="Lato-Hairline" font-size="72.3" fill="#F5A520" transform="matrix(1.00, 0.00, -0.00, -1.00, 109.6, 80.5)">D</text><text xml:space="preserve" font-family="Lato-Hairline" font-size="72.3" fill="#F5A520" transform="matrix(1.00, 0.00, -0.00, -1.00, 164.7, 80.5)">E</text></g></g></g></g></g></g><path d="M 17.5 63.3 C 17.6 65.3 19.2 66.8 21.2 66.8 C 21.4 66.7 21.6 66.7 21.8 66.7 C 35.7 64.6 46.3 53.1 46.2 39.5 C 46.2 25.8 35.4 14.5 21.4 12.7 C 19.5 12.4 17.6 13.7 17.3 15.7 C 17.3 15.9 17.3 16.1 17.3 16.3 Z M 17.5 63.3 " fill="#F5A520"></path><path d="M 87.8 64.1 L 81.0 44.4 L 80.8 44.4 C 80.7 44.4 80.6 44.5 80.6 44.6 L 74.2 62.9 C 74.2 63.1 74.1 63.3 74.1 63.5 C 74.0 63.3 74.0 63.1 73.9 62.9 L 67.5 44.6 C 67.4 44.5 67.4 44.4 67.3 44.4 L 67.1 44.4 L 60.3 64.1 L 60.6 64.1 C 60.7 64.1 60.8 64.0 60.8 64.0 C 60.9 63.9 60.9 63.9 61.0 63.8 L 67.0 45.8 C 67.0 45.6 67.1 45.5 67.1 45.4 C 67.2 45.2 67.2 45.1 67.3 44.9 C 67.3 45.1 67.3 45.2 67.4 45.4 C 67.4 45.5 67.5 45.6 67.5 45.8 L 73.8 64.0 C 73.8 64.1 73.9 64.2 74.0 64.2 L 74.1 64.2 C 74.2 64.2 74.3 64.1 74.3 64.0 L 80.6 45.8 C 80.7 45.5 80.8 45.2 80.8 45.0 C 80.8 45.1 80.9 45.2 80.9 45.4 C 81.0 45.5 81.0 45.6 81.1 45.8 L 87.1 63.8 C 87.2 64.0 87.3 64.1 87.5 64.1 Z M 87.8 64.1 " fill="#F5A520"></path><path d="M 93.3 58.3 C 93.5 59.3 93.9 60.1 94.3 60.9 C 94.7 61.6 95.1 62.3 95.7 62.8 C 96.2 63.3 96.8 63.7 97.5 64.0 C 98.3 64.3 99.1 64.4 100.0 64.4 C 100.3 64.4 100.7 64.4 101.1 64.3 C 101.6 64.2 101.9 64.1 102.2 63.9 L 102.2 63.8 C 102.1 63.7 102.1 63.7 102.1 63.7 C 102.1 63.6 102.0 63.6 102.0 63.6 C 101.9 63.6 101.8 63.6 101.7 63.7 C 101.6 63.7 101.5 63.7 101.3 63.8 C 101.2 63.8 101.0 63.9 100.7 63.9 C 100.5 63.9 100.3 63.9 100.0 63.9 C 99.1 63.9 98.3 63.8 97.6 63.5 C 96.9 63.2 96.3 62.8 95.8 62.3 C 95.2 61.7 94.8 61.0 94.4 60.2 C 94.0 59.4 93.6 58.4 93.3 57.3 L 93.3 44.4 L 92.8 44.4 L 92.8 64.1 L 92.9 64.1 C 93.1 64.1 93.2 64.0 93.2 63.7 Z M 93.3 58.3 " fill="#F5A520"></path><path d="M 107.4 44.4 L 106.9 44.4 L 106.9 64.1 L 107.4 64.1 Z M 108.2 71.4 C 108.2 71.1 108.1 70.8 107.9 70.6 C 107.7 70.4 107.4 70.3 107.1 70.3 C 106.8 70.3 106.5 70.4 106.3 70.6 C 106.1 70.8 106.0 71.1 106.0 71.4 C 106.0 71.7 106.1 71.9 106.3 72.2 C 106.5 72.4 106.8 72.5 107.1 72.5 C 107.4 72.5 107.7 72.4 107.9 72.2 C 108.1 71.9 108.2 71.7 108.2 71.4 " fill="#F5A520"></path><path d="M 119.8 44.1 C 118.7 44.1 117.8 44.4 117.1 45.0 C 116.4 45.7 116.1 46.7 116.1 48.2 L 116.1 62.8 L 112.9 62.8 C 112.7 62.8 112.6 62.9 112.6 63.0 L 112.6 63.1 L 116.1 63.2 L 116.3 71.1 C 116.3 71.2 116.3 71.3 116.3 71.3 C 116.4 71.4 116.4 71.4 116.5 71.4 L 116.6 71.4 L 116.6 63.2 L 123.3 63.2 L 123.3 62.8 L 116.6 62.8 L 116.6 48.2 C 116.6 47.5 116.7 46.9 116.8 46.5 C 117.0 46.0 117.2 45.6 117.5 45.3 C 117.8 45.0 118.2 44.8 118.6 44.7 C 119.0 44.6 119.4 44.5 119.8 44.5 C 120.4 44.5 120.9 44.6 121.3 44.8 C 121.7 44.9 122.1 45.1 122.4 45.3 C 122.7 45.5 122.9 45.7 123.1 45.9 C 123.3 46.1 123.4 46.1 123.5 46.1 C 123.5 46.1 123.6 46.1 123.6 46.1 L 123.7 46.0 C 123.5 45.7 123.3 45.5 123.0 45.2 C 122.7 45.0 122.4 44.8 122.0 44.6 C 121.7 44.5 121.3 44.3 121.0 44.2 C 120.6 44.2 120.2 44.1 119.8 44.1 " fill="#F5A520"></path><path d="M 142.6 56.1 C 142.6 57.4 142.5 58.5 142.1 59.5 C 141.7 60.4 141.2 61.3 140.6 61.9 C 140.0 62.6 139.2 63.1 138.4 63.5 C 137.5 63.8 136.6 64.0 135.6 64.0 C 134.4 64.0 133.4 63.8 132.4 63.4 C 131.5 63.1 130.6 62.5 130.0 61.8 C 129.3 61.1 128.7 60.3 128.3 59.3 C 127.9 58.4 127.6 57.3 127.5 56.1 Z M 142.5 46.7 C 142.3 46.5 142.0 46.2 141.5 45.9 C 141.1 45.6 140.5 45.3 139.9 45.0 C 139.3 44.8 138.6 44.6 137.9 44.4 C 137.2 44.3 136.4 44.2 135.7 44.2 C 134.3 44.2 133.1 44.4 132.0 44.9 C 131.0 45.4 130.1 46.1 129.3 47.0 C 128.6 47.8 128.0 48.9 127.6 50.2 C 127.2 51.5 127.0 53.0 127.0 54.6 C 127.0 56.1 127.2 57.4 127.6 58.6 C 128.0 59.8 128.5 60.8 129.3 61.7 C 130.0 62.5 130.9 63.2 132.0 63.7 C 133.0 64.2 134.2 64.4 135.6 64.4 C 136.6 64.4 137.6 64.2 138.5 63.8 C 139.4 63.5 140.2 62.9 140.9 62.2 C 141.6 61.5 142.1 60.6 142.5 59.5 C 142.9 58.5 143.1 57.3 143.1 55.9 C 143.1 55.9 143.1 55.8 143.0 55.8 C 143.0 55.7 142.9 55.7 142.8 55.7 L 127.5 55.7 C 127.5 55.5 127.5 55.4 127.5 55.2 C 127.5 55.0 127.5 54.8 127.5 54.6 C 127.5 53.0 127.7 51.6 128.1 50.3 C 128.4 49.1 129.0 48.0 129.7 47.2 C 130.4 46.3 131.3 45.7 132.3 45.2 C 133.3 44.8 134.4 44.6 135.7 44.6 C 136.8 44.6 137.7 44.7 138.5 44.9 C 139.3 45.2 140.0 45.5 140.6 45.7 C 141.1 46.0 141.5 46.3 141.8 46.5 C 142.1 46.8 142.2 46.9 142.3 46.9 C 142.3 46.9 142.4 46.9 142.4 46.8 Z M 142.5 46.7 " fill="#F5A520"></path><path d="M 76.7 35.0 C 76.3 35.6 75.8 36.2 75.3 36.7 C 74.9 37.2 74.4 37.6 73.8 37.9 C 73.3 38.2 72.7 38.4 72.1 38.5 C 71.5 38.6 70.8 38.7 70.1 38.7 C 68.8 38.7 67.6 38.5 66.5 38.0 C 65.5 37.5 64.7 36.8 64.0 35.9 C 63.3 35.0 62.8 34.0 62.5 32.8 C 62.1 31.6 62.0 30.3 62.0 28.9 C 62.0 25.7 62.6 23.2 63.8 21.7 C 65.1 20.1 66.9 19.3 69.4 19.3 C 70.8 19.3 72.2 19.7 73.4 20.5 C 74.7 21.3 75.8 22.5 76.7 23.9 Z M 77.2 48.0 L 77.2 19.1 L 77.1 19.1 C 76.9 19.1 76.8 19.3 76.8 19.5 L 76.7 23.3 C 75.8 21.9 74.7 20.9 73.5 20.1 C 72.2 19.3 70.9 18.9 69.4 18.9 C 66.8 18.9 64.9 19.7 63.5 21.4 C 62.2 23.0 61.5 25.5 61.5 28.9 C 61.5 30.3 61.7 31.7 62.0 32.9 C 62.4 34.2 62.9 35.2 63.7 36.2 C 64.4 37.1 65.3 37.8 66.4 38.3 C 67.4 38.8 68.7 39.1 70.1 39.1 C 73.0 39.1 75.2 37.9 76.7 35.6 L 76.7 48.0 Z M 77.2 48.0 " fill="#F5A520"></path><path d="M 99.0 30.8 C 99.0 32.1 98.8 33.2 98.5 34.2 C 98.1 35.2 97.6 36.0 97.0 36.7 C 96.3 37.3 95.6 37.8 94.7 38.2 C 93.9 38.5 92.9 38.7 92.0 38.7 C 90.8 38.7 89.7 38.5 88.8 38.1 C 87.8 37.8 87.0 37.2 86.3 36.5 C 85.6 35.8 85.1 35.0 84.7 34.0 C 84.3 33.1 84.0 32.0 83.9 30.8 Z M 98.9 21.5 C 98.7 21.2 98.3 20.9 97.9 20.6 C 97.4 20.3 96.9 20.0 96.3 19.8 C 95.7 19.5 95.0 19.3 94.3 19.1 C 93.5 19.0 92.8 18.9 92.0 18.9 C 90.7 18.9 89.5 19.1 88.4 19.6 C 87.3 20.1 86.4 20.8 85.7 21.7 C 84.9 22.6 84.3 23.7 83.9 25.0 C 83.5 26.3 83.3 27.7 83.3 29.4 C 83.3 30.8 83.5 32.1 83.9 33.3 C 84.3 34.5 84.9 35.5 85.6 36.4 C 86.4 37.3 87.3 37.9 88.3 38.4 C 89.4 38.9 90.6 39.1 92.0 39.1 C 93.0 39.1 94.0 38.9 94.9 38.6 C 95.8 38.2 96.6 37.6 97.3 36.9 C 97.9 36.2 98.5 35.3 98.9 34.3 C 99.3 33.2 99.4 32.0 99.4 30.6 C 99.4 30.6 99.4 30.5 99.4 30.5 C 99.3 30.5 99.3 30.4 99.2 30.4 L 83.9 30.4 C 83.9 30.3 83.8 30.1 83.8 29.9 C 83.8 29.7 83.8 29.6 83.8 29.4 C 83.8 27.7 84.0 26.3 84.4 25.0 C 84.8 23.8 85.4 22.7 86.1 21.9 C 86.8 21.1 87.7 20.4 88.7 20.0 C 89.7 19.5 90.8 19.3 92.0 19.3 C 93.1 19.3 94.1 19.4 94.9 19.7 C 95.7 19.9 96.4 20.2 96.9 20.5 C 97.4 20.8 97.9 21.0 98.1 21.3 C 98.4 21.5 98.6 21.6 98.6 21.6 C 98.7 21.6 98.7 21.6 98.8 21.6 Z M 98.9 21.5 " fill="#F5A520"></path><path d="M 115.6 37.1 C 115.6 37.0 115.5 36.9 115.4 36.9 C 115.3 36.9 115.1 37.0 114.9 37.2 C 114.7 37.4 114.4 37.6 114.0 37.8 C 113.6 38.0 113.1 38.2 112.5 38.4 C 111.9 38.6 111.2 38.7 110.3 38.7 C 109.4 38.7 108.7 38.6 108.0 38.3 C 107.3 38.1 106.7 37.7 106.2 37.3 C 105.7 36.9 105.3 36.4 105.1 35.9 C 104.8 35.3 104.6 34.7 104.6 34.1 C 104.6 33.4 104.8 32.8 105.1 32.4 C 105.5 31.9 105.9 31.5 106.5 31.2 C 107.0 30.8 107.6 30.6 108.3 30.3 C 109.0 30.1 109.7 29.9 110.5 29.7 C 111.2 29.4 111.9 29.2 112.6 29.0 C 113.3 28.7 113.9 28.4 114.5 28.0 C 115.0 27.6 115.4 27.2 115.8 26.7 C 116.1 26.1 116.3 25.4 116.3 24.6 C 116.3 23.8 116.1 23.1 115.8 22.4 C 115.6 21.7 115.1 21.0 114.6 20.5 C 114.0 20.0 113.4 19.6 112.6 19.3 C 111.8 19.0 110.9 18.8 109.8 18.8 C 109.1 18.8 108.5 18.9 107.9 19.0 C 107.4 19.1 106.8 19.3 106.4 19.5 C 105.9 19.7 105.5 19.9 105.0 20.2 C 104.6 20.5 104.2 20.8 103.8 21.2 L 103.9 21.3 C 104.0 21.3 104.0 21.4 104.0 21.4 C 104.1 21.4 104.1 21.4 104.2 21.4 C 104.3 21.4 104.5 21.3 104.7 21.1 C 104.9 20.9 105.3 20.6 105.7 20.3 C 106.2 20.0 106.7 19.8 107.4 19.6 C 108.0 19.3 108.9 19.2 109.8 19.2 C 110.8 19.2 111.7 19.4 112.4 19.6 C 113.1 19.9 113.8 20.3 114.3 20.8 C 114.8 21.3 115.2 21.9 115.4 22.5 C 115.7 23.1 115.8 23.8 115.8 24.6 C 115.8 25.4 115.7 26.0 115.3 26.5 C 115.0 27.0 114.6 27.4 114.0 27.8 C 113.5 28.1 112.8 28.4 112.1 28.6 C 111.5 28.9 110.7 29.1 110.0 29.3 C 109.3 29.5 108.6 29.7 107.9 30.0 C 107.2 30.2 106.6 30.5 106.0 30.9 C 105.5 31.2 105.0 31.7 104.7 32.2 C 104.4 32.7 104.2 33.4 104.2 34.1 C 104.2 34.8 104.3 35.4 104.6 36.0 C 104.9 36.6 105.4 37.1 105.9 37.6 C 106.4 38.1 107.1 38.4 107.8 38.7 C 108.6 39.0 109.4 39.1 110.3 39.1 C 111.4 39.1 112.4 39.0 113.2 38.7 C 114.1 38.4 114.9 37.9 115.7 37.2 Z M 115.6 37.1 " fill="#F5A520"></path><path d="M 122.9 19.1 L 122.4 19.1 L 122.4 38.8 L 122.9 38.8 Z M 123.8 46.1 C 123.8 45.8 123.7 45.6 123.5 45.3 C 123.2 45.1 123.0 45.0 122.7 45.0 C 122.4 45.0 122.1 45.1 121.9 45.3 C 121.7 45.6 121.6 45.8 121.6 46.1 C 121.6 46.4 121.7 46.7 121.9 46.9 C 122.1 47.1 122.4 47.2 122.7 47.2 C 123.0 47.2 123.2 47.1 123.5 46.9 C 123.7 46.7 123.8 46.4 123.8 46.1 " fill="#F5A520"></path><path d="M 142.8 32.9 C 142.8 33.7 142.7 34.5 142.4 35.2 C 142.1 36.0 141.7 36.6 141.2 37.1 C 140.6 37.6 140.0 38.0 139.2 38.3 C 138.5 38.6 137.6 38.7 136.6 38.7 C 135.7 38.7 134.8 38.6 134.1 38.3 C 133.3 38.0 132.7 37.6 132.1 37.1 C 131.6 36.6 131.2 36.0 130.9 35.2 C 130.6 34.5 130.4 33.7 130.4 32.9 C 130.4 32.0 130.6 31.2 130.9 30.5 C 131.2 29.7 131.6 29.1 132.1 28.6 C 132.7 28.1 133.3 27.7 134.1 27.4 C 134.8 27.1 135.7 27.0 136.6 27.0 C 137.6 27.0 138.5 27.1 139.3 27.4 C 140.0 27.7 140.7 28.1 141.2 28.6 C 141.7 29.1 142.1 29.7 142.4 30.5 C 142.7 31.2 142.8 32.0 142.8 32.9 M 145.0 17.6 C 145.0 18.3 144.8 18.9 144.5 19.4 C 144.1 19.8 143.6 20.2 143.0 20.4 C 142.4 20.7 141.7 20.8 140.9 20.9 C 140.1 21.0 139.3 21.1 138.4 21.1 C 137.5 21.2 136.7 21.2 135.8 21.3 C 135.0 21.3 134.2 21.4 133.5 21.5 C 132.9 21.3 132.3 21.0 131.8 20.7 C 131.2 20.5 130.8 20.1 130.4 19.7 C 130.0 19.3 129.7 18.9 129.5 18.4 C 129.3 18.0 129.2 17.5 129.2 16.9 C 129.2 16.2 129.3 15.6 129.7 15.0 C 130.1 14.4 130.6 13.9 131.2 13.4 C 131.9 13.0 132.7 12.6 133.7 12.4 C 134.6 12.1 135.7 12.0 136.9 12.0 C 137.9 12.0 139.0 12.1 139.9 12.4 C 140.9 12.7 141.8 13.1 142.5 13.6 C 143.3 14.1 143.9 14.6 144.3 15.3 C 144.8 16.0 145.0 16.8 145.0 17.6 M 145.7 37.8 L 145.7 37.7 C 145.7 37.7 145.7 37.6 145.6 37.5 C 145.6 37.5 145.5 37.5 145.4 37.5 L 141.5 37.4 C 142.1 36.8 142.5 36.2 142.9 35.4 C 143.2 34.6 143.3 33.8 143.3 32.9 C 143.3 31.9 143.2 31.1 142.9 30.3 C 142.5 29.5 142.1 28.9 141.5 28.3 C 140.9 27.8 140.2 27.4 139.4 27.1 C 138.6 26.8 137.7 26.6 136.6 26.6 C 136.0 26.6 135.4 26.7 134.8 26.8 C 134.2 26.9 133.7 27.1 133.2 27.3 C 132.5 27.0 132.0 26.5 131.5 25.9 C 131.1 25.4 130.9 24.8 130.9 24.3 C 130.9 23.6 131.1 23.1 131.5 22.8 C 131.9 22.4 132.5 22.2 133.2 22.0 C 133.8 21.8 134.6 21.7 135.5 21.7 C 136.4 21.6 137.3 21.6 138.2 21.5 C 139.1 21.5 140.0 21.4 140.9 21.3 C 141.7 21.2 142.5 21.1 143.2 20.8 C 143.9 20.5 144.4 20.1 144.8 19.6 C 145.3 19.1 145.5 18.4 145.5 17.6 C 145.5 16.8 145.3 16.0 144.9 15.3 C 144.4 14.6 143.9 14.0 143.1 13.4 C 142.4 12.9 141.5 12.4 140.4 12.1 C 139.4 11.8 138.2 11.6 136.9 11.6 C 135.6 11.6 134.4 11.7 133.4 12.0 C 132.3 12.3 131.5 12.7 130.8 13.2 C 130.1 13.7 129.6 14.2 129.2 14.9 C 128.9 15.5 128.7 16.2 128.7 16.9 C 128.7 17.4 128.8 18.0 129.0 18.5 C 129.2 18.9 129.5 19.4 129.8 19.8 C 130.2 20.2 130.6 20.5 131.2 20.9 C 131.7 21.2 132.3 21.5 132.9 21.7 C 132.2 21.9 131.6 22.2 131.1 22.6 C 130.7 23.0 130.4 23.6 130.4 24.3 C 130.4 24.6 130.5 24.9 130.6 25.2 C 130.7 25.5 130.9 25.7 131.1 26.0 C 131.3 26.3 131.5 26.6 131.8 26.9 C 132.1 27.1 132.4 27.3 132.8 27.5 C 131.9 28.1 131.2 28.8 130.7 29.7 C 130.2 30.6 130.0 31.7 130.0 32.9 C 130.0 33.8 130.1 34.6 130.4 35.4 C 130.7 36.2 131.2 36.8 131.8 37.4 C 132.3 37.9 133.1 38.3 133.9 38.6 C 134.7 39.0 135.6 39.1 136.6 39.1 C 137.5 39.1 138.3 39.0 139.0 38.8 C 139.8 38.6 140.4 38.2 141.0 37.8 Z M 145.7 37.8 " fill="#F5A520"></path><path d="M 151.3 34.7 C 151.7 35.4 152.2 36.0 152.8 36.5 C 153.4 37.1 154.0 37.5 154.6 37.9 C 155.3 38.3 156.0 38.6 156.7 38.8 C 157.4 39.0 158.2 39.1 159.0 39.1 C 161.1 39.1 162.8 38.5 163.9 37.2 C 164.9 35.9 165.5 34.1 165.5 31.7 L 165.5 19.1 L 165.0 19.1 L 165.0 31.7 C 165.0 32.8 164.9 33.8 164.6 34.7 C 164.4 35.5 164.0 36.3 163.5 36.9 C 163.0 37.5 162.4 37.9 161.6 38.2 C 160.9 38.6 160.0 38.7 159.0 38.7 C 157.4 38.7 156.0 38.3 154.7 37.5 C 153.4 36.7 152.2 35.5 151.3 34.1 L 151.3 19.1 L 150.8 19.1 L 150.8 38.8 L 150.9 38.8 C 151.1 38.8 151.2 38.7 151.2 38.5 Z M 151.3 34.7 " fill="#F5A520"></path></g></g></g></g></g></svg>