<?xml version="1.0" encoding="UTF-8" standalone="no"?><svg xmlns="http://www.w3.org/2000/svg" xmlns:xlink="http://www.w3.org/1999/xlink" clip-rule="evenodd" stroke-miterlimit="4.00" viewBox="0 0 183 69"><desc>SVG generated by Keynote</desc><defs></defs><g transform="matrix(1.00, 0.00, -0.00, -1.00, 0.0, 69.0)"><text xml:space="preserve" font-family="Lato-Thin" font-size="32.0" fill="#FFFFFF" transform="matrix(1.00, 0.00, -0.00, -1.00, 27.0, 38.0)">Q</text><text xml:space="preserve" font-family="Lato-Thin" font-size="32.0" fill="#FFFFFF" transform="matrix(1.00, 0.00, -0.00, -1.00, 52.2, 38.0)">U</text><text xml:space="preserve" font-family="Lato-Thin" font-size="32.0" fill="#FFFFFF" transform="matrix(1.00, 0.00, -0.00, -1.00, 74.9, 38.0)">A</text><text xml:space="preserve" font-family="Lato-Thin" font-size="32.0" fill="#FFFFFF" transform="matrix(1.00, 0.00, -0.00, -1.00, 95.5, 38.0)">L</text><text xml:space="preserve" font-family="Lato-Thin" font-size="32.0" fill="#FFFFFF" transform="matrix(1.00, 0.00, -0.00, -1.00, 111.5, 38.0)">I</text><text xml:space="preserve" font-family="Lato-Thin" font-size="32.0" fill="#FFFFFF" transform="matrix(1.00, 0.00, -0.00, -1.00, 119.5, 38.0)">T</text><text xml:space="preserve" font-family="Lato-Thin" font-size="32.0" fill="#FFFFFF" transform="matrix(1.00, 0.00, -0.00, -1.00, 137.9, 38.0)">É</text><text xml:space="preserve" font-family="Lato-Thin" font-size="32.0" fill="#FFFFFF" transform="matrix(1.00, 0.00, -0.00, -1.00, 156.5, 38.0)"> </text><text xml:space="preserve" font-family="Lato-Thin" font-size="32.0" fill="#FFFFFF" transform="matrix(1.00, 0.00, -0.00, -1.00, -1.0, 2.0)">&lt;</text><text xml:space="preserve" font-family="Lato-Thin" font-size="32.0" fill="#FFFFFF" transform="matrix(1.00, 0.00, -0.00, -1.00, 17.6, 2.0)">s</text><text xml:space="preserve" font-family="Lato-Thin" font-size="32.0" fill="#FFFFFF" transform="matrix(1.00, 0.00, -0.00, -1.00, 31.0, 2.0)">a</text><text xml:space="preserve" font-family="Lato-Thin" font-size="32.0" fill="#FFFFFF" transform="matrix(1.00, 0.00, -0.00, -1.00, 46.1, 2.0)">v</text><text xml:space="preserve" font-family="Lato-Thin" font-size="32.0" fill="#FFFFFF" transform="matrix(1.00, 0.00, -0.00, -1.00, 61.5, 2.0)">o</text><text xml:space="preserve" font-family="Lato-Thin" font-size="32.0" fill="#FFFFFF" transform="matrix(1.00, 0.00, -0.00, -1.00, 79.2, 2.0)">i</text><text xml:space="preserve" font-family="Lato-Thin" font-size="32.0" fill="#FFFFFF" transform="matrix(1.00, 0.00, -0.00, -1.00, 86.1, 2.0)">r</text><text xml:space="preserve" font-family="Lato-Thin" font-size="32.0" fill="#FFFFFF" transform="matrix(1.00, 0.00, -0.00, -1.00, 96.5, 2.0)"> </text><text xml:space="preserve" font-family="Lato-Thin" font-size="32.0" fill="#FFFFFF" transform="matrix(1.00, 0.00, -0.00, -1.00, 105.4, 2.0)">f</text><text xml:space="preserve" font-family="Lato-Thin" font-size="32.0" fill="#FFFFFF" transform="matrix(1.00, 0.00, -0.00, -1.00, 115.9, 2.0)">a</text><text xml:space="preserve" font-family="Lato-Thin" font-size="32.0" fill="#FFFFFF" transform="matrix(1.00, 0.00, -0.00, -1.00, 131.2, 2.0)">i</text><text xml:space="preserve" font-family="Lato-Thin" font-size="32.0" fill="#FFFFFF" transform="matrix(1.00, 0.00, -0.00, -1.00, 138.1, 2.0)">r</text><text xml:space="preserve" font-family="Lato-Thin" font-size="32.0" fill="#FFFFFF" transform="matrix(1.00, 0.00, -0.00, -1.00, 148.2, 2.0)">e</text><text xml:space="preserve" font-family="Lato-Thin" font-size="32.0" fill="#FFFFFF" transform="matrix(1.00, 0.00, -0.00, -1.00, 164.7, 2.0)">&gt;</text></g></svg>