<?xml version="1.0" encoding="UTF-8" standalone="no"?><svg xmlns="http://www.w3.org/2000/svg" xmlns:xlink="http://www.w3.org/1999/xlink" clip-rule="evenodd" stroke-miterlimit="4.00" viewBox="0 0 139 26"><desc>SVG generated by Keynote</desc><defs></defs><g transform="matrix(1.00, 0.00, -0.00, -1.00, 0.0, 26.0)"><text xml:space="preserve" font-family="Lato-Light" font-size="25.0" fill="#FFFFFF" transform="matrix(1.00, 0.00, -0.00, -1.00, 0.0, 7.0)">C</text><text xml:space="preserve" font-family="Lato-Light" font-size="25.0" fill="#FFFFFF" transform="matrix(1.00, 0.00, -0.00, -1.00, 16.5, 7.0)">y</text><text xml:space="preserve" font-family="Lato-Light" font-size="25.0" fill="#FFFFFF" transform="matrix(1.00, 0.00, -0.00, -1.00, 29.0, 7.0)">r</text><text xml:space="preserve" font-family="Lato-Light" font-size="25.0" fill="#FFFFFF" transform="matrix(1.00, 0.00, -0.00, -1.00, 37.8, 7.0)">i</text><text xml:space="preserve" font-family="Lato-Light" font-size="25.0" fill="#FFFFFF" transform="matrix(1.00, 0.00, -0.00, -1.00, 43.4, 7.0)">l</text><text xml:space="preserve" font-family="Lato-Light" font-size="25.0" fill="#FFFFFF" transform="matrix(1.00, 0.00, -0.00, -1.00, 48.9, 7.0)"> </text><text xml:space="preserve" font-family="Lato-Light" font-size="25.0" fill="#FFFFFF" transform="matrix(1.00, 0.00, -0.00, -1.00, 55.6, 7.0)">R</text><text xml:space="preserve" font-family="Lato-Light" font-size="25.0" fill="#FFFFFF" transform="matrix(1.00, 0.00, -0.00, -1.00, 70.0, 7.0)">e</text><text xml:space="preserve" font-family="Lato-Light" font-size="25.0" fill="#FFFFFF" transform="matrix(1.00, 0.00, -0.00, -1.00, 83.1, 7.0)">n</text><text xml:space="preserve" font-family="Lato-Light" font-size="25.0" fill="#FFFFFF" transform="matrix(1.00, 0.00, -0.00, -1.00, 96.8, 7.0)">a</text><text xml:space="preserve" font-family="Lato-Light" font-size="25.0" fill="#FFFFFF" transform="matrix(1.00, 0.00, -0.00, -1.00, 108.9, 7.0)">u</text><text xml:space="preserve" font-family="Lato-Light" font-size="25.0" fill="#FFFFFF" transform="matrix(1.00, 0.00, -0.00, -1.00, 122.6, 7.0)">l</text><text xml:space="preserve" font-family="Lato-Light" font-size="25.0" fill="#FFFFFF" transform="matrix(1.00, 0.00, -0.00, -1.00, 128.2, 7.0)">t</text></g></svg>