<?xml version="1.0" encoding="UTF-8" standalone="no"?><svg xmlns="http://www.w3.org/2000/svg" xmlns:xlink="http://www.w3.org/1999/xlink" clip-rule="evenodd" stroke-miterlimit="4.00" viewBox="0 0 199 22"><desc>SVG generated by Keynote</desc><defs></defs><g transform="matrix(1.00, 0.00, -0.00, -1.00, 0.0, 22.0)"><text xml:space="preserve" font-family="Lato-Light" font-size="25.0" fill="#FFFFFF" transform="matrix(1.00, 0.00, -0.00, -1.00, 0.0, 3.0)">G</text><text xml:space="preserve" font-family="Lato-Light" font-size="25.0" fill="#FFFFFF" transform="matrix(1.00, 0.00, -0.00, -1.00, 18.1, 3.0)">u</text><text xml:space="preserve" font-family="Lato-Light" font-size="25.0" fill="#FFFFFF" transform="matrix(1.00, 0.00, -0.00, -1.00, 31.9, 3.0)">i</text><text xml:space="preserve" font-family="Lato-Light" font-size="25.0" fill="#FFFFFF" transform="matrix(1.00, 0.00, -0.00, -1.00, 37.4, 3.0)">l</text><text xml:space="preserve" font-family="Lato-Light" font-size="25.0" fill="#FFFFFF" transform="matrix(1.00, 0.00, -0.00, -1.00, 42.9, 3.0)">l</text><text xml:space="preserve" font-family="Lato-Light" font-size="25.0" fill="#FFFFFF" transform="matrix(1.00, 0.00, -0.00, -1.00, 48.5, 3.0)">a</text><text xml:space="preserve" font-family="Lato-Light" font-size="25.0" fill="#FFFFFF" transform="matrix(1.00, 0.00, -0.00, -1.00, 60.6, 3.0)">u</text><text xml:space="preserve" font-family="Lato-Light" font-size="25.0" fill="#FFFFFF" transform="matrix(1.00, 0.00, -0.00, -1.00, 74.3, 3.0)">m</text><text xml:space="preserve" font-family="Lato-Light" font-size="25.0" fill="#FFFFFF" transform="matrix(1.00, 0.00, -0.00, -1.00, 94.4, 3.0)">e</text><text xml:space="preserve" font-family="Lato-Light" font-size="25.0" fill="#FFFFFF" transform="matrix(1.00, 0.00, -0.00, -1.00, 107.4, 3.0)"> </text><text xml:space="preserve" font-family="Lato-Light" font-size="25.0" fill="#FFFFFF" transform="matrix(1.00, 0.00, -0.00, -1.00, 114.2, 3.0)">G</text><text xml:space="preserve" font-family="Lato-Light" font-size="25.0" fill="#FFFFFF" transform="matrix(1.00, 0.00, -0.00, -1.00, 132.5, 3.0)">a</text><text xml:space="preserve" font-family="Lato-Light" font-size="25.0" fill="#FFFFFF" transform="matrix(1.00, 0.00, -0.00, -1.00, 144.6, 3.0)">u</text><text xml:space="preserve" font-family="Lato-Light" font-size="25.0" fill="#FFFFFF" transform="matrix(1.00, 0.00, -0.00, -1.00, 158.3, 3.0)">l</text><text xml:space="preserve" font-family="Lato-Light" font-size="25.0" fill="#FFFFFF" transform="matrix(1.00, 0.00, -0.00, -1.00, 163.8, 3.0)">a</text><text xml:space="preserve" font-family="Lato-Light" font-size="25.0" fill="#FFFFFF" transform="matrix(1.00, 0.00, -0.00, -1.00, 175.9, 3.0)">r</text><text xml:space="preserve" font-family="Lato-Light" font-size="25.0" fill="#FFFFFF" transform="matrix(1.00, 0.00, -0.00, -1.00, 184.1, 3.0)">d</text></g></svg>