<?xml version="1.0" encoding="UTF-8" standalone="no"?><svg xmlns="http://www.w3.org/2000/svg" xmlns:xlink="http://www.w3.org/1999/xlink" clip-rule="evenodd" stroke-miterlimit="4.00" viewBox="0 0 192 99"><desc>SVG generated by Keynote</desc><defs></defs><g transform="matrix(1.00, 0.00, -0.00, -1.00, 0.0, 99.0)"><g><clipPath id="clip-550"><path d="M 1.8 1.8 L 190.7 1.8 L 190.7 97.2 L 1.8 97.2 Z M 1.8 1.8 "></path></clipPath><g clip-path="url(#clip-550)"><text xml:space="preserve" font-family="Lato-Light" font-size="22.0" fill="#DDDDDD" transform="matrix(1.00, 0.00, -0.00, -1.00, 15.0, 68.0)">O</text><text xml:space="preserve" font-family="Lato-Light" font-size="22.0" fill="#DDDDDD" transform="matrix(1.00, 0.00, -0.00, -1.00, 32.1, 68.0)">n</text><text xml:space="preserve" font-family="Lato-Light" font-size="22.0" fill="#DDDDDD" transform="matrix(1.00, 0.00, -0.00, -1.00, 44.2, 68.0)"> </text><text xml:space="preserve" font-family="Lato-Light" font-size="22.0" fill="#DDDDDD" transform="matrix(1.00, 0.00, -0.00, -1.00, 50.2, 68.0)">e</text><text xml:space="preserve" font-family="Lato-Light" font-size="22.0" fill="#DDDDDD" transform="matrix(1.00, 0.00, -0.00, -1.00, 61.7, 68.0)">s</text><text xml:space="preserve" font-family="Lato-Light" font-size="22.0" fill="#DDDDDD" transform="matrix(1.00, 0.00, -0.00, -1.00, 71.0, 68.0)">t</text><text xml:space="preserve" font-family="Lato-Light" font-size="22.0" fill="#DDDDDD" transform="matrix(1.00, 0.00, -0.00, -1.00, 78.5, 68.0)"> </text><text xml:space="preserve" font-family="Lato-Light" font-size="22.0" fill="#DDDDDD" transform="matrix(1.00, 0.00, -0.00, -1.00, 84.5, 68.0)">b</text><text xml:space="preserve" font-family="Lato-Light" font-size="22.0" fill="#DDDDDD" transform="matrix(1.00, 0.00, -0.00, -1.00, 96.6, 68.0)">e</text><text xml:space="preserve" font-family="Lato-Light" font-size="22.0" fill="#DDDDDD" transform="matrix(1.00, 0.00, -0.00, -1.00, 108.1, 68.0)">a</text><text xml:space="preserve" font-family="Lato-Light" font-size="22.0" fill="#DDDDDD" transform="matrix(1.00, 0.00, -0.00, -1.00, 118.7, 68.0)">u</text><text xml:space="preserve" font-family="Lato-Light" font-size="22.0" fill="#DDDDDD" transform="matrix(1.00, 0.00, -0.00, -1.00, 130.8, 68.0)">c</text><text xml:space="preserve" font-family="Lato-Light" font-size="22.0" fill="#DDDDDD" transform="matrix(1.00, 0.00, -0.00, -1.00, 141.0, 68.0)">o</text><text xml:space="preserve" font-family="Lato-Light" font-size="22.0" fill="#DDDDDD" transform="matrix(1.00, 0.00, -0.00, -1.00, 153.2, 68.0)">u</text><text xml:space="preserve" font-family="Lato-Light" font-size="22.0" fill="#DDDDDD" transform="matrix(1.00, 0.00, -0.00, -1.00, 165.3, 68.0)">p</text><text xml:space="preserve" font-family="Lato-Light" font-size="22.0" fill="#DDDDDD" transform="matrix(1.00, 0.00, -0.00, -1.00, 177.4, 68.0)"> </text><text xml:space="preserve" font-family="Lato-Light" font-size="22.0" fill="#DDDDDD" transform="matrix(1.00, 0.00, -0.00, -1.00, 52.0, 41.0)">à</text><text xml:space="preserve" font-family="Lato-Light" font-size="22.0" fill="#DDDDDD" transform="matrix(1.00, 0.00, -0.00, -1.00, 62.6, 41.0)"> </text><text xml:space="preserve" font-family="Lato-Light" font-size="22.0" fill="#DDDDDD" transform="matrix(1.00, 0.00, -0.00, -1.00, 68.6, 41.0)">f</text><text xml:space="preserve" font-family="Lato-Light" font-size="22.0" fill="#DDDDDD" transform="matrix(1.00, 0.00, -0.00, -1.00, 76.0, 41.0)">a</text><text xml:space="preserve" font-family="Lato-Light" font-size="22.0" fill="#DDDDDD" transform="matrix(1.00, 0.00, -0.00, -1.00, 86.6, 41.0)">i</text><text xml:space="preserve" font-family="Lato-Light" font-size="22.0" fill="#DDDDDD" transform="matrix(1.00, 0.00, -0.00, -1.00, 91.5, 41.0)">r</text><text xml:space="preserve" font-family="Lato-Light" font-size="22.0" fill="#DDDDDD" transform="matrix(1.00, 0.00, -0.00, -1.00, 98.7, 41.0)">e</text><text xml:space="preserve" font-family="Lato-Light" font-size="22.0" fill="#DDDDDD" transform="matrix(1.00, 0.00, -0.00, -1.00, 110.1, 41.0)"> </text><text xml:space="preserve" font-family="Lato-Light" font-size="22.0" fill="#DDDDDD" transform="matrix(1.00, 0.00, -0.00, -1.00, 116.1, 41.0)">d</text><text xml:space="preserve" font-family="Lato-Light" font-size="22.0" fill="#DDDDDD" transform="matrix(1.00, 0.00, -0.00, -1.00, 128.2, 41.0)">u</text><text xml:space="preserve" font-family="Lato-Light" font-size="22.0" fill="#DDDDDD" transform="matrix(1.00, 0.00, -0.00, -1.00, 140.3, 41.0)"> </text><text xml:space="preserve" font-family="Lato-Light" font-size="22.0" fill="#DDDDDD" transform="matrix(1.00, 0.00, -0.00, -1.00, 74.0, 14.0)">W</text><text xml:space="preserve" font-family="Lato-Light" font-size="22.0" fill="#DDDDDD" transform="matrix(1.00, 0.00, -0.00, -1.00, 95.3, 14.0)">e</text><text xml:space="preserve" font-family="Lato-Light" font-size="22.0" fill="#DDDDDD" transform="matrix(1.00, 0.00, -0.00, -1.00, 106.7, 14.0)">b</text><text xml:space="preserve" font-family="Lato-Light" font-size="22.0" fill="#DDDDDD" transform="matrix(1.00, 0.00, -0.00, -1.00, 118.8, 14.0)"> </text><text xml:space="preserve" font-family="Lato-Light" font-size="22.0" fill="#DDDDDD" transform="matrix(1.00, 0.00, -0.00, -1.00, 124.8, 14.0)"> </text><text xml:space="preserve" font-family="Lato-Light" font-size="22.0" fill="#DDDDDD" transform="matrix(1.00, 0.00, -0.00, -1.00, 130.8, 14.0)"> </text><text xml:space="preserve" font-family="Lato-Light" font-size="22.0" fill="#DDDDDD" transform="matrix(1.00, 0.00, -0.00, -1.00, 136.7, 14.0)"> </text><text xml:space="preserve" font-family="Lato-Light" font-size="22.0" fill="#DDDDDD" transform="matrix(1.00, 0.00, -0.00, -1.00, 142.7, 14.0)"> </text><text xml:space="preserve" font-family="Lato-Light" font-size="22.0" fill="#DDDDDD" transform="matrix(1.00, 0.00, -0.00, -1.00, 148.7, 14.0)"> </text><text xml:space="preserve" font-family="Lato-Light" font-size="22.0" fill="#DDDDDD" transform="matrix(1.00, 0.00, -0.00, -1.00, 154.6, 14.0)"> </text></g></g></g></svg>