<?xml version="1.0" encoding="UTF-8" standalone="no"?><svg xmlns="http://www.w3.org/2000/svg" xmlns:xlink="http://www.w3.org/1999/xlink" clip-rule="evenodd" stroke-miterlimit="4.00" viewBox="0 0 563 65"><desc>SVG generated by Keynote</desc><defs></defs><g transform="matrix(1.00, 0.00, -0.00, -1.00, 0.0, 65.0)"><image xlink:href="../../2E75F477-A7B1-418F-A661-289600A4CE66/assets/896140AD8F1A42A80257FF7CA9D6EEB6.png" width="560.00" height="62.00" transform="matrix(1.00, 0.00, -0.00, -1.00, 2.0, 64.0)"></image><text xml:space="preserve" font-family="Lato-Light" font-size="65.0" fill="#FFFFFF" transform="matrix(1.00, 0.00, -0.00, -1.00, 3.0, 10.0)">U</text><text xml:space="preserve" font-family="Lato-Light" font-size="65.0" fill="#FFFFFF" transform="matrix(1.00, 0.00, -0.00, -1.00, 50.3, 10.0)">S</text><text xml:space="preserve" font-family="Lato-Light" font-size="65.0" fill="#FFFFFF" transform="matrix(1.00, 0.00, -0.00, -1.00, 85.0, 10.0)">E</text><text xml:space="preserve" font-family="Lato-Light" font-size="65.0" fill="#FFFFFF" transform="matrix(1.00, 0.00, -0.00, -1.00, 122.7, 10.0)">R</text><text xml:space="preserve" font-family="Lato-Light" font-size="65.0" fill="#FFFFFF" transform="matrix(1.00, 0.00, -0.00, -1.00, 162.2, 10.0)"> </text><text xml:space="preserve" font-family="Lato-Light" font-size="65.0" fill="#FFFFFF" transform="matrix(1.00, 0.00, -0.00, -1.00, 179.8, 10.0)">E</text><text xml:space="preserve" font-family="Lato-Light" font-size="65.0" fill="#FFFFFF" transform="matrix(1.00, 0.00, -0.00, -1.00, 217.5, 10.0)">X</text><text xml:space="preserve" font-family="Lato-Light" font-size="65.0" fill="#FFFFFF" transform="matrix(1.00, 0.00, -0.00, -1.00, 258.0, 10.0)">P</text><text xml:space="preserve" font-family="Lato-Light" font-size="65.0" fill="#FFFFFF" transform="matrix(1.00, 0.00, -0.00, -1.00, 295.6, 10.0)">E</text><text xml:space="preserve" font-family="Lato-Light" font-size="65.0" fill="#FFFFFF" transform="matrix(1.00, 0.00, -0.00, -1.00, 333.3, 10.0)">R</text><text xml:space="preserve" font-family="Lato-Light" font-size="65.0" fill="#FFFFFF" transform="matrix(1.00, 0.00, -0.00, -1.00, 372.7, 10.0)">I</text><text xml:space="preserve" font-family="Lato-Light" font-size="65.0" fill="#FFFFFF" transform="matrix(1.00, 0.00, -0.00, -1.00, 389.6, 10.0)">E</text><text xml:space="preserve" font-family="Lato-Light" font-size="65.0" fill="#FFFFFF" transform="matrix(1.00, 0.00, -0.00, -1.00, 427.3, 10.0)">N</text><text xml:space="preserve" font-family="Lato-Light" font-size="65.0" fill="#FFFFFF" transform="matrix(1.00, 0.00, -0.00, -1.00, 476.4, 10.0)">C</text><text xml:space="preserve" font-family="Lato-Light" font-size="65.0" fill="#FFFFFF" transform="matrix(1.00, 0.00, -0.00, -1.00, 520.3, 10.0)">E</text></g></svg>