<?xml version="1.0" encoding="UTF-8" standalone="no"?><svg xmlns="http://www.w3.org/2000/svg" xmlns:xlink="http://www.w3.org/1999/xlink" clip-rule="evenodd" stroke-miterlimit="4.00" viewBox="0 0 1024 768"><desc>SVG generated by Keynote</desc><defs></defs><g transform="matrix(1.00, 0.00, -0.00, -1.00, 0.0, 768.0)"><path d="M 0.0 768.0 L 1024.0 768.0 L 1024.0 0.0 L 0.0 0.0 Z M 0.0 768.0 " fill="#000000"></path><text xml:space="preserve" font-family="Avenir-Light" font-size="39.1" fill="#FEFFFF" transform="matrix(1.00, 0.00, -0.00, -1.00, 4.0, 687.0)">U</text><text xml:space="preserve" font-family="Avenir-Light" font-size="39.1" fill="#FEFFFF" transform="matrix(1.00, 0.00, -0.00, -1.00, 37.0, 687.0)">N</text><text xml:space="preserve" font-family="Avenir-Light" font-size="39.1" fill="#FEFFFF" transform="matrix(1.00, 0.00, -0.00, -1.00, 73.8, 687.0)">E</text><text xml:space="preserve" font-family="Avenir-Light" font-size="39.1" fill="#FEFFFF" transform="matrix(1.00, 0.00, -0.00, -1.00, 103.2, 687.0)"> </text><text xml:space="preserve" font-family="Avenir-Light" font-size="39.1" fill="#FEFFFF" transform="matrix(1.00, 0.00, -0.00, -1.00, 119.7, 687.0)">D</text><text xml:space="preserve" font-family="Avenir-Light" font-size="39.1" fill="#FEFFFF" transform="matrix(1.00, 0.00, -0.00, -1.00, 155.0, 687.0)">T</text><text xml:space="preserve" font-family="Avenir-Light" font-size="39.1" fill="#FEFFFF" transform="matrix(1.00, 0.00, -0.00, -1.00, 183.7, 687.0)"> </text><text xml:space="preserve" font-family="Avenir-Light" font-size="39.1" fill="#FEFFFF" transform="matrix(1.00, 0.00, -0.00, -1.00, 200.1, 687.0)">Q</text><text xml:space="preserve" font-family="Avenir-Light" font-size="39.1" fill="#FEFFFF" transform="matrix(1.00, 0.00, -0.00, -1.00, 239.1, 687.0)">U</text><text xml:space="preserve" font-family="Avenir-Light" font-size="39.1" fill="#FEFFFF" transform="matrix(1.00, 0.00, -0.00, -1.00, 272.1, 687.0)">I</text><text xml:space="preserve" font-family="Avenir-Light" font-size="39.1" fill="#FEFFFF" transform="matrix(1.00, 0.00, -0.00, -1.00, 288.5, 687.0)"> </text><text xml:space="preserve" font-family="Avenir-Light" font-size="39.1" fill="#FEFFFF" transform="matrix(1.00, 0.00, -0.00, -1.00, 305.0, 687.0)">S</text><text xml:space="preserve" font-family="Avenir-Light" font-size="39.1" fill="#FEFFFF" transform="matrix(1.00, 0.00, -0.00, -1.00, 333.0, 687.0)">’</text><text xml:space="preserve" font-family="Avenir-Light" font-size="39.1" fill="#FEFFFF" transform="matrix(1.00, 0.00, -0.00, -1.00, 349.5, 687.0)">E</text><text xml:space="preserve" font-family="Avenir-Light" font-size="39.1" fill="#FEFFFF" transform="matrix(1.00, 0.00, -0.00, -1.00, 378.9, 687.0)">S</text><text xml:space="preserve" font-family="Avenir-Light" font-size="39.1" fill="#FEFFFF" transform="matrix(1.00, 0.00, -0.00, -1.00, 407.0, 687.0)">T</text><text xml:space="preserve" font-family="Avenir-Light" font-size="39.1" fill="#FEFFFF" transform="matrix(1.00, 0.00, -0.00, -1.00, 435.7, 687.0)"> </text><text xml:space="preserve" font-family="Avenir-Light" font-size="39.1" fill="#FEFFFF" transform="matrix(1.00, 0.00, -0.00, -1.00, 452.2, 687.0)">L</text><text xml:space="preserve" font-family="Avenir-Light" font-size="39.1" fill="#FEFFFF" transform="matrix(1.00, 0.00, -0.00, -1.00, 478.0, 687.0)">O</text><text xml:space="preserve" font-family="Avenir-Light" font-size="39.1" fill="#FEFFFF" transform="matrix(1.00, 0.00, -0.00, -1.00, 516.9, 687.0)">N</text><text xml:space="preserve" font-family="Avenir-Light" font-size="39.1" fill="#FEFFFF" transform="matrix(1.00, 0.00, -0.00, -1.00, 553.6, 687.0)">G</text><text xml:space="preserve" font-family="Avenir-Light" font-size="39.1" fill="#FEFFFF" transform="matrix(1.00, 0.00, -0.00, -1.00, 590.3, 687.0)">T</text><text xml:space="preserve" font-family="Avenir-Light" font-size="39.1" fill="#FEFFFF" transform="matrix(1.00, 0.00, -0.00, -1.00, 619.1, 687.0)">E</text><text xml:space="preserve" font-family="Avenir-Light" font-size="39.1" fill="#FEFFFF" transform="matrix(1.00, 0.00, -0.00, -1.00, 648.6, 687.0)">M</text><text xml:space="preserve" font-family="Avenir-Light" font-size="39.1" fill="#FEFFFF" transform="matrix(1.00, 0.00, -0.00, -1.00, 689.6, 687.0)">P</text><text xml:space="preserve" font-family="Avenir-Light" font-size="39.1" fill="#FEFFFF" transform="matrix(1.00, 0.00, -0.00, -1.00, 718.4, 687.0)">S</text><text xml:space="preserve" font-family="Avenir-Light" font-size="39.1" fill="#FEFFFF" transform="matrix(1.00, 0.00, -0.00, -1.00, 746.4, 687.0)"> </text><text xml:space="preserve" font-family="Avenir-Light" font-size="39.1" fill="#FEFFFF" transform="matrix(1.00, 0.00, -0.00, -1.00, 762.8, 687.0)">C</text><text xml:space="preserve" font-family="Avenir-Light" font-size="39.1" fill="#FEFFFF" transform="matrix(1.00, 0.00, -0.00, -1.00, 796.7, 687.0)">H</text><text xml:space="preserve" font-family="Avenir-Light" font-size="39.1" fill="#FEFFFF" transform="matrix(1.00, 0.00, -0.00, -1.00, 831.2, 687.0)">E</text><text xml:space="preserve" font-family="Avenir-Light" font-size="39.1" fill="#FEFFFF" transform="matrix(1.00, 0.00, -0.00, -1.00, 860.7, 687.0)">R</text><text xml:space="preserve" font-family="Avenir-Light" font-size="39.1" fill="#FEFFFF" transform="matrix(1.00, 0.00, -0.00, -1.00, 890.2, 687.0)">C</text><text xml:space="preserve" font-family="Avenir-Light" font-size="39.1" fill="#FEFFFF" transform="matrix(1.00, 0.00, -0.00, -1.00, 924.0, 687.0)">H</text><text xml:space="preserve" font-family="Avenir-Light" font-size="39.1" fill="#FEFFFF" transform="matrix(1.00, 0.00, -0.00, -1.00, 958.5, 687.0)">É</text><text xml:space="preserve" font-family="Avenir-Light" font-size="39.1" fill="#FEFFFF" transform="matrix(1.00, 0.00, -0.00, -1.00, 988.0, 687.0)">E</text><g><clipPath id="clip-435"><path d="M 42.0 35.0 L 889.0 35.0 L 889.0 601.0 L 42.0 601.0 Z M 42.0 35.0 "></path></clipPath><g clip-path="url(#clip-435)"><path d="M 42.0 601.0 L 889.0 601.0 L 889.0 35.0 L 42.0 35.0 Z M 42.0 601.0 " fill="#FFFFFF" fill-opacity="0.00"></path><text xml:space="preserve" font-family="ArialMT" font-size="14.0" fill="#000000" transform="matrix(1.39, 0.00, -0.00, -1.39, 473.0, 187.0)">D</text><text xml:space="preserve" font-family="ArialMT" font-size="14.0" fill="#000000" transform="matrix(1.39, 0.00, -0.00, -1.39, 486.9, 187.0)">T</text><text xml:space="preserve" font-family="ArialMT" font-size="14.0" fill="#000000" transform="matrix(1.39, 0.00, -0.00, -1.39, 499.4, 187.0)"> </text><text xml:space="preserve" font-family="ArialMT" font-size="14.0" fill="#000000" transform="matrix(1.39, 0.00, -0.00, -1.39, 456.3, 164.7)">a</text><text xml:space="preserve" font-family="ArialMT" font-size="14.0" fill="#000000" transform="matrix(1.39, 0.00, -0.00, -1.39, 467.4, 164.7)">r</text><text xml:space="preserve" font-family="ArialMT" font-size="14.0" fill="#000000" transform="matrix(1.39, 0.00, -0.00, -1.39, 474.4, 164.7)">t</text><text xml:space="preserve" font-family="ArialMT" font-size="14.0" fill="#000000" transform="matrix(1.39, 0.00, -0.00, -1.39, 479.9, 164.7)">i</text><text xml:space="preserve" font-family="ArialMT" font-size="14.0" fill="#000000" transform="matrix(1.39, 0.00, -0.00, -1.39, 484.1, 164.7)">s</text><text xml:space="preserve" font-family="ArialMT" font-size="14.0" fill="#000000" transform="matrix(1.39, 0.00, -0.00, -1.39, 493.8, 164.7)">a</text><text xml:space="preserve" font-family="ArialMT" font-size="14.0" fill="#000000" transform="matrix(1.39, 0.00, -0.00, -1.39, 505.0, 164.7)">n</text><path d="M 606.0 440.4 L 646.8 440.4 L 646.8 440.4 L 708.0 440.4 L 850.8 440.4 L 850.8 372.2 L 850.8 372.2 L 850.8 343.0 L 850.8 323.6 L 708.0 323.6 L 646.8 323.6 L 646.8 323.6 L 606.0 323.6 L 606.0 343.0 L 553.2 341.0 L 606.0 372.2 Z M 606.0 440.4 " fill="#EDECE0"></path><path d="M 0.0 0.0 L 372533.5 0.0 L 372533.5 0.0 L 931333.4 0.0 L 2235200.0 0.0 L 2235200.0 622299.6 L 2235200.0 622299.6 L 2235200.0 889000.8 L 2235200.0 1066800.0 L 931333.4 1066800.0 L 372533.5 1066800.0 L 372533.5 1066800.0 L 0.0 1066800.0 L 0.0 889000.8 L -482245.0 907632.4 L 0.0 622299.6 Z M 0.0 0.0 " fill="none" stroke="#1E487D" stroke-width="12700.00" stroke-miterlimit="0.00" stroke-linejoin="round" transform="matrix(0.00, 0.00, 0.00, -0.00, 606.0, 440.4)"></path><text xml:space="preserve" font-family="ArialMT" font-size="14.0" fill="#000000" transform="matrix(1.39, 0.00, -0.00, -1.39, 615.8, 386.9)">P</text><text xml:space="preserve" font-family="ArialMT" font-size="14.0" fill="#000000" transform="matrix(1.39, 0.00, -0.00, -1.39, 628.3, 386.9)">e</text><text xml:space="preserve" font-family="ArialMT" font-size="14.0" fill="#000000" transform="matrix(1.39, 0.00, -0.00, -1.39, 639.5, 386.9)">u</text><text xml:space="preserve" font-family="ArialMT" font-size="14.0" fill="#000000" transform="matrix(1.39, 0.00, -0.00, -1.39, 650.6, 386.9)"> </text><text xml:space="preserve" font-family="ArialMT" font-size="14.0" fill="#000000" transform="matrix(1.39, 0.00, -0.00, -1.39, 656.1, 386.9)">d</text><text xml:space="preserve" font-family="ArialMT" font-size="14.0" fill="#000000" transform="matrix(1.39, 0.00, -0.00, -1.39, 667.3, 386.9)">e</text><text xml:space="preserve" font-family="ArialMT" font-size="14.0" fill="#000000" transform="matrix(1.39, 0.00, -0.00, -1.39, 678.4, 386.9)"> </text><text xml:space="preserve" font-family="ArialMT" font-size="14.0" fill="#000000" transform="matrix(1.39, 0.00, -0.00, -1.39, 682.6, 386.9)">l</text><text xml:space="preserve" font-family="ArialMT" font-size="14.0" fill="#000000" transform="matrix(1.39, 0.00, -0.00, -1.39, 686.7, 386.9)">i</text><text xml:space="preserve" font-family="ArialMT" font-size="14.0" fill="#000000" transform="matrix(1.39, 0.00, -0.00, -1.39, 690.9, 386.9)">e</text><text xml:space="preserve" font-family="ArialMT" font-size="14.0" fill="#000000" transform="matrix(1.39, 0.00, -0.00, -1.39, 702.0, 386.9)">n</text><text xml:space="preserve" font-family="ArialMT" font-size="14.0" fill="#000000" transform="matrix(1.39, 0.00, -0.00, -1.39, 713.2, 386.9)"> </text><text xml:space="preserve" font-family="ArialMT" font-size="14.0" fill="#000000" transform="matrix(1.39, 0.00, -0.00, -1.39, 718.7, 386.9)">a</text><text xml:space="preserve" font-family="ArialMT" font-size="14.0" fill="#000000" transform="matrix(1.39, 0.00, -0.00, -1.39, 729.9, 386.9)">v</text><text xml:space="preserve" font-family="ArialMT" font-size="14.0" fill="#000000" transform="matrix(1.39, 0.00, -0.00, -1.39, 739.6, 386.9)">e</text><text xml:space="preserve" font-family="ArialMT" font-size="14.0" fill="#000000" transform="matrix(1.39, 0.00, -0.00, -1.39, 750.7, 386.9)">c</text><text xml:space="preserve" font-family="ArialMT" font-size="14.0" fill="#000000" transform="matrix(1.39, 0.00, -0.00, -1.39, 760.5, 386.9)"> </text><text xml:space="preserve" font-family="ArialMT" font-size="14.0" fill="#000000" transform="matrix(1.39, 0.00, -0.00, -1.39, 764.6, 386.9)">l</text><text xml:space="preserve" font-family="ArialMT" font-size="14.0" fill="#000000" transform="matrix(1.39, 0.00, -0.00, -1.39, 768.8, 386.9)">e</text><text xml:space="preserve" font-family="ArialMT" font-size="14.0" fill="#000000" transform="matrix(1.39, 0.00, -0.00, -1.39, 779.9, 386.9)">s</text><text xml:space="preserve" font-family="ArialMT" font-size="14.0" fill="#000000" transform="matrix(1.39, 0.00, -0.00, -1.39, 789.7, 386.9)"> </text><text xml:space="preserve" font-family="ArialMT" font-size="14.0" fill="#000000" transform="matrix(1.39, 0.00, -0.00, -1.39, 615.8, 364.7)">f</text><text xml:space="preserve" font-family="ArialMT" font-size="14.0" fill="#000000" transform="matrix(1.39, 0.00, -0.00, -1.39, 621.4, 364.7)">o</text><text xml:space="preserve" font-family="ArialMT" font-size="14.0" fill="#000000" transform="matrix(1.39, 0.00, -0.00, -1.39, 632.5, 364.7)">n</text><text xml:space="preserve" font-family="ArialMT" font-size="14.0" fill="#000000" transform="matrix(1.39, 0.00, -0.00, -1.39, 643.6, 364.7)">c</text><text xml:space="preserve" font-family="ArialMT" font-size="14.0" fill="#000000" transform="matrix(1.39, 0.00, -0.00, -1.39, 653.4, 364.7)">t</text><text xml:space="preserve" font-family="ArialMT" font-size="14.0" fill="#000000" transform="matrix(1.39, 0.00, -0.00, -1.39, 658.9, 364.7)">i</text><text xml:space="preserve" font-family="ArialMT" font-size="14.0" fill="#000000" transform="matrix(1.39, 0.00, -0.00, -1.39, 663.1, 364.7)">o</text><text xml:space="preserve" font-family="ArialMT" font-size="14.0" fill="#000000" transform="matrix(1.39, 0.00, -0.00, -1.39, 674.2, 364.7)">n</text><text xml:space="preserve" font-family="ArialMT" font-size="14.0" fill="#000000" transform="matrix(1.39, 0.00, -0.00, -1.39, 685.4, 364.7)">s</text><text xml:space="preserve" font-family="ArialMT" font-size="14.0" fill="#000000" transform="matrix(1.39, 0.00, -0.00, -1.39, 695.1, 364.7)"> </text><text xml:space="preserve" font-family="ArialMT" font-size="14.0" fill="#000000" transform="matrix(1.39, 0.00, -0.00, -1.39, 699.3, 364.7)">s</text><text xml:space="preserve" font-family="ArialMT" font-size="14.0" fill="#000000" transform="matrix(1.39, 0.00, -0.00, -1.39, 709.0, 364.7)">u</text><text xml:space="preserve" font-family="ArialMT" font-size="14.0" fill="#000000" transform="matrix(1.39, 0.00, -0.00, -1.39, 720.1, 364.7)">p</text><text xml:space="preserve" font-family="ArialMT" font-size="14.0" fill="#000000" transform="matrix(1.39, 0.00, -0.00, -1.39, 731.2, 364.7)">p</text><text xml:space="preserve" font-family="ArialMT" font-size="14.0" fill="#000000" transform="matrix(1.39, 0.00, -0.00, -1.39, 742.4, 364.7)">o</text><text xml:space="preserve" font-family="ArialMT" font-size="14.0" fill="#000000" transform="matrix(1.39, 0.00, -0.00, -1.39, 753.5, 364.7)">r</text><text xml:space="preserve" font-family="ArialMT" font-size="14.0" fill="#000000" transform="matrix(1.39, 0.00, -0.00, -1.39, 760.5, 364.7)">t</text><path d="M 643.5 245.7 L 684.3 245.7 L 684.3 245.7 L 745.5 245.7 L 888.3 245.7 L 888.3 210.7 L 888.3 210.7 L 888.3 158.2 L 888.3 35.7 L 745.5 35.7 L 684.3 35.7 L 684.3 35.7 L 643.5 35.7 L 643.5 158.2 L 576.3 238.8 L 643.5 210.7 Z M 643.5 245.7 " fill="#EDECE0"></path><path d="M 0.0 0.0 L 372533.5 0.0 L 372533.5 0.0 L 931333.4 0.0 L 2235200.0 0.0 L 2235200.0 319616.2 L 2235200.0 319616.2 L 2235200.0 799040.7 L 2235200.0 1917700.0 L 931333.4 1917700.0 L 372533.5 1917700.0 L 372533.5 1917700.0 L 0.0 1917700.0 L 0.0 799040.7 L -613988.1 62976.2 L 0.0 319616.2 Z M 0.0 0.0 " fill="none" stroke="#1E487D" stroke-width="12700.00" stroke-miterlimit="0.00" stroke-linejoin="round" transform="matrix(0.00, 0.00, 0.00, -0.00, 643.5, 245.7)"></path><text xml:space="preserve" font-family="ArialMT" font-size="14.0" fill="#000000" transform="matrix(1.39, 0.00, -0.00, -1.39, 653.4, 215.3)">T</text><text xml:space="preserve" font-family="ArialMT" font-size="14.0" fill="#000000" transform="matrix(1.39, 0.00, -0.00, -1.39, 665.9, 215.3)">r</text><text xml:space="preserve" font-family="ArialMT" font-size="14.0" fill="#000000" transform="matrix(1.39, 0.00, -0.00, -1.39, 672.8, 215.3)">o</text><text xml:space="preserve" font-family="ArialMT" font-size="14.0" fill="#000000" transform="matrix(1.39, 0.00, -0.00, -1.39, 684.0, 215.3)">p</text><text xml:space="preserve" font-family="ArialMT" font-size="14.0" fill="#000000" transform="matrix(1.39, 0.00, -0.00, -1.39, 695.1, 215.3)"> </text><text xml:space="preserve" font-family="ArialMT" font-size="14.0" fill="#000000" transform="matrix(1.39, 0.00, -0.00, -1.39, 699.3, 215.3)">d</text><text xml:space="preserve" font-family="ArialMT" font-size="14.0" fill="#000000" transform="matrix(1.39, 0.00, -0.00, -1.39, 710.4, 215.3)">i</text><text xml:space="preserve" font-family="ArialMT" font-size="14.0" fill="#000000" transform="matrix(1.39, 0.00, -0.00, -1.39, 714.6, 215.3)">s</text><text xml:space="preserve" font-family="ArialMT" font-size="14.0" fill="#000000" transform="matrix(1.39, 0.00, -0.00, -1.39, 724.3, 215.3)">p</text><text xml:space="preserve" font-family="ArialMT" font-size="14.0" fill="#000000" transform="matrix(1.39, 0.00, -0.00, -1.39, 735.4, 215.3)">e</text><text xml:space="preserve" font-family="ArialMT" font-size="14.0" fill="#000000" transform="matrix(1.39, 0.00, -0.00, -1.39, 746.6, 215.3)">r</text><text xml:space="preserve" font-family="ArialMT" font-size="14.0" fill="#000000" transform="matrix(1.39, 0.00, -0.00, -1.39, 753.5, 215.3)">s</text><text xml:space="preserve" font-family="ArialMT" font-size="14.0" fill="#000000" transform="matrix(1.39, 0.00, -0.00, -1.39, 763.3, 215.3)">é</text><text xml:space="preserve" font-family="ArialMT" font-size="14.0" fill="#000000" transform="matrix(1.39, 0.00, -0.00, -1.39, 774.4, 215.3)"> </text><text xml:space="preserve" font-family="ArialMT" font-size="14.0" fill="#000000" transform="matrix(1.39, 0.00, -0.00, -1.39, 778.6, 215.3)">:</text><text xml:space="preserve" font-family="ArialMT" font-size="14.0" fill="#000000" transform="matrix(1.39, 0.00, -0.00, -1.39, 678.4, 193.0)">●</text><text xml:space="preserve" font-family="ArialMT" font-size="14.0" fill="#000000" transform="matrix(1.39, 0.00, -0.00, -1.39, 703.4, 193.0)">C</text><text xml:space="preserve" font-family="ArialMT" font-size="14.0" fill="#000000" transform="matrix(1.39, 0.00, -0.00, -1.39, 717.4, 193.0)">o</text><text xml:space="preserve" font-family="ArialMT" font-size="14.0" fill="#000000" transform="matrix(1.39, 0.00, -0.00, -1.39, 728.5, 193.0)">m</text><text xml:space="preserve" font-family="ArialMT" font-size="14.0" fill="#000000" transform="matrix(1.39, 0.00, -0.00, -1.39, 745.2, 193.0)">m</text><text xml:space="preserve" font-family="ArialMT" font-size="14.0" fill="#000000" transform="matrix(1.39, 0.00, -0.00, -1.39, 678.4, 169.4)">●</text><text xml:space="preserve" font-family="ArialMT" font-size="14.0" fill="#000000" transform="matrix(1.39, 0.00, -0.00, -1.39, 703.4, 169.4)">D</text><text xml:space="preserve" font-family="ArialMT" font-size="14.0" fill="#000000" transform="matrix(1.39, 0.00, -0.00, -1.39, 717.4, 169.4)">S</text><text xml:space="preserve" font-family="ArialMT" font-size="14.0" fill="#000000" transform="matrix(1.39, 0.00, -0.00, -1.39, 729.9, 169.4)">I</text><text xml:space="preserve" font-family="ArialMT" font-size="14.0" fill="#000000" transform="matrix(1.39, 0.00, -0.00, -1.39, 678.4, 145.7)">●</text><text xml:space="preserve" font-family="ArialMT" font-size="14.0" fill="#000000" transform="matrix(1.39, 0.00, -0.00, -1.39, 703.4, 145.7)">W</text><text xml:space="preserve" font-family="ArialMT" font-size="14.0" fill="#000000" transform="matrix(1.39, 0.00, -0.00, -1.39, 721.5, 145.7)">h</text><text xml:space="preserve" font-family="ArialMT" font-size="14.0" fill="#000000" transform="matrix(1.39, 0.00, -0.00, -1.39, 732.7, 145.7)">a</text><text xml:space="preserve" font-family="ArialMT" font-size="14.0" fill="#000000" transform="matrix(1.39, 0.00, -0.00, -1.39, 743.8, 145.7)">t</text><text xml:space="preserve" font-family="ArialMT" font-size="14.0" fill="#000000" transform="matrix(1.39, 0.00, -0.00, -1.39, 749.3, 145.7)">’</text><text xml:space="preserve" font-family="ArialMT" font-size="14.0" fill="#000000" transform="matrix(1.39, 0.00, -0.00, -1.39, 753.5, 145.7)">s</text><text xml:space="preserve" font-family="ArialMT" font-size="14.0" fill="#000000" transform="matrix(1.39, 0.00, -0.00, -1.39, 763.3, 145.7)"> </text><text xml:space="preserve" font-family="ArialMT" font-size="14.0" fill="#000000" transform="matrix(1.39, 0.00, -0.00, -1.39, 768.8, 145.7)">N</text><text xml:space="preserve" font-family="ArialMT" font-size="14.0" fill="#000000" transform="matrix(1.39, 0.00, -0.00, -1.39, 782.7, 145.7)">e</text><text xml:space="preserve" font-family="ArialMT" font-size="14.0" fill="#000000" transform="matrix(1.39, 0.00, -0.00, -1.39, 793.9, 145.7)">x</text><text xml:space="preserve" font-family="ArialMT" font-size="14.0" fill="#000000" transform="matrix(1.39, 0.00, -0.00, -1.39, 803.6, 145.7)">t</text><text xml:space="preserve" font-family="ArialMT" font-size="14.0" fill="#000000" transform="matrix(1.39, 0.00, -0.00, -1.39, 678.4, 122.1)">●</text><text xml:space="preserve" font-family="ArialMT" font-size="14.0" fill="#000000" transform="matrix(1.39, 0.00, -0.00, -1.39, 703.4, 122.1)">R</text><text xml:space="preserve" font-family="ArialMT" font-size="14.0" fill="#000000" transform="matrix(1.39, 0.00, -0.00, -1.39, 717.4, 122.1)">a</text><text xml:space="preserve" font-family="ArialMT" font-size="14.0" fill="#000000" transform="matrix(1.39, 0.00, -0.00, -1.39, 728.5, 122.1)">d</text><text xml:space="preserve" font-family="ArialMT" font-size="14.0" fill="#000000" transform="matrix(1.39, 0.00, -0.00, -1.39, 739.6, 122.1)">a</text><text xml:space="preserve" font-family="ArialMT" font-size="14.0" fill="#000000" transform="matrix(1.39, 0.00, -0.00, -1.39, 750.7, 122.1)">r</text><text xml:space="preserve" font-family="ArialMT" font-size="14.0" fill="#000000" transform="matrix(1.39, 0.00, -0.00, -1.39, 757.7, 122.1)"> </text><text xml:space="preserve" font-family="ArialMT" font-size="14.0" fill="#000000" transform="matrix(1.39, 0.00, -0.00, -1.39, 761.9, 122.1)">t</text><text xml:space="preserve" font-family="ArialMT" font-size="14.0" fill="#000000" transform="matrix(1.39, 0.00, -0.00, -1.39, 767.4, 122.1)">e</text><text xml:space="preserve" font-family="ArialMT" font-size="14.0" fill="#000000" transform="matrix(1.39, 0.00, -0.00, -1.39, 778.6, 122.1)">c</text><text xml:space="preserve" font-family="ArialMT" font-size="14.0" fill="#000000" transform="matrix(1.39, 0.00, -0.00, -1.39, 788.3, 122.1)">h</text><text xml:space="preserve" font-family="ArialMT" font-size="14.0" fill="#000000" transform="matrix(1.39, 0.00, -0.00, -1.39, 678.4, 98.5)">●</text><text xml:space="preserve" font-family="ArialMT" font-size="14.0" fill="#000000" transform="matrix(1.39, 0.00, -0.00, -1.39, 703.4, 98.5)">T</text><text xml:space="preserve" font-family="ArialMT" font-size="14.0" fill="#000000" transform="matrix(1.39, 0.00, -0.00, -1.39, 716.0, 98.5)">o</text><text xml:space="preserve" font-family="ArialMT" font-size="14.0" fill="#000000" transform="matrix(1.39, 0.00, -0.00, -1.39, 727.1, 98.5)">o</text><text xml:space="preserve" font-family="ArialMT" font-size="14.0" fill="#000000" transform="matrix(1.39, 0.00, -0.00, -1.39, 738.2, 98.5)">l</text><text xml:space="preserve" font-family="ArialMT" font-size="14.0" fill="#000000" transform="matrix(1.39, 0.00, -0.00, -1.39, 742.4, 98.5)">i</text><text xml:space="preserve" font-family="ArialMT" font-size="14.0" fill="#000000" transform="matrix(1.39, 0.00, -0.00, -1.39, 746.5, 98.5)">n</text><text xml:space="preserve" font-family="ArialMT" font-size="14.0" fill="#000000" transform="matrix(1.39, 0.00, -0.00, -1.39, 757.7, 98.5)">g</text><text xml:space="preserve" font-family="ArialMT" font-size="14.0" fill="#000000" transform="matrix(1.39, 0.00, -0.00, -1.39, 678.4, 76.2)">●</text><text xml:space="preserve" font-family="ArialMT" font-size="14.0" fill="#000000" transform="matrix(1.39, 0.00, -0.00, -1.39, 703.4, 76.2)">T</text><text xml:space="preserve" font-family="ArialMT" font-size="14.0" fill="#000000" transform="matrix(1.39, 0.00, -0.00, -1.39, 716.0, 76.2)">r</text><text xml:space="preserve" font-family="ArialMT" font-size="14.0" fill="#000000" transform="matrix(1.39, 0.00, -0.00, -1.39, 722.9, 76.2)">a</text><text xml:space="preserve" font-family="ArialMT" font-size="14.0" fill="#000000" transform="matrix(1.39, 0.00, -0.00, -1.39, 734.0, 76.2)">i</text><text xml:space="preserve" font-family="ArialMT" font-size="14.0" fill="#000000" transform="matrix(1.39, 0.00, -0.00, -1.39, 738.2, 76.2)">n</text><text xml:space="preserve" font-family="ArialMT" font-size="14.0" fill="#000000" transform="matrix(1.39, 0.00, -0.00, -1.39, 749.3, 76.2)">i</text><text xml:space="preserve" font-family="ArialMT" font-size="14.0" fill="#000000" transform="matrix(1.39, 0.00, -0.00, -1.39, 753.5, 76.2)">n</text><text xml:space="preserve" font-family="ArialMT" font-size="14.0" fill="#000000" transform="matrix(1.39, 0.00, -0.00, -1.39, 764.6, 76.2)">g</text><text xml:space="preserve" font-family="ArialMT" font-size="14.0" fill="#000000" transform="matrix(1.39, 0.00, -0.00, -1.39, 678.4, 52.6)">●</text><text xml:space="preserve" font-family="ArialMT" font-size="14.0" fill="#000000" transform="matrix(1.39, 0.00, -0.00, -1.39, 703.4, 52.6)">T</text><text xml:space="preserve" font-family="ArialMT" font-size="14.0" fill="#000000" transform="matrix(1.39, 0.00, -0.00, -1.39, 716.0, 52.6)">r</text><text xml:space="preserve" font-family="ArialMT" font-size="14.0" fill="#000000" transform="matrix(1.39, 0.00, -0.00, -1.39, 722.9, 52.6)">i</text><text xml:space="preserve" font-family="ArialMT" font-size="14.0" fill="#000000" transform="matrix(1.39, 0.00, -0.00, -1.39, 727.1, 52.6)">b</text><text xml:space="preserve" font-family="ArialMT" font-size="14.0" fill="#000000" transform="matrix(1.39, 0.00, -0.00, -1.39, 738.2, 52.6)">u</text><path d="M 96.9 418.1 L 239.7 418.1 L 239.7 418.1 L 300.9 418.1 L 341.7 418.1 L 341.7 370.3 L 427.7 334.6 L 341.7 349.8 L 341.7 336.1 L 300.9 336.1 L 239.7 336.1 L 239.7 336.1 L 96.9 336.1 L 96.9 349.8 L 96.9 370.3 L 96.9 370.3 Z M 96.9 418.1 " fill="#EDECE0"></path><path d="M 0.0 0.0 L 1303867.0 0.0 L 1303867.0 0.0 L 1862667.0 0.0 L 2235200.0 0.0 L 2235200.0 437092.3 L 3020404.0 762915.6 L 2235200.0 624417.9 L 2235200.0 749300.0 L 1862667.0 749300.0 L 1303867.0 749300.0 L 1303867.0 749300.0 L 0.0 749300.0 L 0.0 624417.9 L 0.0 437092.3 L 0.0 437092.3 Z M 0.0 0.0 " fill="none" stroke="#1E487D" stroke-width="12700.00" stroke-miterlimit="0.00" stroke-linejoin="round" transform="matrix(0.00, 0.00, 0.00, -0.00, 96.9, 418.1)"></path><text xml:space="preserve" font-family="ArialMT" font-size="14.0" fill="#000000" transform="matrix(1.39, 0.00, -0.00, -1.39, 106.6, 369.6)">O</text><text xml:space="preserve" font-family="ArialMT" font-size="14.0" fill="#000000" transform="matrix(1.39, 0.00, -0.00, -1.39, 121.9, 369.6)">K</text><text xml:space="preserve" font-family="ArialMT" font-size="14.0" fill="#000000" transform="matrix(1.39, 0.00, -0.00, -1.39, 134.4, 369.6)">R</text><text xml:space="preserve" font-family="ArialMT" font-size="14.0" fill="#000000" transform="matrix(1.39, 0.00, -0.00, -1.39, 148.4, 369.6)"> </text><text xml:space="preserve" font-family="ArialMT" font-size="14.0" fill="#000000" transform="matrix(1.39, 0.00, -0.00, -1.39, 153.9, 369.6)">:</text><text xml:space="preserve" font-family="ArialMT" font-size="14.0" fill="#000000" transform="matrix(1.39, 0.00, -0.00, -1.39, 159.5, 369.6)"> </text><text xml:space="preserve" font-family="ArialMT" font-size="14.0" fill="#AE1E3A" transform="matrix(1.39, 0.00, -0.00, -1.39, 165.0, 369.6)">4</text><text xml:space="preserve" font-family="ArialMT" font-size="14.0" fill="#AE1E3A" transform="matrix(1.39, 0.00, -0.00, -1.39, 176.2, 369.6)">5</text><text xml:space="preserve" font-family="ArialMT" font-size="14.0" fill="#AE1E3A" transform="matrix(1.39, 0.00, -0.00, -1.39, 187.3, 369.6)"> </text><text xml:space="preserve" font-family="ArialMT" font-size="14.0" fill="#AE1E3A" transform="matrix(1.39, 0.00, -0.00, -1.39, 191.5, 369.6)">%</text><text xml:space="preserve" font-family="ArialMT" font-size="14.0" fill="#000000" transform="matrix(1.39, 0.00, -0.00, -1.39, 215.1, 369.6)">a</text><text xml:space="preserve" font-family="ArialMT" font-size="14.0" fill="#000000" transform="matrix(1.39, 0.00, -0.00, -1.39, 226.2, 369.6)">t</text><text xml:space="preserve" font-family="ArialMT" font-size="14.0" fill="#000000" transform="matrix(1.39, 0.00, -0.00, -1.39, 231.8, 369.6)">t</text><text xml:space="preserve" font-family="ArialMT" font-size="14.0" fill="#000000" transform="matrix(1.39, 0.00, -0.00, -1.39, 237.4, 369.6)">e</text><text xml:space="preserve" font-family="ArialMT" font-size="14.0" fill="#000000" transform="matrix(1.39, 0.00, -0.00, -1.39, 248.5, 369.6)">i</text><text xml:space="preserve" font-family="ArialMT" font-size="14.0" fill="#000000" transform="matrix(1.39, 0.00, -0.00, -1.39, 252.7, 369.6)">n</text><text xml:space="preserve" font-family="ArialMT" font-size="14.0" fill="#000000" transform="matrix(1.39, 0.00, -0.00, -1.39, 263.8, 369.6)">t</text><text xml:space="preserve" font-family="ArialMT" font-size="14.0" fill="#000000" transform="matrix(1.39, 0.00, -0.00, -1.39, 269.3, 369.6)"> </text><path d="M 102.5 194.2 L 265.6 194.2 L 407.8 234.3 L 335.5 194.2 L 382.1 194.2 L 382.1 177.5 L 382.1 177.5 L 382.1 152.5 L 382.1 94.1 L 335.5 94.1 L 265.6 94.1 L 265.6 94.1 L 102.5 94.1 L 102.5 152.5 L 102.5 177.5 L 102.5 177.5 Z M 102.5 194.2 " fill="#EDECE0"></path><path d="M 0.0 0.0 L 1489075.0 0.0 L 2787599.0 -365786.8 L 2127250.0 0.0 L 2552700.0 0.0 L 2552700.0 152400.0 L 2552700.0 152400.0 L 2552700.0 381001.3 L 2552700.0 914400.0 L 2127250.0 914400.0 L 1489075.0 914400.0 L 1489075.0 914400.0 L 0.0 914400.0 L 0.0 381001.3 L 0.0 152400.0 L 0.0 152400.0 Z M 0.0 0.0 " fill="none" stroke="#1E487D" stroke-width="12700.00" stroke-miterlimit="0.00" stroke-linejoin="round" transform="matrix(0.00, 0.00, 0.00, -0.00, 102.5, 194.2)"></path><text xml:space="preserve" font-family="ArialMT" font-size="14.0" fill="#000000" transform="matrix(1.39, 0.00, -0.00, -1.39, 111.4, 172.6)">P</text><text xml:space="preserve" font-family="ArialMT" font-size="14.0" fill="#000000" transform="matrix(1.39, 0.00, -0.00, -1.39, 123.9, 172.6)">a</text><text xml:space="preserve" font-family="ArialMT" font-size="14.0" fill="#000000" transform="matrix(1.39, 0.00, -0.00, -1.39, 135.0, 172.6)">s</text><text xml:space="preserve" font-family="ArialMT" font-size="14.0" fill="#000000" transform="matrix(1.39, 0.00, -0.00, -1.39, 144.7, 172.6)"> </text><text xml:space="preserve" font-family="ArialMT" font-size="14.0" fill="#000000" transform="matrix(1.39, 0.00, -0.00, -1.39, 150.3, 172.6)">b</text><text xml:space="preserve" font-family="ArialMT" font-size="14.0" fill="#000000" transform="matrix(1.39, 0.00, -0.00, -1.39, 161.4, 172.6)">e</text><text xml:space="preserve" font-family="ArialMT" font-size="14.0" fill="#000000" transform="matrix(1.39, 0.00, -0.00, -1.39, 172.6, 172.6)">a</text><text xml:space="preserve" font-family="ArialMT" font-size="14.0" fill="#000000" transform="matrix(1.39, 0.00, -0.00, -1.39, 183.7, 172.6)">u</text><text xml:space="preserve" font-family="ArialMT" font-size="14.0" fill="#000000" transform="matrix(1.39, 0.00, -0.00, -1.39, 194.8, 172.6)">c</text><text xml:space="preserve" font-family="ArialMT" font-size="14.0" fill="#000000" transform="matrix(1.39, 0.00, -0.00, -1.39, 204.5, 172.6)">o</text><text xml:space="preserve" font-family="ArialMT" font-size="14.0" fill="#000000" transform="matrix(1.39, 0.00, -0.00, -1.39, 215.7, 172.6)">u</text><text xml:space="preserve" font-family="ArialMT" font-size="14.0" fill="#000000" transform="matrix(1.39, 0.00, -0.00, -1.39, 226.8, 172.6)">p</text><text xml:space="preserve" font-family="ArialMT" font-size="14.0" fill="#000000" transform="matrix(1.39, 0.00, -0.00, -1.39, 237.9, 172.6)"> </text><text xml:space="preserve" font-family="ArialMT" font-size="14.0" fill="#000000" transform="matrix(1.39, 0.00, -0.00, -1.39, 242.1, 172.6)">d</text><text xml:space="preserve" font-family="ArialMT" font-size="14.0" fill="#000000" transform="matrix(1.39, 0.00, -0.00, -1.39, 253.2, 172.6)">e</text><text xml:space="preserve" font-family="ArialMT" font-size="14.0" fill="#000000" transform="matrix(1.39, 0.00, -0.00, -1.39, 264.4, 172.6)"> </text><text xml:space="preserve" font-family="ArialMT" font-size="14.0" fill="#000000" transform="matrix(1.39, 0.00, -0.00, -1.39, 268.5, 172.6)">t</text><text xml:space="preserve" font-family="ArialMT" font-size="14.0" fill="#000000" transform="matrix(1.39, 0.00, -0.00, -1.39, 274.1, 172.6)">e</text><text xml:space="preserve" font-family="ArialMT" font-size="14.0" fill="#000000" transform="matrix(1.39, 0.00, -0.00, -1.39, 285.2, 172.6)">m</text><text xml:space="preserve" font-family="ArialMT" font-size="14.0" fill="#000000" transform="matrix(1.39, 0.00, -0.00, -1.39, 301.9, 172.6)">p</text><text xml:space="preserve" font-family="ArialMT" font-size="14.0" fill="#000000" transform="matrix(1.39, 0.00, -0.00, -1.39, 313.0, 172.6)">s</text><text xml:space="preserve" font-family="ArialMT" font-size="14.0" fill="#000000" transform="matrix(1.39, 0.00, -0.00, -1.39, 322.8, 172.6)"> </text><text xml:space="preserve" font-family="ArialMT" font-size="14.0" fill="#000000" transform="matrix(1.39, 0.00, -0.00, -1.39, 111.4, 150.4)">a</text><text xml:space="preserve" font-family="ArialMT" font-size="14.0" fill="#000000" transform="matrix(1.39, 0.00, -0.00, -1.39, 122.5, 150.4)">l</text><text xml:space="preserve" font-family="ArialMT" font-size="14.0" fill="#000000" transform="matrix(1.39, 0.00, -0.00, -1.39, 126.7, 150.4)">l</text><text xml:space="preserve" font-family="ArialMT" font-size="14.0" fill="#000000" transform="matrix(1.39, 0.00, -0.00, -1.39, 130.8, 150.4)">o</text><text xml:space="preserve" font-family="ArialMT" font-size="14.0" fill="#000000" transform="matrix(1.39, 0.00, -0.00, -1.39, 142.0, 150.4)">u</text><text xml:space="preserve" font-family="ArialMT" font-size="14.0" fill="#000000" transform="matrix(1.39, 0.00, -0.00, -1.39, 153.1, 150.4)">é</text><text xml:space="preserve" font-family="ArialMT" font-size="14.0" fill="#000000" transform="matrix(1.39, 0.00, -0.00, -1.39, 111.4, 126.8)">P</text><text xml:space="preserve" font-family="ArialMT" font-size="14.0" fill="#000000" transform="matrix(1.39, 0.00, -0.00, -1.39, 123.9, 126.8)">e</text><text xml:space="preserve" font-family="ArialMT" font-size="14.0" fill="#000000" transform="matrix(1.39, 0.00, -0.00, -1.39, 135.0, 126.8)">u</text><text xml:space="preserve" font-family="ArialMT" font-size="14.0" fill="#000000" transform="matrix(1.39, 0.00, -0.00, -1.39, 146.1, 126.8)"> </text><text xml:space="preserve" font-family="ArialMT" font-size="14.0" fill="#000000" transform="matrix(1.39, 0.00, -0.00, -1.39, 151.7, 126.8)">r</text><text xml:space="preserve" font-family="ArialMT" font-size="14.0" fill="#000000" transform="matrix(1.39, 0.00, -0.00, -1.39, 158.6, 126.8)">e</text><text xml:space="preserve" font-family="ArialMT" font-size="14.0" fill="#000000" transform="matrix(1.39, 0.00, -0.00, -1.39, 169.8, 126.8)">c</text><text xml:space="preserve" font-family="ArialMT" font-size="14.0" fill="#000000" transform="matrix(1.39, 0.00, -0.00, -1.39, 179.5, 126.8)">o</text><text xml:space="preserve" font-family="ArialMT" font-size="14.0" fill="#000000" transform="matrix(1.39, 0.00, -0.00, -1.39, 190.6, 126.8)">n</text><text xml:space="preserve" font-family="ArialMT" font-size="14.0" fill="#000000" transform="matrix(1.39, 0.00, -0.00, -1.39, 201.8, 126.8)">n</text><text xml:space="preserve" font-family="ArialMT" font-size="14.0" fill="#000000" transform="matrix(1.39, 0.00, -0.00, -1.39, 212.9, 126.8)">u</text><text xml:space="preserve" font-family="ArialMT" font-size="14.0" fill="#000000" transform="matrix(1.39, 0.00, -0.00, -1.39, 224.0, 126.8)"> </text><text xml:space="preserve" font-family="ArialMT" font-size="14.0" fill="#000000" transform="matrix(1.39, 0.00, -0.00, -1.39, 228.2, 126.8)">p</text><text xml:space="preserve" font-family="ArialMT" font-size="14.0" fill="#000000" transform="matrix(1.39, 0.00, -0.00, -1.39, 239.3, 126.8)">a</text><text xml:space="preserve" font-family="ArialMT" font-size="14.0" fill="#000000" transform="matrix(1.39, 0.00, -0.00, -1.39, 250.4, 126.8)">r</text><text xml:space="preserve" font-family="ArialMT" font-size="14.0" fill="#000000" transform="matrix(1.39, 0.00, -0.00, -1.39, 257.4, 126.8)"> </text><text xml:space="preserve" font-family="ArialMT" font-size="14.0" fill="#000000" transform="matrix(1.39, 0.00, -0.00, -1.39, 261.6, 126.8)">l</text><text xml:space="preserve" font-family="ArialMT" font-size="14.0" fill="#000000" transform="matrix(1.39, 0.00, -0.00, -1.39, 265.7, 126.8)">e</text><text xml:space="preserve" font-family="ArialMT" font-size="14.0" fill="#000000" transform="matrix(1.39, 0.00, -0.00, -1.39, 276.9, 126.8)">s</text><text xml:space="preserve" font-family="ArialMT" font-size="14.0" fill="#000000" transform="matrix(1.39, 0.00, -0.00, -1.39, 286.6, 126.8)"> </text><text xml:space="preserve" font-family="ArialMT" font-size="14.0" fill="#000000" transform="matrix(1.39, 0.00, -0.00, -1.39, 111.4, 103.1)">c</text><text xml:space="preserve" font-family="ArialMT" font-size="14.0" fill="#000000" transform="matrix(1.39, 0.00, -0.00, -1.39, 121.1, 103.1)">o</text><text xml:space="preserve" font-family="ArialMT" font-size="14.0" fill="#000000" transform="matrix(1.39, 0.00, -0.00, -1.39, 132.2, 103.1)">n</text><text xml:space="preserve" font-family="ArialMT" font-size="14.0" fill="#000000" transform="matrix(1.39, 0.00, -0.00, -1.39, 143.3, 103.1)">s</text><text xml:space="preserve" font-family="ArialMT" font-size="14.0" fill="#000000" transform="matrix(1.39, 0.00, -0.00, -1.39, 153.1, 103.1)">u</text><text xml:space="preserve" font-family="ArialMT" font-size="14.0" fill="#000000" transform="matrix(1.39, 0.00, -0.00, -1.39, 164.2, 103.1)">l</text><text xml:space="preserve" font-family="ArialMT" font-size="14.0" fill="#000000" transform="matrix(1.39, 0.00, -0.00, -1.39, 168.4, 103.1)">t</text><text xml:space="preserve" font-family="ArialMT" font-size="14.0" fill="#000000" transform="matrix(1.39, 0.00, -0.00, -1.39, 173.9, 103.1)">a</text><text xml:space="preserve" font-family="ArialMT" font-size="14.0" fill="#000000" transform="matrix(1.39, 0.00, -0.00, -1.39, 185.1, 103.1)">n</text><text xml:space="preserve" font-family="ArialMT" font-size="14.0" fill="#000000" transform="matrix(1.39, 0.00, -0.00, -1.39, 196.2, 103.1)">t</text><text xml:space="preserve" font-family="ArialMT" font-size="14.0" fill="#000000" transform="matrix(1.39, 0.00, -0.00, -1.39, 201.8, 103.1)">s</text><text xml:space="preserve" font-family="ArialMT" font-size="14.0" fill="#000000" transform="matrix(1.39, 0.00, -0.00, -1.39, 211.5, 103.1)">.</text><path d="M 294.4 377.1 C 294.4 385.9 301.6 393.1 310.4 393.1 C 319.3 393.1 326.4 385.9 326.4 377.1 C 326.4 368.3 319.3 361.1 310.4 361.1 C 301.6 361.1 294.4 368.3 294.4 377.1 Z M 294.4 377.1 " fill="#AE1E3A"></path><path d="M 303.6 381.9 C 303.6 382.8 304.4 383.6 305.3 383.6 C 306.2 383.6 307.0 382.8 307.0 381.9 C 307.0 381.0 306.2 380.2 305.3 380.2 C 304.4 380.2 303.6 381.0 303.6 381.9 Z M 313.9 381.9 C 313.9 382.8 314.6 383.6 315.5 383.6 C 316.5 383.6 317.2 382.8 317.2 381.9 C 317.2 381.0 316.5 380.2 315.5 380.2 C 314.6 380.2 313.9 381.0 313.9 381.9 Z M 313.9 381.9 " fill="#8D182E"></path><path d="M 84046.4 102370.1 C 84046.4 93967.9 90857.8 87156.5 99260.0 87156.5 C 107662.2 87156.5 114473.6 93967.9 114473.6 102370.1 C 114473.6 110772.3 107662.2 117583.7 99260.0 117583.7 C 90857.8 117583.7 84046.4 110772.3 84046.4 102370.1 Z M 177626.4 102370.1 C 177626.4 93967.9 184437.8 87156.5 192840.0 87156.5 C 201242.2 87156.5 208053.6 93967.9 208053.6 102370.1 C 208053.6 110772.3 201242.2 117583.7 192840.0 117583.7 C 184437.8 117583.7 177626.4 110772.3 177626.4 102370.1 Z M 177626.4 102370.1 " fill="none" stroke="#FFFFFF" stroke-width="12700.00" stroke-miterlimit="0.00" stroke-linejoin="round" transform="matrix(0.00, 0.00, 0.00, -0.00, 294.4, 393.1)"></path><path d="M 66890.1 236926.2 C 119663.4 200682.5 172375.1 200682.5 225025.2 236926.2 " fill="none" stroke="#FFFFFF" stroke-width="12700.00" stroke-miterlimit="0.00" stroke-linejoin="round" transform="matrix(0.00, 0.00, 0.00, -0.00, 294.4, 393.1)"></path><path d="M 0.0 146050.0 C 0.0 65388.8 65388.8 0.0 146050.0 0.0 C 226711.2 0.0 292100.0 65388.8 292100.0 146050.0 C 292100.0 226711.2 226711.2 292100.0 146050.0 292100.0 C 65388.8 292100.0 0.0 226711.2 0.0 146050.0 Z M 0.0 146050.0 " fill="none" stroke="#FFFFFF" stroke-width="12700.00" stroke-miterlimit="0.00" stroke-linejoin="round" transform="matrix(0.00, 0.00, 0.00, -0.00, 294.4, 393.1)"></path><path d="M 799.3 361.1 C 799.3 370.3 806.5 377.8 815.3 377.8 C 824.1 377.8 831.3 370.3 831.3 361.1 C 831.3 351.9 824.1 344.4 815.3 344.4 C 806.5 344.4 799.3 351.9 799.3 361.1 Z M 799.3 361.1 " fill="#AE1E3A"></path><path d="M 808.5 366.1 C 808.5 367.1 809.2 367.8 810.2 367.8 C 811.1 367.8 811.8 367.1 811.8 366.1 C 811.8 365.1 811.1 364.4 810.2 364.4 C 809.2 364.4 808.5 365.1 808.5 366.1 Z M 818.7 366.1 C 818.7 367.1 819.5 367.8 820.4 367.8 C 821.3 367.8 822.1 367.1 822.1 366.1 C 822.1 365.1 821.3 364.4 820.4 364.4 C 819.5 364.4 818.7 365.1 818.7 366.1 Z M 818.7 366.1 " fill="#8D182E"></path><path d="M 84046.8 106821.0 C 84046.8 98053.5 90858.0 90946.0 99259.8 90946.0 C 107662.4 90946.0 114473.6 98053.5 114473.6 106821.0 C 114473.6 115588.5 107662.4 122696.0 99259.8 122696.0 C 90858.0 122696.0 84046.8 115588.5 84046.8 106821.0 Z M 177626.4 106821.0 C 177626.4 98053.5 184437.6 90946.0 192840.2 90946.0 C 201242.0 90946.0 208053.2 98053.5 208053.2 106821.0 C 208053.2 115588.5 201242.0 122696.0 192840.2 122696.0 C 184437.6 122696.0 177626.4 115588.5 177626.4 106821.0 Z M 177626.4 106821.0 " fill="none" stroke="#FFFFFF" stroke-width="12700.00" stroke-miterlimit="0.00" stroke-linejoin="round" transform="matrix(0.00, 0.00, 0.00, -0.00, 799.3, 377.8)"></path><path d="M 66889.7 247227.3 C 119663.2 209407.8 172374.8 209407.8 225025.0 247227.3 " fill="none" stroke="#FFFFFF" stroke-width="12700.00" stroke-miterlimit="0.00" stroke-linejoin="round" transform="matrix(0.00, 0.00, 0.00, -0.00, 799.3, 377.8)"></path><path d="M 0.0 152400.0 C 0.0 68231.9 65389.0 0.0 146050.0 0.0 C 226711.0 0.0 292100.0 68231.9 292100.0 152400.0 C 292100.0 236568.1 226711.0 304800.0 146050.0 304800.0 C 65389.0 304800.0 0.0 236568.1 0.0 152400.0 Z M 0.0 152400.0 " fill="none" stroke="#FFFFFF" stroke-width="12700.00" stroke-miterlimit="0.00" stroke-linejoin="round" transform="matrix(0.00, 0.00, 0.00, -0.00, 799.3, 377.8)"></path></g></g><g><clipPath id="clip-436"><path d="M 446.7 350.7 L 544.1 350.7 L 544.1 207.4 L 446.7 207.4 Z M 446.7 350.7 "></path></clipPath><g clip-path="url(#clip-436)"><g><clipPath id="clip-437"><path d="M 42.0 35.0 L 889.0 35.0 L 889.0 601.0 L 42.0 601.0 Z M 42.0 35.0 "></path></clipPath><g clip-path="url(#clip-437)"><image xlink:href="EB0F026BEC483FFFAEC5A8B08E278365.png" width="70.00" height="103.00" transform="matrix(1.39, 0.00, -0.00, -1.39, 446.7, 350.7)"></image></g></g></g></g><g><clipPath id="clip-438"><path d="M 42.0 35.0 L 889.0 35.0 L 889.0 601.0 L 42.0 601.0 Z M 42.0 35.0 "></path></clipPath><g clip-path="url(#clip-438)"><text xml:space="preserve" font-family="TimesNewRomanPS-BoldMT" font-weight="bold" font-size="36.0" fill="#43834D" transform="matrix(1.39, 0.00, -0.00, -1.39, 73.3, 538.5)">2</text><text xml:space="preserve" font-family="TimesNewRomanPS-BoldMT" font-weight="bold" font-size="36.0" fill="#43834D" transform="matrix(1.39, 0.00, -0.00, -1.39, 98.3, 538.5)">0</text><text xml:space="preserve" font-family="TimesNewRomanPS-BoldMT" font-weight="bold" font-size="36.0" fill="#43834D" transform="matrix(1.39, 0.00, -0.00, -1.39, 123.3, 538.5)">1</text><text xml:space="preserve" font-family="TimesNewRomanPS-BoldMT" font-weight="bold" font-size="36.0" fill="#43834D" transform="matrix(1.39, 0.00, -0.00, -1.39, 148.4, 538.5)">4</text><text xml:space="preserve" font-family="TimesNewRomanPS-BoldMT" font-weight="bold" font-size="36.0" fill="#43834D" transform="matrix(1.39, 0.00, -0.00, -1.39, 77.0, 247.4)">2</text><text xml:space="preserve" font-family="TimesNewRomanPS-BoldMT" font-weight="bold" font-size="36.0" fill="#43834D" transform="matrix(1.39, 0.00, -0.00, -1.39, 102.0, 247.4)">0</text><text xml:space="preserve" font-family="TimesNewRomanPS-BoldMT" font-weight="bold" font-size="36.0" fill="#43834D" transform="matrix(1.39, 0.00, -0.00, -1.39, 127.0, 247.4)">1</text><text xml:space="preserve" font-family="TimesNewRomanPS-BoldMT" font-weight="bold" font-size="36.0" fill="#43834D" transform="matrix(1.39, 0.00, -0.00, -1.39, 152.1, 247.4)">5</text></g></g></g></svg>