<?xml version="1.0" encoding="UTF-8" standalone="no"?><svg xmlns="http://www.w3.org/2000/svg" xmlns:xlink="http://www.w3.org/1999/xlink" clip-rule="evenodd" stroke-miterlimit="4.00" viewBox="0 0 827 96"><desc>SVG generated by Keynote</desc><defs></defs><g transform="matrix(1.00, 0.00, -0.00, -1.00, 0.0, 96.0)"><image xlink:href="../../5D6991D8-54BE-4C76-B524-3D7647ABE05B/assets/42BB294FFF80A51ED7DEA3C2DF509397.png" width="824.00" height="93.00" transform="matrix(1.00, 0.00, -0.00, -1.00, 2.0, 95.0)"></image><text xml:space="preserve" font-family="Lato-Light" font-size="84.0" fill="#FFFFFF" transform="matrix(1.00, 0.00, -0.00, -1.00, 6.0, 27.0)">«</text><text xml:space="preserve" font-family="Lato-Light" font-size="84.0" fill="#FFFFFF" transform="matrix(1.00, 0.00, -0.00, -1.00, 39.3, 27.0)"> </text><text xml:space="preserve" font-family="Lato-Light" font-size="84.0" fill="#FFFFFF" transform="matrix(1.00, 0.00, -0.00, -1.00, 62.1, 27.0)">I</text><text xml:space="preserve" font-family="Lato-Light" font-size="84.0" fill="#FFFFFF" transform="matrix(1.00, 0.00, -0.00, -1.00, 83.3, 27.0)">l</text><text xml:space="preserve" font-family="Lato-Light" font-size="84.0" fill="#FFFFFF" transform="matrix(1.00, 0.00, -0.00, -1.00, 101.8, 27.0)"> </text><text xml:space="preserve" font-family="Lato-Light" font-size="84.0" fill="#FFFFFF" transform="matrix(1.00, 0.00, -0.00, -1.00, 124.6, 27.0)">n</text><text xml:space="preserve" font-family="Lato-Light" font-size="84.0" fill="#FFFFFF" transform="matrix(1.00, 0.00, -0.00, -1.00, 170.8, 27.0)">e</text><text xml:space="preserve" font-family="Lato-Light" font-size="84.0" fill="#FFFFFF" transform="matrix(1.00, 0.00, -0.00, -1.00, 214.6, 27.0)"> </text><text xml:space="preserve" font-family="Lato-Light" font-size="84.0" fill="#FFFFFF" transform="matrix(1.00, 0.00, -0.00, -1.00, 237.3, 27.0)">f</text><text xml:space="preserve" font-family="Lato-Light" font-size="84.0" fill="#FFFFFF" transform="matrix(1.00, 0.00, -0.00, -1.00, 265.5, 27.0)">a</text><text xml:space="preserve" font-family="Lato-Light" font-size="84.0" fill="#FFFFFF" transform="matrix(1.00, 0.00, -0.00, -1.00, 306.2, 27.0)">u</text><text xml:space="preserve" font-family="Lato-Light" font-size="84.0" fill="#FFFFFF" transform="matrix(1.00, 0.00, -0.00, -1.00, 352.3, 27.0)">t</text><text xml:space="preserve" font-family="Lato-Light" font-size="84.0" fill="#FFFFFF" transform="matrix(1.00, 0.00, -0.00, -1.00, 381.0, 27.0)"> </text><text xml:space="preserve" font-family="Lato-Light" font-size="84.0" fill="#FFFFFF" transform="matrix(1.00, 0.00, -0.00, -1.00, 403.8, 27.0)">p</text><text xml:space="preserve" font-family="Lato-Light" font-size="84.0" fill="#FFFFFF" transform="matrix(1.00, 0.00, -0.00, -1.00, 450.1, 27.0)">a</text><text xml:space="preserve" font-family="Lato-Light" font-size="84.0" fill="#FFFFFF" transform="matrix(1.00, 0.00, -0.00, -1.00, 490.7, 27.0)">s</text><text xml:space="preserve" font-family="Lato-Light" font-size="84.0" fill="#FFFFFF" transform="matrix(1.00, 0.00, -0.00, -1.00, 526.4, 27.0)"> </text><text xml:space="preserve" font-family="Lato-Light" font-size="84.0" fill="#FFFFFF" transform="matrix(1.00, 0.00, -0.00, -1.00, 549.2, 27.0)">f</text><text xml:space="preserve" font-family="Lato-Light" font-size="84.0" fill="#FFFFFF" transform="matrix(1.00, 0.00, -0.00, -1.00, 577.4, 27.0)">a</text><text xml:space="preserve" font-family="Lato-Light" font-size="84.0" fill="#FFFFFF" transform="matrix(1.00, 0.00, -0.00, -1.00, 618.0, 27.0)">i</text><text xml:space="preserve" font-family="Lato-Light" font-size="84.0" fill="#FFFFFF" transform="matrix(1.00, 0.00, -0.00, -1.00, 636.7, 27.0)">r</text><text xml:space="preserve" font-family="Lato-Light" font-size="84.0" fill="#FFFFFF" transform="matrix(1.00, 0.00, -0.00, -1.00, 664.0, 27.0)">e</text><text xml:space="preserve" font-family="Lato-Light" font-size="84.0" fill="#FFFFFF" transform="matrix(1.00, 0.00, -0.00, -1.00, 707.7, 27.0)"> </text><text xml:space="preserve" font-family="Lato-Light" font-size="84.0" fill="#FFFFFF" transform="matrix(1.00, 0.00, -0.00, -1.00, 730.5, 27.0)">d</text><text xml:space="preserve" font-family="Lato-Light" font-size="84.0" fill="#FFFFFF" transform="matrix(1.00, 0.00, -0.00, -1.00, 776.8, 27.0)">e</text></g></svg>