<?xml version="1.0" encoding="UTF-8" standalone="no"?><svg xmlns="http://www.w3.org/2000/svg" xmlns:xlink="http://www.w3.org/1999/xlink" clip-rule="evenodd" stroke-miterlimit="4.00" viewBox="0 0 367 29"><desc>SVG generated by Keynote</desc><defs></defs><g transform="matrix(1.00, 0.00, -0.00, -1.00, 0.0, 29.0)"><text xml:space="preserve" font-family="Avenir-Light" font-size="34.0" fill="#55D6FF" transform="matrix(1.00, 0.00, -0.00, -1.00, 0.0, 2.0)">-</text><text xml:space="preserve" font-family="Avenir-Light" font-size="34.0" fill="#55D6FF" transform="matrix(1.00, 0.00, -0.00, -1.00, 16.8, 2.0)">C</text><text xml:space="preserve" font-family="Avenir-Light" font-size="34.0" fill="#55D6FF" transform="matrix(1.00, 0.00, -0.00, -1.00, 46.1, 2.0)">O</text><text xml:space="preserve" font-family="Avenir-Light" font-size="34.0" fill="#55D6FF" transform="matrix(1.00, 0.00, -0.00, -1.00, 79.9, 2.0)">L</text><text xml:space="preserve" font-family="Avenir-Light" font-size="34.0" fill="#55D6FF" transform="matrix(1.00, 0.00, -0.00, -1.00, 102.4, 2.0)">L</text><text xml:space="preserve" font-family="Avenir-Light" font-size="34.0" fill="#55D6FF" transform="matrix(1.00, 0.00, -0.00, -1.00, 124.8, 2.0)">A</text><text xml:space="preserve" font-family="Avenir-Light" font-size="34.0" fill="#55D6FF" transform="matrix(1.00, 0.00, -0.00, -1.00, 153.5, 2.0)">B</text><text xml:space="preserve" font-family="Avenir-Light" font-size="34.0" fill="#55D6FF" transform="matrix(1.00, 0.00, -0.00, -1.00, 180.4, 2.0)">O</text><text xml:space="preserve" font-family="Avenir-Light" font-size="34.0" fill="#55D6FF" transform="matrix(1.00, 0.00, -0.00, -1.00, 214.2, 2.0)">R</text><text xml:space="preserve" font-family="Avenir-Light" font-size="34.0" fill="#55D6FF" transform="matrix(1.00, 0.00, -0.00, -1.00, 239.8, 2.0)">A</text><text xml:space="preserve" font-family="Avenir-Light" font-size="34.0" fill="#55D6FF" transform="matrix(1.00, 0.00, -0.00, -1.00, 266.2, 2.0)">T</text><text xml:space="preserve" font-family="Avenir-Light" font-size="34.0" fill="#55D6FF" transform="matrix(1.00, 0.00, -0.00, -1.00, 291.2, 2.0)">E</text><text xml:space="preserve" font-family="Avenir-Light" font-size="34.0" fill="#55D6FF" transform="matrix(1.00, 0.00, -0.00, -1.00, 316.8, 2.0)">U</text><text xml:space="preserve" font-family="Avenir-Light" font-size="34.0" fill="#55D6FF" transform="matrix(1.00, 0.00, -0.00, -1.00, 345.5, 2.0)">R</text></g></svg>