<?xml version="1.0" encoding="UTF-8" standalone="no"?><svg xmlns="http://www.w3.org/2000/svg" xmlns:xlink="http://www.w3.org/1999/xlink" clip-rule="evenodd" stroke-miterlimit="4.00" viewBox="0 0 351 178"><desc>SVG generated by Keynote</desc><defs><linearGradient id="gradSh1.44" x1="0.0" y1="0.0" x2="1.0" y2="0.0" gradientUnits="userSpaceOnUse" gradientTransform="matrix(27.97, 0.00, 0.00, 27.81, 321.6, 166.7)"><stop offset="0.00000" stop-color="#000000"></stop><stop offset="0.00073" stop-color="#000101"></stop><stop offset="0.00147" stop-color="#010101"></stop><stop offset="0.00220" stop-color="#010202"></stop><stop offset="0.00293" stop-color="#020202"></stop><stop offset="0.00367" stop-color="#020303"></stop><stop offset="0.00587" stop-color="#040404"></stop><stop offset="0.00660" stop-color="#040505"></stop><stop offset="0.01173" stop-color="#080808"></stop><stop offset="0.01246" stop-color="#080909"></stop><stop offset="0.02346" stop-color="#101010"></stop><stop offset="0.02419" stop-color="#101111"></stop><stop offset="0.04692" stop-color="#202021"></stop><stop offset="0.04765" stop-color="#202121"></stop><stop offset="0.09677" stop-color="#3E3F40"></stop><stop offset="0.09751" stop-color="#3F4040"></stop><stop offset="0.09824" stop-color="#3F4041"></stop><stop offset="0.09897" stop-color="#404041"></stop><stop offset="0.09971" stop-color="#404142"></stop><stop offset="0.21628" stop-color="#808080"></stop><stop offset="0.21701" stop-color="#808081"></stop><stop offset="1.00000" stop-color="#FFFFFF"></stop></linearGradient><linearGradient id="gradSh1.45" x1="0.0" y1="0.0" x2="1.0" y2="0.0" gradientUnits="userSpaceOnUse" gradientTransform="matrix(37.45, 0.00, 0.00, 37.23, 269.4, 84.9)"><stop offset="0.00000" stop-color="#000000"></stop><stop offset="0.00073" stop-color="#000101"></stop><stop offset="0.00147" stop-color="#010101"></stop><stop offset="0.00220" stop-color="#010202"></stop><stop offset="0.00293" stop-color="#020202"></stop><stop offset="0.00367" stop-color="#020303"></stop><stop offset="0.00587" stop-color="#040404"></stop><stop offset="0.00660" stop-color="#040505"></stop><stop offset="0.01173" stop-color="#080808"></stop><stop offset="0.01246" stop-color="#080909"></stop><stop offset="0.02346" stop-color="#101010"></stop><stop offset="0.02419" stop-color="#101111"></stop><stop offset="0.04692" stop-color="#202021"></stop><stop offset="0.04765" stop-color="#202121"></stop><stop offset="0.09677" stop-color="#3E3F40"></stop><stop offset="0.09751" stop-color="#3F4040"></stop><stop offset="0.09824" stop-color="#3F4041"></stop><stop offset="0.09897" stop-color="#404041"></stop><stop offset="0.09971" stop-color="#404142"></stop><stop offset="0.21628" stop-color="#808080"></stop><stop offset="0.21701" stop-color="#808081"></stop><stop offset="1.00000" stop-color="#FFFFFF"></stop></linearGradient><linearGradient id="gradSh1.46" x1="0.0" y1="0.0" x2="1.0" y2="0.0" gradientUnits="userSpaceOnUse" gradientTransform="matrix(12.65, 0.00, 0.00, 12.57, 216.4, 104.2)"><stop offset="0.00000" stop-color="#000000"></stop><stop offset="0.00073" stop-color="#000101"></stop><stop offset="0.00147" stop-color="#010101"></stop><stop offset="0.00220" stop-color="#010202"></stop><stop offset="0.00293" stop-color="#020202"></stop><stop offset="0.00367" stop-color="#020303"></stop><stop offset="0.00587" stop-color="#040404"></stop><stop offset="0.00660" stop-color="#040505"></stop><stop offset="0.01173" stop-color="#080808"></stop><stop offset="0.01246" stop-color="#080909"></stop><stop offset="0.02346" stop-color="#101010"></stop><stop offset="0.02419" stop-color="#101111"></stop><stop offset="0.04692" stop-color="#202021"></stop><stop offset="0.04765" stop-color="#202121"></stop><stop offset="0.09677" stop-color="#3E3F40"></stop><stop offset="0.09751" stop-color="#3F4040"></stop><stop offset="0.09824" stop-color="#3F4041"></stop><stop offset="0.09897" stop-color="#404041"></stop><stop offset="0.09971" stop-color="#404142"></stop><stop offset="0.21628" stop-color="#808080"></stop><stop offset="0.21701" stop-color="#808081"></stop><stop offset="1.00000" stop-color="#FFFFFF"></stop></linearGradient><linearGradient id="gradSh1.47" x1="0.0" y1="0.0" x2="1.0" y2="0.0" gradientUnits="userSpaceOnUse" gradientTransform="matrix(41.34, 0.00, 0.00, 41.10, 197.9, 16.1)"><stop offset="0.00000" stop-color="#000000"></stop><stop offset="0.00073" stop-color="#000101"></stop><stop offset="0.00147" stop-color="#010101"></stop><stop offset="0.00220" stop-color="#010202"></stop><stop offset="0.00293" stop-color="#020202"></stop><stop offset="0.00367" stop-color="#020303"></stop><stop offset="0.00587" stop-color="#040404"></stop><stop offset="0.00660" stop-color="#040505"></stop><stop offset="0.01173" stop-color="#080808"></stop><stop offset="0.01246" stop-color="#080909"></stop><stop offset="0.02346" stop-color="#101010"></stop><stop offset="0.02419" stop-color="#101111"></stop><stop offset="0.04692" stop-color="#202021"></stop><stop offset="0.04765" stop-color="#202121"></stop><stop offset="0.09677" stop-color="#3E3F40"></stop><stop offset="0.09751" stop-color="#3F4040"></stop><stop offset="0.09824" stop-color="#3F4041"></stop><stop offset="0.09897" stop-color="#404041"></stop><stop offset="0.09971" stop-color="#404142"></stop><stop offset="0.21628" stop-color="#808080"></stop><stop offset="0.21701" stop-color="#808081"></stop><stop offset="1.00000" stop-color="#FFFFFF"></stop></linearGradient><linearGradient id="gradSh1.48" x1="0.0" y1="0.0" x2="1.0" y2="0.0" gradientUnits="userSpaceOnUse" gradientTransform="matrix(31.37, 0.00, 0.00, 31.19, 187.2, 39.7)"><stop offset="0.00000" stop-color="#000000"></stop><stop offset="0.00073" stop-color="#000101"></stop><stop offset="0.00147" stop-color="#010101"></stop><stop offset="0.00220" stop-color="#010202"></stop><stop offset="0.00293" stop-color="#020202"></stop><stop offset="0.00367" stop-color="#020303"></stop><stop offset="0.00587" stop-color="#040404"></stop><stop offset="0.00660" stop-color="#040505"></stop><stop offset="0.01173" stop-color="#080808"></stop><stop offset="0.01246" stop-color="#080909"></stop><stop offset="0.02346" stop-color="#101010"></stop><stop offset="0.02419" stop-color="#101111"></stop><stop offset="0.04692" stop-color="#202021"></stop><stop offset="0.04765" stop-color="#202121"></stop><stop offset="0.09677" stop-color="#3E3F40"></stop><stop offset="0.09751" stop-color="#3F4040"></stop><stop offset="0.09824" stop-color="#3F4041"></stop><stop offset="0.09897" stop-color="#404041"></stop><stop offset="0.09971" stop-color="#404142"></stop><stop offset="0.21628" stop-color="#808080"></stop><stop offset="0.21701" stop-color="#808081"></stop><stop offset="1.00000" stop-color="#FFFFFF"></stop></linearGradient><linearGradient id="gradSh1.49" x1="0.0" y1="0.0" x2="1.0" y2="0.0" gradientUnits="userSpaceOnUse" gradientTransform="matrix(21.16, 0.00, 0.00, 21.04, 174.8, 163.9)"><stop offset="0.00000" stop-color="#000000"></stop><stop offset="0.00073" stop-color="#000101"></stop><stop offset="0.00147" stop-color="#010101"></stop><stop offset="0.00220" stop-color="#010202"></stop><stop offset="0.00293" stop-color="#020202"></stop><stop offset="0.00367" stop-color="#020303"></stop><stop offset="0.00587" stop-color="#040404"></stop><stop offset="0.00660" stop-color="#040505"></stop><stop offset="0.01173" stop-color="#080808"></stop><stop offset="0.01246" stop-color="#080909"></stop><stop offset="0.02346" stop-color="#101010"></stop><stop offset="0.02419" stop-color="#101111"></stop><stop offset="0.04692" stop-color="#202021"></stop><stop offset="0.04765" stop-color="#202121"></stop><stop offset="0.09677" stop-color="#3E3F40"></stop><stop offset="0.09751" stop-color="#3F4040"></stop><stop offset="0.09824" stop-color="#3F4041"></stop><stop offset="0.09897" stop-color="#404041"></stop><stop offset="0.09971" stop-color="#404142"></stop><stop offset="0.21628" stop-color="#808080"></stop><stop offset="0.21701" stop-color="#808081"></stop><stop offset="1.00000" stop-color="#FFFFFF"></stop></linearGradient><linearGradient id="gradSh1.50" x1="0.0" y1="0.0" x2="1.0" y2="0.0" gradientUnits="userSpaceOnUse" gradientTransform="matrix(47.42, 0.00, 0.00, 47.15, 132.4, 125.3)"><stop offset="0.00000" stop-color="#000000"></stop><stop offset="0.00073" stop-color="#000101"></stop><stop offset="0.00147" stop-color="#010101"></stop><stop offset="0.00220" stop-color="#010202"></stop><stop offset="0.00293" stop-color="#020202"></stop><stop offset="0.00367" stop-color="#020303"></stop><stop offset="0.00587" stop-color="#040404"></stop><stop offset="0.00660" stop-color="#040505"></stop><stop offset="0.01173" stop-color="#080808"></stop><stop offset="0.01246" stop-color="#080909"></stop><stop offset="0.02346" stop-color="#101010"></stop><stop offset="0.02419" stop-color="#101111"></stop><stop offset="0.04692" stop-color="#202021"></stop><stop offset="0.04765" stop-color="#202121"></stop><stop offset="0.09677" stop-color="#3E3F40"></stop><stop offset="0.09751" stop-color="#3F4040"></stop><stop offset="0.09824" stop-color="#3F4041"></stop><stop offset="0.09897" stop-color="#404041"></stop><stop offset="0.09971" stop-color="#404142"></stop><stop offset="0.21628" stop-color="#808080"></stop><stop offset="0.21701" stop-color="#808081"></stop><stop offset="1.00000" stop-color="#FFFFFF"></stop></linearGradient><linearGradient id="gradSh1.51" x1="0.0" y1="0.0" x2="1.0" y2="0.0" gradientUnits="userSpaceOnUse" gradientTransform="matrix(34.04, 0.00, 0.00, 33.85, 134.4, 73.2)"><stop offset="0.00000" stop-color="#000000"></stop><stop offset="0.00073" stop-color="#000101"></stop><stop offset="0.00147" stop-color="#010101"></stop><stop offset="0.00220" stop-color="#010202"></stop><stop offset="0.00293" stop-color="#020202"></stop><stop offset="0.00367" stop-color="#020303"></stop><stop offset="0.00587" stop-color="#040404"></stop><stop offset="0.00660" stop-color="#040505"></stop><stop offset="0.01173" stop-color="#080808"></stop><stop offset="0.01246" stop-color="#080909"></stop><stop offset="0.02346" stop-color="#101010"></stop><stop offset="0.02419" stop-color="#101111"></stop><stop offset="0.04692" stop-color="#202021"></stop><stop offset="0.04765" stop-color="#202121"></stop><stop offset="0.09677" stop-color="#3E3F40"></stop><stop offset="0.09751" stop-color="#3F4040"></stop><stop offset="0.09824" stop-color="#3F4041"></stop><stop offset="0.09897" stop-color="#404041"></stop><stop offset="0.09971" stop-color="#404142"></stop><stop offset="0.21628" stop-color="#808080"></stop><stop offset="0.21701" stop-color="#808081"></stop><stop offset="1.00000" stop-color="#FFFFFF"></stop></linearGradient><linearGradient id="gradSh1.52" x1="0.0" y1="0.0" x2="1.0" y2="0.0" gradientUnits="userSpaceOnUse" gradientTransform="matrix(32.83, 0.00, 0.00, 32.64, 110.6, 90.6)"><stop offset="0.00000" stop-color="#000000"></stop><stop offset="0.00073" stop-color="#000101"></stop><stop offset="0.00147" stop-color="#010101"></stop><stop offset="0.00220" stop-color="#010202"></stop><stop offset="0.00293" stop-color="#020202"></stop><stop offset="0.00367" stop-color="#020303"></stop><stop offset="0.00587" stop-color="#040404"></stop><stop offset="0.00660" stop-color="#040505"></stop><stop offset="0.01173" stop-color="#080808"></stop><stop offset="0.01246" stop-color="#080909"></stop><stop offset="0.02346" stop-color="#101010"></stop><stop offset="0.02419" stop-color="#101111"></stop><stop offset="0.04692" stop-color="#202021"></stop><stop offset="0.04765" stop-color="#202121"></stop><stop offset="0.09677" stop-color="#3E3F40"></stop><stop offset="0.09751" stop-color="#3F4040"></stop><stop offset="0.09824" stop-color="#3F4041"></stop><stop offset="0.09897" stop-color="#404041"></stop><stop offset="0.09971" stop-color="#404142"></stop><stop offset="0.21628" stop-color="#808080"></stop><stop offset="0.21701" stop-color="#808081"></stop><stop offset="1.00000" stop-color="#FFFFFF"></stop></linearGradient><linearGradient id="gradSh1.53" x1="0.0" y1="0.0" x2="1.0" y2="0.0" gradientUnits="userSpaceOnUse" gradientTransform="matrix(13.37, 0.00, 0.00, 13.30, 66.8, 33.4)"><stop offset="0.00000" stop-color="#000000"></stop><stop offset="0.00073" stop-color="#000101"></stop><stop offset="0.00147" stop-color="#010101"></stop><stop offset="0.00220" stop-color="#010202"></stop><stop offset="0.00293" stop-color="#020202"></stop><stop offset="0.00367" stop-color="#020303"></stop><stop offset="0.00587" stop-color="#040404"></stop><stop offset="0.00660" stop-color="#040505"></stop><stop offset="0.01173" stop-color="#080808"></stop><stop offset="0.01246" stop-color="#080909"></stop><stop offset="0.02346" stop-color="#101010"></stop><stop offset="0.02419" stop-color="#101111"></stop><stop offset="0.04692" stop-color="#202021"></stop><stop offset="0.04765" stop-color="#202121"></stop><stop offset="0.09677" stop-color="#3E3F40"></stop><stop offset="0.09751" stop-color="#3F4040"></stop><stop offset="0.09824" stop-color="#3F4041"></stop><stop offset="0.09897" stop-color="#404041"></stop><stop offset="0.09971" stop-color="#404142"></stop><stop offset="0.21628" stop-color="#808080"></stop><stop offset="0.21701" stop-color="#808081"></stop><stop offset="1.00000" stop-color="#FFFFFF"></stop></linearGradient><linearGradient id="gradSh1.54" x1="0.0" y1="0.0" x2="1.0" y2="0.0" gradientUnits="userSpaceOnUse" gradientTransform="matrix(44.99, 0.00, 0.00, 44.73, 26.9, 86.2)"><stop offset="0.00000" stop-color="#000000"></stop><stop offset="0.00073" stop-color="#000101"></stop><stop offset="0.00147" stop-color="#010101"></stop><stop offset="0.00220" stop-color="#010202"></stop><stop offset="0.00293" stop-color="#020202"></stop><stop offset="0.00367" stop-color="#020303"></stop><stop offset="0.00587" stop-color="#040404"></stop><stop offset="0.00660" stop-color="#040505"></stop><stop offset="0.01173" stop-color="#080808"></stop><stop offset="0.01246" stop-color="#080909"></stop><stop offset="0.02346" stop-color="#101010"></stop><stop offset="0.02419" stop-color="#101111"></stop><stop offset="0.04692" stop-color="#202021"></stop><stop offset="0.04765" stop-color="#202121"></stop><stop offset="0.09677" stop-color="#3E3F40"></stop><stop offset="0.09751" stop-color="#3F4040"></stop><stop offset="0.09824" stop-color="#3F4041"></stop><stop offset="0.09897" stop-color="#404041"></stop><stop offset="0.09971" stop-color="#404142"></stop><stop offset="0.21628" stop-color="#808080"></stop><stop offset="0.21701" stop-color="#808081"></stop><stop offset="1.00000" stop-color="#FFFFFF"></stop></linearGradient><linearGradient id="gradSh1.55" x1="0.0" y1="0.0" x2="1.0" y2="0.0" gradientUnits="userSpaceOnUse" gradientTransform="matrix(18.72, 0.00, 0.00, 18.62, 26.9, 132.7)"><stop offset="0.00000" stop-color="#000000"></stop><stop offset="0.00073" stop-color="#000101"></stop><stop offset="0.00147" stop-color="#010101"></stop><stop offset="0.00220" stop-color="#010202"></stop><stop offset="0.00293" stop-color="#020202"></stop><stop offset="0.00367" stop-color="#020303"></stop><stop offset="0.00587" stop-color="#040404"></stop><stop offset="0.00660" stop-color="#040505"></stop><stop offset="0.01173" stop-color="#080808"></stop><stop offset="0.01246" stop-color="#080909"></stop><stop offset="0.02346" stop-color="#101010"></stop><stop offset="0.02419" stop-color="#101111"></stop><stop offset="0.04692" stop-color="#202021"></stop><stop offset="0.04765" stop-color="#202121"></stop><stop offset="0.09677" stop-color="#3E3F40"></stop><stop offset="0.09751" stop-color="#3F4040"></stop><stop offset="0.09824" stop-color="#3F4041"></stop><stop offset="0.09897" stop-color="#404041"></stop><stop offset="0.09971" stop-color="#404142"></stop><stop offset="0.21628" stop-color="#808080"></stop><stop offset="0.21701" stop-color="#808081"></stop><stop offset="1.00000" stop-color="#FFFFFF"></stop></linearGradient><linearGradient id="gradSh1.56" x1="0.0" y1="0.0" x2="1.0" y2="0.0" gradientUnits="userSpaceOnUse" gradientTransform="matrix(20.67, 0.00, 0.00, 20.55, 1.1, 26.1)"><stop offset="0.00000" stop-color="#000000"></stop><stop offset="0.00073" stop-color="#000101"></stop><stop offset="0.00147" stop-color="#010101"></stop><stop offset="0.00220" stop-color="#010202"></stop><stop offset="0.00293" stop-color="#020202"></stop><stop offset="0.00367" stop-color="#020303"></stop><stop offset="0.00587" stop-color="#040404"></stop><stop offset="0.00660" stop-color="#040505"></stop><stop offset="0.01173" stop-color="#080808"></stop><stop offset="0.01246" stop-color="#080909"></stop><stop offset="0.02346" stop-color="#101010"></stop><stop offset="0.02419" stop-color="#101111"></stop><stop offset="0.04692" stop-color="#202021"></stop><stop offset="0.04765" stop-color="#202121"></stop><stop offset="0.09677" stop-color="#3E3F40"></stop><stop offset="0.09751" stop-color="#3F4040"></stop><stop offset="0.09824" stop-color="#3F4041"></stop><stop offset="0.09897" stop-color="#404041"></stop><stop offset="0.09971" stop-color="#404142"></stop><stop offset="0.21628" stop-color="#808080"></stop><stop offset="0.21701" stop-color="#808081"></stop><stop offset="1.00000" stop-color="#FFFFFF"></stop></linearGradient></defs><g transform="matrix(1.00, 0.00, -0.00, -1.00, 0.0, 178.0)"><g><clipPath id="clip-227"><path d="M 321.6 157.5 L 349.6 170.8 L 322.9 175.9 Z M 321.6 157.5 "></path></clipPath><g clip-path="url(#clip-227)"><g><clipPath id="clip-228"><path d="M 1.0 2.0 L 350.0 2.0 L 350.0 176.0 L 1.0 176.0 Z M 1.0 2.0 "></path></clipPath><g clip-path="url(#clip-228)"><path d="M 1.0 2.0 L 350.0 2.0 L 350.0 176.0 L 1.0 176.0 Z M 1.0 2.0 " fill="url(#gradSh1.44)"></path></g></g></g></g><g><clipPath id="clip-229"><path d="M 1.0 176.0 L 350.0 176.0 L 350.0 2.0 L 1.0 2.0 Z M 1.0 176.0 "></path></clipPath><g clip-path="url(#clip-229)"><g><clipPath id="clip-230"><path d="M 1.0 2.0 L 350.0 2.0 L 350.0 176.0 L 1.0 176.0 Z M 1.0 2.0 "></path></clipPath><g clip-path="url(#clip-230)"><path d="M 0.0 0.0 L -5.0 -76.0 L 110.0 -21.0 L 0.0 0.0 Z M 0.0 0.0 " fill="none" stroke="#FFFAF8" stroke-width="1.00" stroke-miterlimit="0.00" transform="matrix(0.24, 0.00, 0.00, 0.24, 322.9, 175.9)"></path></g></g></g></g><g><clipPath id="clip-231"><path d="M 294.9 95.1 L 269.4 74.8 L 306.8 84.9 Z M 294.9 95.1 "></path></clipPath><g clip-path="url(#clip-231)"><g><clipPath id="clip-232"><path d="M 1.0 2.0 L 350.0 2.0 L 350.0 176.0 L 1.0 176.0 Z M 1.0 2.0 "></path></clipPath><g clip-path="url(#clip-232)"><path d="M 1.0 2.0 L 350.0 2.0 L 350.0 176.0 L 1.0 176.0 Z M 1.0 2.0 " fill="url(#gradSh1.45)"></path></g></g></g></g><g><clipPath id="clip-233"><path d="M 1.0 2.0 L 350.0 2.0 L 350.0 176.0 L 1.0 176.0 Z M 1.0 2.0 "></path></clipPath><g clip-path="url(#clip-233)"><path d="M 0.0 0.0 L -105.0 -84.0 L 49.0 -42.0 L 0.0 0.0 Z M 0.0 0.0 " fill="none" stroke="#FFFAF8" stroke-width="1.00" stroke-miterlimit="0.00" transform="matrix(0.24, 0.00, 0.00, 0.24, 294.9, 95.1)"></path></g></g><g><clipPath id="clip-234"><path d="M 227.1 120.7 L 216.4 87.6 L 229.0 93.6 Z M 227.1 120.7 "></path></clipPath><g clip-path="url(#clip-234)"><g><clipPath id="clip-235"><path d="M 1.0 2.0 L 350.0 2.0 L 350.0 176.0 L 1.0 176.0 Z M 1.0 2.0 "></path></clipPath><g clip-path="url(#clip-235)"><path d="M 1.0 2.0 L 350.0 2.0 L 350.0 176.0 L 1.0 176.0 Z M 1.0 2.0 " fill="url(#gradSh1.46)"></path></g></g></g></g><g><clipPath id="clip-236"><path d="M 1.0 2.0 L 350.0 2.0 L 350.0 176.0 L 1.0 176.0 Z M 1.0 2.0 "></path></clipPath><g clip-path="url(#clip-236)"><path d="M 0.0 0.0 L -44.0 -137.0 L 8.0 -112.0 L 0.0 0.0 Z M 0.0 0.0 " fill="none" stroke="#FFFAF8" stroke-width="1.00" stroke-miterlimit="0.00" transform="matrix(0.24, 0.00, 0.00, 0.24, 227.1, 120.7)"></path></g></g><g><clipPath id="clip-237"><path d="M 197.9 25.2 L 234.3 2.2 L 239.2 30.0 Z M 197.9 25.2 "></path></clipPath><g clip-path="url(#clip-237)"><g><clipPath id="clip-238"><path d="M 1.0 2.0 L 350.0 2.0 L 350.0 176.0 L 1.0 176.0 Z M 1.0 2.0 "></path></clipPath><g clip-path="url(#clip-238)"><path d="M 1.0 2.0 L 350.0 2.0 L 350.0 176.0 L 1.0 176.0 Z M 1.0 2.0 " fill="url(#gradSh1.47)"></path></g></g></g></g><g><clipPath id="clip-239"><path d="M 1.0 176.0 L 350.0 176.0 L 350.0 2.0 L 1.0 2.0 Z M 1.0 176.0 "></path></clipPath><g clip-path="url(#clip-239)"><g><clipPath id="clip-240"><path d="M 1.0 2.0 L 350.0 2.0 L 350.0 176.0 L 1.0 176.0 Z M 1.0 2.0 "></path></clipPath><g clip-path="url(#clip-240)"><path d="M 0.0 0.0 L 150.0 -95.0 L 170.0 20.0 L 0.0 0.0 Z M 0.0 0.0 " fill="none" stroke="#FFFAF8" stroke-width="1.00" stroke-miterlimit="0.00" transform="matrix(0.24, 0.00, 0.00, 0.24, 197.9, 25.2)"></path></g></g></g></g><g><clipPath id="clip-241"><path d="M 199.1 56.4 L 187.2 23.0 L 218.5 41.7 Z M 199.1 56.4 "></path></clipPath><g clip-path="url(#clip-241)"><g><clipPath id="clip-242"><path d="M 1.0 2.0 L 350.0 2.0 L 350.0 176.0 L 1.0 176.0 Z M 1.0 2.0 "></path></clipPath><g clip-path="url(#clip-242)"><path d="M 1.0 2.0 L 350.0 2.0 L 350.0 176.0 L 1.0 176.0 Z M 1.0 2.0 " fill="url(#gradSh1.48)"></path></g></g></g></g><g><clipPath id="clip-243"><path d="M 1.0 2.0 L 350.0 2.0 L 350.0 176.0 L 1.0 176.0 Z M 1.0 2.0 "></path></clipPath><g clip-path="url(#clip-243)"><path d="M 0.0 0.0 L -49.0 -138.0 L 80.0 -61.0 L 0.0 0.0 Z M 0.0 0.0 " fill="none" stroke="#FFFAF8" stroke-width="1.00" stroke-miterlimit="0.00" transform="matrix(0.24, 0.00, 0.00, 0.24, 199.1, 56.4)"></path></g></g><g><clipPath id="clip-244"><path d="M 180.4 172.7 L 174.8 157.2 L 195.9 155.1 Z M 180.4 172.7 "></path></clipPath><g clip-path="url(#clip-244)"><g><clipPath id="clip-245"><path d="M 1.0 2.0 L 350.0 2.0 L 350.0 176.0 L 1.0 176.0 Z M 1.0 2.0 "></path></clipPath><g clip-path="url(#clip-245)"><path d="M 1.0 2.0 L 350.0 2.0 L 350.0 176.0 L 1.0 176.0 Z M 1.0 2.0 " fill="url(#gradSh1.49)"></path></g></g></g></g><g><clipPath id="clip-246"><path d="M 1.0 2.0 L 350.0 2.0 L 350.0 176.0 L 1.0 176.0 Z M 1.0 2.0 "></path></clipPath><g clip-path="url(#clip-246)"><path d="M 0.0 0.0 L -23.0 -64.0 L 64.0 -73.0 L 0.0 0.0 Z M 0.0 0.0 " fill="none" stroke="#FFFAF8" stroke-width="1.00" stroke-miterlimit="0.00" transform="matrix(0.24, 0.00, 0.00, 0.24, 180.4, 172.7)"></path></g></g><g><clipPath id="clip-247"><path d="M 132.4 138.4 L 145.5 112.3 L 179.8 137.2 Z M 132.4 138.4 "></path></clipPath><g clip-path="url(#clip-247)"><g><clipPath id="clip-248"><path d="M 1.0 2.0 L 350.0 2.0 L 350.0 176.0 L 1.0 176.0 Z M 1.0 2.0 "></path></clipPath><g clip-path="url(#clip-248)"><path d="M 1.0 2.0 L 350.0 2.0 L 350.0 176.0 L 1.0 176.0 Z M 1.0 2.0 " fill="url(#gradSh1.50)"></path></g></g></g></g><g><clipPath id="clip-249"><path d="M 1.0 2.0 L 350.0 2.0 L 350.0 176.0 L 1.0 176.0 Z M 1.0 2.0 "></path></clipPath><g clip-path="url(#clip-249)"><path d="M 0.0 0.0 L 54.0 -108.0 L 195.0 -5.0 L 0.0 0.0 Z M 0.0 0.0 " fill="none" stroke="#FFFAF8" stroke-width="1.00" stroke-miterlimit="0.00" transform="matrix(0.24, 0.00, 0.00, 0.24, 132.4, 138.4)"></path></g></g><g><clipPath id="clip-250"><path d="M 153.4 86.2 L 134.4 60.3 L 168.4 64.4 Z M 153.4 86.2 "></path></clipPath><g clip-path="url(#clip-250)"><g><clipPath id="clip-251"><path d="M 1.0 2.0 L 350.0 2.0 L 350.0 176.0 L 1.0 176.0 Z M 1.0 2.0 "></path></clipPath><g clip-path="url(#clip-251)"><path d="M 1.0 2.0 L 350.0 2.0 L 350.0 176.0 L 1.0 176.0 Z M 1.0 2.0 " fill="url(#gradSh1.51)"></path></g></g></g></g><g><clipPath id="clip-252"><path d="M 1.0 2.0 L 350.0 2.0 L 350.0 176.0 L 1.0 176.0 Z M 1.0 2.0 "></path></clipPath><g clip-path="url(#clip-252)"><path d="M 0.0 0.0 L -78.0 -107.0 L 62.0 -90.0 L 0.0 0.0 Z M 0.0 0.0 " fill="none" stroke="#FFFAF8" stroke-width="1.00" stroke-miterlimit="0.00" transform="matrix(0.24, 0.00, 0.00, 0.24, 153.4, 86.2)"></path></g></g><g><clipPath id="clip-253"><path d="M 110.6 100.4 L 120.8 74.5 L 143.4 106.7 Z M 110.6 100.4 "></path></clipPath><g clip-path="url(#clip-253)"><g><clipPath id="clip-254"><path d="M 1.0 2.0 L 350.0 2.0 L 350.0 176.0 L 1.0 176.0 Z M 1.0 2.0 "></path></clipPath><g clip-path="url(#clip-254)"><path d="M 1.0 2.0 L 350.0 2.0 L 350.0 176.0 L 1.0 176.0 Z M 1.0 2.0 " fill="url(#gradSh1.52)"></path></g></g></g></g><g><clipPath id="clip-255"><path d="M 1.0 2.0 L 350.0 2.0 L 350.0 176.0 L 1.0 176.0 Z M 1.0 2.0 "></path></clipPath><g clip-path="url(#clip-255)"><path d="M 0.0 0.0 L 42.0 -107.0 L 135.0 26.0 L 0.0 0.0 Z M 0.0 0.0 " fill="none" stroke="#FFFAF8" stroke-width="1.00" stroke-miterlimit="0.00" transform="matrix(0.24, 0.00, 0.00, 0.24, 110.6, 100.4)"></path></g></g><g><clipPath id="clip-256"><path d="M 66.8 48.4 L 71.4 18.5 L 80.2 37.8 Z M 66.8 48.4 "></path></clipPath><g clip-path="url(#clip-256)"><g><clipPath id="clip-257"><path d="M 1.0 2.0 L 350.0 2.0 L 350.0 176.0 L 1.0 176.0 Z M 1.0 2.0 "></path></clipPath><g clip-path="url(#clip-257)"><path d="M 1.0 2.0 L 350.0 2.0 L 350.0 176.0 L 1.0 176.0 Z M 1.0 2.0 " fill="url(#gradSh1.53)"></path></g></g></g></g><g><clipPath id="clip-258"><path d="M 1.0 2.0 L 350.0 2.0 L 350.0 176.0 L 1.0 176.0 Z M 1.0 2.0 "></path></clipPath><g clip-path="url(#clip-258)"><path d="M 0.0 0.0 L 19.0 -124.0 L 55.0 -44.0 L 0.0 0.0 Z M 0.0 0.0 " fill="none" stroke="#FFFAF8" stroke-width="1.00" stroke-miterlimit="0.00" transform="matrix(0.24, 0.00, 0.00, 0.24, 66.8, 48.4)"></path></g></g><g><clipPath id="clip-259"><path d="M 26.9 106.2 L 44.7 66.1 L 71.9 86.2 Z M 26.9 106.2 "></path></clipPath><g clip-path="url(#clip-259)"><g><clipPath id="clip-260"><path d="M 1.0 2.0 L 350.0 2.0 L 350.0 176.0 L 1.0 176.0 Z M 1.0 2.0 "></path></clipPath><g clip-path="url(#clip-260)"><path d="M 1.0 2.0 L 350.0 2.0 L 350.0 176.0 L 1.0 176.0 Z M 1.0 2.0 " fill="url(#gradSh1.54)"></path></g></g></g></g><g><clipPath id="clip-261"><path d="M 1.0 2.0 L 350.0 2.0 L 350.0 176.0 L 1.0 176.0 Z M 1.0 2.0 "></path></clipPath><g clip-path="url(#clip-261)"><path d="M 0.0 0.0 L 73.0 -166.0 L 185.0 -83.0 L 0.0 0.0 Z M 0.0 0.0 " fill="none" stroke="#FFFAF8" stroke-width="1.00" stroke-miterlimit="0.00" transform="matrix(0.24, 0.00, 0.00, 0.24, 26.9, 106.2)"></path></g></g><g><clipPath id="clip-262"><path d="M 27.9 153.1 L 26.9 112.3 L 45.6 137.4 Z M 27.9 153.1 "></path></clipPath><g clip-path="url(#clip-262)"><g><clipPath id="clip-263"><path d="M 1.0 2.0 L 350.0 2.0 L 350.0 176.0 L 1.0 176.0 Z M 1.0 2.0 "></path></clipPath><g clip-path="url(#clip-263)"><path d="M 1.0 2.0 L 350.0 2.0 L 350.0 176.0 L 1.0 176.0 Z M 1.0 2.0 " fill="url(#gradSh1.55)"></path></g></g></g></g><g><clipPath id="clip-264"><path d="M 1.0 2.0 L 350.0 2.0 L 350.0 176.0 L 1.0 176.0 Z M 1.0 2.0 "></path></clipPath><g clip-path="url(#clip-264)"><path d="M 0.0 0.0 L -4.0 -169.0 L 73.0 -65.0 L 0.0 0.0 Z M 0.0 0.0 " fill="none" stroke="#FFFAF8" stroke-width="1.00" stroke-miterlimit="0.00" transform="matrix(0.24, 0.00, 0.00, 0.24, 27.9, 153.1)"></path></g></g><g><clipPath id="clip-265"><path d="M 1.1 11.7 L 21.8 18.0 L 4.5 40.5 Z M 1.1 11.7 "></path></clipPath><g clip-path="url(#clip-265)"><g><clipPath id="clip-266"><path d="M 1.0 2.0 L 350.0 2.0 L 350.0 176.0 L 1.0 176.0 Z M 1.0 2.0 "></path></clipPath><g clip-path="url(#clip-266)"><path d="M 1.0 2.0 L 350.0 2.0 L 350.0 176.0 L 1.0 176.0 Z M 1.0 2.0 " fill="url(#gradSh1.56)"></path></g></g></g></g><g><clipPath id="clip-267"><path d="M 1.0 176.0 L 350.0 176.0 L 350.0 2.0 L 1.0 2.0 Z M 1.0 176.0 "></path></clipPath><g clip-path="url(#clip-267)"><g><clipPath id="clip-268"><path d="M 1.0 2.0 L 350.0 2.0 L 350.0 176.0 L 1.0 176.0 Z M 1.0 2.0 "></path></clipPath><g clip-path="url(#clip-268)"><path d="M 0.0 0.0 L -14.0 -119.0 L 71.0 -93.0 L 0.0 0.0 Z M 0.0 0.0 " fill="none" stroke="#FFFAF8" stroke-width="1.00" stroke-miterlimit="0.00" transform="matrix(0.24, 0.00, 0.00, 0.24, 4.5, 40.5)"></path></g></g></g></g></g></svg>