<?xml version="1.0" encoding="UTF-8" standalone="no"?><svg xmlns="http://www.w3.org/2000/svg" xmlns:xlink="http://www.w3.org/1999/xlink" clip-rule="evenodd" stroke-miterlimit="4.00" viewBox="0 0 168 21"><desc>SVG generated by Keynote</desc><defs></defs><g transform="matrix(1.00, 0.00, -0.00, -1.00, 0.0, 21.0)"><text xml:space="preserve" font-family="Avenir-Book" font-size="24.0" fill="#55D6FF" transform="matrix(1.00, 0.00, -0.00, -1.00, 0.0, 2.0)">2</text><text xml:space="preserve" font-family="Avenir-Book" font-size="24.0" fill="#55D6FF" transform="matrix(1.00, 0.00, -0.00, -1.00, 17.2, 2.0)">0</text><text xml:space="preserve" font-family="Avenir-Book" font-size="24.0" fill="#55D6FF" transform="matrix(1.00, 0.00, -0.00, -1.00, 34.4, 2.0)">0</text><text xml:space="preserve" font-family="Avenir-Book" font-size="24.0" fill="#55D6FF" transform="matrix(1.00, 0.00, -0.00, -1.00, 51.6, 2.0)">6</text><text xml:space="preserve" font-family="Avenir-Book" font-size="24.0" fill="#55D6FF" transform="matrix(1.00, 0.00, -0.00, -1.00, 68.7, 2.0)"> </text><text xml:space="preserve" font-family="Avenir-Book" font-size="24.0" fill="#55D6FF" transform="matrix(1.00, 0.00, -0.00, -1.00, 79.2, 2.0)">-</text><text xml:space="preserve" font-family="Avenir-Book" font-size="24.0" fill="#55D6FF" transform="matrix(1.00, 0.00, -0.00, -1.00, 91.1, 2.0)"> </text><text xml:space="preserve" font-family="Avenir-Book" font-size="24.0" fill="#55D6FF" transform="matrix(1.00, 0.00, -0.00, -1.00, 101.6, 2.0)">2</text><text xml:space="preserve" font-family="Avenir-Book" font-size="24.0" fill="#55D6FF" transform="matrix(1.00, 0.00, -0.00, -1.00, 118.8, 2.0)">0</text><text xml:space="preserve" font-family="Avenir-Book" font-size="24.0" fill="#55D6FF" transform="matrix(1.00, 0.00, -0.00, -1.00, 136.0, 2.0)">1</text><text xml:space="preserve" font-family="Avenir-Book" font-size="24.0" fill="#55D6FF" transform="matrix(1.00, 0.00, -0.00, -1.00, 153.1, 2.0)">6</text></g></svg>