<?xml version="1.0" encoding="UTF-8" standalone="no"?><svg xmlns="http://www.w3.org/2000/svg" xmlns:xlink="http://www.w3.org/1999/xlink" clip-rule="evenodd" stroke-miterlimit="4.00" viewBox="0 0 351 178"><desc>SVG generated by Keynote</desc><defs><linearGradient id="gradSh1.57" x1="0.0" y1="0.0" x2="1.0" y2="0.0" gradientUnits="userSpaceOnUse" gradientTransform="matrix(27.97, 0.00, 0.00, 27.96, 321.6, 166.6)"><stop offset="0.00000" stop-color="#000000"></stop><stop offset="0.00073" stop-color="#000101"></stop><stop offset="0.00147" stop-color="#010101"></stop><stop offset="0.00220" stop-color="#010202"></stop><stop offset="0.00293" stop-color="#020202"></stop><stop offset="0.00367" stop-color="#020303"></stop><stop offset="0.00587" stop-color="#040404"></stop><stop offset="0.00660" stop-color="#040505"></stop><stop offset="0.01173" stop-color="#080808"></stop><stop offset="0.01246" stop-color="#080909"></stop><stop offset="0.02346" stop-color="#101010"></stop><stop offset="0.02419" stop-color="#101111"></stop><stop offset="0.04692" stop-color="#202021"></stop><stop offset="0.04765" stop-color="#202121"></stop><stop offset="0.09677" stop-color="#3E3F40"></stop><stop offset="0.09751" stop-color="#3F4040"></stop><stop offset="0.09824" stop-color="#3F4041"></stop><stop offset="0.09897" stop-color="#404041"></stop><stop offset="0.09971" stop-color="#404142"></stop><stop offset="0.21628" stop-color="#808080"></stop><stop offset="0.21701" stop-color="#808081"></stop><stop offset="1.00000" stop-color="#FFFFFF"></stop></linearGradient><linearGradient id="gradSh1.58" x1="0.0" y1="0.0" x2="1.0" y2="0.0" gradientUnits="userSpaceOnUse" gradientTransform="matrix(37.45, 0.00, 0.00, 37.45, 269.4, 84.4)"><stop offset="0.00000" stop-color="#000000"></stop><stop offset="0.00073" stop-color="#000101"></stop><stop offset="0.00147" stop-color="#010101"></stop><stop offset="0.00220" stop-color="#010202"></stop><stop offset="0.00293" stop-color="#020202"></stop><stop offset="0.00367" stop-color="#020303"></stop><stop offset="0.00587" stop-color="#040404"></stop><stop offset="0.00660" stop-color="#040505"></stop><stop offset="0.01173" stop-color="#080808"></stop><stop offset="0.01246" stop-color="#080909"></stop><stop offset="0.02346" stop-color="#101010"></stop><stop offset="0.02419" stop-color="#101111"></stop><stop offset="0.04692" stop-color="#202021"></stop><stop offset="0.04765" stop-color="#202121"></stop><stop offset="0.09677" stop-color="#3E3F40"></stop><stop offset="0.09751" stop-color="#3F4040"></stop><stop offset="0.09824" stop-color="#3F4041"></stop><stop offset="0.09897" stop-color="#404041"></stop><stop offset="0.09971" stop-color="#404142"></stop><stop offset="0.21628" stop-color="#808080"></stop><stop offset="0.21701" stop-color="#808081"></stop><stop offset="1.00000" stop-color="#FFFFFF"></stop></linearGradient><linearGradient id="gradSh1.59" x1="0.0" y1="0.0" x2="1.0" y2="0.0" gradientUnits="userSpaceOnUse" gradientTransform="matrix(12.65, 0.00, 0.00, 12.65, 216.4, 103.8)"><stop offset="0.00000" stop-color="#000000"></stop><stop offset="0.00073" stop-color="#000101"></stop><stop offset="0.00147" stop-color="#010101"></stop><stop offset="0.00220" stop-color="#010202"></stop><stop offset="0.00293" stop-color="#020202"></stop><stop offset="0.00367" stop-color="#020303"></stop><stop offset="0.00587" stop-color="#040404"></stop><stop offset="0.00660" stop-color="#040505"></stop><stop offset="0.01173" stop-color="#080808"></stop><stop offset="0.01246" stop-color="#080909"></stop><stop offset="0.02346" stop-color="#101010"></stop><stop offset="0.02419" stop-color="#101111"></stop><stop offset="0.04692" stop-color="#202021"></stop><stop offset="0.04765" stop-color="#202121"></stop><stop offset="0.09677" stop-color="#3E3F40"></stop><stop offset="0.09751" stop-color="#3F4040"></stop><stop offset="0.09824" stop-color="#3F4041"></stop><stop offset="0.09897" stop-color="#404041"></stop><stop offset="0.09971" stop-color="#404142"></stop><stop offset="0.21628" stop-color="#808080"></stop><stop offset="0.21701" stop-color="#808081"></stop><stop offset="1.00000" stop-color="#FFFFFF"></stop></linearGradient><linearGradient id="gradSh1.60" x1="0.0" y1="0.0" x2="1.0" y2="0.0" gradientUnits="userSpaceOnUse" gradientTransform="matrix(41.34, 0.00, 0.00, 41.34, 197.9, 15.2)"><stop offset="0.00000" stop-color="#000000"></stop><stop offset="0.00073" stop-color="#000101"></stop><stop offset="0.00147" stop-color="#010101"></stop><stop offset="0.00220" stop-color="#010202"></stop><stop offset="0.00293" stop-color="#020202"></stop><stop offset="0.00367" stop-color="#020303"></stop><stop offset="0.00587" stop-color="#040404"></stop><stop offset="0.00660" stop-color="#040505"></stop><stop offset="0.01173" stop-color="#080808"></stop><stop offset="0.01246" stop-color="#080909"></stop><stop offset="0.02346" stop-color="#101010"></stop><stop offset="0.02419" stop-color="#101111"></stop><stop offset="0.04692" stop-color="#202021"></stop><stop offset="0.04765" stop-color="#202121"></stop><stop offset="0.09677" stop-color="#3E3F40"></stop><stop offset="0.09751" stop-color="#3F4040"></stop><stop offset="0.09824" stop-color="#3F4041"></stop><stop offset="0.09897" stop-color="#404041"></stop><stop offset="0.09971" stop-color="#404142"></stop><stop offset="0.21628" stop-color="#808080"></stop><stop offset="0.21701" stop-color="#808081"></stop><stop offset="1.00000" stop-color="#FFFFFF"></stop></linearGradient><linearGradient id="gradSh1.61" x1="0.0" y1="0.0" x2="1.0" y2="0.0" gradientUnits="userSpaceOnUse" gradientTransform="matrix(31.37, 0.00, 0.00, 31.37, 187.2, 38.9)"><stop offset="0.00000" stop-color="#000000"></stop><stop offset="0.00073" stop-color="#000101"></stop><stop offset="0.00147" stop-color="#010101"></stop><stop offset="0.00220" stop-color="#010202"></stop><stop offset="0.00293" stop-color="#020202"></stop><stop offset="0.00367" stop-color="#020303"></stop><stop offset="0.00587" stop-color="#040404"></stop><stop offset="0.00660" stop-color="#040505"></stop><stop offset="0.01173" stop-color="#080808"></stop><stop offset="0.01246" stop-color="#080909"></stop><stop offset="0.02346" stop-color="#101010"></stop><stop offset="0.02419" stop-color="#101111"></stop><stop offset="0.04692" stop-color="#202021"></stop><stop offset="0.04765" stop-color="#202121"></stop><stop offset="0.09677" stop-color="#3E3F40"></stop><stop offset="0.09751" stop-color="#3F4040"></stop><stop offset="0.09824" stop-color="#3F4041"></stop><stop offset="0.09897" stop-color="#404041"></stop><stop offset="0.09971" stop-color="#404142"></stop><stop offset="0.21628" stop-color="#808080"></stop><stop offset="0.21701" stop-color="#808081"></stop><stop offset="1.00000" stop-color="#FFFFFF"></stop></linearGradient><linearGradient id="gradSh1.62" x1="0.0" y1="0.0" x2="1.0" y2="0.0" gradientUnits="userSpaceOnUse" gradientTransform="matrix(21.16, 0.00, 0.00, 21.16, 174.8, 163.8)"><stop offset="0.00000" stop-color="#000000"></stop><stop offset="0.00073" stop-color="#000101"></stop><stop offset="0.00147" stop-color="#010101"></stop><stop offset="0.00220" stop-color="#010202"></stop><stop offset="0.00293" stop-color="#020202"></stop><stop offset="0.00367" stop-color="#020303"></stop><stop offset="0.00587" stop-color="#040404"></stop><stop offset="0.00660" stop-color="#040505"></stop><stop offset="0.01173" stop-color="#080808"></stop><stop offset="0.01246" stop-color="#080909"></stop><stop offset="0.02346" stop-color="#101010"></stop><stop offset="0.02419" stop-color="#101111"></stop><stop offset="0.04692" stop-color="#202021"></stop><stop offset="0.04765" stop-color="#202121"></stop><stop offset="0.09677" stop-color="#3E3F40"></stop><stop offset="0.09751" stop-color="#3F4040"></stop><stop offset="0.09824" stop-color="#3F4041"></stop><stop offset="0.09897" stop-color="#404041"></stop><stop offset="0.09971" stop-color="#404142"></stop><stop offset="0.21628" stop-color="#808080"></stop><stop offset="0.21701" stop-color="#808081"></stop><stop offset="1.00000" stop-color="#FFFFFF"></stop></linearGradient><linearGradient id="gradSh1.63" x1="0.0" y1="0.0" x2="1.0" y2="0.0" gradientUnits="userSpaceOnUse" gradientTransform="matrix(47.42, 0.00, 0.00, 47.42, 132.4, 125.0)"><stop offset="0.00000" stop-color="#000000"></stop><stop offset="0.00073" stop-color="#000101"></stop><stop offset="0.00147" stop-color="#010101"></stop><stop offset="0.00220" stop-color="#010202"></stop><stop offset="0.00293" stop-color="#020202"></stop><stop offset="0.00367" stop-color="#020303"></stop><stop offset="0.00587" stop-color="#040404"></stop><stop offset="0.00660" stop-color="#040505"></stop><stop offset="0.01173" stop-color="#080808"></stop><stop offset="0.01246" stop-color="#080909"></stop><stop offset="0.02346" stop-color="#101010"></stop><stop offset="0.02419" stop-color="#101111"></stop><stop offset="0.04692" stop-color="#202021"></stop><stop offset="0.04765" stop-color="#202121"></stop><stop offset="0.09677" stop-color="#3E3F40"></stop><stop offset="0.09751" stop-color="#3F4040"></stop><stop offset="0.09824" stop-color="#3F4041"></stop><stop offset="0.09897" stop-color="#404041"></stop><stop offset="0.09971" stop-color="#404142"></stop><stop offset="0.21628" stop-color="#808080"></stop><stop offset="0.21701" stop-color="#808081"></stop><stop offset="1.00000" stop-color="#FFFFFF"></stop></linearGradient><linearGradient id="gradSh1.64" x1="0.0" y1="0.0" x2="1.0" y2="0.0" gradientUnits="userSpaceOnUse" gradientTransform="matrix(34.04, 0.00, 0.00, 34.04, 134.4, 72.6)"><stop offset="0.00000" stop-color="#000000"></stop><stop offset="0.00073" stop-color="#000101"></stop><stop offset="0.00147" stop-color="#010101"></stop><stop offset="0.00220" stop-color="#010202"></stop><stop offset="0.00293" stop-color="#020202"></stop><stop offset="0.00367" stop-color="#020303"></stop><stop offset="0.00587" stop-color="#040404"></stop><stop offset="0.00660" stop-color="#040505"></stop><stop offset="0.01173" stop-color="#080808"></stop><stop offset="0.01246" stop-color="#080909"></stop><stop offset="0.02346" stop-color="#101010"></stop><stop offset="0.02419" stop-color="#101111"></stop><stop offset="0.04692" stop-color="#202021"></stop><stop offset="0.04765" stop-color="#202121"></stop><stop offset="0.09677" stop-color="#3E3F40"></stop><stop offset="0.09751" stop-color="#3F4040"></stop><stop offset="0.09824" stop-color="#3F4041"></stop><stop offset="0.09897" stop-color="#404041"></stop><stop offset="0.09971" stop-color="#404142"></stop><stop offset="0.21628" stop-color="#808080"></stop><stop offset="0.21701" stop-color="#808081"></stop><stop offset="1.00000" stop-color="#FFFFFF"></stop></linearGradient><linearGradient id="gradSh1.65" x1="0.0" y1="0.0" x2="1.0" y2="0.0" gradientUnits="userSpaceOnUse" gradientTransform="matrix(32.83, 0.00, 0.00, 32.83, 110.6, 90.1)"><stop offset="0.00000" stop-color="#000000"></stop><stop offset="0.00073" stop-color="#000101"></stop><stop offset="0.00147" stop-color="#010101"></stop><stop offset="0.00220" stop-color="#010202"></stop><stop offset="0.00293" stop-color="#020202"></stop><stop offset="0.00367" stop-color="#020303"></stop><stop offset="0.00587" stop-color="#040404"></stop><stop offset="0.00660" stop-color="#040505"></stop><stop offset="0.01173" stop-color="#080808"></stop><stop offset="0.01246" stop-color="#080909"></stop><stop offset="0.02346" stop-color="#101010"></stop><stop offset="0.02419" stop-color="#101111"></stop><stop offset="0.04692" stop-color="#202021"></stop><stop offset="0.04765" stop-color="#202121"></stop><stop offset="0.09677" stop-color="#3E3F40"></stop><stop offset="0.09751" stop-color="#3F4040"></stop><stop offset="0.09824" stop-color="#3F4041"></stop><stop offset="0.09897" stop-color="#404041"></stop><stop offset="0.09971" stop-color="#404142"></stop><stop offset="0.21628" stop-color="#808080"></stop><stop offset="0.21701" stop-color="#808081"></stop><stop offset="1.00000" stop-color="#FFFFFF"></stop></linearGradient><linearGradient id="gradSh1.66" x1="0.0" y1="0.0" x2="1.0" y2="0.0" gradientUnits="userSpaceOnUse" gradientTransform="matrix(13.37, 0.00, 0.00, 13.37, 66.8, 32.6)"><stop offset="0.00000" stop-color="#000000"></stop><stop offset="0.00073" stop-color="#000101"></stop><stop offset="0.00147" stop-color="#010101"></stop><stop offset="0.00220" stop-color="#010202"></stop><stop offset="0.00293" stop-color="#020202"></stop><stop offset="0.00367" stop-color="#020303"></stop><stop offset="0.00587" stop-color="#040404"></stop><stop offset="0.00660" stop-color="#040505"></stop><stop offset="0.01173" stop-color="#080808"></stop><stop offset="0.01246" stop-color="#080909"></stop><stop offset="0.02346" stop-color="#101010"></stop><stop offset="0.02419" stop-color="#101111"></stop><stop offset="0.04692" stop-color="#202021"></stop><stop offset="0.04765" stop-color="#202121"></stop><stop offset="0.09677" stop-color="#3E3F40"></stop><stop offset="0.09751" stop-color="#3F4040"></stop><stop offset="0.09824" stop-color="#3F4041"></stop><stop offset="0.09897" stop-color="#404041"></stop><stop offset="0.09971" stop-color="#404142"></stop><stop offset="0.21628" stop-color="#808080"></stop><stop offset="0.21701" stop-color="#808081"></stop><stop offset="1.00000" stop-color="#FFFFFF"></stop></linearGradient><linearGradient id="gradSh1.67" x1="0.0" y1="0.0" x2="1.0" y2="0.0" gradientUnits="userSpaceOnUse" gradientTransform="matrix(44.99, 0.00, 0.00, 44.99, 26.9, 85.6)"><stop offset="0.00000" stop-color="#000000"></stop><stop offset="0.00073" stop-color="#000101"></stop><stop offset="0.00147" stop-color="#010101"></stop><stop offset="0.00220" stop-color="#010202"></stop><stop offset="0.00293" stop-color="#020202"></stop><stop offset="0.00367" stop-color="#020303"></stop><stop offset="0.00587" stop-color="#040404"></stop><stop offset="0.00660" stop-color="#040505"></stop><stop offset="0.01173" stop-color="#080808"></stop><stop offset="0.01246" stop-color="#080909"></stop><stop offset="0.02346" stop-color="#101010"></stop><stop offset="0.02419" stop-color="#101111"></stop><stop offset="0.04692" stop-color="#202021"></stop><stop offset="0.04765" stop-color="#202121"></stop><stop offset="0.09677" stop-color="#3E3F40"></stop><stop offset="0.09751" stop-color="#3F4040"></stop><stop offset="0.09824" stop-color="#3F4041"></stop><stop offset="0.09897" stop-color="#404041"></stop><stop offset="0.09971" stop-color="#404142"></stop><stop offset="0.21628" stop-color="#808080"></stop><stop offset="0.21701" stop-color="#808081"></stop><stop offset="1.00000" stop-color="#FFFFFF"></stop></linearGradient><linearGradient id="gradSh1.68" x1="0.0" y1="0.0" x2="1.0" y2="0.0" gradientUnits="userSpaceOnUse" gradientTransform="matrix(18.72, 0.00, 0.00, 18.72, 26.9, 132.4)"><stop offset="0.00000" stop-color="#000000"></stop><stop offset="0.00073" stop-color="#000101"></stop><stop offset="0.00147" stop-color="#010101"></stop><stop offset="0.00220" stop-color="#010202"></stop><stop offset="0.00293" stop-color="#020202"></stop><stop offset="0.00367" stop-color="#020303"></stop><stop offset="0.00587" stop-color="#040404"></stop><stop offset="0.00660" stop-color="#040505"></stop><stop offset="0.01173" stop-color="#080808"></stop><stop offset="0.01246" stop-color="#080909"></stop><stop offset="0.02346" stop-color="#101010"></stop><stop offset="0.02419" stop-color="#101111"></stop><stop offset="0.04692" stop-color="#202021"></stop><stop offset="0.04765" stop-color="#202121"></stop><stop offset="0.09677" stop-color="#3E3F40"></stop><stop offset="0.09751" stop-color="#3F4040"></stop><stop offset="0.09824" stop-color="#3F4041"></stop><stop offset="0.09897" stop-color="#404041"></stop><stop offset="0.09971" stop-color="#404142"></stop><stop offset="0.21628" stop-color="#808080"></stop><stop offset="0.21701" stop-color="#808081"></stop><stop offset="1.00000" stop-color="#FFFFFF"></stop></linearGradient><linearGradient id="gradSh1.69" x1="0.0" y1="0.0" x2="1.0" y2="0.0" gradientUnits="userSpaceOnUse" gradientTransform="matrix(20.67, 0.00, 0.00, 20.67, 1.1, 25.2)"><stop offset="0.00000" stop-color="#000000"></stop><stop offset="0.00073" stop-color="#000101"></stop><stop offset="0.00147" stop-color="#010101"></stop><stop offset="0.00220" stop-color="#010202"></stop><stop offset="0.00293" stop-color="#020202"></stop><stop offset="0.00367" stop-color="#020303"></stop><stop offset="0.00587" stop-color="#040404"></stop><stop offset="0.00660" stop-color="#040505"></stop><stop offset="0.01173" stop-color="#080808"></stop><stop offset="0.01246" stop-color="#080909"></stop><stop offset="0.02346" stop-color="#101010"></stop><stop offset="0.02419" stop-color="#101111"></stop><stop offset="0.04692" stop-color="#202021"></stop><stop offset="0.04765" stop-color="#202121"></stop><stop offset="0.09677" stop-color="#3E3F40"></stop><stop offset="0.09751" stop-color="#3F4040"></stop><stop offset="0.09824" stop-color="#3F4041"></stop><stop offset="0.09897" stop-color="#404041"></stop><stop offset="0.09971" stop-color="#404142"></stop><stop offset="0.21628" stop-color="#808080"></stop><stop offset="0.21701" stop-color="#808081"></stop><stop offset="1.00000" stop-color="#FFFFFF"></stop></linearGradient></defs><g transform="matrix(1.00, 0.00, -0.00, -1.00, 0.0, 178.0)"><g><clipPath id="clip-269"><path d="M 321.6 157.4 L 349.6 170.7 L 322.9 175.9 Z M 321.6 157.4 "></path></clipPath><g clip-path="url(#clip-269)"><g><clipPath id="clip-270"><path d="M 1.0 1.0 L 350.0 1.0 L 350.0 176.0 L 1.0 176.0 Z M 1.0 1.0 "></path></clipPath><g clip-path="url(#clip-270)"><path d="M 1.0 1.0 L 350.0 1.0 L 350.0 176.0 L 1.0 176.0 Z M 1.0 1.0 " fill="url(#gradSh1.57)"></path></g></g></g></g><g><clipPath id="clip-271"><path d="M 1.0 176.0 L 350.0 176.0 L 350.0 1.0 L 1.0 1.0 Z M 1.0 176.0 "></path></clipPath><g clip-path="url(#clip-271)"><g><clipPath id="clip-272"><path d="M 1.0 1.0 L 350.0 1.0 L 350.0 176.0 L 1.0 176.0 Z M 1.0 1.0 "></path></clipPath><g clip-path="url(#clip-272)"><path d="M 0.0 0.0 L -5.0 -76.0 L 110.0 -21.0 L 0.0 0.0 Z M 0.0 0.0 " fill="none" stroke="#FFFAF8" stroke-width="1.00" stroke-miterlimit="0.00" transform="matrix(0.24, 0.00, 0.00, 0.24, 322.9, 175.9)"></path></g></g></g></g><g><clipPath id="clip-273"><path d="M 294.9 94.6 L 269.4 74.2 L 306.8 84.4 Z M 294.9 94.6 "></path></clipPath><g clip-path="url(#clip-273)"><g><clipPath id="clip-274"><path d="M 1.0 1.0 L 350.0 1.0 L 350.0 176.0 L 1.0 176.0 Z M 1.0 1.0 "></path></clipPath><g clip-path="url(#clip-274)"><path d="M 1.0 1.0 L 350.0 1.0 L 350.0 176.0 L 1.0 176.0 Z M 1.0 1.0 " fill="url(#gradSh1.58)"></path></g></g></g></g><g><clipPath id="clip-275"><path d="M 1.0 1.0 L 350.0 1.0 L 350.0 176.0 L 1.0 176.0 Z M 1.0 1.0 "></path></clipPath><g clip-path="url(#clip-275)"><path d="M 0.0 0.0 L -105.0 -84.0 L 49.0 -42.0 L 0.0 0.0 Z M 0.0 0.0 " fill="none" stroke="#FFFAF8" stroke-width="1.00" stroke-miterlimit="0.00" transform="matrix(0.24, 0.00, 0.00, 0.24, 294.9, 94.6)"></path></g></g><g><clipPath id="clip-276"><path d="M 227.1 120.4 L 216.4 87.1 L 229.0 93.2 Z M 227.1 120.4 "></path></clipPath><g clip-path="url(#clip-276)"><g><clipPath id="clip-277"><path d="M 1.0 1.0 L 350.0 1.0 L 350.0 176.0 L 1.0 176.0 Z M 1.0 1.0 "></path></clipPath><g clip-path="url(#clip-277)"><path d="M 1.0 1.0 L 350.0 1.0 L 350.0 176.0 L 1.0 176.0 Z M 1.0 1.0 " fill="url(#gradSh1.59)"></path></g></g></g></g><g><clipPath id="clip-278"><path d="M 1.0 1.0 L 350.0 1.0 L 350.0 176.0 L 1.0 176.0 Z M 1.0 1.0 "></path></clipPath><g clip-path="url(#clip-278)"><path d="M 0.0 0.0 L -44.0 -137.0 L 8.0 -112.0 L 0.0 0.0 Z M 0.0 0.0 " fill="none" stroke="#FFFAF8" stroke-width="1.00" stroke-miterlimit="0.00" transform="matrix(0.24, 0.00, 0.00, 0.24, 227.1, 120.4)"></path></g></g><g><clipPath id="clip-279"><path d="M 197.9 24.3 L 234.3 1.2 L 239.2 29.2 Z M 197.9 24.3 "></path></clipPath><g clip-path="url(#clip-279)"><g><clipPath id="clip-280"><path d="M 1.0 1.0 L 350.0 1.0 L 350.0 176.0 L 1.0 176.0 Z M 1.0 1.0 "></path></clipPath><g clip-path="url(#clip-280)"><path d="M 1.0 1.0 L 350.0 1.0 L 350.0 176.0 L 1.0 176.0 Z M 1.0 1.0 " fill="url(#gradSh1.60)"></path></g></g></g></g><g><clipPath id="clip-281"><path d="M 1.0 176.0 L 350.0 176.0 L 350.0 1.0 L 1.0 1.0 Z M 1.0 176.0 "></path></clipPath><g clip-path="url(#clip-281)"><g><clipPath id="clip-282"><path d="M 1.0 1.0 L 350.0 1.0 L 350.0 176.0 L 1.0 176.0 Z M 1.0 1.0 "></path></clipPath><g clip-path="url(#clip-282)"><path d="M 0.0 0.0 L 150.0 -95.0 L 170.0 20.0 L 0.0 0.0 Z M 0.0 0.0 " fill="none" stroke="#FFFAF8" stroke-width="1.00" stroke-miterlimit="0.00" transform="matrix(0.24, 0.00, 0.00, 0.24, 197.9, 24.3)"></path></g></g></g></g><g><clipPath id="clip-283"><path d="M 199.1 55.7 L 187.2 22.2 L 218.5 40.9 Z M 199.1 55.7 "></path></clipPath><g clip-path="url(#clip-283)"><g><clipPath id="clip-284"><path d="M 1.0 1.0 L 350.0 1.0 L 350.0 176.0 L 1.0 176.0 Z M 1.0 1.0 "></path></clipPath><g clip-path="url(#clip-284)"><path d="M 1.0 1.0 L 350.0 1.0 L 350.0 176.0 L 1.0 176.0 Z M 1.0 1.0 " fill="url(#gradSh1.61)"></path></g></g></g></g><g><clipPath id="clip-285"><path d="M 1.0 1.0 L 350.0 1.0 L 350.0 176.0 L 1.0 176.0 Z M 1.0 1.0 "></path></clipPath><g clip-path="url(#clip-285)"><path d="M 0.0 0.0 L -49.0 -138.0 L 80.0 -61.0 L 0.0 0.0 Z M 0.0 0.0 " fill="none" stroke="#FFFAF8" stroke-width="1.00" stroke-miterlimit="0.00" transform="matrix(0.24, 0.00, 0.00, 0.24, 199.1, 55.7)"></path></g></g><g><clipPath id="clip-286"><path d="M 180.4 172.7 L 174.8 157.1 L 195.9 154.9 Z M 180.4 172.7 "></path></clipPath><g clip-path="url(#clip-286)"><g><clipPath id="clip-287"><path d="M 1.0 1.0 L 350.0 1.0 L 350.0 176.0 L 1.0 176.0 Z M 1.0 1.0 "></path></clipPath><g clip-path="url(#clip-287)"><path d="M 1.0 1.0 L 350.0 1.0 L 350.0 176.0 L 1.0 176.0 Z M 1.0 1.0 " fill="url(#gradSh1.62)"></path></g></g></g></g><g><clipPath id="clip-288"><path d="M 1.0 1.0 L 350.0 1.0 L 350.0 176.0 L 1.0 176.0 Z M 1.0 1.0 "></path></clipPath><g clip-path="url(#clip-288)"><path d="M 0.0 0.0 L -23.0 -64.0 L 64.0 -73.0 L 0.0 0.0 Z M 0.0 0.0 " fill="none" stroke="#FFFAF8" stroke-width="1.00" stroke-miterlimit="0.00" transform="matrix(0.24, 0.00, 0.00, 0.24, 180.4, 172.7)"></path></g></g><g><clipPath id="clip-289"><path d="M 132.4 138.2 L 145.5 111.9 L 179.8 136.9 Z M 132.4 138.2 "></path></clipPath><g clip-path="url(#clip-289)"><g><clipPath id="clip-290"><path d="M 1.0 1.0 L 350.0 1.0 L 350.0 176.0 L 1.0 176.0 Z M 1.0 1.0 "></path></clipPath><g clip-path="url(#clip-290)"><path d="M 1.0 1.0 L 350.0 1.0 L 350.0 176.0 L 1.0 176.0 Z M 1.0 1.0 " fill="url(#gradSh1.63)"></path></g></g></g></g><g><clipPath id="clip-291"><path d="M 1.0 1.0 L 350.0 1.0 L 350.0 176.0 L 1.0 176.0 Z M 1.0 1.0 "></path></clipPath><g clip-path="url(#clip-291)"><path d="M 0.0 0.0 L 54.0 -108.0 L 195.0 -5.0 L 0.0 0.0 Z M 0.0 0.0 " fill="none" stroke="#FFFAF8" stroke-width="1.00" stroke-miterlimit="0.00" transform="matrix(0.24, 0.00, 0.00, 0.24, 132.4, 138.2)"></path></g></g><g><clipPath id="clip-292"><path d="M 153.4 85.6 L 134.4 59.6 L 168.4 63.8 Z M 153.4 85.6 "></path></clipPath><g clip-path="url(#clip-292)"><g><clipPath id="clip-293"><path d="M 1.0 1.0 L 350.0 1.0 L 350.0 176.0 L 1.0 176.0 Z M 1.0 1.0 "></path></clipPath><g clip-path="url(#clip-293)"><path d="M 1.0 1.0 L 350.0 1.0 L 350.0 176.0 L 1.0 176.0 Z M 1.0 1.0 " fill="url(#gradSh1.64)"></path></g></g></g></g><g><clipPath id="clip-294"><path d="M 1.0 1.0 L 350.0 1.0 L 350.0 176.0 L 1.0 176.0 Z M 1.0 1.0 "></path></clipPath><g clip-path="url(#clip-294)"><path d="M 0.0 0.0 L -78.0 -107.0 L 62.0 -90.0 L 0.0 0.0 Z M 0.0 0.0 " fill="none" stroke="#FFFAF8" stroke-width="1.00" stroke-miterlimit="0.00" transform="matrix(0.24, 0.00, 0.00, 0.24, 153.4, 85.6)"></path></g></g><g><clipPath id="clip-295"><path d="M 110.6 100.0 L 120.8 74.0 L 143.4 106.3 Z M 110.6 100.0 "></path></clipPath><g clip-path="url(#clip-295)"><g><clipPath id="clip-296"><path d="M 1.0 1.0 L 350.0 1.0 L 350.0 176.0 L 1.0 176.0 Z M 1.0 1.0 "></path></clipPath><g clip-path="url(#clip-296)"><path d="M 1.0 1.0 L 350.0 1.0 L 350.0 176.0 L 1.0 176.0 Z M 1.0 1.0 " fill="url(#gradSh1.65)"></path></g></g></g></g><g><clipPath id="clip-297"><path d="M 1.0 1.0 L 350.0 1.0 L 350.0 176.0 L 1.0 176.0 Z M 1.0 1.0 "></path></clipPath><g clip-path="url(#clip-297)"><path d="M 0.0 0.0 L 42.0 -107.0 L 135.0 26.0 L 0.0 0.0 Z M 0.0 0.0 " fill="none" stroke="#FFFAF8" stroke-width="1.00" stroke-miterlimit="0.00" transform="matrix(0.24, 0.00, 0.00, 0.24, 110.6, 100.0)"></path></g></g><g><clipPath id="clip-298"><path d="M 66.8 47.7 L 71.4 17.5 L 80.2 37.0 Z M 66.8 47.7 "></path></clipPath><g clip-path="url(#clip-298)"><g><clipPath id="clip-299"><path d="M 1.0 1.0 L 350.0 1.0 L 350.0 176.0 L 1.0 176.0 Z M 1.0 1.0 "></path></clipPath><g clip-path="url(#clip-299)"><path d="M 1.0 1.0 L 350.0 1.0 L 350.0 176.0 L 1.0 176.0 Z M 1.0 1.0 " fill="url(#gradSh1.66)"></path></g></g></g></g><g><clipPath id="clip-300"><path d="M 1.0 1.0 L 350.0 1.0 L 350.0 176.0 L 1.0 176.0 Z M 1.0 1.0 "></path></clipPath><g clip-path="url(#clip-300)"><path d="M 0.0 0.0 L 19.0 -124.0 L 55.0 -44.0 L 0.0 0.0 Z M 0.0 0.0 " fill="none" stroke="#FFFAF8" stroke-width="1.00" stroke-miterlimit="0.00" transform="matrix(0.24, 0.00, 0.00, 0.24, 66.8, 47.7)"></path></g></g><g><clipPath id="clip-301"><path d="M 26.9 105.8 L 44.7 65.5 L 71.9 85.6 Z M 26.9 105.8 "></path></clipPath><g clip-path="url(#clip-301)"><g><clipPath id="clip-302"><path d="M 1.0 1.0 L 350.0 1.0 L 350.0 176.0 L 1.0 176.0 Z M 1.0 1.0 "></path></clipPath><g clip-path="url(#clip-302)"><path d="M 1.0 1.0 L 350.0 1.0 L 350.0 176.0 L 1.0 176.0 Z M 1.0 1.0 " fill="url(#gradSh1.67)"></path></g></g></g></g><g><clipPath id="clip-303"><path d="M 1.0 1.0 L 350.0 1.0 L 350.0 176.0 L 1.0 176.0 Z M 1.0 1.0 "></path></clipPath><g clip-path="url(#clip-303)"><path d="M 0.0 0.0 L 73.0 -166.0 L 185.0 -83.0 L 0.0 0.0 Z M 0.0 0.0 " fill="none" stroke="#FFFAF8" stroke-width="1.00" stroke-miterlimit="0.00" transform="matrix(0.24, 0.00, 0.00, 0.24, 26.9, 105.8)"></path></g></g><g><clipPath id="clip-304"><path d="M 27.9 153.0 L 26.9 111.9 L 45.6 137.2 Z M 27.9 153.0 "></path></clipPath><g clip-path="url(#clip-304)"><g><clipPath id="clip-305"><path d="M 1.0 1.0 L 350.0 1.0 L 350.0 176.0 L 1.0 176.0 Z M 1.0 1.0 "></path></clipPath><g clip-path="url(#clip-305)"><path d="M 1.0 1.0 L 350.0 1.0 L 350.0 176.0 L 1.0 176.0 Z M 1.0 1.0 " fill="url(#gradSh1.68)"></path></g></g></g></g><g><clipPath id="clip-306"><path d="M 1.0 1.0 L 350.0 1.0 L 350.0 176.0 L 1.0 176.0 Z M 1.0 1.0 "></path></clipPath><g clip-path="url(#clip-306)"><path d="M 0.0 0.0 L -4.0 -169.0 L 73.0 -65.0 L 0.0 0.0 Z M 0.0 0.0 " fill="none" stroke="#FFFAF8" stroke-width="1.00" stroke-miterlimit="0.00" transform="matrix(0.24, 0.00, 0.00, 0.24, 27.9, 153.0)"></path></g></g><g><clipPath id="clip-307"><path d="M 1.1 10.7 L 21.8 17.1 L 4.5 39.7 Z M 1.1 10.7 "></path></clipPath><g clip-path="url(#clip-307)"><g><clipPath id="clip-308"><path d="M 1.0 1.0 L 350.0 1.0 L 350.0 176.0 L 1.0 176.0 Z M 1.0 1.0 "></path></clipPath><g clip-path="url(#clip-308)"><path d="M 1.0 1.0 L 350.0 1.0 L 350.0 176.0 L 1.0 176.0 Z M 1.0 1.0 " fill="url(#gradSh1.69)"></path></g></g></g></g><g><clipPath id="clip-309"><path d="M 1.0 176.0 L 350.0 176.0 L 350.0 1.0 L 1.0 1.0 Z M 1.0 176.0 "></path></clipPath><g clip-path="url(#clip-309)"><g><clipPath id="clip-310"><path d="M 1.0 1.0 L 350.0 1.0 L 350.0 176.0 L 1.0 176.0 Z M 1.0 1.0 "></path></clipPath><g clip-path="url(#clip-310)"><path d="M 0.0 0.0 L -14.0 -119.0 L 71.0 -93.0 L 0.0 0.0 Z M 0.0 0.0 " fill="none" stroke="#FFFAF8" stroke-width="1.00" stroke-miterlimit="0.00" transform="matrix(0.24, 0.00, 0.00, 0.24, 4.5, 39.7)"></path></g></g></g></g></g></svg>