<?xml version="1.0" encoding="UTF-8" standalone="no"?><svg xmlns="http://www.w3.org/2000/svg" xmlns:xlink="http://www.w3.org/1999/xlink" clip-rule="evenodd" stroke-miterlimit="4.00" viewBox="0 0 366 49"><desc>SVG generated by Keynote</desc><defs></defs><g transform="matrix(1.00, 0.00, -0.00, -1.00, 0.0, 49.0)"><text xml:space="preserve" font-family="Lato-Light" font-size="62.0" fill="#FFFFFF" transform="matrix(1.00, 0.00, -0.00, -1.00, -5.0, 3.0)">I</text><text xml:space="preserve" font-family="Lato-Light" font-size="62.0" fill="#FFFFFF" transform="matrix(1.00, 0.00, -0.00, -1.00, 11.1, 3.0)">L</text><text xml:space="preserve" font-family="Lato-Light" font-size="62.0" fill="#FFFFFF" transform="matrix(1.00, 0.00, -0.00, -1.00, 40.7, 3.0)"> </text><text xml:space="preserve" font-family="Lato-Light" font-size="62.0" fill="#FFFFFF" transform="matrix(1.00, 0.00, -0.00, -1.00, 55.1, 3.0)">Y</text><text xml:space="preserve" font-family="Lato-Light" font-size="62.0" fill="#FFFFFF" transform="matrix(1.00, 0.00, -0.00, -1.00, 89.7, 3.0)"> </text><text xml:space="preserve" font-family="Lato-Light" font-size="62.0" fill="#FFFFFF" transform="matrix(1.00, 0.00, -0.00, -1.00, 104.5, 3.0)">A</text><text xml:space="preserve" font-family="Lato-Light" font-size="62.0" fill="#FFFFFF" transform="matrix(1.00, 0.00, -0.00, -1.00, 143.0, 3.0)"> </text><text xml:space="preserve" font-family="Lato-Light" font-size="62.0" fill="#FFFFFF" transform="matrix(1.00, 0.00, -0.00, -1.00, 159.8, 3.0)">1</text><text xml:space="preserve" font-family="Lato-Light" font-size="62.0" fill="#FFFFFF" transform="matrix(1.00, 0.00, -0.00, -1.00, 195.8, 3.0)">0</text><text xml:space="preserve" font-family="Lato-Light" font-size="62.0" fill="#FFFFFF" transform="matrix(1.00, 0.00, -0.00, -1.00, 231.7, 3.0)"> </text><text xml:space="preserve" font-family="Lato-Light" font-size="62.0" fill="#FFFFFF" transform="matrix(1.00, 0.00, -0.00, -1.00, 246.5, 3.0)">A</text><text xml:space="preserve" font-family="Lato-Light" font-size="62.0" fill="#FFFFFF" transform="matrix(1.00, 0.00, -0.00, -1.00, 287.1, 3.0)">N</text><text xml:space="preserve" font-family="Lato-Light" font-size="62.0" fill="#FFFFFF" transform="matrix(1.00, 0.00, -0.00, -1.00, 333.9, 3.0)">S</text></g></svg>