<?xml version="1.0" encoding="UTF-8" standalone="no"?><svg xmlns="http://www.w3.org/2000/svg" xmlns:xlink="http://www.w3.org/1999/xlink" clip-rule="evenodd" stroke-miterlimit="4.00" viewBox="0 0 352 71"><desc>SVG generated by Keynote</desc><defs></defs><g transform="matrix(1.00, 0.00, -0.00, -1.00, 0.0, 71.0)"><text xml:space="preserve" font-family="Lato-Light" font-size="72.0" fill="#FFFFFF" transform="matrix(1.00, 0.00, -0.00, -1.00, 1.0, 15.0)">A</text><text xml:space="preserve" font-family="Lato-Light" font-size="72.0" fill="#FFFFFF" transform="matrix(1.00, 0.00, -0.00, -1.00, 47.2, 15.0)">u</text><text xml:space="preserve" font-family="Lato-Light" font-size="72.0" fill="#FFFFFF" transform="matrix(1.00, 0.00, -0.00, -1.00, 86.7, 15.0)">j</text><text xml:space="preserve" font-family="Lato-Light" font-size="72.0" fill="#FFFFFF" transform="matrix(1.00, 0.00, -0.00, -1.00, 102.7, 15.0)">o</text><text xml:space="preserve" font-family="Lato-Light" font-size="72.0" fill="#FFFFFF" transform="matrix(1.00, 0.00, -0.00, -1.00, 142.9, 15.0)">u</text><text xml:space="preserve" font-family="Lato-Light" font-size="72.0" fill="#FFFFFF" transform="matrix(1.00, 0.00, -0.00, -1.00, 182.4, 15.0)">r</text><text xml:space="preserve" font-family="Lato-Light" font-size="72.0" fill="#FFFFFF" transform="matrix(1.00, 0.00, -0.00, -1.00, 205.9, 15.0)">d</text><text xml:space="preserve" font-family="Lato-Light" font-size="72.0" fill="#FFFFFF" transform="matrix(1.00, 0.00, -0.00, -1.00, 245.5, 15.0)">’</text><text xml:space="preserve" font-family="Lato-Light" font-size="72.0" fill="#FFFFFF" transform="matrix(1.00, 0.00, -0.00, -1.00, 260.3, 15.0)">h</text><text xml:space="preserve" font-family="Lato-Light" font-size="72.0" fill="#FFFFFF" transform="matrix(1.00, 0.00, -0.00, -1.00, 299.9, 15.0)">u</text><text xml:space="preserve" font-family="Lato-Light" font-size="72.0" fill="#FFFFFF" transform="matrix(1.00, 0.00, -0.00, -1.00, 339.4, 15.0)">i</text></g></svg>