<?xml version="1.0" encoding="UTF-8" standalone="no"?><svg xmlns="http://www.w3.org/2000/svg" xmlns:xlink="http://www.w3.org/1999/xlink" clip-rule="evenodd" stroke-miterlimit="4.00" viewBox="0 0 998 734"><desc>SVG generated by Keynote</desc><defs></defs><g transform="matrix(1.00, 0.00, -0.00, -1.00, 0.0, 734.0)"><path d="M 93.5 525.2 L 966.5 525.2 " fill="none" stroke="#5E5E5E" stroke-width="1.00" transform="matrix(1.00, 0.00, 0.00, -1.00, 1.5, 732.7)"></path><path d="M 93.5 371.2 L 966.5 371.2 " fill="none" stroke="#5E5E5E" stroke-width="1.00" transform="matrix(1.00, 0.00, 0.00, -1.00, 1.5, 732.7)"></path><path d="M 93.5 218.2 L 966.5 218.2 " fill="none" stroke="#5E5E5E" stroke-width="1.00" transform="matrix(1.00, 0.00, 0.00, -1.00, 1.5, 732.7)"></path><path d="M 93.5 65.2 L 966.5 65.2 " fill="none" stroke="#5E5E5E" stroke-width="1.00" transform="matrix(1.00, 0.00, 0.00, -1.00, 1.5, 732.7)"></path><g><clipPath id="clip-313"><path d="M 56.0 35.3 L 72.8 35.3 L 72.8 74.3 L 56.0 74.3 Z M 56.0 35.3 "></path></clipPath><g clip-path="url(#clip-313)"><text xml:space="preserve" font-family="Avenir-Light" font-size="26.7" fill="#FEFFFF" transform="matrix(1.00, 0.00, -0.00, -1.00, 57.0, 46.0)">0</text></g></g><g><clipPath id="clip-314"><path d="M 0.5 188.4 L 72.8 188.4 L 72.8 227.4 L 0.5 227.4 Z M 0.5 188.4 "></path></clipPath><g clip-path="url(#clip-314)"><text xml:space="preserve" font-family="Avenir-Light" font-size="26.7" fill="#FEFFFF" transform="matrix(1.00, 0.00, -0.00, -1.00, 2.0, 199.0)">1</text><text xml:space="preserve" font-family="Avenir-Light" font-size="26.7" fill="#FEFFFF" transform="matrix(1.00, 0.00, -0.00, -1.00, 15.9, 199.0)">0</text><text xml:space="preserve" font-family="Avenir-Light" font-size="26.7" fill="#FEFFFF" transform="matrix(1.00, 0.00, -0.00, -1.00, 29.7, 199.0)">0</text><text xml:space="preserve" font-family="Avenir-Light" font-size="26.7" fill="#FEFFFF" transform="matrix(1.00, 0.00, -0.00, -1.00, 43.6, 199.0)">0</text><text xml:space="preserve" font-family="Avenir-Light" font-size="26.7" fill="#FEFFFF" transform="matrix(1.00, 0.00, -0.00, -1.00, 57.5, 199.0)">0</text></g></g><g><clipPath id="clip-315"><path d="M 0.5 341.5 L 72.8 341.5 L 72.8 380.5 L 0.5 380.5 Z M 0.5 341.5 "></path></clipPath><g clip-path="url(#clip-315)"><text xml:space="preserve" font-family="Avenir-Light" font-size="26.7" fill="#FEFFFF" transform="matrix(1.00, 0.00, -0.00, -1.00, 2.0, 352.0)">2</text><text xml:space="preserve" font-family="Avenir-Light" font-size="26.7" fill="#FEFFFF" transform="matrix(1.00, 0.00, -0.00, -1.00, 15.9, 352.0)">0</text><text xml:space="preserve" font-family="Avenir-Light" font-size="26.7" fill="#FEFFFF" transform="matrix(1.00, 0.00, -0.00, -1.00, 29.7, 352.0)">0</text><text xml:space="preserve" font-family="Avenir-Light" font-size="26.7" fill="#FEFFFF" transform="matrix(1.00, 0.00, -0.00, -1.00, 43.6, 352.0)">0</text><text xml:space="preserve" font-family="Avenir-Light" font-size="26.7" fill="#FEFFFF" transform="matrix(1.00, 0.00, -0.00, -1.00, 57.5, 352.0)">0</text></g></g><g><clipPath id="clip-316"><path d="M 0.5 494.6 L 72.8 494.6 L 72.8 533.6 L 0.5 533.6 Z M 0.5 494.6 "></path></clipPath><g clip-path="url(#clip-316)"><text xml:space="preserve" font-family="Avenir-Light" font-size="26.7" fill="#FEFFFF" transform="matrix(1.00, 0.00, -0.00, -1.00, 2.0, 505.0)">3</text><text xml:space="preserve" font-family="Avenir-Light" font-size="26.7" fill="#FEFFFF" transform="matrix(1.00, 0.00, -0.00, -1.00, 15.9, 505.0)">0</text><text xml:space="preserve" font-family="Avenir-Light" font-size="26.7" fill="#FEFFFF" transform="matrix(1.00, 0.00, -0.00, -1.00, 29.7, 505.0)">0</text><text xml:space="preserve" font-family="Avenir-Light" font-size="26.7" fill="#FEFFFF" transform="matrix(1.00, 0.00, -0.00, -1.00, 43.6, 505.0)">0</text><text xml:space="preserve" font-family="Avenir-Light" font-size="26.7" fill="#FEFFFF" transform="matrix(1.00, 0.00, -0.00, -1.00, 57.5, 505.0)">0</text></g></g><g><clipPath id="clip-317"><path d="M 0.5 647.7 L 72.8 647.7 L 72.8 686.7 L 0.5 686.7 Z M 0.5 647.7 "></path></clipPath><g clip-path="url(#clip-317)"><text xml:space="preserve" font-family="Avenir-Light" font-size="26.7" fill="#FEFFFF" transform="matrix(1.00, 0.00, -0.00, -1.00, 2.0, 658.0)">4</text><text xml:space="preserve" font-family="Avenir-Light" font-size="26.7" fill="#FEFFFF" transform="matrix(1.00, 0.00, -0.00, -1.00, 15.9, 658.0)">0</text><text xml:space="preserve" font-family="Avenir-Light" font-size="26.7" fill="#FEFFFF" transform="matrix(1.00, 0.00, -0.00, -1.00, 29.7, 658.0)">0</text><text xml:space="preserve" font-family="Avenir-Light" font-size="26.7" fill="#FEFFFF" transform="matrix(1.00, 0.00, -0.00, -1.00, 43.6, 658.0)">0</text><text xml:space="preserve" font-family="Avenir-Light" font-size="26.7" fill="#FEFFFF" transform="matrix(1.00, 0.00, -0.00, -1.00, 57.5, 658.0)">0</text></g></g><path d="M 94.0 678.2 L 967.0 678.2 " fill="none" stroke="#5E5E5E" stroke-width="1.00" stroke-linecap="square" transform="matrix(1.00, 0.00, 0.00, -1.00, 1.5, 732.7)"></path><g><clipPath id="clip-318"><path d="M 65.8 0.1 L 124.3 0.1 L 124.3 39.1 L 65.8 39.1 Z M 65.8 0.1 "></path></clipPath><g clip-path="url(#clip-318)"><text xml:space="preserve" font-family="Avenir-Light" font-size="26.7" fill="#FEFFFF" transform="matrix(1.00, 0.00, -0.00, -1.00, 67.0, 11.0)">2</text><text xml:space="preserve" font-family="Avenir-Light" font-size="26.7" fill="#FEFFFF" transform="matrix(1.00, 0.00, -0.00, -1.00, 80.9, 11.0)">0</text><text xml:space="preserve" font-family="Avenir-Light" font-size="26.7" fill="#FEFFFF" transform="matrix(1.00, 0.00, -0.00, -1.00, 94.7, 11.0)">0</text><text xml:space="preserve" font-family="Avenir-Light" font-size="26.7" fill="#FEFFFF" transform="matrix(1.00, 0.00, -0.00, -1.00, 108.6, 11.0)">6</text></g></g><g><clipPath id="clip-319"><path d="M 162.8 0.1 L 221.3 0.1 L 221.3 39.1 L 162.8 39.1 Z M 162.8 0.1 "></path></clipPath><g clip-path="url(#clip-319)"><text xml:space="preserve" font-family="Avenir-Light" font-size="26.7" fill="#FEFFFF" transform="matrix(1.00, 0.00, -0.00, -1.00, 164.0, 11.0)">2</text><text xml:space="preserve" font-family="Avenir-Light" font-size="26.7" fill="#FEFFFF" transform="matrix(1.00, 0.00, -0.00, -1.00, 177.9, 11.0)">0</text><text xml:space="preserve" font-family="Avenir-Light" font-size="26.7" fill="#FEFFFF" transform="matrix(1.00, 0.00, -0.00, -1.00, 191.7, 11.0)">0</text><text xml:space="preserve" font-family="Avenir-Light" font-size="26.7" fill="#FEFFFF" transform="matrix(1.00, 0.00, -0.00, -1.00, 205.6, 11.0)">7</text></g></g><g><clipPath id="clip-320"><path d="M 259.9 0.1 L 318.3 0.1 L 318.3 39.1 L 259.9 39.1 Z M 259.9 0.1 "></path></clipPath><g clip-path="url(#clip-320)"><text xml:space="preserve" font-family="Avenir-Light" font-size="26.7" fill="#FEFFFF" transform="matrix(1.00, 0.00, -0.00, -1.00, 261.0, 11.0)">2</text><text xml:space="preserve" font-family="Avenir-Light" font-size="26.7" fill="#FEFFFF" transform="matrix(1.00, 0.00, -0.00, -1.00, 274.9, 11.0)">0</text><text xml:space="preserve" font-family="Avenir-Light" font-size="26.7" fill="#FEFFFF" transform="matrix(1.00, 0.00, -0.00, -1.00, 288.7, 11.0)">0</text><text xml:space="preserve" font-family="Avenir-Light" font-size="26.7" fill="#FEFFFF" transform="matrix(1.00, 0.00, -0.00, -1.00, 302.6, 11.0)">8</text></g></g><g><clipPath id="clip-321"><path d="M 356.9 0.1 L 415.4 0.1 L 415.4 39.1 L 356.9 39.1 Z M 356.9 0.1 "></path></clipPath><g clip-path="url(#clip-321)"><text xml:space="preserve" font-family="Avenir-Light" font-size="26.7" fill="#FEFFFF" transform="matrix(1.00, 0.00, -0.00, -1.00, 358.0, 11.0)">2</text><text xml:space="preserve" font-family="Avenir-Light" font-size="26.7" fill="#FEFFFF" transform="matrix(1.00, 0.00, -0.00, -1.00, 371.9, 11.0)">0</text><text xml:space="preserve" font-family="Avenir-Light" font-size="26.7" fill="#FEFFFF" transform="matrix(1.00, 0.00, -0.00, -1.00, 385.7, 11.0)">0</text><text xml:space="preserve" font-family="Avenir-Light" font-size="26.7" fill="#FEFFFF" transform="matrix(1.00, 0.00, -0.00, -1.00, 399.6, 11.0)">9</text></g></g><g><clipPath id="clip-322"><path d="M 453.9 0.1 L 512.4 0.1 L 512.4 39.1 L 453.9 39.1 Z M 453.9 0.1 "></path></clipPath><g clip-path="url(#clip-322)"><text xml:space="preserve" font-family="Avenir-Light" font-size="26.7" fill="#FEFFFF" transform="matrix(1.00, 0.00, -0.00, -1.00, 455.0, 11.0)">2</text><text xml:space="preserve" font-family="Avenir-Light" font-size="26.7" fill="#FEFFFF" transform="matrix(1.00, 0.00, -0.00, -1.00, 468.9, 11.0)">0</text><text xml:space="preserve" font-family="Avenir-Light" font-size="26.7" fill="#FEFFFF" transform="matrix(1.00, 0.00, -0.00, -1.00, 482.7, 11.0)">1</text><text xml:space="preserve" font-family="Avenir-Light" font-size="26.7" fill="#FEFFFF" transform="matrix(1.00, 0.00, -0.00, -1.00, 496.6, 11.0)">0</text></g></g><g><clipPath id="clip-323"><path d="M 550.9 0.1 L 609.4 0.1 L 609.4 39.1 L 550.9 39.1 Z M 550.9 0.1 "></path></clipPath><g clip-path="url(#clip-323)"><text xml:space="preserve" font-family="Avenir-Light" font-size="26.7" fill="#FEFFFF" transform="matrix(1.00, 0.00, -0.00, -1.00, 552.0, 11.0)">2</text><text xml:space="preserve" font-family="Avenir-Light" font-size="26.7" fill="#FEFFFF" transform="matrix(1.00, 0.00, -0.00, -1.00, 565.9, 11.0)">0</text><text xml:space="preserve" font-family="Avenir-Light" font-size="26.7" fill="#FEFFFF" transform="matrix(1.00, 0.00, -0.00, -1.00, 579.7, 11.0)">1</text><text xml:space="preserve" font-family="Avenir-Light" font-size="26.7" fill="#FEFFFF" transform="matrix(1.00, 0.00, -0.00, -1.00, 593.6, 11.0)">1</text></g></g><g><clipPath id="clip-324"><path d="M 648.0 0.1 L 706.4 0.1 L 706.4 39.1 L 648.0 39.1 Z M 648.0 0.1 "></path></clipPath><g clip-path="url(#clip-324)"><text xml:space="preserve" font-family="Avenir-Light" font-size="26.7" fill="#FEFFFF" transform="matrix(1.00, 0.00, -0.00, -1.00, 649.0, 11.0)">2</text><text xml:space="preserve" font-family="Avenir-Light" font-size="26.7" fill="#FEFFFF" transform="matrix(1.00, 0.00, -0.00, -1.00, 662.9, 11.0)">0</text><text xml:space="preserve" font-family="Avenir-Light" font-size="26.7" fill="#FEFFFF" transform="matrix(1.00, 0.00, -0.00, -1.00, 676.7, 11.0)">1</text><text xml:space="preserve" font-family="Avenir-Light" font-size="26.7" fill="#FEFFFF" transform="matrix(1.00, 0.00, -0.00, -1.00, 690.6, 11.0)">2</text></g></g><g><clipPath id="clip-325"><path d="M 745.0 0.1 L 803.4 0.1 L 803.4 39.1 L 745.0 39.1 Z M 745.0 0.1 "></path></clipPath><g clip-path="url(#clip-325)"><text xml:space="preserve" font-family="Avenir-Light" font-size="26.7" fill="#FEFFFF" transform="matrix(1.00, 0.00, -0.00, -1.00, 746.0, 11.0)">2</text><text xml:space="preserve" font-family="Avenir-Light" font-size="26.7" fill="#FEFFFF" transform="matrix(1.00, 0.00, -0.00, -1.00, 759.9, 11.0)">0</text><text xml:space="preserve" font-family="Avenir-Light" font-size="26.7" fill="#FEFFFF" transform="matrix(1.00, 0.00, -0.00, -1.00, 773.7, 11.0)">1</text><text xml:space="preserve" font-family="Avenir-Light" font-size="26.7" fill="#FEFFFF" transform="matrix(1.00, 0.00, -0.00, -1.00, 787.6, 11.0)">3</text></g></g><g><clipPath id="clip-326"><path d="M 842.0 0.1 L 900.5 0.1 L 900.5 39.1 L 842.0 39.1 Z M 842.0 0.1 "></path></clipPath><g clip-path="url(#clip-326)"><text xml:space="preserve" font-family="Avenir-Light" font-size="26.7" fill="#FEFFFF" transform="matrix(1.00, 0.00, -0.00, -1.00, 844.0, 11.0)">2</text><text xml:space="preserve" font-family="Avenir-Light" font-size="26.7" fill="#FEFFFF" transform="matrix(1.00, 0.00, -0.00, -1.00, 857.9, 11.0)">0</text><text xml:space="preserve" font-family="Avenir-Light" font-size="26.7" fill="#FEFFFF" transform="matrix(1.00, 0.00, -0.00, -1.00, 871.7, 11.0)">1</text><text xml:space="preserve" font-family="Avenir-Light" font-size="26.7" fill="#FEFFFF" transform="matrix(1.00, 0.00, -0.00, -1.00, 885.6, 11.0)">4</text></g></g><g><clipPath id="clip-327"><path d="M 939.0 0.1 L 997.5 0.1 L 997.5 39.1 L 939.0 39.1 Z M 939.0 0.1 "></path></clipPath><g clip-path="url(#clip-327)"><text xml:space="preserve" font-family="Avenir-Light" font-size="26.7" fill="#FEFFFF" transform="matrix(1.00, 0.00, -0.00, -1.00, 941.0, 11.0)">2</text><text xml:space="preserve" font-family="Avenir-Light" font-size="26.7" fill="#FEFFFF" transform="matrix(1.00, 0.00, -0.00, -1.00, 954.9, 11.0)">0</text><text xml:space="preserve" font-family="Avenir-Light" font-size="26.7" fill="#FEFFFF" transform="matrix(1.00, 0.00, -0.00, -1.00, 968.7, 11.0)">1</text><text xml:space="preserve" font-family="Avenir-Light" font-size="26.7" fill="#FEFFFF" transform="matrix(1.00, 0.00, -0.00, -1.00, 982.6, 11.0)">5</text></g></g><g><g><clipPath id="clip-328"><path d="M 91.0 727.0 L 119.0 727.0 L 119.0 698.0 L 91.0 698.0 Z M 113.4 712.5 C 113.4 707.9 109.6 704.1 105.0 704.1 C 100.4 704.1 96.6 707.9 96.6 712.5 C 96.6 717.1 100.4 720.9 105.0 720.9 C 109.6 720.9 113.4 717.1 113.4 712.5 Z M 113.4 712.5 "></path></clipPath><g clip-path="url(#clip-328)"><g><clipPath id="clip-329"><path d="M 91.0 698.0 L 119.0 698.0 L 119.0 727.0 L 91.0 727.0 Z M 91.0 698.0 "></path></clipPath><g clip-path="url(#clip-329)"><path d="M 0.5 14.7 L 28.5 14.7 " fill="none" stroke="#3FA3C1" stroke-width="5.25" transform="matrix(1.00, 0.00, 0.00, -1.00, 90.5, 727.2)"></path></g></g></g></g><g><clipPath id="clip-330"><path d="M 91.0 698.0 L 119.0 698.0 L 119.0 727.0 L 91.0 727.0 Z M 91.0 698.0 "></path></clipPath><g clip-path="url(#clip-330)"><path d="M 22.9 14.7 C 22.9 19.3 19.1 23.1 14.5 23.1 C 9.9 23.1 6.1 19.3 6.1 14.7 C 6.1 10.0 9.9 6.3 14.5 6.3 C 19.1 6.3 22.9 10.0 22.9 14.7 Z M 22.9 14.7 " fill="none" stroke="#3FA3C1" stroke-width="5.25" transform="matrix(1.00, 0.00, 0.00, -1.00, 90.5, 727.2)"></path></g></g></g><text xml:space="preserve" font-family="Avenir-Book" font-size="28.9" fill="#FEFFFF" transform="matrix(1.00, 0.00, -0.00, -1.00, 137.0, 703.0)">O</text><text xml:space="preserve" font-family="Avenir-Book" font-size="28.9" fill="#FEFFFF" transform="matrix(1.00, 0.00, -0.00, -1.00, 161.1, 703.0)">c</text><text xml:space="preserve" font-family="Avenir-Book" font-size="28.9" fill="#FEFFFF" transform="matrix(1.00, 0.00, -0.00, -1.00, 175.0, 703.0)">t</text><text xml:space="preserve" font-family="Avenir-Book" font-size="28.9" fill="#FEFFFF" transform="matrix(1.00, 0.00, -0.00, -1.00, 184.6, 703.0)">o</text><g><g><clipPath id="clip-331"><path d="M 228.0 727.0 L 257.0 727.0 L 257.0 698.0 L 228.0 698.0 Z M 251.2 712.5 C 251.2 707.7 247.3 703.8 242.5 703.8 C 237.7 703.8 233.8 707.7 233.8 712.5 C 233.8 717.3 237.7 721.2 242.5 721.2 C 247.3 721.2 251.2 717.3 251.2 712.5 Z M 251.2 712.5 "></path></clipPath><g clip-path="url(#clip-331)"><g><clipPath id="clip-332"><path d="M 228.0 698.0 L 257.0 698.0 L 257.0 727.0 L 228.0 727.0 Z M 228.0 698.0 "></path></clipPath><g clip-path="url(#clip-332)"><path d="M 0.3 14.7 L 29.3 14.7 " fill="none" stroke="#44740E" stroke-width="5.25" transform="matrix(1.00, 0.00, 0.00, -1.00, 227.7, 727.2)"></path></g></g></g></g><g><clipPath id="clip-333"><path d="M 228.0 698.0 L 257.0 698.0 L 257.0 727.0 L 228.0 727.0 Z M 228.0 698.0 "></path></clipPath><g clip-path="url(#clip-333)"><path d="M 23.5 14.7 C 23.5 19.5 19.6 23.4 14.8 23.4 C 10.0 23.4 6.1 19.5 6.1 14.7 C 6.1 9.9 10.0 6.0 14.8 6.0 C 19.6 6.0 23.5 9.9 23.5 14.7 Z M 23.5 14.7 " fill="none" stroke="#44740E" stroke-width="5.25" transform="matrix(1.00, 0.00, 0.00, -1.00, 227.7, 727.2)"></path></g></g></g><text xml:space="preserve" font-family="Avenir-Book" font-size="28.9" fill="#FEFFFF" transform="matrix(1.00, 0.00, -0.00, -1.00, 274.0, 703.0)">S</text><text xml:space="preserve" font-family="Avenir-Book" font-size="28.9" fill="#FEFFFF" transform="matrix(1.00, 0.00, -0.00, -1.00, 290.1, 703.0)">o</text><text xml:space="preserve" font-family="Avenir-Book" font-size="28.9" fill="#FEFFFF" transform="matrix(1.00, 0.00, -0.00, -1.00, 307.2, 703.0)">a</text><text xml:space="preserve" font-family="Avenir-Book" font-size="28.9" fill="#FEFFFF" transform="matrix(1.00, 0.00, -0.00, -1.00, 322.2, 703.0)">t</text><g><g><clipPath id="clip-334"><path d="M 358.0 727.0 L 387.0 727.0 L 387.0 698.0 L 358.0 698.0 Z M 381.2 712.5 C 381.2 707.7 377.3 703.8 372.5 703.8 C 367.7 703.8 363.8 707.7 363.8 712.5 C 363.8 717.3 367.7 721.2 372.5 721.2 C 377.3 721.2 381.2 717.3 381.2 712.5 Z M 381.2 712.5 "></path></clipPath><g clip-path="url(#clip-334)"><g><clipPath id="clip-335"><path d="M 358.0 698.0 L 387.0 698.0 L 387.0 727.0 L 358.0 727.0 Z M 358.0 698.0 "></path></clipPath><g clip-path="url(#clip-335)"><path d="M 0.0 14.7 L 29.0 14.7 " fill="none" stroke="#DD9000" stroke-width="5.25" transform="matrix(1.00, 0.00, 0.00, -1.00, 358.0, 727.2)"></path></g></g></g></g><g><clipPath id="clip-336"><path d="M 358.0 698.0 L 387.0 698.0 L 387.0 727.0 L 358.0 727.0 Z M 358.0 698.0 "></path></clipPath><g clip-path="url(#clip-336)"><path d="M 23.2 14.7 C 23.2 19.5 19.3 23.4 14.5 23.4 C 9.7 23.4 5.8 19.5 5.8 14.7 C 5.8 9.9 9.7 6.0 14.5 6.0 C 19.3 6.0 23.2 9.9 23.2 14.7 Z M 23.2 14.7 " fill="none" stroke="#DD9000" stroke-width="5.25" transform="matrix(1.00, 0.00, 0.00, -1.00, 358.0, 727.2)"></path></g></g></g><text xml:space="preserve" font-family="Avenir-Book" font-size="28.9" fill="#FEFFFF" transform="matrix(1.00, 0.00, -0.00, -1.00, 404.0, 703.0)">I</text><text xml:space="preserve" font-family="Avenir-Book" font-size="28.9" fill="#FEFFFF" transform="matrix(1.00, 0.00, -0.00, -1.00, 411.6, 703.0)">p</text><text xml:space="preserve" font-family="Avenir-Book" font-size="28.9" fill="#FEFFFF" transform="matrix(1.00, 0.00, -0.00, -1.00, 429.3, 703.0)">p</text><text xml:space="preserve" font-family="Avenir-Book" font-size="28.9" fill="#FEFFFF" transform="matrix(1.00, 0.00, -0.00, -1.00, 446.9, 703.0)">o</text><text xml:space="preserve" font-family="Avenir-Book" font-size="28.9" fill="#FEFFFF" transform="matrix(1.00, 0.00, -0.00, -1.00, 464.1, 703.0)">n</text><g><g><clipPath id="clip-337"><path d="M 507.0 727.0 L 536.0 727.0 L 536.0 698.0 L 507.0 698.0 Z M 530.2 712.5 C 530.2 707.7 526.3 703.8 521.5 703.8 C 516.7 703.8 512.8 707.7 512.8 712.5 C 512.8 717.3 516.7 721.2 521.5 721.2 C 526.3 721.2 530.2 717.3 530.2 712.5 Z M 530.2 712.5 "></path></clipPath><g clip-path="url(#clip-337)"><g><clipPath id="clip-338"><path d="M 507.0 698.0 L 536.0 698.0 L 536.0 727.0 L 507.0 727.0 Z M 507.0 698.0 "></path></clipPath><g clip-path="url(#clip-338)"><path d="M 0.4 14.7 L 29.4 14.7 " fill="none" stroke="#BE500E" stroke-width="5.25" transform="matrix(1.00, 0.00, 0.00, -1.00, 506.6, 727.2)"></path></g></g></g></g><g><clipPath id="clip-339"><path d="M 507.0 698.0 L 536.0 698.0 L 536.0 727.0 L 507.0 727.0 Z M 507.0 698.0 "></path></clipPath><g clip-path="url(#clip-339)"><path d="M 23.6 14.7 C 23.6 19.5 19.7 23.4 14.9 23.4 C 10.1 23.4 6.2 19.5 6.2 14.7 C 6.2 9.9 10.1 6.0 14.9 6.0 C 19.7 6.0 23.6 9.9 23.6 14.7 Z M 23.6 14.7 " fill="none" stroke="#BE500E" stroke-width="5.25" transform="matrix(1.00, 0.00, 0.00, -1.00, 506.6, 727.2)"></path></g></g></g><text xml:space="preserve" font-family="Avenir-Book" font-size="28.9" fill="#FEFFFF" transform="matrix(1.00, 0.00, -0.00, -1.00, 553.0, 703.0)">S</text><text xml:space="preserve" font-family="Avenir-Book" font-size="28.9" fill="#FEFFFF" transform="matrix(1.00, 0.00, -0.00, -1.00, 569.1, 703.0)">f</text><text xml:space="preserve" font-family="Avenir-Book" font-size="28.9" fill="#FEFFFF" transform="matrix(1.00, 0.00, -0.00, -1.00, 577.6, 703.0)">e</text><text xml:space="preserve" font-family="Avenir-Book" font-size="28.9" fill="#FEFFFF" transform="matrix(1.00, 0.00, -0.00, -1.00, 593.7, 703.0)">i</text><text xml:space="preserve" font-family="Avenir-Book" font-size="28.9" fill="#FEFFFF" transform="matrix(1.00, 0.00, -0.00, -1.00, 600.6, 703.0)">r</text><g><g><clipPath id="clip-340"><path d="M 636.0 727.0 L 665.0 727.0 L 665.0 698.0 L 636.0 698.0 Z M 659.2 712.5 C 659.2 707.7 655.3 703.8 650.5 703.8 C 645.7 703.8 641.8 707.7 641.8 712.5 C 641.8 717.3 645.7 721.2 650.5 721.2 C 655.3 721.2 659.2 717.3 659.2 712.5 Z M 659.2 712.5 "></path></clipPath><g clip-path="url(#clip-340)"><g><clipPath id="clip-341"><path d="M 636.0 698.0 L 665.0 698.0 L 665.0 727.0 L 636.0 727.0 Z M 636.0 698.0 "></path></clipPath><g clip-path="url(#clip-341)"><path d="M -0.3 14.7 L 28.7 14.7 " fill="none" stroke="#8B1805" stroke-width="5.25" transform="matrix(1.00, 0.00, 0.00, -1.00, 636.3, 727.2)"></path></g></g></g></g><g><clipPath id="clip-342"><path d="M 636.0 698.0 L 665.0 698.0 L 665.0 727.0 L 636.0 727.0 Z M 636.0 698.0 "></path></clipPath><g clip-path="url(#clip-342)"><path d="M 22.9 14.7 C 22.9 19.5 19.0 23.4 14.2 23.4 C 9.4 23.4 5.5 19.5 5.5 14.7 C 5.5 9.9 9.4 6.0 14.2 6.0 C 19.0 6.0 22.9 9.9 22.9 14.7 Z M 22.9 14.7 " fill="none" stroke="#8B1805" stroke-width="5.25" transform="matrix(1.00, 0.00, 0.00, -1.00, 636.3, 727.2)"></path></g></g></g><text xml:space="preserve" font-family="Avenir-Book" font-size="28.9" fill="#FEFFFF" transform="matrix(1.00, 0.00, -0.00, -1.00, 683.0, 703.0)">Z</text><text xml:space="preserve" font-family="Avenir-Book" font-size="28.9" fill="#FEFFFF" transform="matrix(1.00, 0.00, -0.00, -1.00, 699.1, 703.0)">e</text><text xml:space="preserve" font-family="Avenir-Book" font-size="28.9" fill="#FEFFFF" transform="matrix(1.00, 0.00, -0.00, -1.00, 715.1, 703.0)">n</text><text xml:space="preserve" font-family="Avenir-Book" font-size="28.9" fill="#FEFFFF" transform="matrix(1.00, 0.00, -0.00, -1.00, 731.2, 703.0)">i</text><text xml:space="preserve" font-family="Avenir-Book" font-size="28.9" fill="#FEFFFF" transform="matrix(1.00, 0.00, -0.00, -1.00, 738.1, 703.0)">k</text><text xml:space="preserve" font-family="Avenir-Book" font-size="28.9" fill="#FEFFFF" transform="matrix(1.00, 0.00, -0.00, -1.00, 752.0, 703.0)">a</text><g><g><clipPath id="clip-343"><path d="M 793.0 727.0 L 822.0 727.0 L 822.0 698.0 L 793.0 698.0 Z M 816.2 712.5 C 816.2 707.7 812.3 703.8 807.5 703.8 C 802.7 703.8 798.8 707.7 798.8 712.5 C 798.8 717.3 802.7 721.2 807.5 721.2 C 812.3 721.2 816.2 717.3 816.2 712.5 Z M 816.2 712.5 "></path></clipPath><g clip-path="url(#clip-343)"><g><clipPath id="clip-344"><path d="M 793.0 698.0 L 822.0 698.0 L 822.0 727.0 L 793.0 727.0 Z M 793.0 698.0 "></path></clipPath><g clip-path="url(#clip-344)"><path d="M 0.2 14.7 L 29.2 14.7 " fill="none" stroke="#701E7B" stroke-width="5.25" transform="matrix(1.00, 0.00, 0.00, -1.00, 792.8, 727.2)"></path></g></g></g></g><g><clipPath id="clip-345"><path d="M 793.0 698.0 L 822.0 698.0 L 822.0 727.0 L 793.0 727.0 Z M 793.0 698.0 "></path></clipPath><g clip-path="url(#clip-345)"><path d="M 23.4 14.7 C 23.4 19.5 19.5 23.4 14.7 23.4 C 9.9 23.4 6.0 19.5 6.0 14.7 C 6.0 9.9 9.9 6.0 14.7 6.0 C 19.5 6.0 23.4 9.9 23.4 14.7 Z M 23.4 14.7 " fill="none" stroke="#701E7B" stroke-width="5.25" transform="matrix(1.00, 0.00, 0.00, -1.00, 792.8, 727.2)"></path></g></g></g><text xml:space="preserve" font-family="Avenir-Book" font-size="28.9" fill="#FEFFFF" transform="matrix(1.00, 0.00, -0.00, -1.00, 839.0, 703.0)">X</text><text xml:space="preserve" font-family="Avenir-Book" font-size="28.9" fill="#FEFFFF" transform="matrix(1.00, 0.00, -0.00, -1.00, 857.2, 703.0)">e</text><text xml:space="preserve" font-family="Avenir-Book" font-size="28.9" fill="#FEFFFF" transform="matrix(1.00, 0.00, -0.00, -1.00, 873.3, 703.0)">b</text><text xml:space="preserve" font-family="Avenir-Book" font-size="28.9" fill="#FEFFFF" transform="matrix(1.00, 0.00, -0.00, -1.00, 890.9, 703.0)">i</text><text xml:space="preserve" font-family="Avenir-Book" font-size="28.9" fill="#FEFFFF" transform="matrix(1.00, 0.00, -0.00, -1.00, 897.8, 703.0)">a</text></g></svg>