<?xml version="1.0" encoding="UTF-8" standalone="no"?><svg xmlns="http://www.w3.org/2000/svg" xmlns:xlink="http://www.w3.org/1999/xlink" clip-rule="evenodd" stroke-miterlimit="4.00" viewBox="0 0 1024 768"><desc>SVG generated by Keynote</desc><defs></defs><g transform="matrix(1.00, 0.00, -0.00, -1.00, 0.0, 768.0)"><path d="M 0.0 768.0 L 1024.0 768.0 L 1024.0 0.0 L 0.0 0.0 Z M 0.0 768.0 " fill="#000000"></path><path d="M 93.5 525.2 L 966.5 525.2 " fill="none" stroke="#5E5E5E" stroke-width="1.00" transform="matrix(1.00, 0.00, 0.00, -1.00, 14.5, 755.7)"></path><path d="M 93.5 371.2 L 966.5 371.2 " fill="none" stroke="#5E5E5E" stroke-width="1.00" transform="matrix(1.00, 0.00, 0.00, -1.00, 14.5, 755.7)"></path><path d="M 93.5 218.2 L 966.5 218.2 " fill="none" stroke="#5E5E5E" stroke-width="1.00" transform="matrix(1.00, 0.00, 0.00, -1.00, 14.5, 755.7)"></path><path d="M 93.5 65.2 L 966.5 65.2 " fill="none" stroke="#5E5E5E" stroke-width="1.00" transform="matrix(1.00, 0.00, 0.00, -1.00, 14.5, 755.7)"></path><g><clipPath id="clip-386"><path d="M 69.0 58.3 L 85.8 58.3 L 85.8 97.3 L 69.0 97.3 Z M 69.0 58.3 "></path></clipPath><g clip-path="url(#clip-386)"><text xml:space="preserve" font-family="Avenir-Light" font-size="26.7" fill="#FEFFFF" transform="matrix(1.00, 0.00, -0.00, -1.00, 70.0, 69.0)">0</text></g></g><g><clipPath id="clip-387"><path d="M 13.5 211.4 L 85.8 211.4 L 85.8 250.4 L 13.5 250.4 Z M 13.5 211.4 "></path></clipPath><g clip-path="url(#clip-387)"><text xml:space="preserve" font-family="Avenir-Light" font-size="26.7" fill="#FEFFFF" transform="matrix(1.00, 0.00, -0.00, -1.00, 15.0, 222.0)">1</text><text xml:space="preserve" font-family="Avenir-Light" font-size="26.7" fill="#FEFFFF" transform="matrix(1.00, 0.00, -0.00, -1.00, 28.9, 222.0)">0</text><text xml:space="preserve" font-family="Avenir-Light" font-size="26.7" fill="#FEFFFF" transform="matrix(1.00, 0.00, -0.00, -1.00, 42.7, 222.0)">0</text><text xml:space="preserve" font-family="Avenir-Light" font-size="26.7" fill="#FEFFFF" transform="matrix(1.00, 0.00, -0.00, -1.00, 56.6, 222.0)">0</text><text xml:space="preserve" font-family="Avenir-Light" font-size="26.7" fill="#FEFFFF" transform="matrix(1.00, 0.00, -0.00, -1.00, 70.5, 222.0)">0</text></g></g><g><clipPath id="clip-388"><path d="M 13.5 364.5 L 85.8 364.5 L 85.8 403.5 L 13.5 403.5 Z M 13.5 364.5 "></path></clipPath><g clip-path="url(#clip-388)"><text xml:space="preserve" font-family="Avenir-Light" font-size="26.7" fill="#FEFFFF" transform="matrix(1.00, 0.00, -0.00, -1.00, 15.0, 375.0)">2</text><text xml:space="preserve" font-family="Avenir-Light" font-size="26.7" fill="#FEFFFF" transform="matrix(1.00, 0.00, -0.00, -1.00, 28.9, 375.0)">0</text><text xml:space="preserve" font-family="Avenir-Light" font-size="26.7" fill="#FEFFFF" transform="matrix(1.00, 0.00, -0.00, -1.00, 42.7, 375.0)">0</text><text xml:space="preserve" font-family="Avenir-Light" font-size="26.7" fill="#FEFFFF" transform="matrix(1.00, 0.00, -0.00, -1.00, 56.6, 375.0)">0</text><text xml:space="preserve" font-family="Avenir-Light" font-size="26.7" fill="#FEFFFF" transform="matrix(1.00, 0.00, -0.00, -1.00, 70.5, 375.0)">0</text></g></g><g><clipPath id="clip-389"><path d="M 13.5 517.6 L 85.8 517.6 L 85.8 556.6 L 13.5 556.6 Z M 13.5 517.6 "></path></clipPath><g clip-path="url(#clip-389)"><text xml:space="preserve" font-family="Avenir-Light" font-size="26.7" fill="#FEFFFF" transform="matrix(1.00, 0.00, -0.00, -1.00, 15.0, 528.0)">3</text><text xml:space="preserve" font-family="Avenir-Light" font-size="26.7" fill="#FEFFFF" transform="matrix(1.00, 0.00, -0.00, -1.00, 28.9, 528.0)">0</text><text xml:space="preserve" font-family="Avenir-Light" font-size="26.7" fill="#FEFFFF" transform="matrix(1.00, 0.00, -0.00, -1.00, 42.7, 528.0)">0</text><text xml:space="preserve" font-family="Avenir-Light" font-size="26.7" fill="#FEFFFF" transform="matrix(1.00, 0.00, -0.00, -1.00, 56.6, 528.0)">0</text><text xml:space="preserve" font-family="Avenir-Light" font-size="26.7" fill="#FEFFFF" transform="matrix(1.00, 0.00, -0.00, -1.00, 70.5, 528.0)">0</text></g></g><g><clipPath id="clip-390"><path d="M 13.5 670.7 L 85.8 670.7 L 85.8 709.7 L 13.5 709.7 Z M 13.5 670.7 "></path></clipPath><g clip-path="url(#clip-390)"><text xml:space="preserve" font-family="Avenir-Light" font-size="26.7" fill="#FEFFFF" transform="matrix(1.00, 0.00, -0.00, -1.00, 15.0, 681.0)">4</text><text xml:space="preserve" font-family="Avenir-Light" font-size="26.7" fill="#FEFFFF" transform="matrix(1.00, 0.00, -0.00, -1.00, 28.9, 681.0)">0</text><text xml:space="preserve" font-family="Avenir-Light" font-size="26.7" fill="#FEFFFF" transform="matrix(1.00, 0.00, -0.00, -1.00, 42.7, 681.0)">0</text><text xml:space="preserve" font-family="Avenir-Light" font-size="26.7" fill="#FEFFFF" transform="matrix(1.00, 0.00, -0.00, -1.00, 56.6, 681.0)">0</text><text xml:space="preserve" font-family="Avenir-Light" font-size="26.7" fill="#FEFFFF" transform="matrix(1.00, 0.00, -0.00, -1.00, 70.5, 681.0)">0</text></g></g><path d="M 94.0 678.2 L 967.0 678.2 " fill="none" stroke="#5E5E5E" stroke-width="1.00" stroke-linecap="square" transform="matrix(1.00, 0.00, 0.00, -1.00, 14.5, 755.7)"></path><g><clipPath id="clip-391"><path d="M 78.8 23.1 L 137.3 23.1 L 137.3 62.1 L 78.8 62.1 Z M 78.8 23.1 "></path></clipPath><g clip-path="url(#clip-391)"><text xml:space="preserve" font-family="Avenir-Light" font-size="26.7" fill="#FEFFFF" transform="matrix(1.00, 0.00, -0.00, -1.00, 80.0, 34.0)">2</text><text xml:space="preserve" font-family="Avenir-Light" font-size="26.7" fill="#FEFFFF" transform="matrix(1.00, 0.00, -0.00, -1.00, 93.9, 34.0)">0</text><text xml:space="preserve" font-family="Avenir-Light" font-size="26.7" fill="#FEFFFF" transform="matrix(1.00, 0.00, -0.00, -1.00, 107.7, 34.0)">0</text><text xml:space="preserve" font-family="Avenir-Light" font-size="26.7" fill="#FEFFFF" transform="matrix(1.00, 0.00, -0.00, -1.00, 121.6, 34.0)">6</text></g></g><g><clipPath id="clip-392"><path d="M 175.8 23.1 L 234.3 23.1 L 234.3 62.1 L 175.8 62.1 Z M 175.8 23.1 "></path></clipPath><g clip-path="url(#clip-392)"><text xml:space="preserve" font-family="Avenir-Light" font-size="26.7" fill="#FEFFFF" transform="matrix(1.00, 0.00, -0.00, -1.00, 177.0, 34.0)">2</text><text xml:space="preserve" font-family="Avenir-Light" font-size="26.7" fill="#FEFFFF" transform="matrix(1.00, 0.00, -0.00, -1.00, 190.9, 34.0)">0</text><text xml:space="preserve" font-family="Avenir-Light" font-size="26.7" fill="#FEFFFF" transform="matrix(1.00, 0.00, -0.00, -1.00, 204.7, 34.0)">0</text><text xml:space="preserve" font-family="Avenir-Light" font-size="26.7" fill="#FEFFFF" transform="matrix(1.00, 0.00, -0.00, -1.00, 218.6, 34.0)">7</text></g></g><g><clipPath id="clip-393"><path d="M 272.9 23.1 L 331.3 23.1 L 331.3 62.1 L 272.9 62.1 Z M 272.9 23.1 "></path></clipPath><g clip-path="url(#clip-393)"><text xml:space="preserve" font-family="Avenir-Light" font-size="26.7" fill="#FEFFFF" transform="matrix(1.00, 0.00, -0.00, -1.00, 274.0, 34.0)">2</text><text xml:space="preserve" font-family="Avenir-Light" font-size="26.7" fill="#FEFFFF" transform="matrix(1.00, 0.00, -0.00, -1.00, 287.9, 34.0)">0</text><text xml:space="preserve" font-family="Avenir-Light" font-size="26.7" fill="#FEFFFF" transform="matrix(1.00, 0.00, -0.00, -1.00, 301.7, 34.0)">0</text><text xml:space="preserve" font-family="Avenir-Light" font-size="26.7" fill="#FEFFFF" transform="matrix(1.00, 0.00, -0.00, -1.00, 315.6, 34.0)">8</text></g></g><g><clipPath id="clip-394"><path d="M 369.9 23.1 L 428.4 23.1 L 428.4 62.1 L 369.9 62.1 Z M 369.9 23.1 "></path></clipPath><g clip-path="url(#clip-394)"><text xml:space="preserve" font-family="Avenir-Light" font-size="26.7" fill="#FEFFFF" transform="matrix(1.00, 0.00, -0.00, -1.00, 371.0, 34.0)">2</text><text xml:space="preserve" font-family="Avenir-Light" font-size="26.7" fill="#FEFFFF" transform="matrix(1.00, 0.00, -0.00, -1.00, 384.9, 34.0)">0</text><text xml:space="preserve" font-family="Avenir-Light" font-size="26.7" fill="#FEFFFF" transform="matrix(1.00, 0.00, -0.00, -1.00, 398.7, 34.0)">0</text><text xml:space="preserve" font-family="Avenir-Light" font-size="26.7" fill="#FEFFFF" transform="matrix(1.00, 0.00, -0.00, -1.00, 412.6, 34.0)">9</text></g></g><g><clipPath id="clip-395"><path d="M 466.9 23.1 L 525.4 23.1 L 525.4 62.1 L 466.9 62.1 Z M 466.9 23.1 "></path></clipPath><g clip-path="url(#clip-395)"><text xml:space="preserve" font-family="Avenir-Light" font-size="26.7" fill="#FEFFFF" transform="matrix(1.00, 0.00, -0.00, -1.00, 468.0, 34.0)">2</text><text xml:space="preserve" font-family="Avenir-Light" font-size="26.7" fill="#FEFFFF" transform="matrix(1.00, 0.00, -0.00, -1.00, 481.9, 34.0)">0</text><text xml:space="preserve" font-family="Avenir-Light" font-size="26.7" fill="#FEFFFF" transform="matrix(1.00, 0.00, -0.00, -1.00, 495.7, 34.0)">1</text><text xml:space="preserve" font-family="Avenir-Light" font-size="26.7" fill="#FEFFFF" transform="matrix(1.00, 0.00, -0.00, -1.00, 509.6, 34.0)">0</text></g></g><g><clipPath id="clip-396"><path d="M 563.9 23.1 L 622.4 23.1 L 622.4 62.1 L 563.9 62.1 Z M 563.9 23.1 "></path></clipPath><g clip-path="url(#clip-396)"><text xml:space="preserve" font-family="Avenir-Light" font-size="26.7" fill="#FEFFFF" transform="matrix(1.00, 0.00, -0.00, -1.00, 565.0, 34.0)">2</text><text xml:space="preserve" font-family="Avenir-Light" font-size="26.7" fill="#FEFFFF" transform="matrix(1.00, 0.00, -0.00, -1.00, 578.9, 34.0)">0</text><text xml:space="preserve" font-family="Avenir-Light" font-size="26.7" fill="#FEFFFF" transform="matrix(1.00, 0.00, -0.00, -1.00, 592.7, 34.0)">1</text><text xml:space="preserve" font-family="Avenir-Light" font-size="26.7" fill="#FEFFFF" transform="matrix(1.00, 0.00, -0.00, -1.00, 606.6, 34.0)">1</text></g></g><g><clipPath id="clip-397"><path d="M 661.0 23.1 L 719.4 23.1 L 719.4 62.1 L 661.0 62.1 Z M 661.0 23.1 "></path></clipPath><g clip-path="url(#clip-397)"><text xml:space="preserve" font-family="Avenir-Light" font-size="26.7" fill="#FEFFFF" transform="matrix(1.00, 0.00, -0.00, -1.00, 662.0, 34.0)">2</text><text xml:space="preserve" font-family="Avenir-Light" font-size="26.7" fill="#FEFFFF" transform="matrix(1.00, 0.00, -0.00, -1.00, 675.9, 34.0)">0</text><text xml:space="preserve" font-family="Avenir-Light" font-size="26.7" fill="#FEFFFF" transform="matrix(1.00, 0.00, -0.00, -1.00, 689.7, 34.0)">1</text><text xml:space="preserve" font-family="Avenir-Light" font-size="26.7" fill="#FEFFFF" transform="matrix(1.00, 0.00, -0.00, -1.00, 703.6, 34.0)">2</text></g></g><g><clipPath id="clip-398"><path d="M 758.0 23.1 L 816.4 23.1 L 816.4 62.1 L 758.0 62.1 Z M 758.0 23.1 "></path></clipPath><g clip-path="url(#clip-398)"><text xml:space="preserve" font-family="Avenir-Light" font-size="26.7" fill="#FEFFFF" transform="matrix(1.00, 0.00, -0.00, -1.00, 759.0, 34.0)">2</text><text xml:space="preserve" font-family="Avenir-Light" font-size="26.7" fill="#FEFFFF" transform="matrix(1.00, 0.00, -0.00, -1.00, 772.9, 34.0)">0</text><text xml:space="preserve" font-family="Avenir-Light" font-size="26.7" fill="#FEFFFF" transform="matrix(1.00, 0.00, -0.00, -1.00, 786.7, 34.0)">1</text><text xml:space="preserve" font-family="Avenir-Light" font-size="26.7" fill="#FEFFFF" transform="matrix(1.00, 0.00, -0.00, -1.00, 800.6, 34.0)">3</text></g></g><g><clipPath id="clip-399"><path d="M 855.0 23.1 L 913.5 23.1 L 913.5 62.1 L 855.0 62.1 Z M 855.0 23.1 "></path></clipPath><g clip-path="url(#clip-399)"><text xml:space="preserve" font-family="Avenir-Light" font-size="26.7" fill="#FEFFFF" transform="matrix(1.00, 0.00, -0.00, -1.00, 857.0, 34.0)">2</text><text xml:space="preserve" font-family="Avenir-Light" font-size="26.7" fill="#FEFFFF" transform="matrix(1.00, 0.00, -0.00, -1.00, 870.9, 34.0)">0</text><text xml:space="preserve" font-family="Avenir-Light" font-size="26.7" fill="#FEFFFF" transform="matrix(1.00, 0.00, -0.00, -1.00, 884.7, 34.0)">1</text><text xml:space="preserve" font-family="Avenir-Light" font-size="26.7" fill="#FEFFFF" transform="matrix(1.00, 0.00, -0.00, -1.00, 898.6, 34.0)">4</text></g></g><g><clipPath id="clip-400"><path d="M 952.0 23.1 L 1010.5 23.1 L 1010.5 62.1 L 952.0 62.1 Z M 952.0 23.1 "></path></clipPath><g clip-path="url(#clip-400)"><text xml:space="preserve" font-family="Avenir-Light" font-size="26.7" fill="#FEFFFF" transform="matrix(1.00, 0.00, -0.00, -1.00, 954.0, 34.0)">2</text><text xml:space="preserve" font-family="Avenir-Light" font-size="26.7" fill="#FEFFFF" transform="matrix(1.00, 0.00, -0.00, -1.00, 967.9, 34.0)">0</text><text xml:space="preserve" font-family="Avenir-Light" font-size="26.7" fill="#FEFFFF" transform="matrix(1.00, 0.00, -0.00, -1.00, 981.7, 34.0)">1</text><text xml:space="preserve" font-family="Avenir-Light" font-size="26.7" fill="#FEFFFF" transform="matrix(1.00, 0.00, -0.00, -1.00, 995.6, 34.0)">5</text></g></g><g><g><clipPath id="clip-401"><path d="M 104.0 750.0 L 132.0 750.0 L 132.0 721.0 L 104.0 721.0 Z M 126.4 735.5 C 126.4 730.9 122.6 727.1 118.0 727.1 C 113.4 727.1 109.6 730.9 109.6 735.5 C 109.6 740.1 113.4 743.9 118.0 743.9 C 122.6 743.9 126.4 740.1 126.4 735.5 Z M 126.4 735.5 "></path></clipPath><g clip-path="url(#clip-401)"><g><clipPath id="clip-402"><path d="M 104.0 721.0 L 132.0 721.0 L 132.0 750.0 L 104.0 750.0 Z M 104.0 721.0 "></path></clipPath><g clip-path="url(#clip-402)"><path d="M 0.5 14.7 L 28.5 14.7 " fill="none" stroke="#3FA3C1" stroke-width="5.25" transform="matrix(1.00, 0.00, 0.00, -1.00, 103.5, 750.2)"></path></g></g></g></g><g><clipPath id="clip-403"><path d="M 104.0 721.0 L 132.0 721.0 L 132.0 750.0 L 104.0 750.0 Z M 104.0 721.0 "></path></clipPath><g clip-path="url(#clip-403)"><path d="M 22.9 14.7 C 22.9 19.3 19.1 23.1 14.5 23.1 C 9.9 23.1 6.1 19.3 6.1 14.7 C 6.1 10.0 9.9 6.3 14.5 6.3 C 19.1 6.3 22.9 10.0 22.9 14.7 Z M 22.9 14.7 " fill="none" stroke="#3FA3C1" stroke-width="5.25" transform="matrix(1.00, 0.00, 0.00, -1.00, 103.5, 750.2)"></path></g></g></g><text xml:space="preserve" font-family="Avenir-Book" font-size="28.9" fill="#FEFFFF" transform="matrix(1.00, 0.00, -0.00, -1.00, 150.0, 726.0)">O</text><text xml:space="preserve" font-family="Avenir-Book" font-size="28.9" fill="#FEFFFF" transform="matrix(1.00, 0.00, -0.00, -1.00, 174.1, 726.0)">c</text><text xml:space="preserve" font-family="Avenir-Book" font-size="28.9" fill="#FEFFFF" transform="matrix(1.00, 0.00, -0.00, -1.00, 188.0, 726.0)">t</text><text xml:space="preserve" font-family="Avenir-Book" font-size="28.9" fill="#FEFFFF" transform="matrix(1.00, 0.00, -0.00, -1.00, 197.6, 726.0)">o</text><g><g><clipPath id="clip-404"><path d="M 241.0 750.0 L 270.0 750.0 L 270.0 721.0 L 241.0 721.0 Z M 264.2 735.5 C 264.2 730.7 260.3 726.8 255.5 726.8 C 250.7 726.8 246.8 730.7 246.8 735.5 C 246.8 740.3 250.7 744.2 255.5 744.2 C 260.3 744.2 264.2 740.3 264.2 735.5 Z M 264.2 735.5 "></path></clipPath><g clip-path="url(#clip-404)"><g><clipPath id="clip-405"><path d="M 241.0 721.0 L 270.0 721.0 L 270.0 750.0 L 241.0 750.0 Z M 241.0 721.0 "></path></clipPath><g clip-path="url(#clip-405)"><path d="M 0.3 14.7 L 29.3 14.7 " fill="none" stroke="#44740E" stroke-width="5.25" transform="matrix(1.00, 0.00, 0.00, -1.00, 240.7, 750.2)"></path></g></g></g></g><g><clipPath id="clip-406"><path d="M 241.0 721.0 L 270.0 721.0 L 270.0 750.0 L 241.0 750.0 Z M 241.0 721.0 "></path></clipPath><g clip-path="url(#clip-406)"><path d="M 23.5 14.7 C 23.5 19.5 19.6 23.4 14.8 23.4 C 10.0 23.4 6.1 19.5 6.1 14.7 C 6.1 9.9 10.0 6.0 14.8 6.0 C 19.6 6.0 23.5 9.9 23.5 14.7 Z M 23.5 14.7 " fill="none" stroke="#44740E" stroke-width="5.25" transform="matrix(1.00, 0.00, 0.00, -1.00, 240.7, 750.2)"></path></g></g></g><text xml:space="preserve" font-family="Avenir-Book" font-size="28.9" fill="#FEFFFF" transform="matrix(1.00, 0.00, -0.00, -1.00, 287.0, 726.0)">S</text><text xml:space="preserve" font-family="Avenir-Book" font-size="28.9" fill="#FEFFFF" transform="matrix(1.00, 0.00, -0.00, -1.00, 303.1, 726.0)">o</text><text xml:space="preserve" font-family="Avenir-Book" font-size="28.9" fill="#FEFFFF" transform="matrix(1.00, 0.00, -0.00, -1.00, 320.2, 726.0)">a</text><text xml:space="preserve" font-family="Avenir-Book" font-size="28.9" fill="#FEFFFF" transform="matrix(1.00, 0.00, -0.00, -1.00, 335.2, 726.0)">t</text><g><g><clipPath id="clip-407"><path d="M 371.0 750.0 L 400.0 750.0 L 400.0 721.0 L 371.0 721.0 Z M 394.2 735.5 C 394.2 730.7 390.3 726.8 385.5 726.8 C 380.7 726.8 376.8 730.7 376.8 735.5 C 376.8 740.3 380.7 744.2 385.5 744.2 C 390.3 744.2 394.2 740.3 394.2 735.5 Z M 394.2 735.5 "></path></clipPath><g clip-path="url(#clip-407)"><g><clipPath id="clip-408"><path d="M 371.0 721.0 L 400.0 721.0 L 400.0 750.0 L 371.0 750.0 Z M 371.0 721.0 "></path></clipPath><g clip-path="url(#clip-408)"><path d="M 0.0 14.7 L 29.0 14.7 " fill="none" stroke="#DD9000" stroke-width="5.25" transform="matrix(1.00, 0.00, 0.00, -1.00, 371.0, 750.2)"></path></g></g></g></g><g><clipPath id="clip-409"><path d="M 371.0 721.0 L 400.0 721.0 L 400.0 750.0 L 371.0 750.0 Z M 371.0 721.0 "></path></clipPath><g clip-path="url(#clip-409)"><path d="M 23.2 14.7 C 23.2 19.5 19.3 23.4 14.5 23.4 C 9.7 23.4 5.8 19.5 5.8 14.7 C 5.8 9.9 9.7 6.0 14.5 6.0 C 19.3 6.0 23.2 9.9 23.2 14.7 Z M 23.2 14.7 " fill="none" stroke="#DD9000" stroke-width="5.25" transform="matrix(1.00, 0.00, 0.00, -1.00, 371.0, 750.2)"></path></g></g></g><text xml:space="preserve" font-family="Avenir-Book" font-size="28.9" fill="#FEFFFF" transform="matrix(1.00, 0.00, -0.00, -1.00, 417.0, 726.0)">I</text><text xml:space="preserve" font-family="Avenir-Book" font-size="28.9" fill="#FEFFFF" transform="matrix(1.00, 0.00, -0.00, -1.00, 424.6, 726.0)">p</text><text xml:space="preserve" font-family="Avenir-Book" font-size="28.9" fill="#FEFFFF" transform="matrix(1.00, 0.00, -0.00, -1.00, 442.3, 726.0)">p</text><text xml:space="preserve" font-family="Avenir-Book" font-size="28.9" fill="#FEFFFF" transform="matrix(1.00, 0.00, -0.00, -1.00, 459.9, 726.0)">o</text><text xml:space="preserve" font-family="Avenir-Book" font-size="28.9" fill="#FEFFFF" transform="matrix(1.00, 0.00, -0.00, -1.00, 477.1, 726.0)">n</text><g><g><clipPath id="clip-410"><path d="M 520.0 750.0 L 549.0 750.0 L 549.0 721.0 L 520.0 721.0 Z M 543.2 735.5 C 543.2 730.7 539.3 726.8 534.5 726.8 C 529.7 726.8 525.8 730.7 525.8 735.5 C 525.8 740.3 529.7 744.2 534.5 744.2 C 539.3 744.2 543.2 740.3 543.2 735.5 Z M 543.2 735.5 "></path></clipPath><g clip-path="url(#clip-410)"><g><clipPath id="clip-411"><path d="M 520.0 721.0 L 549.0 721.0 L 549.0 750.0 L 520.0 750.0 Z M 520.0 721.0 "></path></clipPath><g clip-path="url(#clip-411)"><path d="M 0.4 14.7 L 29.4 14.7 " fill="none" stroke="#BE500E" stroke-width="5.25" transform="matrix(1.00, 0.00, 0.00, -1.00, 519.6, 750.2)"></path></g></g></g></g><g><clipPath id="clip-412"><path d="M 520.0 721.0 L 549.0 721.0 L 549.0 750.0 L 520.0 750.0 Z M 520.0 721.0 "></path></clipPath><g clip-path="url(#clip-412)"><path d="M 23.6 14.7 C 23.6 19.5 19.7 23.4 14.9 23.4 C 10.1 23.4 6.2 19.5 6.2 14.7 C 6.2 9.9 10.1 6.0 14.9 6.0 C 19.7 6.0 23.6 9.9 23.6 14.7 Z M 23.6 14.7 " fill="none" stroke="#BE500E" stroke-width="5.25" transform="matrix(1.00, 0.00, 0.00, -1.00, 519.6, 750.2)"></path></g></g></g><text xml:space="preserve" font-family="Avenir-Book" font-size="28.9" fill="#FEFFFF" transform="matrix(1.00, 0.00, -0.00, -1.00, 566.0, 726.0)">S</text><text xml:space="preserve" font-family="Avenir-Book" font-size="28.9" fill="#FEFFFF" transform="matrix(1.00, 0.00, -0.00, -1.00, 582.1, 726.0)">f</text><text xml:space="preserve" font-family="Avenir-Book" font-size="28.9" fill="#FEFFFF" transform="matrix(1.00, 0.00, -0.00, -1.00, 590.6, 726.0)">e</text><text xml:space="preserve" font-family="Avenir-Book" font-size="28.9" fill="#FEFFFF" transform="matrix(1.00, 0.00, -0.00, -1.00, 606.7, 726.0)">i</text><text xml:space="preserve" font-family="Avenir-Book" font-size="28.9" fill="#FEFFFF" transform="matrix(1.00, 0.00, -0.00, -1.00, 613.6, 726.0)">r</text><g><g><clipPath id="clip-413"><path d="M 649.0 750.0 L 678.0 750.0 L 678.0 721.0 L 649.0 721.0 Z M 672.2 735.5 C 672.2 730.7 668.3 726.8 663.5 726.8 C 658.7 726.8 654.8 730.7 654.8 735.5 C 654.8 740.3 658.7 744.2 663.5 744.2 C 668.3 744.2 672.2 740.3 672.2 735.5 Z M 672.2 735.5 "></path></clipPath><g clip-path="url(#clip-413)"><g><clipPath id="clip-414"><path d="M 649.0 721.0 L 678.0 721.0 L 678.0 750.0 L 649.0 750.0 Z M 649.0 721.0 "></path></clipPath><g clip-path="url(#clip-414)"><path d="M -0.3 14.7 L 28.7 14.7 " fill="none" stroke="#8B1805" stroke-width="5.25" transform="matrix(1.00, 0.00, 0.00, -1.00, 649.3, 750.2)"></path></g></g></g></g><g><clipPath id="clip-415"><path d="M 649.0 721.0 L 678.0 721.0 L 678.0 750.0 L 649.0 750.0 Z M 649.0 721.0 "></path></clipPath><g clip-path="url(#clip-415)"><path d="M 22.9 14.7 C 22.9 19.5 19.0 23.4 14.2 23.4 C 9.4 23.4 5.5 19.5 5.5 14.7 C 5.5 9.9 9.4 6.0 14.2 6.0 C 19.0 6.0 22.9 9.9 22.9 14.7 Z M 22.9 14.7 " fill="none" stroke="#8B1805" stroke-width="5.25" transform="matrix(1.00, 0.00, 0.00, -1.00, 649.3, 750.2)"></path></g></g></g><text xml:space="preserve" font-family="Avenir-Book" font-size="28.9" fill="#FEFFFF" transform="matrix(1.00, 0.00, -0.00, -1.00, 696.0, 726.0)">Z</text><text xml:space="preserve" font-family="Avenir-Book" font-size="28.9" fill="#FEFFFF" transform="matrix(1.00, 0.00, -0.00, -1.00, 712.1, 726.0)">e</text><text xml:space="preserve" font-family="Avenir-Book" font-size="28.9" fill="#FEFFFF" transform="matrix(1.00, 0.00, -0.00, -1.00, 728.1, 726.0)">n</text><text xml:space="preserve" font-family="Avenir-Book" font-size="28.9" fill="#FEFFFF" transform="matrix(1.00, 0.00, -0.00, -1.00, 744.2, 726.0)">i</text><text xml:space="preserve" font-family="Avenir-Book" font-size="28.9" fill="#FEFFFF" transform="matrix(1.00, 0.00, -0.00, -1.00, 751.1, 726.0)">k</text><text xml:space="preserve" font-family="Avenir-Book" font-size="28.9" fill="#FEFFFF" transform="matrix(1.00, 0.00, -0.00, -1.00, 765.0, 726.0)">a</text><g><g><clipPath id="clip-416"><path d="M 806.0 750.0 L 835.0 750.0 L 835.0 721.0 L 806.0 721.0 Z M 829.2 735.5 C 829.2 730.7 825.3 726.8 820.5 726.8 C 815.7 726.8 811.8 730.7 811.8 735.5 C 811.8 740.3 815.7 744.2 820.5 744.2 C 825.3 744.2 829.2 740.3 829.2 735.5 Z M 829.2 735.5 "></path></clipPath><g clip-path="url(#clip-416)"><g><clipPath id="clip-417"><path d="M 806.0 721.0 L 835.0 721.0 L 835.0 750.0 L 806.0 750.0 Z M 806.0 721.0 "></path></clipPath><g clip-path="url(#clip-417)"><path d="M 0.2 14.7 L 29.2 14.7 " fill="none" stroke="#701E7B" stroke-width="5.25" transform="matrix(1.00, 0.00, 0.00, -1.00, 805.8, 750.2)"></path></g></g></g></g><g><clipPath id="clip-418"><path d="M 806.0 721.0 L 835.0 721.0 L 835.0 750.0 L 806.0 750.0 Z M 806.0 721.0 "></path></clipPath><g clip-path="url(#clip-418)"><path d="M 23.4 14.7 C 23.4 19.5 19.5 23.4 14.7 23.4 C 9.9 23.4 6.0 19.5 6.0 14.7 C 6.0 9.9 9.9 6.0 14.7 6.0 C 19.5 6.0 23.4 9.9 23.4 14.7 Z M 23.4 14.7 " fill="none" stroke="#701E7B" stroke-width="5.25" transform="matrix(1.00, 0.00, 0.00, -1.00, 805.8, 750.2)"></path></g></g></g><text xml:space="preserve" font-family="Avenir-Book" font-size="28.9" fill="#FEFFFF" transform="matrix(1.00, 0.00, -0.00, -1.00, 852.0, 726.0)">X</text><text xml:space="preserve" font-family="Avenir-Book" font-size="28.9" fill="#FEFFFF" transform="matrix(1.00, 0.00, -0.00, -1.00, 870.2, 726.0)">e</text><text xml:space="preserve" font-family="Avenir-Book" font-size="28.9" fill="#FEFFFF" transform="matrix(1.00, 0.00, -0.00, -1.00, 886.3, 726.0)">b</text><text xml:space="preserve" font-family="Avenir-Book" font-size="28.9" fill="#FEFFFF" transform="matrix(1.00, 0.00, -0.00, -1.00, 903.9, 726.0)">i</text><text xml:space="preserve" font-family="Avenir-Book" font-size="28.9" fill="#FEFFFF" transform="matrix(1.00, 0.00, -0.00, -1.00, 910.8, 726.0)">a</text><g><g><clipPath id="clip-419"><path d="M 104.5 74.2 L 984.9 74.2 L 984.9 693.8 L 104.5 693.8 Z M 104.5 74.2 "></path></clipPath><g clip-path="url(#clip-419)"><path d="M 0.0 210.5 L 97.0 198.1 L 194.0 181.4 L 291.1 165.0 L 388.1 138.0 L 485.1 117.9 L 582.1 98.1 L 679.2 57.9 L 776.2 0.0 " fill="none" stroke="#701E7B" stroke-width="6.00" transform="matrix(1.00, 0.00, 0.00, -1.00, 108.1, 302.8)"></path></g></g><g><clipPath id="clip-420"><path d="M 14.0 24.0 L 1010.0 24.0 L 1010.0 728.0 L 14.0 728.0 Z M 14.0 24.0 "></path></clipPath><g clip-path="url(#clip-420)"><path d="M 98.0 663.4 C 98.0 665.9 96.0 667.9 93.5 667.9 C 91.1 667.9 89.0 665.9 89.0 663.4 C 89.0 660.9 91.1 658.9 93.5 658.9 C 96.0 658.9 98.0 660.9 98.0 663.4 Z M 98.0 663.4 " fill="none" stroke="#701E7B" stroke-width="6.00" transform="matrix(1.00, 0.00, 0.00, -1.00, 14.5, 755.7)"></path><path d="M 195.1 651.0 C 195.1 653.5 193.1 655.5 190.6 655.5 C 188.1 655.5 186.1 653.5 186.1 651.0 C 186.1 648.5 188.1 646.5 190.6 646.5 C 193.1 646.5 195.1 648.5 195.1 651.0 Z M 195.1 651.0 " fill="none" stroke="#701E7B" stroke-width="6.00" transform="matrix(1.00, 0.00, 0.00, -1.00, 14.5, 755.7)"></path><path d="M 292.1 634.3 C 292.1 636.8 290.1 638.8 287.6 638.8 C 285.1 638.8 283.1 636.8 283.1 634.3 C 283.1 631.8 285.1 629.8 287.6 629.8 C 290.1 629.8 292.1 631.8 292.1 634.3 Z M 292.1 634.3 " fill="none" stroke="#701E7B" stroke-width="6.00" transform="matrix(1.00, 0.00, 0.00, -1.00, 14.5, 755.7)"></path><path d="M 389.1 617.9 C 389.1 620.4 387.1 622.4 384.6 622.4 C 382.1 622.4 380.1 620.4 380.1 617.9 C 380.1 615.4 382.1 613.4 384.6 613.4 C 387.1 613.4 389.1 615.4 389.1 617.9 Z M 389.1 617.9 " fill="none" stroke="#701E7B" stroke-width="6.00" transform="matrix(1.00, 0.00, 0.00, -1.00, 14.5, 755.7)"></path><path d="M 486.1 590.9 C 486.1 593.4 484.1 595.4 481.6 595.4 C 479.1 595.4 477.1 593.4 477.1 590.9 C 477.1 588.4 479.1 586.4 481.6 586.4 C 484.1 586.4 486.1 588.4 486.1 590.9 Z M 486.1 590.9 " fill="none" stroke="#701E7B" stroke-width="6.00" transform="matrix(1.00, 0.00, 0.00, -1.00, 14.5, 755.7)"></path><path d="M 583.2 570.8 C 583.2 573.2 581.1 575.3 578.7 575.3 C 576.2 575.3 574.2 573.2 574.2 570.8 C 574.2 568.3 576.2 566.3 578.7 566.3 C 581.1 566.3 583.2 568.3 583.2 570.8 Z M 583.2 570.8 " fill="none" stroke="#701E7B" stroke-width="6.00" transform="matrix(1.00, 0.00, 0.00, -1.00, 14.5, 755.7)"></path><path d="M 680.2 551.0 C 680.2 553.4 678.2 555.5 675.7 555.5 C 673.2 555.5 671.2 553.4 671.2 551.0 C 671.2 548.5 673.2 546.5 675.7 546.5 C 678.2 546.5 680.2 548.5 680.2 551.0 Z M 680.2 551.0 " fill="none" stroke="#701E7B" stroke-width="6.00" transform="matrix(1.00, 0.00, 0.00, -1.00, 14.5, 755.7)"></path><path d="M 777.2 510.8 C 777.2 513.2 775.2 515.3 772.7 515.3 C 770.2 515.3 768.2 513.2 768.2 510.8 C 768.2 508.3 770.2 506.3 772.7 506.3 C 775.2 506.3 777.2 508.3 777.2 510.8 Z M 777.2 510.8 " fill="none" stroke="#701E7B" stroke-width="6.00" transform="matrix(1.00, 0.00, 0.00, -1.00, 14.5, 755.7)"></path><path d="M 874.2 452.9 C 874.2 455.4 872.2 457.4 869.7 457.4 C 867.2 457.4 865.2 455.4 865.2 452.9 C 865.2 450.4 867.2 448.4 869.7 448.4 C 872.2 448.4 874.2 450.4 874.2 452.9 Z M 874.2 452.9 " fill="none" stroke="#701E7B" stroke-width="6.00" transform="matrix(1.00, 0.00, 0.00, -1.00, 14.5, 755.7)"></path></g></g></g><g><g><clipPath id="clip-421"><path d="M 104.5 74.2 L 984.9 74.2 L 984.9 693.8 L 104.5 693.8 Z M 104.5 74.2 "></path></clipPath><g clip-path="url(#clip-421)"><path d="M 0.0 254.1 L 97.0 248.9 L 194.0 240.2 L 291.1 235.1 L 388.1 216.7 L 485.1 182.9 L 582.1 135.7 L 679.2 92.0 L 776.2 46.9 L 873.2 0.0 " fill="none" stroke="#8B1805" stroke-width="6.00" transform="matrix(1.00, 0.00, 0.00, -1.00, 108.1, 338.1)"></path></g></g><g><clipPath id="clip-422"><path d="M 14.0 24.0 L 1010.0 24.0 L 1010.0 728.0 L 14.0 728.0 Z M 14.0 24.0 "></path></clipPath><g clip-path="url(#clip-422)"><path d="M 98.0 671.8 C 98.0 674.3 96.0 676.3 93.5 676.3 C 91.1 676.3 89.0 674.3 89.0 671.8 C 89.0 669.3 91.1 667.3 93.5 667.3 C 96.0 667.3 98.0 669.3 98.0 671.8 Z M 98.0 671.8 " fill="none" stroke="#8B1805" stroke-width="6.00" transform="matrix(1.00, 0.00, 0.00, -1.00, 14.5, 755.7)"></path><path d="M 195.1 666.5 C 195.1 669.0 193.1 671.0 190.6 671.0 C 188.1 671.0 186.1 669.0 186.1 666.5 C 186.1 664.0 188.1 662.0 190.6 662.0 C 193.1 662.0 195.1 664.0 195.1 666.5 Z M 195.1 666.5 " fill="none" stroke="#8B1805" stroke-width="6.00" transform="matrix(1.00, 0.00, 0.00, -1.00, 14.5, 755.7)"></path><path d="M 292.1 657.9 C 292.1 660.4 290.1 662.4 287.6 662.4 C 285.1 662.4 283.1 660.4 283.1 657.9 C 283.1 655.4 285.1 653.4 287.6 653.4 C 290.1 653.4 292.1 655.4 292.1 657.9 Z M 292.1 657.9 " fill="none" stroke="#8B1805" stroke-width="6.00" transform="matrix(1.00, 0.00, 0.00, -1.00, 14.5, 755.7)"></path><path d="M 389.1 652.8 C 389.1 655.3 387.1 657.3 384.6 657.3 C 382.1 657.3 380.1 655.3 380.1 652.8 C 380.1 650.3 382.1 648.3 384.6 648.3 C 387.1 648.3 389.1 650.3 389.1 652.8 Z M 389.1 652.8 " fill="none" stroke="#8B1805" stroke-width="6.00" transform="matrix(1.00, 0.00, 0.00, -1.00, 14.5, 755.7)"></path><path d="M 486.1 634.3 C 486.1 636.8 484.1 638.8 481.6 638.8 C 479.1 638.8 477.1 636.8 477.1 634.3 C 477.1 631.8 479.1 629.8 481.6 629.8 C 484.1 629.8 486.1 631.8 486.1 634.3 Z M 486.1 634.3 " fill="none" stroke="#8B1805" stroke-width="6.00" transform="matrix(1.00, 0.00, 0.00, -1.00, 14.5, 755.7)"></path><path d="M 583.2 600.6 C 583.2 603.0 581.1 605.1 578.7 605.1 C 576.2 605.1 574.2 603.0 574.2 600.6 C 574.2 598.1 576.2 596.1 578.7 596.1 C 581.1 596.1 583.2 598.1 583.2 600.6 Z M 583.2 600.6 " fill="none" stroke="#8B1805" stroke-width="6.00" transform="matrix(1.00, 0.00, 0.00, -1.00, 14.5, 755.7)"></path><path d="M 680.2 553.4 C 680.2 555.8 678.2 557.9 675.7 557.9 C 673.2 557.9 671.2 555.8 671.2 553.4 C 671.2 550.9 673.2 548.9 675.7 548.9 C 678.2 548.9 680.2 550.9 680.2 553.4 Z M 680.2 553.4 " fill="none" stroke="#8B1805" stroke-width="6.00" transform="matrix(1.00, 0.00, 0.00, -1.00, 14.5, 755.7)"></path><path d="M 777.2 509.6 C 777.2 512.1 775.2 514.1 772.7 514.1 C 770.2 514.1 768.2 512.1 768.2 509.6 C 768.2 507.2 770.2 505.1 772.7 505.1 C 775.2 505.1 777.2 507.2 777.2 509.6 Z M 777.2 509.6 " fill="none" stroke="#8B1805" stroke-width="6.00" transform="matrix(1.00, 0.00, 0.00, -1.00, 14.5, 755.7)"></path><path d="M 874.2 464.6 C 874.2 467.1 872.2 469.1 869.7 469.1 C 867.2 469.1 865.2 467.1 865.2 464.6 C 865.2 462.1 867.2 460.1 869.7 460.1 C 872.2 460.1 874.2 462.1 874.2 464.6 Z M 874.2 464.6 " fill="none" stroke="#8B1805" stroke-width="6.00" transform="matrix(1.00, 0.00, 0.00, -1.00, 14.5, 755.7)"></path><path d="M 971.2 417.7 C 971.2 420.2 969.2 422.2 966.7 422.2 C 964.3 422.2 962.2 420.2 962.2 417.7 C 962.2 415.2 964.3 413.2 966.7 413.2 C 969.2 413.2 971.2 415.2 971.2 417.7 Z M 971.2 417.7 " fill="none" stroke="#8B1805" stroke-width="6.00" transform="matrix(1.00, 0.00, 0.00, -1.00, 14.5, 755.7)"></path></g></g></g><g><g><clipPath id="clip-423"><path d="M 104.5 74.2 L 984.9 74.2 L 984.9 693.8 L 104.5 693.8 Z M 104.5 74.2 "></path></clipPath><g clip-path="url(#clip-423)"><path d="M 0.0 254.4 L 97.0 231.6 L 194.0 177.6 L 291.1 200.1 L 388.1 229.0 L 485.1 222.1 L 582.1 210.1 L 679.2 189.3 L 776.2 168.6 L 873.2 0.0 " fill="none" stroke="#BE500E" stroke-width="6.00" transform="matrix(1.00, 0.00, 0.00, -1.00, 108.1, 475.9)"></path></g></g><g><clipPath id="clip-424"><path d="M 14.0 24.0 L 1010.0 24.0 L 1010.0 728.0 L 14.0 728.0 Z M 14.0 24.0 "></path></clipPath><g clip-path="url(#clip-424)"><path d="M 98.0 534.3 C 98.0 536.8 96.0 538.8 93.5 538.8 C 91.1 538.8 89.0 536.8 89.0 534.3 C 89.0 531.8 91.1 529.8 93.5 529.8 C 96.0 529.8 98.0 531.8 98.0 534.3 Z M 98.0 534.3 " fill="none" stroke="#BE500E" stroke-width="6.00" transform="matrix(1.00, 0.00, 0.00, -1.00, 14.5, 755.7)"></path><path d="M 195.1 511.5 C 195.1 514.0 193.1 516.0 190.6 516.0 C 188.1 516.0 186.1 514.0 186.1 511.5 C 186.1 509.0 188.1 507.0 190.6 507.0 C 193.1 507.0 195.1 509.0 195.1 511.5 Z M 195.1 511.5 " fill="none" stroke="#BE500E" stroke-width="6.00" transform="matrix(1.00, 0.00, 0.00, -1.00, 14.5, 755.7)"></path><path d="M 292.1 457.5 C 292.1 460.0 290.1 462.0 287.6 462.0 C 285.1 462.0 283.1 460.0 283.1 457.5 C 283.1 455.0 285.1 453.0 287.6 453.0 C 290.1 453.0 292.1 455.0 292.1 457.5 Z M 292.1 457.5 " fill="none" stroke="#BE500E" stroke-width="6.00" transform="matrix(1.00, 0.00, 0.00, -1.00, 14.5, 755.7)"></path><path d="M 389.1 480.0 C 389.1 482.5 387.1 484.5 384.6 484.5 C 382.1 484.5 380.1 482.5 380.1 480.0 C 380.1 477.5 382.1 475.5 384.6 475.5 C 387.1 475.5 389.1 477.5 389.1 480.0 Z M 389.1 480.0 " fill="none" stroke="#BE500E" stroke-width="6.00" transform="matrix(1.00, 0.00, 0.00, -1.00, 14.5, 755.7)"></path><path d="M 486.1 508.9 C 486.1 511.4 484.1 513.4 481.6 513.4 C 479.1 513.4 477.1 511.4 477.1 508.9 C 477.1 506.4 479.1 504.4 481.6 504.4 C 484.1 504.4 486.1 506.4 486.1 508.9 Z M 486.1 508.9 " fill="none" stroke="#BE500E" stroke-width="6.00" transform="matrix(1.00, 0.00, 0.00, -1.00, 14.5, 755.7)"></path><path d="M 583.2 501.9 C 583.2 504.4 581.1 506.4 578.7 506.4 C 576.2 506.4 574.2 504.4 574.2 501.9 C 574.2 499.5 576.2 497.4 578.7 497.4 C 581.1 497.4 583.2 499.5 583.2 501.9 Z M 583.2 501.9 " fill="none" stroke="#BE500E" stroke-width="6.00" transform="matrix(1.00, 0.00, 0.00, -1.00, 14.5, 755.7)"></path><path d="M 680.2 490.0 C 680.2 492.5 678.2 494.5 675.7 494.5 C 673.2 494.5 671.2 492.5 671.2 490.0 C 671.2 487.5 673.2 485.5 675.7 485.5 C 678.2 485.5 680.2 487.5 680.2 490.0 Z M 680.2 490.0 " fill="none" stroke="#BE500E" stroke-width="6.00" transform="matrix(1.00, 0.00, 0.00, -1.00, 14.5, 755.7)"></path><path d="M 777.2 469.2 C 777.2 471.7 775.2 473.7 772.7 473.7 C 770.2 473.7 768.2 471.7 768.2 469.2 C 768.2 466.7 770.2 464.7 772.7 464.7 C 775.2 464.7 777.2 466.7 777.2 469.2 Z M 777.2 469.2 " fill="none" stroke="#BE500E" stroke-width="6.00" transform="matrix(1.00, 0.00, 0.00, -1.00, 14.5, 755.7)"></path><path d="M 874.2 448.4 C 874.2 450.9 872.2 452.9 869.7 452.9 C 867.2 452.9 865.2 450.9 865.2 448.4 C 865.2 446.0 867.2 443.9 869.7 443.9 C 872.2 443.9 874.2 446.0 874.2 448.4 Z M 874.2 448.4 " fill="none" stroke="#BE500E" stroke-width="6.00" transform="matrix(1.00, 0.00, 0.00, -1.00, 14.5, 755.7)"></path><path d="M 971.2 279.9 C 971.2 282.4 969.2 284.4 966.7 284.4 C 964.3 284.4 962.2 282.4 962.2 279.9 C 962.2 277.4 964.3 275.4 966.7 275.4 C 969.2 275.4 971.2 277.4 971.2 279.9 Z M 971.2 279.9 " fill="none" stroke="#BE500E" stroke-width="6.00" transform="matrix(1.00, 0.00, 0.00, -1.00, 14.5, 755.7)"></path></g></g></g><g><g><clipPath id="clip-425"><path d="M 104.5 74.2 L 984.9 74.2 L 984.9 693.8 L 104.5 693.8 Z M 104.5 74.2 "></path></clipPath><g clip-path="url(#clip-425)"><path d="M 0.0 122.5 L 97.0 101.0 L 194.0 65.8 L 291.1 0.0 " fill="none" stroke="#DD9000" stroke-width="6.00" transform="matrix(1.00, 0.00, 0.00, -1.00, 690.2, 384.0)"></path></g></g><g><clipPath id="clip-426"><path d="M 14.0 24.0 L 1010.0 24.0 L 1010.0 728.0 L 14.0 728.0 Z M 14.0 24.0 "></path></clipPath><g clip-path="url(#clip-426)"><path d="M 486.1 524.8 C 486.1 527.3 484.1 529.3 481.6 529.3 C 479.1 529.3 477.1 527.3 477.1 524.8 C 477.1 522.3 479.1 520.3 481.6 520.3 C 484.1 520.3 486.1 522.3 486.1 524.8 Z M 486.1 524.8 " fill="none" stroke="#DD9000" stroke-width="6.00" transform="matrix(1.00, 0.00, 0.00, -1.00, 14.5, 755.7)"></path><path d="M 680.2 494.2 C 680.2 496.7 678.2 498.7 675.7 498.7 C 673.2 498.7 671.2 496.7 671.2 494.2 C 671.2 491.7 673.2 489.7 675.7 489.7 C 678.2 489.7 680.2 491.7 680.2 494.2 Z M 680.2 494.2 " fill="none" stroke="#DD9000" stroke-width="6.00" transform="matrix(1.00, 0.00, 0.00, -1.00, 14.5, 755.7)"></path><path d="M 777.2 472.8 C 777.2 475.3 775.2 477.3 772.7 477.3 C 770.2 477.3 768.2 475.3 768.2 472.8 C 768.2 470.3 770.2 468.3 772.7 468.3 C 775.2 468.3 777.2 470.3 777.2 472.8 Z M 777.2 472.8 " fill="none" stroke="#DD9000" stroke-width="6.00" transform="matrix(1.00, 0.00, 0.00, -1.00, 14.5, 755.7)"></path><path d="M 874.2 437.6 C 874.2 440.1 872.2 442.1 869.7 442.1 C 867.2 442.1 865.2 440.1 865.2 437.6 C 865.2 435.1 867.2 433.1 869.7 433.1 C 872.2 433.1 874.2 435.1 874.2 437.6 Z M 874.2 437.6 " fill="none" stroke="#DD9000" stroke-width="6.00" transform="matrix(1.00, 0.00, 0.00, -1.00, 14.5, 755.7)"></path><path d="M 971.2 371.7 C 971.2 374.2 969.2 376.2 966.7 376.2 C 964.3 376.2 962.2 374.2 962.2 371.7 C 962.2 369.3 964.3 367.2 966.7 367.2 C 969.2 367.2 971.2 369.3 971.2 371.7 Z M 971.2 371.7 " fill="none" stroke="#DD9000" stroke-width="6.00" transform="matrix(1.00, 0.00, 0.00, -1.00, 14.5, 755.7)"></path></g></g></g><g><g><clipPath id="clip-427"><path d="M 104.5 74.2 L 984.9 74.2 L 984.9 693.8 L 104.5 693.8 Z M 104.5 74.2 "></path></clipPath><g clip-path="url(#clip-427)"><path d="M 0.0 372.0 L 97.0 317.7 L 194.0 267.1 L 291.1 279.5 L 388.1 255.3 L 485.1 192.7 L 582.1 129.9 L 679.2 59.1 L 776.2 12.2 L 873.2 0.0 " fill="none" stroke="#44740E" stroke-width="6.00" transform="matrix(1.00, 0.00, 0.00, -1.00, 108.1, 610.6)"></path></g></g><g><clipPath id="clip-428"><path d="M 14.0 24.0 L 1010.0 24.0 L 1010.0 728.0 L 14.0 728.0 Z M 14.0 24.0 "></path></clipPath><g clip-path="url(#clip-428)"><path d="M 98.0 517.2 C 98.0 519.7 96.0 521.7 93.5 521.7 C 91.1 521.7 89.0 519.7 89.0 517.2 C 89.0 514.7 91.1 512.7 93.5 512.7 C 96.0 512.7 98.0 514.7 98.0 517.2 Z M 98.0 517.2 " fill="none" stroke="#44740E" stroke-width="6.00" transform="matrix(1.00, 0.00, 0.00, -1.00, 14.5, 755.7)"></path><path d="M 195.1 462.8 C 195.1 465.3 193.1 467.3 190.6 467.3 C 188.1 467.3 186.1 465.3 186.1 462.8 C 186.1 460.3 188.1 458.3 190.6 458.3 C 193.1 458.3 195.1 460.3 195.1 462.8 Z M 195.1 462.8 " fill="none" stroke="#44740E" stroke-width="6.00" transform="matrix(1.00, 0.00, 0.00, -1.00, 14.5, 755.7)"></path><path d="M 292.1 412.3 C 292.1 414.8 290.1 416.8 287.6 416.8 C 285.1 416.8 283.1 414.8 283.1 412.3 C 283.1 409.8 285.1 407.8 287.6 407.8 C 290.1 407.8 292.1 409.8 292.1 412.3 Z M 292.1 412.3 " fill="none" stroke="#44740E" stroke-width="6.00" transform="matrix(1.00, 0.00, 0.00, -1.00, 14.5, 755.7)"></path><path d="M 389.1 424.7 C 389.1 427.2 387.1 429.2 384.6 429.2 C 382.1 429.2 380.1 427.2 380.1 424.7 C 380.1 422.2 382.1 420.2 384.6 420.2 C 387.1 420.2 389.1 422.2 389.1 424.7 Z M 389.1 424.7 " fill="none" stroke="#44740E" stroke-width="6.00" transform="matrix(1.00, 0.00, 0.00, -1.00, 14.5, 755.7)"></path><path d="M 486.1 400.5 C 486.1 403.0 484.1 405.0 481.6 405.0 C 479.1 405.0 477.1 403.0 477.1 400.5 C 477.1 398.0 479.1 396.0 481.6 396.0 C 484.1 396.0 486.1 398.0 486.1 400.5 Z M 486.1 400.5 " fill="none" stroke="#44740E" stroke-width="6.00" transform="matrix(1.00, 0.00, 0.00, -1.00, 14.5, 755.7)"></path><path d="M 583.2 337.9 C 583.2 340.3 581.1 342.4 578.7 342.4 C 576.2 342.4 574.2 340.3 574.2 337.9 C 574.2 335.4 576.2 333.4 578.7 333.4 C 581.1 333.4 583.2 335.4 583.2 337.9 Z M 583.2 337.9 " fill="none" stroke="#44740E" stroke-width="6.00" transform="matrix(1.00, 0.00, 0.00, -1.00, 14.5, 755.7)"></path><path d="M 680.2 275.0 C 680.2 277.5 678.2 279.5 675.7 279.5 C 673.2 279.5 671.2 277.5 671.2 275.0 C 671.2 272.5 673.2 270.5 675.7 270.5 C 678.2 270.5 680.2 272.5 680.2 275.0 Z M 680.2 275.0 " fill="none" stroke="#44740E" stroke-width="6.00" transform="matrix(1.00, 0.00, 0.00, -1.00, 14.5, 755.7)"></path><path d="M 777.2 204.2 C 777.2 206.7 775.2 208.7 772.7 208.7 C 770.2 208.7 768.2 206.7 768.2 204.2 C 768.2 201.7 770.2 199.7 772.7 199.7 C 775.2 199.7 777.2 201.7 777.2 204.2 Z M 777.2 204.2 " fill="none" stroke="#44740E" stroke-width="6.00" transform="matrix(1.00, 0.00, 0.00, -1.00, 14.5, 755.7)"></path><path d="M 874.2 157.4 C 874.2 159.9 872.2 161.9 869.7 161.9 C 867.2 161.9 865.2 159.9 865.2 157.4 C 865.2 154.9 867.2 152.9 869.7 152.9 C 872.2 152.9 874.2 154.9 874.2 157.4 Z M 874.2 157.4 " fill="none" stroke="#44740E" stroke-width="6.00" transform="matrix(1.00, 0.00, 0.00, -1.00, 14.5, 755.7)"></path><path d="M 971.2 145.2 C 971.2 147.7 969.2 149.7 966.7 149.7 C 964.3 149.7 962.2 147.7 962.2 145.2 C 962.2 142.7 964.3 140.7 966.7 140.7 C 969.2 140.7 971.2 142.7 971.2 145.2 Z M 971.2 145.2 " fill="none" stroke="#44740E" stroke-width="6.00" transform="matrix(1.00, 0.00, 0.00, -1.00, 14.5, 755.7)"></path></g></g></g><g><g><clipPath id="clip-429"><path d="M 104.5 74.2 L 984.9 74.2 L 984.9 693.8 L 104.5 693.8 Z M 104.5 74.2 "></path></clipPath><g clip-path="url(#clip-429)"><path d="M 0.0 454.7 L 97.0 430.0 L 194.0 391.0 L 291.1 352.3 L 388.1 309.5 L 485.1 289.3 L 582.1 257.2 L 679.2 266.4 L 776.2 216.5 L 873.2 0.0 " fill="none" stroke="#3FA3C1" stroke-width="6.00" transform="matrix(1.00, 0.00, 0.00, -1.00, 108.1, 665.7)"></path></g></g><g><clipPath id="clip-430"><path d="M 14.0 24.0 L 1010.0 24.0 L 1010.0 728.0 L 14.0 728.0 Z M 14.0 24.0 "></path></clipPath><g clip-path="url(#clip-430)"><path d="M 98.0 544.7 C 98.0 547.2 96.0 549.2 93.5 549.2 C 91.1 549.2 89.0 547.2 89.0 544.7 C 89.0 542.2 91.1 540.2 93.5 540.2 C 96.0 540.2 98.0 542.2 98.0 544.7 Z M 98.0 544.7 " fill="none" stroke="#3FA3C1" stroke-width="6.00" transform="matrix(1.00, 0.00, 0.00, -1.00, 14.5, 755.7)"></path><path d="M 195.1 520.1 C 195.1 522.6 193.1 524.6 190.6 524.6 C 188.1 524.6 186.1 522.6 186.1 520.1 C 186.1 517.6 188.1 515.6 190.6 515.6 C 193.1 515.6 195.1 517.6 195.1 520.1 Z M 195.1 520.1 " fill="none" stroke="#3FA3C1" stroke-width="6.00" transform="matrix(1.00, 0.00, 0.00, -1.00, 14.5, 755.7)"></path><path d="M 292.1 481.0 C 292.1 483.5 290.1 485.5 287.6 485.5 C 285.1 485.5 283.1 483.5 283.1 481.0 C 283.1 478.6 285.1 476.5 287.6 476.5 C 290.1 476.5 292.1 478.6 292.1 481.0 Z M 292.1 481.0 " fill="none" stroke="#3FA3C1" stroke-width="6.00" transform="matrix(1.00, 0.00, 0.00, -1.00, 14.5, 755.7)"></path><path d="M 389.1 442.3 C 389.1 444.8 387.1 446.8 384.6 446.8 C 382.1 446.8 380.1 444.8 380.1 442.3 C 380.1 439.8 382.1 437.8 384.6 437.8 C 387.1 437.8 389.1 439.8 389.1 442.3 Z M 389.1 442.3 " fill="none" stroke="#3FA3C1" stroke-width="6.00" transform="matrix(1.00, 0.00, 0.00, -1.00, 14.5, 755.7)"></path><path d="M 486.1 399.6 C 486.1 402.1 484.1 404.1 481.6 404.1 C 479.1 404.1 477.1 402.1 477.1 399.6 C 477.1 397.1 479.1 395.1 481.6 395.1 C 484.1 395.1 486.1 397.1 486.1 399.6 Z M 486.1 399.6 " fill="none" stroke="#3FA3C1" stroke-width="6.00" transform="matrix(1.00, 0.00, 0.00, -1.00, 14.5, 755.7)"></path><path d="M 583.2 379.4 C 583.2 381.9 581.1 383.9 578.7 383.9 C 576.2 383.9 574.2 381.9 574.2 379.4 C 574.2 376.9 576.2 374.9 578.7 374.9 C 581.1 374.9 583.2 376.9 583.2 379.4 Z M 583.2 379.4 " fill="none" stroke="#3FA3C1" stroke-width="6.00" transform="matrix(1.00, 0.00, 0.00, -1.00, 14.5, 755.7)"></path><path d="M 680.2 347.2 C 680.2 349.7 678.2 351.7 675.7 351.7 C 673.2 351.7 671.2 349.7 671.2 347.2 C 671.2 344.8 673.2 342.7 675.7 342.7 C 678.2 342.7 680.2 344.8 680.2 347.2 Z M 680.2 347.2 " fill="none" stroke="#3FA3C1" stroke-width="6.00" transform="matrix(1.00, 0.00, 0.00, -1.00, 14.5, 755.7)"></path><path d="M 777.2 356.4 C 777.2 358.9 775.2 360.9 772.7 360.9 C 770.2 360.9 768.2 358.9 768.2 356.4 C 768.2 353.9 770.2 351.9 772.7 351.9 C 775.2 351.9 777.2 353.9 777.2 356.4 Z M 777.2 356.4 " fill="none" stroke="#3FA3C1" stroke-width="6.00" transform="matrix(1.00, 0.00, 0.00, -1.00, 14.5, 755.7)"></path><path d="M 874.2 306.5 C 874.2 309.0 872.2 311.0 869.7 311.0 C 867.2 311.0 865.2 309.0 865.2 306.5 C 865.2 304.0 867.2 302.0 869.7 302.0 C 872.2 302.0 874.2 304.0 874.2 306.5 Z M 874.2 306.5 " fill="none" stroke="#3FA3C1" stroke-width="6.00" transform="matrix(1.00, 0.00, 0.00, -1.00, 14.5, 755.7)"></path><path d="M 971.2 90.1 C 971.2 92.5 969.2 94.6 966.7 94.6 C 964.3 94.6 962.2 92.5 962.2 90.1 C 962.2 87.6 964.3 85.6 966.7 85.6 C 969.2 85.6 971.2 87.6 971.2 90.1 Z M 971.2 90.1 " fill="none" stroke="#3FA3C1" stroke-width="6.00" transform="matrix(1.00, 0.00, 0.00, -1.00, 14.5, 755.7)"></path></g></g></g></g></svg>