<?xml version="1.0" encoding="UTF-8" standalone="no"?><svg xmlns="http://www.w3.org/2000/svg" xmlns:xlink="http://www.w3.org/1999/xlink" clip-rule="evenodd" stroke-miterlimit="4.00" viewBox="0 0 897 622"><desc>SVG generated by Keynote</desc><defs></defs><g transform="matrix(1.00, 0.00, -0.00, -1.00, 0.0, 622.0)"><g><g><clipPath id="clip-348"><path d="M 8.5 1.2 L 888.9 1.2 L 888.9 620.8 L 8.5 620.8 Z M 8.5 1.2 "></path></clipPath><g clip-path="url(#clip-348)"><path d="M 0.0 372.0 L 97.0 317.7 L 194.0 267.1 L 291.1 279.5 L 388.1 255.3 L 485.1 192.7 L 582.1 129.9 L 679.2 59.1 L 776.2 12.2 L 873.2 0.0 " fill="none" stroke="#44740E" stroke-width="6.00" transform="matrix(1.00, 0.00, 0.00, -1.00, 12.1, 537.6)"></path></g></g><g><clipPath id="clip-349"><path d="M 0.0 0.0 L 897.0 0.0 L 897.0 622.0 L 0.0 622.0 Z M 0.0 0.0 "></path></clipPath><g clip-path="url(#clip-349)"><path d="M 98.0 517.2 C 98.0 519.7 96.0 521.7 93.5 521.7 C 91.1 521.7 89.0 519.7 89.0 517.2 C 89.0 514.7 91.1 512.7 93.5 512.7 C 96.0 512.7 98.0 514.7 98.0 517.2 Z M 98.0 517.2 " fill="none" stroke="#44740E" stroke-width="6.00" transform="matrix(1.00, 0.00, 0.00, -1.00, -81.5, 682.7)"></path><path d="M 195.1 462.8 C 195.1 465.3 193.1 467.3 190.6 467.3 C 188.1 467.3 186.1 465.3 186.1 462.8 C 186.1 460.3 188.1 458.3 190.6 458.3 C 193.1 458.3 195.1 460.3 195.1 462.8 Z M 195.1 462.8 " fill="none" stroke="#44740E" stroke-width="6.00" transform="matrix(1.00, 0.00, 0.00, -1.00, -81.5, 682.7)"></path><path d="M 292.1 412.3 C 292.1 414.8 290.1 416.8 287.6 416.8 C 285.1 416.8 283.1 414.8 283.1 412.3 C 283.1 409.8 285.1 407.8 287.6 407.8 C 290.1 407.8 292.1 409.8 292.1 412.3 Z M 292.1 412.3 " fill="none" stroke="#44740E" stroke-width="6.00" transform="matrix(1.00, 0.00, 0.00, -1.00, -81.5, 682.7)"></path><path d="M 389.1 424.7 C 389.1 427.2 387.1 429.2 384.6 429.2 C 382.1 429.2 380.1 427.2 380.1 424.7 C 380.1 422.2 382.1 420.2 384.6 420.2 C 387.1 420.2 389.1 422.2 389.1 424.7 Z M 389.1 424.7 " fill="none" stroke="#44740E" stroke-width="6.00" transform="matrix(1.00, 0.00, 0.00, -1.00, -81.5, 682.7)"></path><path d="M 486.1 400.5 C 486.1 403.0 484.1 405.0 481.6 405.0 C 479.1 405.0 477.1 403.0 477.1 400.5 C 477.1 398.0 479.1 396.0 481.6 396.0 C 484.1 396.0 486.1 398.0 486.1 400.5 Z M 486.1 400.5 " fill="none" stroke="#44740E" stroke-width="6.00" transform="matrix(1.00, 0.00, 0.00, -1.00, -81.5, 682.7)"></path><path d="M 583.2 337.9 C 583.2 340.3 581.1 342.4 578.7 342.4 C 576.2 342.4 574.2 340.3 574.2 337.9 C 574.2 335.4 576.2 333.4 578.7 333.4 C 581.1 333.4 583.2 335.4 583.2 337.9 Z M 583.2 337.9 " fill="none" stroke="#44740E" stroke-width="6.00" transform="matrix(1.00, 0.00, 0.00, -1.00, -81.5, 682.7)"></path><path d="M 680.2 275.0 C 680.2 277.5 678.2 279.5 675.7 279.5 C 673.2 279.5 671.2 277.5 671.2 275.0 C 671.2 272.5 673.2 270.5 675.7 270.5 C 678.2 270.5 680.2 272.5 680.2 275.0 Z M 680.2 275.0 " fill="none" stroke="#44740E" stroke-width="6.00" transform="matrix(1.00, 0.00, 0.00, -1.00, -81.5, 682.7)"></path><path d="M 777.2 204.2 C 777.2 206.7 775.2 208.7 772.7 208.7 C 770.2 208.7 768.2 206.7 768.2 204.2 C 768.2 201.7 770.2 199.7 772.7 199.7 C 775.2 199.7 777.2 201.7 777.2 204.2 Z M 777.2 204.2 " fill="none" stroke="#44740E" stroke-width="6.00" transform="matrix(1.00, 0.00, 0.00, -1.00, -81.5, 682.7)"></path><path d="M 874.2 157.4 C 874.2 159.9 872.2 161.9 869.7 161.9 C 867.2 161.9 865.2 159.9 865.2 157.4 C 865.2 154.9 867.2 152.9 869.7 152.9 C 872.2 152.9 874.2 154.9 874.2 157.4 Z M 874.2 157.4 " fill="none" stroke="#44740E" stroke-width="6.00" transform="matrix(1.00, 0.00, 0.00, -1.00, -81.5, 682.7)"></path><path d="M 971.2 145.2 C 971.2 147.7 969.2 149.7 966.7 149.7 C 964.3 149.7 962.2 147.7 962.2 145.2 C 962.2 142.7 964.3 140.7 966.7 140.7 C 969.2 140.7 971.2 142.7 971.2 145.2 Z M 971.2 145.2 " fill="none" stroke="#44740E" stroke-width="6.00" transform="matrix(1.00, 0.00, 0.00, -1.00, -81.5, 682.7)"></path></g></g></g></g></svg>