<?xml version="1.0" encoding="UTF-8" standalone="no"?><svg xmlns="http://www.w3.org/2000/svg" xmlns:xlink="http://www.w3.org/1999/xlink" clip-rule="evenodd" stroke-miterlimit="4.00" viewBox="0 0 897 623"><desc>SVG generated by Keynote</desc><defs></defs><g transform="matrix(1.00, 0.00, -0.00, -1.00, 0.0, 623.0)"><g><g><clipPath id="clip-364"><path d="M 8.5 2.2 L 888.9 2.2 L 888.9 621.8 L 8.5 621.8 Z M 8.5 2.2 "></path></clipPath><g clip-path="url(#clip-364)"><path d="M 0.0 254.1 L 97.0 248.9 L 194.0 240.2 L 291.1 235.1 L 388.1 216.7 L 485.1 182.9 L 582.1 135.7 L 679.2 92.0 L 776.2 46.9 L 873.2 0.0 " fill="none" stroke="#8B1805" stroke-width="6.00" transform="matrix(1.00, 0.00, 0.00, -1.00, 12.1, 266.1)"></path></g></g><g><clipPath id="clip-365"><path d="M 0.0 0.0 L 897.0 0.0 L 897.0 623.0 L 0.0 623.0 Z M 0.0 0.0 "></path></clipPath><g clip-path="url(#clip-365)"><path d="M 98.0 671.8 C 98.0 674.3 96.0 676.3 93.5 676.3 C 91.1 676.3 89.0 674.3 89.0 671.8 C 89.0 669.3 91.1 667.3 93.5 667.3 C 96.0 667.3 98.0 669.3 98.0 671.8 Z M 98.0 671.8 " fill="none" stroke="#8B1805" stroke-width="6.00" transform="matrix(1.00, 0.00, 0.00, -1.00, -81.5, 683.7)"></path><path d="M 195.1 666.5 C 195.1 669.0 193.1 671.0 190.6 671.0 C 188.1 671.0 186.1 669.0 186.1 666.5 C 186.1 664.0 188.1 662.0 190.6 662.0 C 193.1 662.0 195.1 664.0 195.1 666.5 Z M 195.1 666.5 " fill="none" stroke="#8B1805" stroke-width="6.00" transform="matrix(1.00, 0.00, 0.00, -1.00, -81.5, 683.7)"></path><path d="M 292.1 657.9 C 292.1 660.4 290.1 662.4 287.6 662.4 C 285.1 662.4 283.1 660.4 283.1 657.9 C 283.1 655.4 285.1 653.4 287.6 653.4 C 290.1 653.4 292.1 655.4 292.1 657.9 Z M 292.1 657.9 " fill="none" stroke="#8B1805" stroke-width="6.00" transform="matrix(1.00, 0.00, 0.00, -1.00, -81.5, 683.7)"></path><path d="M 389.1 652.8 C 389.1 655.3 387.1 657.3 384.6 657.3 C 382.1 657.3 380.1 655.3 380.1 652.8 C 380.1 650.3 382.1 648.3 384.6 648.3 C 387.1 648.3 389.1 650.3 389.1 652.8 Z M 389.1 652.8 " fill="none" stroke="#8B1805" stroke-width="6.00" transform="matrix(1.00, 0.00, 0.00, -1.00, -81.5, 683.7)"></path><path d="M 486.1 634.3 C 486.1 636.8 484.1 638.8 481.6 638.8 C 479.1 638.8 477.1 636.8 477.1 634.3 C 477.1 631.8 479.1 629.8 481.6 629.8 C 484.1 629.8 486.1 631.8 486.1 634.3 Z M 486.1 634.3 " fill="none" stroke="#8B1805" stroke-width="6.00" transform="matrix(1.00, 0.00, 0.00, -1.00, -81.5, 683.7)"></path><path d="M 583.2 600.6 C 583.2 603.0 581.1 605.1 578.7 605.1 C 576.2 605.1 574.2 603.0 574.2 600.6 C 574.2 598.1 576.2 596.1 578.7 596.1 C 581.1 596.1 583.2 598.1 583.2 600.6 Z M 583.2 600.6 " fill="none" stroke="#8B1805" stroke-width="6.00" transform="matrix(1.00, 0.00, 0.00, -1.00, -81.5, 683.7)"></path><path d="M 680.2 553.4 C 680.2 555.8 678.2 557.9 675.7 557.9 C 673.2 557.9 671.2 555.8 671.2 553.4 C 671.2 550.9 673.2 548.9 675.7 548.9 C 678.2 548.9 680.2 550.9 680.2 553.4 Z M 680.2 553.4 " fill="none" stroke="#8B1805" stroke-width="6.00" transform="matrix(1.00, 0.00, 0.00, -1.00, -81.5, 683.7)"></path><path d="M 777.2 509.6 C 777.2 512.1 775.2 514.1 772.7 514.1 C 770.2 514.1 768.2 512.1 768.2 509.6 C 768.2 507.2 770.2 505.1 772.7 505.1 C 775.2 505.1 777.2 507.2 777.2 509.6 Z M 777.2 509.6 " fill="none" stroke="#8B1805" stroke-width="6.00" transform="matrix(1.00, 0.00, 0.00, -1.00, -81.5, 683.7)"></path><path d="M 874.2 464.6 C 874.2 467.1 872.2 469.1 869.7 469.1 C 867.2 469.1 865.2 467.1 865.2 464.6 C 865.2 462.1 867.2 460.1 869.7 460.1 C 872.2 460.1 874.2 462.1 874.2 464.6 Z M 874.2 464.6 " fill="none" stroke="#8B1805" stroke-width="6.00" transform="matrix(1.00, 0.00, 0.00, -1.00, -81.5, 683.7)"></path><path d="M 971.2 417.7 C 971.2 420.2 969.2 422.2 966.7 422.2 C 964.3 422.2 962.2 420.2 962.2 417.7 C 962.2 415.2 964.3 413.2 966.7 413.2 C 969.2 413.2 971.2 415.2 971.2 417.7 Z M 971.2 417.7 " fill="none" stroke="#8B1805" stroke-width="6.00" transform="matrix(1.00, 0.00, 0.00, -1.00, -81.5, 683.7)"></path></g></g></g></g></svg>