<?xml version="1.0" encoding="UTF-8" standalone="no"?><svg xmlns="http://www.w3.org/2000/svg" xmlns:xlink="http://www.w3.org/1999/xlink" clip-rule="evenodd" stroke-miterlimit="4.00" viewBox="0 0 897 622"><desc>SVG generated by Keynote</desc><defs></defs><g transform="matrix(1.00, 0.00, -0.00, -1.00, 0.0, 622.0)"><g><g><clipPath id="clip-356"><path d="M 8.5 1.2 L 888.9 1.2 L 888.9 620.8 L 8.5 620.8 Z M 8.5 1.2 "></path></clipPath><g clip-path="url(#clip-356)"><path d="M 0.0 254.4 L 97.0 231.6 L 194.0 177.6 L 291.1 200.1 L 388.1 229.0 L 485.1 222.1 L 582.1 210.1 L 679.2 189.3 L 776.2 168.6 L 873.2 0.0 " fill="none" stroke="#BE500E" stroke-width="6.00" transform="matrix(1.00, 0.00, 0.00, -1.00, 12.1, 402.9)"></path></g></g><g><clipPath id="clip-357"><path d="M 0.0 0.0 L 897.0 0.0 L 897.0 622.0 L 0.0 622.0 Z M 0.0 0.0 "></path></clipPath><g clip-path="url(#clip-357)"><path d="M 98.0 534.3 C 98.0 536.8 96.0 538.8 93.5 538.8 C 91.1 538.8 89.0 536.8 89.0 534.3 C 89.0 531.8 91.1 529.8 93.5 529.8 C 96.0 529.8 98.0 531.8 98.0 534.3 Z M 98.0 534.3 " fill="none" stroke="#BE500E" stroke-width="6.00" transform="matrix(1.00, 0.00, 0.00, -1.00, -81.5, 682.7)"></path><path d="M 195.1 511.5 C 195.1 514.0 193.1 516.0 190.6 516.0 C 188.1 516.0 186.1 514.0 186.1 511.5 C 186.1 509.0 188.1 507.0 190.6 507.0 C 193.1 507.0 195.1 509.0 195.1 511.5 Z M 195.1 511.5 " fill="none" stroke="#BE500E" stroke-width="6.00" transform="matrix(1.00, 0.00, 0.00, -1.00, -81.5, 682.7)"></path><path d="M 292.1 457.5 C 292.1 460.0 290.1 462.0 287.6 462.0 C 285.1 462.0 283.1 460.0 283.1 457.5 C 283.1 455.0 285.1 453.0 287.6 453.0 C 290.1 453.0 292.1 455.0 292.1 457.5 Z M 292.1 457.5 " fill="none" stroke="#BE500E" stroke-width="6.00" transform="matrix(1.00, 0.00, 0.00, -1.00, -81.5, 682.7)"></path><path d="M 389.1 480.0 C 389.1 482.5 387.1 484.5 384.6 484.5 C 382.1 484.5 380.1 482.5 380.1 480.0 C 380.1 477.5 382.1 475.5 384.6 475.5 C 387.1 475.5 389.1 477.5 389.1 480.0 Z M 389.1 480.0 " fill="none" stroke="#BE500E" stroke-width="6.00" transform="matrix(1.00, 0.00, 0.00, -1.00, -81.5, 682.7)"></path><path d="M 486.1 508.9 C 486.1 511.4 484.1 513.4 481.6 513.4 C 479.1 513.4 477.1 511.4 477.1 508.9 C 477.1 506.4 479.1 504.4 481.6 504.4 C 484.1 504.4 486.1 506.4 486.1 508.9 Z M 486.1 508.9 " fill="none" stroke="#BE500E" stroke-width="6.00" transform="matrix(1.00, 0.00, 0.00, -1.00, -81.5, 682.7)"></path><path d="M 583.2 501.9 C 583.2 504.4 581.1 506.4 578.7 506.4 C 576.2 506.4 574.2 504.4 574.2 501.9 C 574.2 499.5 576.2 497.4 578.7 497.4 C 581.1 497.4 583.2 499.5 583.2 501.9 Z M 583.2 501.9 " fill="none" stroke="#BE500E" stroke-width="6.00" transform="matrix(1.00, 0.00, 0.00, -1.00, -81.5, 682.7)"></path><path d="M 680.2 490.0 C 680.2 492.5 678.2 494.5 675.7 494.5 C 673.2 494.5 671.2 492.5 671.2 490.0 C 671.2 487.5 673.2 485.5 675.7 485.5 C 678.2 485.5 680.2 487.5 680.2 490.0 Z M 680.2 490.0 " fill="none" stroke="#BE500E" stroke-width="6.00" transform="matrix(1.00, 0.00, 0.00, -1.00, -81.5, 682.7)"></path><path d="M 777.2 469.2 C 777.2 471.7 775.2 473.7 772.7 473.7 C 770.2 473.7 768.2 471.7 768.2 469.2 C 768.2 466.7 770.2 464.7 772.7 464.7 C 775.2 464.7 777.2 466.7 777.2 469.2 Z M 777.2 469.2 " fill="none" stroke="#BE500E" stroke-width="6.00" transform="matrix(1.00, 0.00, 0.00, -1.00, -81.5, 682.7)"></path><path d="M 874.2 448.4 C 874.2 450.9 872.2 452.9 869.7 452.9 C 867.2 452.9 865.2 450.9 865.2 448.4 C 865.2 446.0 867.2 443.9 869.7 443.9 C 872.2 443.9 874.2 446.0 874.2 448.4 Z M 874.2 448.4 " fill="none" stroke="#BE500E" stroke-width="6.00" transform="matrix(1.00, 0.00, 0.00, -1.00, -81.5, 682.7)"></path><path d="M 971.2 279.9 C 971.2 282.4 969.2 284.4 966.7 284.4 C 964.3 284.4 962.2 282.4 962.2 279.9 C 962.2 277.4 964.3 275.4 966.7 275.4 C 969.2 275.4 971.2 277.4 971.2 279.9 Z M 971.2 279.9 " fill="none" stroke="#BE500E" stroke-width="6.00" transform="matrix(1.00, 0.00, 0.00, -1.00, -81.5, 682.7)"></path></g></g></g></g></svg>