<?xml version="1.0" encoding="UTF-8" standalone="no"?><svg xmlns="http://www.w3.org/2000/svg" xmlns:xlink="http://www.w3.org/1999/xlink" clip-rule="evenodd" stroke-miterlimit="4.00" viewBox="0 0 897 622"><desc>SVG generated by Keynote</desc><defs></defs><g transform="matrix(1.00, 0.00, -0.00, -1.00, 0.0, 622.0)"><g><g><clipPath id="clip-366"><path d="M 8.5 1.2 L 888.9 1.2 L 888.9 620.8 L 8.5 620.8 Z M 8.5 1.2 "></path></clipPath><g clip-path="url(#clip-366)"><path d="M 0.0 254.4 L 97.0 231.6 L 194.0 177.6 L 291.1 200.1 L 388.1 229.0 L 485.1 222.1 L 582.1 210.1 L 679.2 189.3 L 776.2 168.6 L 873.2 0.0 " fill="none" stroke="#BE500E" stroke-width="6.00" transform="matrix(1.00, 0.00, 0.00, -1.00, 12.1, 402.9)"></path></g></g><g><clipPath id="clip-367"><path d="M 0.0 0.0 L 897.0 0.0 L 897.0 622.0 L 0.0 622.0 Z M 0.0 0.0 "></path></clipPath><g clip-path="url(#clip-367)"><path d="M 98.0 534.3 C 98.0 536.8 96.0 538.8 93.5 538.8 C 91.1 538.8 89.0 536.8 89.0 534.3 C 89.0 531.8 91.1 529.8 93.5 529.8 C 96.0 529.8 98.0 531.8 98.0 534.3 Z M 98.0 534.3 " fill="none" stroke="#BE500E" stroke-width="6.00" transform="matrix(1.00, 0.00, 0.00, -1.00, -81.5, 682.7)"></path><path d="M 195.1 511.5 C 195.1 514.0 193.1 516.0 190.6 516.0 C 188.1 516.0 186.1 514.0 186.1 511.5 C 186.1 509.0 188.1 507.0 190.6 507.0 C 193.1 507.0 195.1 509.0 195.1 511.5 Z M 195.1 511.5 " fill="none" stroke="#BE500E" stroke-width="6.00" transform="matrix(1.00, 0.00, 0.00, -1.00, -81.5, 682.7)"></path><path d="M 292.1 457.5 C 292.1 460.0 290.1 462.0 287.6 462.0 C 285.1 462.0 283.1 460.0 283.1 457.5 C 283.1 455.0 285.1 453.0 287.6 453.0 C 290.1 453.0 292.1 455.0 292.1 457.5 Z M 292.1 457.5 " fill="none" stroke="#BE500E" stroke-width="6.00" transform="matrix(1.00, 0.00, 0.00, -1.00, -81.5, 682.7)"></path><path d="M 389.1 480.0 C 389.1 482.5 387.1 484.5 384.6 484.5 C 382.1 484.5 380.1 482.5 380.1 480.0 C 380.1 477.5 382.1 475.5 384.6 475.5 C 387.1 475.5 389.1 477.5 389.1 480.0 Z M 389.1 480.0 " fill="none" stroke="#BE500E" stroke-width="6.00" transform="matrix(1.00, 0.00, 0.00, -1.00, -81.5, 682.7)"></path><path d="M 486.1 508.9 C 486.1 511.4 484.1 513.4 481.6 513.4 C 479.1 513.4 477.1 511.4 477.1 508.9 C 477.1 506.4 479.1 504.4 481.6 504.4 C 484.1 504.4 486.1 506.4 486.1 508.9 Z M 486.1 508.9 " fill="none" stroke="#BE500E" stroke-width="6.00" transform="matrix(1.00, 0.00, 0.00, -1.00, -81.5, 682.7)"></path><path d="M 583.2 501.9 C 583.2 504.4 581.1 506.4 578.7 506.4 C 576.2 506.4 574.2 504.4 574.2 501.9 C 574.2 499.5 576.2 497.4 578.7 497.4 C 581.1 497.4 583.2 499.5 583.2 501.9 Z M 583.2 501.9 " fill="none" stroke="#BE500E" stroke-width="6.00" transform="matrix(1.00, 0.00, 0.00, -1.00, -81.5, 682.7)"></path><path d="M 680.2 490.0 C 680.2 492.5 678.2 494.5 675.7 494.5 C 673.2 494.5 671.2 492.5 671.2 490.0 C 671.2 487.5 673.2 485.5 675.7 485.5 C 678.2 485.5 680.2 487.5 680.2 490.0 Z M 680.2 490.0 " fill="none" stroke="#BE500E" stroke-width="6.00" transform="matrix(1.00, 0.00, 0.00, -1.00, -81.5, 682.7)"></path><path d="M 777.2 469.2 C 777.2 471.7 775.2 473.7 772.7 473.7 C 770.2 473.7 768.2 471.7 768.2 469.2 C 768.2 466.7 770.2 464.7 772.7 464.7 C 775.2 464.7 777.2 466.7 777.2 469.2 Z M 777.2 469.2 " fill="none" stroke="#BE500E" stroke-width="6.00" transform="matrix(1.00, 0.00, 0.00, -1.00, -81.5, 682.7)"></path><path d="M 874.2 448.4 C 874.2 450.9 872.2 452.9 869.7 452.9 C 867.2 452.9 865.2 450.9 865.2 448.4 C 865.2 446.0 867.2 443.9 869.7 443.9 C 872.2 443.9 874.2 446.0 874.2 448.4 Z M 874.2 448.4 " fill="none" stroke="#BE500E" stroke-width="6.00" transform="matrix(1.00, 0.00, 0.00, -1.00, -81.5, 682.7)"></path><path d="M 971.2 279.9 C 971.2 282.4 969.2 284.4 966.7 284.4 C 964.3 284.4 962.2 282.4 962.2 279.9 C 962.2 277.4 964.3 275.4 966.7 275.4 C 969.2 275.4 971.2 277.4 971.2 279.9 Z M 971.2 279.9 " fill="none" stroke="#BE500E" stroke-width="6.00" transform="matrix(1.00, 0.00, 0.00, -1.00, -81.5, 682.7)"></path></g></g></g><g><g><clipPath id="clip-368"><path d="M 8.5 1.2 L 888.9 1.2 L 888.9 620.8 L 8.5 620.8 Z M 8.5 1.2 "></path></clipPath><g clip-path="url(#clip-368)"><path d="M 0.0 122.5 L 97.0 101.0 L 194.0 65.8 L 291.1 0.0 " fill="none" stroke="#DD9000" stroke-width="6.00" transform="matrix(1.00, 0.00, 0.00, -1.00, 594.2, 311.0)"></path></g></g><g><clipPath id="clip-369"><path d="M 0.0 0.0 L 897.0 0.0 L 897.0 622.0 L 0.0 622.0 Z M 0.0 0.0 "></path></clipPath><g clip-path="url(#clip-369)"><path d="M 486.1 524.8 C 486.1 527.3 484.1 529.3 481.6 529.3 C 479.1 529.3 477.1 527.3 477.1 524.8 C 477.1 522.3 479.1 520.3 481.6 520.3 C 484.1 520.3 486.1 522.3 486.1 524.8 Z M 486.1 524.8 " fill="none" stroke="#DD9000" stroke-width="6.00" transform="matrix(1.00, 0.00, 0.00, -1.00, -81.5, 682.7)"></path><path d="M 680.2 494.2 C 680.2 496.7 678.2 498.7 675.7 498.7 C 673.2 498.7 671.2 496.7 671.2 494.2 C 671.2 491.7 673.2 489.7 675.7 489.7 C 678.2 489.7 680.2 491.7 680.2 494.2 Z M 680.2 494.2 " fill="none" stroke="#DD9000" stroke-width="6.00" transform="matrix(1.00, 0.00, 0.00, -1.00, -81.5, 682.7)"></path><path d="M 777.2 472.8 C 777.2 475.3 775.2 477.3 772.7 477.3 C 770.2 477.3 768.2 475.3 768.2 472.8 C 768.2 470.3 770.2 468.3 772.7 468.3 C 775.2 468.3 777.2 470.3 777.2 472.8 Z M 777.2 472.8 " fill="none" stroke="#DD9000" stroke-width="6.00" transform="matrix(1.00, 0.00, 0.00, -1.00, -81.5, 682.7)"></path><path d="M 874.2 437.6 C 874.2 440.1 872.2 442.1 869.7 442.1 C 867.2 442.1 865.2 440.1 865.2 437.6 C 865.2 435.1 867.2 433.1 869.7 433.1 C 872.2 433.1 874.2 435.1 874.2 437.6 Z M 874.2 437.6 " fill="none" stroke="#DD9000" stroke-width="6.00" transform="matrix(1.00, 0.00, 0.00, -1.00, -81.5, 682.7)"></path><path d="M 971.2 371.7 C 971.2 374.2 969.2 376.2 966.7 376.2 C 964.3 376.2 962.2 374.2 962.2 371.7 C 962.2 369.3 964.3 367.2 966.7 367.2 C 969.2 367.2 971.2 369.3 971.2 371.7 Z M 971.2 371.7 " fill="none" stroke="#DD9000" stroke-width="6.00" transform="matrix(1.00, 0.00, 0.00, -1.00, -81.5, 682.7)"></path></g></g></g><g><g><clipPath id="clip-370"><path d="M 8.5 1.2 L 888.9 1.2 L 888.9 620.8 L 8.5 620.8 Z M 8.5 1.2 "></path></clipPath><g clip-path="url(#clip-370)"><path d="M 0.0 372.0 L 97.0 317.7 L 194.0 267.1 L 291.1 279.5 L 388.1 255.3 L 485.1 192.7 L 582.1 129.9 L 679.2 59.1 L 776.2 12.2 L 873.2 0.0 " fill="none" stroke="#44740E" stroke-width="6.00" transform="matrix(1.00, 0.00, 0.00, -1.00, 12.1, 537.6)"></path></g></g><g><clipPath id="clip-371"><path d="M 0.0 0.0 L 897.0 0.0 L 897.0 622.0 L 0.0 622.0 Z M 0.0 0.0 "></path></clipPath><g clip-path="url(#clip-371)"><path d="M 98.0 517.2 C 98.0 519.7 96.0 521.7 93.5 521.7 C 91.1 521.7 89.0 519.7 89.0 517.2 C 89.0 514.7 91.1 512.7 93.5 512.7 C 96.0 512.7 98.0 514.7 98.0 517.2 Z M 98.0 517.2 " fill="none" stroke="#44740E" stroke-width="6.00" transform="matrix(1.00, 0.00, 0.00, -1.00, -81.5, 682.7)"></path><path d="M 195.1 462.8 C 195.1 465.3 193.1 467.3 190.6 467.3 C 188.1 467.3 186.1 465.3 186.1 462.8 C 186.1 460.3 188.1 458.3 190.6 458.3 C 193.1 458.3 195.1 460.3 195.1 462.8 Z M 195.1 462.8 " fill="none" stroke="#44740E" stroke-width="6.00" transform="matrix(1.00, 0.00, 0.00, -1.00, -81.5, 682.7)"></path><path d="M 292.1 412.3 C 292.1 414.8 290.1 416.8 287.6 416.8 C 285.1 416.8 283.1 414.8 283.1 412.3 C 283.1 409.8 285.1 407.8 287.6 407.8 C 290.1 407.8 292.1 409.8 292.1 412.3 Z M 292.1 412.3 " fill="none" stroke="#44740E" stroke-width="6.00" transform="matrix(1.00, 0.00, 0.00, -1.00, -81.5, 682.7)"></path><path d="M 389.1 424.7 C 389.1 427.2 387.1 429.2 384.6 429.2 C 382.1 429.2 380.1 427.2 380.1 424.7 C 380.1 422.2 382.1 420.2 384.6 420.2 C 387.1 420.2 389.1 422.2 389.1 424.7 Z M 389.1 424.7 " fill="none" stroke="#44740E" stroke-width="6.00" transform="matrix(1.00, 0.00, 0.00, -1.00, -81.5, 682.7)"></path><path d="M 486.1 400.5 C 486.1 403.0 484.1 405.0 481.6 405.0 C 479.1 405.0 477.1 403.0 477.1 400.5 C 477.1 398.0 479.1 396.0 481.6 396.0 C 484.1 396.0 486.1 398.0 486.1 400.5 Z M 486.1 400.5 " fill="none" stroke="#44740E" stroke-width="6.00" transform="matrix(1.00, 0.00, 0.00, -1.00, -81.5, 682.7)"></path><path d="M 583.2 337.9 C 583.2 340.3 581.1 342.4 578.7 342.4 C 576.2 342.4 574.2 340.3 574.2 337.9 C 574.2 335.4 576.2 333.4 578.7 333.4 C 581.1 333.4 583.2 335.4 583.2 337.9 Z M 583.2 337.9 " fill="none" stroke="#44740E" stroke-width="6.00" transform="matrix(1.00, 0.00, 0.00, -1.00, -81.5, 682.7)"></path><path d="M 680.2 275.0 C 680.2 277.5 678.2 279.5 675.7 279.5 C 673.2 279.5 671.2 277.5 671.2 275.0 C 671.2 272.5 673.2 270.5 675.7 270.5 C 678.2 270.5 680.2 272.5 680.2 275.0 Z M 680.2 275.0 " fill="none" stroke="#44740E" stroke-width="6.00" transform="matrix(1.00, 0.00, 0.00, -1.00, -81.5, 682.7)"></path><path d="M 777.2 204.2 C 777.2 206.7 775.2 208.7 772.7 208.7 C 770.2 208.7 768.2 206.7 768.2 204.2 C 768.2 201.7 770.2 199.7 772.7 199.7 C 775.2 199.7 777.2 201.7 777.2 204.2 Z M 777.2 204.2 " fill="none" stroke="#44740E" stroke-width="6.00" transform="matrix(1.00, 0.00, 0.00, -1.00, -81.5, 682.7)"></path><path d="M 874.2 157.4 C 874.2 159.9 872.2 161.9 869.7 161.9 C 867.2 161.9 865.2 159.9 865.2 157.4 C 865.2 154.9 867.2 152.9 869.7 152.9 C 872.2 152.9 874.2 154.9 874.2 157.4 Z M 874.2 157.4 " fill="none" stroke="#44740E" stroke-width="6.00" transform="matrix(1.00, 0.00, 0.00, -1.00, -81.5, 682.7)"></path><path d="M 971.2 145.2 C 971.2 147.7 969.2 149.7 966.7 149.7 C 964.3 149.7 962.2 147.7 962.2 145.2 C 962.2 142.7 964.3 140.7 966.7 140.7 C 969.2 140.7 971.2 142.7 971.2 145.2 Z M 971.2 145.2 " fill="none" stroke="#44740E" stroke-width="6.00" transform="matrix(1.00, 0.00, 0.00, -1.00, -81.5, 682.7)"></path></g></g></g><g><g><clipPath id="clip-372"><path d="M 8.5 1.2 L 888.9 1.2 L 888.9 620.8 L 8.5 620.8 Z M 8.5 1.2 "></path></clipPath><g clip-path="url(#clip-372)"><path d="M 0.0 454.7 L 97.0 430.0 L 194.0 391.0 L 291.1 352.3 L 388.1 309.5 L 485.1 289.3 L 582.1 257.2 L 679.2 266.4 L 776.2 216.5 L 873.2 0.0 " fill="none" stroke="#3FA3C1" stroke-width="6.00" transform="matrix(1.00, 0.00, 0.00, -1.00, 12.1, 592.7)"></path></g></g><g><clipPath id="clip-373"><path d="M 0.0 0.0 L 897.0 0.0 L 897.0 622.0 L 0.0 622.0 Z M 0.0 0.0 "></path></clipPath><g clip-path="url(#clip-373)"><path d="M 98.0 544.7 C 98.0 547.2 96.0 549.2 93.5 549.2 C 91.1 549.2 89.0 547.2 89.0 544.7 C 89.0 542.2 91.1 540.2 93.5 540.2 C 96.0 540.2 98.0 542.2 98.0 544.7 Z M 98.0 544.7 " fill="none" stroke="#3FA3C1" stroke-width="6.00" transform="matrix(1.00, 0.00, 0.00, -1.00, -81.5, 682.7)"></path><path d="M 195.1 520.1 C 195.1 522.6 193.1 524.6 190.6 524.6 C 188.1 524.6 186.1 522.6 186.1 520.1 C 186.1 517.6 188.1 515.6 190.6 515.6 C 193.1 515.6 195.1 517.6 195.1 520.1 Z M 195.1 520.1 " fill="none" stroke="#3FA3C1" stroke-width="6.00" transform="matrix(1.00, 0.00, 0.00, -1.00, -81.5, 682.7)"></path><path d="M 292.1 481.0 C 292.1 483.5 290.1 485.5 287.6 485.5 C 285.1 485.5 283.1 483.5 283.1 481.0 C 283.1 478.6 285.1 476.5 287.6 476.5 C 290.1 476.5 292.1 478.6 292.1 481.0 Z M 292.1 481.0 " fill="none" stroke="#3FA3C1" stroke-width="6.00" transform="matrix(1.00, 0.00, 0.00, -1.00, -81.5, 682.7)"></path><path d="M 389.1 442.3 C 389.1 444.8 387.1 446.8 384.6 446.8 C 382.1 446.8 380.1 444.8 380.1 442.3 C 380.1 439.8 382.1 437.8 384.6 437.8 C 387.1 437.8 389.1 439.8 389.1 442.3 Z M 389.1 442.3 " fill="none" stroke="#3FA3C1" stroke-width="6.00" transform="matrix(1.00, 0.00, 0.00, -1.00, -81.5, 682.7)"></path><path d="M 486.1 399.6 C 486.1 402.1 484.1 404.1 481.6 404.1 C 479.1 404.1 477.1 402.1 477.1 399.6 C 477.1 397.1 479.1 395.1 481.6 395.1 C 484.1 395.1 486.1 397.1 486.1 399.6 Z M 486.1 399.6 " fill="none" stroke="#3FA3C1" stroke-width="6.00" transform="matrix(1.00, 0.00, 0.00, -1.00, -81.5, 682.7)"></path><path d="M 583.2 379.4 C 583.2 381.9 581.1 383.9 578.7 383.9 C 576.2 383.9 574.2 381.9 574.2 379.4 C 574.2 376.9 576.2 374.9 578.7 374.9 C 581.1 374.9 583.2 376.9 583.2 379.4 Z M 583.2 379.4 " fill="none" stroke="#3FA3C1" stroke-width="6.00" transform="matrix(1.00, 0.00, 0.00, -1.00, -81.5, 682.7)"></path><path d="M 680.2 347.2 C 680.2 349.7 678.2 351.7 675.7 351.7 C 673.2 351.7 671.2 349.7 671.2 347.2 C 671.2 344.8 673.2 342.7 675.7 342.7 C 678.2 342.7 680.2 344.8 680.2 347.2 Z M 680.2 347.2 " fill="none" stroke="#3FA3C1" stroke-width="6.00" transform="matrix(1.00, 0.00, 0.00, -1.00, -81.5, 682.7)"></path><path d="M 777.2 356.4 C 777.2 358.9 775.2 360.9 772.7 360.9 C 770.2 360.9 768.2 358.9 768.2 356.4 C 768.2 353.9 770.2 351.9 772.7 351.9 C 775.2 351.9 777.2 353.9 777.2 356.4 Z M 777.2 356.4 " fill="none" stroke="#3FA3C1" stroke-width="6.00" transform="matrix(1.00, 0.00, 0.00, -1.00, -81.5, 682.7)"></path><path d="M 874.2 306.5 C 874.2 309.0 872.2 311.0 869.7 311.0 C 867.2 311.0 865.2 309.0 865.2 306.5 C 865.2 304.0 867.2 302.0 869.7 302.0 C 872.2 302.0 874.2 304.0 874.2 306.5 Z M 874.2 306.5 " fill="none" stroke="#3FA3C1" stroke-width="6.00" transform="matrix(1.00, 0.00, 0.00, -1.00, -81.5, 682.7)"></path><path d="M 971.2 90.1 C 971.2 92.5 969.2 94.6 966.7 94.6 C 964.3 94.6 962.2 92.5 962.2 90.1 C 962.2 87.6 964.3 85.6 966.7 85.6 C 969.2 85.6 971.2 87.6 971.2 90.1 Z M 971.2 90.1 " fill="none" stroke="#3FA3C1" stroke-width="6.00" transform="matrix(1.00, 0.00, 0.00, -1.00, -81.5, 682.7)"></path></g></g></g></g></svg>