<?xml version="1.0" encoding="UTF-8" standalone="no"?><svg xmlns="http://www.w3.org/2000/svg" xmlns:xlink="http://www.w3.org/1999/xlink" clip-rule="evenodd" stroke-miterlimit="4.00" viewBox="0 0 1024 768"><desc>SVG generated by Keynote</desc><defs></defs><g transform="matrix(1.00, 0.00, -0.00, -1.00, 0.0, 768.0)"><path d="M 0.0 768.0 L 1024.0 768.0 L 1024.0 0.0 L 0.0 0.0 Z M 0.0 768.0 " fill="#000000"></path><text xml:space="preserve" font-family="Avenir-Light" font-size="36.0" fill="#FEFFFE" transform="matrix(1.00, 0.00, -0.00, -1.00, 275.0, 394.0)">h</text><text xml:space="preserve" font-family="Avenir-Light" font-size="36.0" fill="#FEFFFE" transform="matrix(1.00, 0.00, -0.00, -1.00, 295.0, 394.0)">t</text><text xml:space="preserve" font-family="Avenir-Light" font-size="36.0" fill="#FEFFFE" transform="matrix(1.00, 0.00, -0.00, -1.00, 307.0, 394.0)">t</text><text xml:space="preserve" font-family="Avenir-Light" font-size="36.0" fill="#FEFFFE" transform="matrix(1.00, 0.00, -0.00, -1.00, 319.0, 394.0)">p</text><text xml:space="preserve" font-family="Avenir-Light" font-size="36.0" fill="#FEFFFE" transform="matrix(1.00, 0.00, -0.00, -1.00, 341.0, 394.0)">:</text><text xml:space="preserve" font-family="Avenir-Light" font-size="36.0" fill="#FEFFFE" transform="matrix(1.00, 0.00, -0.00, -1.00, 350.4, 394.0)">/</text><text xml:space="preserve" font-family="Avenir-Light" font-size="36.0" fill="#FEFFFE" transform="matrix(1.00, 0.00, -0.00, -1.00, 363.7, 394.0)">/</text><text xml:space="preserve" font-family="Avenir-Light" font-size="36.0" fill="#FEFFFE" transform="matrix(1.00, 0.00, -0.00, -1.00, 377.0, 394.0)">d</text><text xml:space="preserve" font-family="Avenir-Light" font-size="36.0" fill="#FEFFFE" transform="matrix(1.00, 0.00, -0.00, -1.00, 399.0, 394.0)">e</text><text xml:space="preserve" font-family="Avenir-Light" font-size="36.0" fill="#FEFFFE" transform="matrix(1.00, 0.00, -0.00, -1.00, 419.0, 394.0)">m</text><text xml:space="preserve" font-family="Avenir-Light" font-size="36.0" fill="#FEFFFE" transform="matrix(1.00, 0.00, -0.00, -1.00, 449.7, 394.0)">o</text><text xml:space="preserve" font-family="Avenir-Light" font-size="36.0" fill="#FEFFFE" transform="matrix(1.00, 0.00, -0.00, -1.00, 471.1, 394.0)">1</text><text xml:space="preserve" font-family="Avenir-Light" font-size="36.0" fill="#FEFFFE" transform="matrix(1.00, 0.00, -0.00, -1.00, 489.8, 394.0)">6</text><text xml:space="preserve" font-family="Avenir-Light" font-size="36.0" fill="#FEFFFE" transform="matrix(1.00, 0.00, -0.00, -1.00, 508.5, 394.0)">.</text><text xml:space="preserve" font-family="Avenir-Light" font-size="36.0" fill="#FEFFFE" transform="matrix(1.00, 0.00, -0.00, -1.00, 517.9, 394.0)">z</text><text xml:space="preserve" font-family="Avenir-Light" font-size="36.0" fill="#FEFFFE" transform="matrix(1.00, 0.00, -0.00, -1.00, 533.2, 394.0)">e</text><text xml:space="preserve" font-family="Avenir-Light" font-size="36.0" fill="#FEFFFE" transform="matrix(1.00, 0.00, -0.00, -1.00, 553.2, 394.0)">n</text><text xml:space="preserve" font-family="Avenir-Light" font-size="36.0" fill="#FEFFFE" transform="matrix(1.00, 0.00, -0.00, -1.00, 573.3, 394.0)">i</text><text xml:space="preserve" font-family="Avenir-Light" font-size="36.0" fill="#FEFFFE" transform="matrix(1.00, 0.00, -0.00, -1.00, 581.9, 394.0)">k</text><text xml:space="preserve" font-family="Avenir-Light" font-size="36.0" fill="#FEFFFE" transform="matrix(1.00, 0.00, -0.00, -1.00, 599.2, 394.0)">a</text><text xml:space="preserve" font-family="Avenir-Light" font-size="36.0" fill="#FEFFFE" transform="matrix(1.00, 0.00, -0.00, -1.00, 617.9, 394.0)">.</text><text xml:space="preserve" font-family="Avenir-Light" font-size="36.0" fill="#FEFFFE" transform="matrix(1.00, 0.00, -0.00, -1.00, 627.3, 394.0)">t</text><text xml:space="preserve" font-family="Avenir-Light" font-size="36.0" fill="#FEFFFE" transform="matrix(1.00, 0.00, -0.00, -1.00, 639.2, 394.0)">r</text><text xml:space="preserve" font-family="Avenir-Light" font-size="36.0" fill="#FEFFFE" transform="matrix(1.00, 0.00, -0.00, -1.00, 651.2, 394.0)">a</text><text xml:space="preserve" font-family="Avenir-Light" font-size="36.0" fill="#FEFFFE" transform="matrix(1.00, 0.00, -0.00, -1.00, 669.9, 394.0)">i</text><text xml:space="preserve" font-family="Avenir-Light" font-size="36.0" fill="#FEFFFE" transform="matrix(1.00, 0.00, -0.00, -1.00, 678.6, 394.0)">n</text><text xml:space="preserve" font-family="Avenir-Light" font-size="36.0" fill="#FEFFFE" transform="matrix(1.00, 0.00, -0.00, -1.00, 698.6, 394.0)">i</text><text xml:space="preserve" font-family="Avenir-Light" font-size="36.0" fill="#FEFFFE" transform="matrix(1.00, 0.00, -0.00, -1.00, 707.2, 394.0)">n</text><text xml:space="preserve" font-family="Avenir-Light" font-size="36.0" fill="#FEFFFE" transform="matrix(1.00, 0.00, -0.00, -1.00, 727.2, 394.0)">g</text></g></svg>