<?xml version="1.0" encoding="UTF-8" standalone="no"?><svg xmlns="http://www.w3.org/2000/svg" xmlns:xlink="http://www.w3.org/1999/xlink" clip-rule="evenodd" stroke-miterlimit="4.00" viewBox="0 0 1024 768"><desc>SVG generated by Keynote</desc><defs></defs><g transform="matrix(1.00, 0.00, -0.00, -1.00, 0.0, 768.0)"><path d="M 0.0 768.0 L 1024.0 768.0 L 1024.0 0.0 L 0.0 0.0 Z M 0.0 768.0 " fill="#000000"></path><g><clipPath id="clip-547"><path d="M 512.0 768.0 L 1024.0 768.0 L 1024.0 0.0 L 512.0 0.0 Z M 512.0 768.0 "></path></clipPath><g clip-path="url(#clip-547)"><image xlink:href="447BD57C685DAAF71EA7A4072A68B1F7.png" width="593.00" height="768.00" transform="matrix(1.00, 0.00, -0.00, -1.00, 472.0, 768.0)"></image></g></g><text xml:space="preserve" font-family="Avenir-Light" font-size="45.0" fill="#FEFFFF" transform="matrix(1.00, 0.00, -0.00, -1.00, 56.0, 671.0)">F</text><text xml:space="preserve" font-family="Avenir-Light" font-size="45.0" fill="#FEFFFF" transform="matrix(1.00, 0.00, -0.00, -1.00, 88.2, 671.0)">I</text><text xml:space="preserve" font-family="Avenir-Light" font-size="45.0" fill="#FEFFFF" transform="matrix(1.00, 0.00, -0.00, -1.00, 107.1, 671.0)">N</text><text xml:space="preserve" font-family="Avenir-Light" font-size="45.0" fill="#FEFFFF" transform="matrix(1.00, 0.00, -0.00, -1.00, 149.3, 671.0)">A</text><text xml:space="preserve" font-family="Avenir-Light" font-size="45.0" fill="#FEFFFF" transform="matrix(1.00, 0.00, -0.00, -1.00, 187.4, 671.0)">N</text><text xml:space="preserve" font-family="Avenir-Light" font-size="45.0" fill="#FEFFFF" transform="matrix(1.00, 0.00, -0.00, -1.00, 229.6, 671.0)">C</text><text xml:space="preserve" font-family="Avenir-Light" font-size="45.0" fill="#FEFFFF" transform="matrix(1.00, 0.00, -0.00, -1.00, 268.4, 671.0)">E</text><text xml:space="preserve" font-family="Avenir-Light" font-size="45.0" fill="#FEFFFF" transform="matrix(1.00, 0.00, -0.00, -1.00, 302.3, 671.0)">M</text><text xml:space="preserve" font-family="Avenir-Light" font-size="45.0" fill="#FEFFFF" transform="matrix(1.00, 0.00, -0.00, -1.00, 349.5, 671.0)">E</text><text xml:space="preserve" font-family="Avenir-Light" font-size="45.0" fill="#FEFFFF" transform="matrix(1.00, 0.00, -0.00, -1.00, 383.4, 671.0)">N</text><text xml:space="preserve" font-family="Avenir-Light" font-size="45.0" fill="#FEFFFF" transform="matrix(1.00, 0.00, -0.00, -1.00, 425.6, 671.0)">T</text></g></svg>