<?xml version="1.0" encoding="UTF-8" standalone="no"?><svg xmlns="http://www.w3.org/2000/svg" xmlns:xlink="http://www.w3.org/1999/xlink" clip-rule="evenodd" stroke-miterlimit="4.00" viewBox="0 0 1024 768"><desc>SVG generated by Keynote</desc><defs></defs><g transform="matrix(1.00, 0.00, -0.00, -1.00, 0.0, 768.0)"><path d="M 0.0 768.0 L 1024.0 768.0 L 1024.0 0.0 L 0.0 0.0 Z M 0.0 768.0 " fill="#000000"></path><path d="M 82.0 554.0 L 423.0 554.0 L 423.0 214.0 L 82.0 214.0 Z M 82.0 554.0 " fill="#000000" fill-opacity="0.00"></path><g><g><clipPath id="clip-517"><path d="M 0.0 0.0 L 1024.0 0.0 L 1024.0 768.0 L 0.0 768.0 Z M 0.0 0.0 "></path></clipPath><g clip-path="url(#clip-517)"><g><g><clipPath id="clip-518"><path d="M 0.0 0.0 L 1024.0 0.0 L 1024.0 768.0 L 0.0 768.0 Z M 0.0 0.0 "></path></clipPath><g clip-path="url(#clip-518)"><path d="M 253.0 384.0 L 253.0 554.0 C 179.4 554.0 114.1 506.6 91.3 436.5 Z M 253.0 384.0 " fill="#44740E"></path></g></g><g><clipPath id="clip-519"><path d="M 253.0 384.0 L 253.0 554.0 C 179.4 554.0 114.1 506.6 91.3 436.5 Z M 253.0 384.0 "></path></clipPath><g clip-path="url(#clip-519)"><g><clipPath id="clip-520"><path d="M 0.0 0.0 L 1024.0 0.0 L 1024.0 768.0 L 0.0 768.0 Z M 0.0 0.0 "></path></clipPath><g clip-path="url(#clip-520)"><path d="M 171.0 170.5 L 171.0 0.5 C 97.3 0.5 32.0 47.9 9.3 118.0 Z M 171.0 170.5 " fill="none" stroke="#000000" stroke-width="2.00" transform="matrix(1.00, 0.00, 0.00, -1.00, 82.0, 554.5)"></path></g></g></g></g></g></g></g><g><clipPath id="clip-521"><path d="M 0.0 0.0 L 1024.0 0.0 L 1024.0 768.0 L 0.0 768.0 Z M 0.0 0.0 "></path></clipPath><g clip-path="url(#clip-521)"><g><g><clipPath id="clip-522"><path d="M 0.0 0.0 L 1024.0 0.0 L 1024.0 768.0 L 0.0 768.0 Z M 0.0 0.0 "></path></clipPath><g clip-path="url(#clip-522)"><path d="M 253.0 384.0 L 91.3 436.5 C 62.3 347.2 111.2 251.3 200.5 222.3 C 289.8 193.3 385.7 242.2 414.7 331.5 C 443.7 420.8 394.8 516.7 305.5 545.7 C 288.6 551.2 270.8 554.0 253.0 554.0 Z M 253.0 384.0 " fill="#3FA3C1"></path></g></g><g><clipPath id="clip-523"><path d="M 253.0 384.0 L 91.3 436.5 C 62.3 347.2 111.2 251.3 200.5 222.3 C 289.8 193.3 385.7 242.2 414.7 331.5 C 443.7 420.8 394.8 516.7 305.5 545.7 C 288.6 551.2 270.8 554.0 253.0 554.0 Z M 253.0 384.0 "></path></clipPath><g clip-path="url(#clip-523)"><g><clipPath id="clip-524"><path d="M 0.0 0.0 L 1024.0 0.0 L 1024.0 768.0 L 0.0 768.0 Z M 0.0 0.0 "></path></clipPath><g clip-path="url(#clip-524)"><path d="M 171.0 170.5 L 9.3 118.0 C -19.7 207.2 29.1 303.2 118.4 332.2 C 207.7 361.2 303.6 312.3 332.6 223.0 C 361.7 133.7 312.8 37.8 223.5 8.8 C 206.5 3.3 188.8 0.5 171.0 0.5 Z M 171.0 170.5 " fill="none" stroke="#000000" stroke-width="2.00" transform="matrix(1.00, 0.00, 0.00, -1.00, 82.0, 554.5)"></path></g></g></g></g></g></g></g></g><g><image xlink:href="../../41AE67BA-D081-444E-8E4C-4A2270FF0F40/assets/8712ABF69B80C06A2A7165EBDB3A7E03.png" width="139.00" height="29.00" transform="matrix(1.00, 0.00, -0.00, -1.00, 116.0, 510.0)"></image><g><clipPath id="clip-525"><path d="M 109.0 430.0 L 262.0 430.0 L 262.0 519.0 L 109.0 519.0 Z M 109.0 430.0 "></path></clipPath><g clip-path="url(#clip-525)"><text xml:space="preserve" font-family="Avenir-Light" font-size="30.0" fill="#FFFFFF" transform="matrix(1.00, 0.00, -0.00, -1.00, 117.0, 487.0)">F</text><text xml:space="preserve" font-family="Avenir-Light" font-size="30.0" fill="#FFFFFF" transform="matrix(1.00, 0.00, -0.00, -1.00, 133.7, 487.0)">o</text><text xml:space="preserve" font-family="Avenir-Light" font-size="30.0" fill="#FFFFFF" transform="matrix(1.00, 0.00, -0.00, -1.00, 151.5, 487.0)">r</text><text xml:space="preserve" font-family="Avenir-Light" font-size="30.0" fill="#FFFFFF" transform="matrix(1.00, 0.00, -0.00, -1.00, 161.5, 487.0)">m</text><text xml:space="preserve" font-family="Avenir-Light" font-size="30.0" fill="#FFFFFF" transform="matrix(1.00, 0.00, -0.00, -1.00, 187.1, 487.0)">a</text><text xml:space="preserve" font-family="Avenir-Light" font-size="30.0" fill="#FFFFFF" transform="matrix(1.00, 0.00, -0.00, -1.00, 202.6, 487.0)">t</text><text xml:space="preserve" font-family="Avenir-Light" font-size="30.0" fill="#FFFFFF" transform="matrix(1.00, 0.00, -0.00, -1.00, 212.6, 487.0)">i</text><text xml:space="preserve" font-family="Avenir-Light" font-size="30.0" fill="#FFFFFF" transform="matrix(1.00, 0.00, -0.00, -1.00, 219.8, 487.0)">o</text><text xml:space="preserve" font-family="Avenir-Light" font-size="30.0" fill="#FFFFFF" transform="matrix(1.00, 0.00, -0.00, -1.00, 237.7, 487.0)">n</text><text xml:space="preserve" font-family="Avenir-Light" font-size="30.0" fill="#FFFFFF" transform="matrix(1.00, 0.00, -0.00, -1.00, 254.3, 487.0)"> </text></g></g><image xlink:href="../../41AE67BA-D081-444E-8E4C-4A2270FF0F40/assets/926D54F52512897974115E19E364B8B6.png" width="68.00" height="31.00" transform="matrix(1.00, 0.00, -0.00, -1.00, 152.0, 470.0)"></image><g><clipPath id="clip-526"><path d="M 109.0 430.0 L 262.0 430.0 L 262.0 519.0 L 109.0 519.0 Z M 109.0 430.0 "></path></clipPath><g clip-path="url(#clip-526)"><text xml:space="preserve" font-family="Avenir-Light" font-size="30.0" fill="#FFFFFF" transform="matrix(1.00, 0.00, -0.00, -1.00, 154.0, 446.0)">2</text><text xml:space="preserve" font-family="Avenir-Light" font-size="30.0" fill="#FFFFFF" transform="matrix(1.00, 0.00, -0.00, -1.00, 169.6, 446.0)">0</text><text xml:space="preserve" font-family="Avenir-Light" font-size="30.0" fill="#FFFFFF" transform="matrix(1.00, 0.00, -0.00, -1.00, 185.2, 446.0)"> </text><text xml:space="preserve" font-family="Avenir-Light" font-size="30.0" fill="#FFFFFF" transform="matrix(1.00, 0.00, -0.00, -1.00, 193.0, 446.0)">%</text></g></g></g><g><image xlink:href="../../41AE67BA-D081-444E-8E4C-4A2270FF0F40/assets/7FE34439C11AC780C1941E1694CFF3C2.png" width="99.00" height="29.00" transform="matrix(1.00, 0.00, -0.00, -1.00, 270.0, 326.0)"></image><g><clipPath id="clip-527"><path d="M 264.0 246.0 L 375.0 246.0 L 375.0 335.0 L 264.0 335.0 Z M 264.0 246.0 "></path></clipPath><g clip-path="url(#clip-527)"><text xml:space="preserve" font-family="Avenir-Light" font-size="30.0" fill="#FFFFFF" transform="matrix(1.00, 0.00, -0.00, -1.00, 272.0, 303.0)">S</text><text xml:space="preserve" font-family="Avenir-Light" font-size="30.0" fill="#FFFFFF" transform="matrix(1.00, 0.00, -0.00, -1.00, 288.7, 303.0)">e</text><text xml:space="preserve" font-family="Avenir-Light" font-size="30.0" fill="#FFFFFF" transform="matrix(1.00, 0.00, -0.00, -1.00, 305.4, 303.0)">r</text><text xml:space="preserve" font-family="Avenir-Light" font-size="30.0" fill="#FFFFFF" transform="matrix(1.00, 0.00, -0.00, -1.00, 315.4, 303.0)">v</text><text xml:space="preserve" font-family="Avenir-Light" font-size="30.0" fill="#FFFFFF" transform="matrix(1.00, 0.00, -0.00, -1.00, 329.2, 303.0)">i</text><text xml:space="preserve" font-family="Avenir-Light" font-size="30.0" fill="#FFFFFF" transform="matrix(1.00, 0.00, -0.00, -1.00, 336.4, 303.0)">c</text><text xml:space="preserve" font-family="Avenir-Light" font-size="30.0" fill="#FFFFFF" transform="matrix(1.00, 0.00, -0.00, -1.00, 350.9, 303.0)">e</text><text xml:space="preserve" font-family="Avenir-Light" font-size="30.0" fill="#FFFFFF" transform="matrix(1.00, 0.00, -0.00, -1.00, 367.6, 303.0)"> </text></g></g><image xlink:href="../../41AE67BA-D081-444E-8E4C-4A2270FF0F40/assets/88EDFC077E0C7A5B8500B788AE343056.png" width="68.00" height="31.00" transform="matrix(1.00, 0.00, -0.00, -1.00, 286.0, 286.0)"></image><g><clipPath id="clip-528"><path d="M 264.0 246.0 L 375.0 246.0 L 375.0 335.0 L 264.0 335.0 Z M 264.0 246.0 "></path></clipPath><g clip-path="url(#clip-528)"><text xml:space="preserve" font-family="Avenir-Light" font-size="30.0" fill="#FFFFFF" transform="matrix(1.00, 0.00, -0.00, -1.00, 288.0, 262.0)">8</text><text xml:space="preserve" font-family="Avenir-Light" font-size="30.0" fill="#FFFFFF" transform="matrix(1.00, 0.00, -0.00, -1.00, 303.6, 262.0)">0</text><text xml:space="preserve" font-family="Avenir-Light" font-size="30.0" fill="#FFFFFF" transform="matrix(1.00, 0.00, -0.00, -1.00, 319.2, 262.0)"> </text><text xml:space="preserve" font-family="Avenir-Light" font-size="30.0" fill="#FFFFFF" transform="matrix(1.00, 0.00, -0.00, -1.00, 327.0, 262.0)">%</text></g></g></g><path d="M 563.0 566.0 L 929.0 566.0 L 929.0 202.0 L 563.0 202.0 Z M 563.0 566.0 " fill="#000000" fill-opacity="0.00"></path><g><g><clipPath id="clip-529"><path d="M 0.0 0.0 L 1024.0 0.0 L 1024.0 768.0 L 0.0 768.0 Z M 0.0 0.0 "></path></clipPath><g clip-path="url(#clip-529)"><g><g><clipPath id="clip-530"><path d="M 0.0 0.0 L 1024.0 0.0 L 1024.0 768.0 L 0.0 768.0 Z M 0.0 0.0 "></path></clipPath><g clip-path="url(#clip-530)"><path d="M 747.0 384.0 L 747.0 554.0 C 673.4 554.0 608.1 506.6 585.3 436.5 Z M 747.0 384.0 " fill="#DD9000"></path></g></g><g><clipPath id="clip-531"><path d="M 747.0 384.0 L 747.0 554.0 C 673.4 554.0 608.1 506.6 585.3 436.5 Z M 747.0 384.0 "></path></clipPath><g clip-path="url(#clip-531)"><g><clipPath id="clip-532"><path d="M 0.0 0.0 L 1024.0 0.0 L 1024.0 768.0 L 0.0 768.0 Z M 0.0 0.0 "></path></clipPath><g clip-path="url(#clip-532)"><path d="M 181.6 181.7 L 181.6 11.7 C 108.0 11.7 42.7 59.1 20.0 129.2 Z M 181.6 181.7 " fill="none" stroke="#000000" stroke-width="2.00" transform="matrix(1.00, 0.00, 0.00, -1.00, 565.4, 565.7)"></path></g></g></g></g></g></g></g><g><clipPath id="clip-533"><path d="M 0.0 0.0 L 1024.0 0.0 L 1024.0 768.0 L 0.0 768.0 Z M 0.0 0.0 "></path></clipPath><g clip-path="url(#clip-533)"><g><g><clipPath id="clip-534"><path d="M 0.0 0.0 L 1024.0 0.0 L 1024.0 768.0 L 0.0 768.0 Z M 0.0 0.0 "></path></clipPath><g clip-path="url(#clip-534)"><path d="M 747.0 384.0 L 585.3 436.5 C 562.6 366.5 587.5 289.8 647.1 246.5 Z M 747.0 384.0 " fill="#44740E"></path></g></g><g><clipPath id="clip-535"><path d="M 747.0 384.0 L 585.3 436.5 C 562.6 366.5 587.5 289.8 647.1 246.5 Z M 747.0 384.0 "></path></clipPath><g clip-path="url(#clip-535)"><g><clipPath id="clip-536"><path d="M 0.0 0.0 L 1024.0 0.0 L 1024.0 768.0 L 0.0 768.0 Z M 0.0 0.0 "></path></clipPath><g clip-path="url(#clip-536)"><path d="M 181.6 181.7 L 20.0 129.2 C -2.8 199.2 22.1 275.9 81.7 319.2 Z M 181.6 181.7 " fill="none" stroke="#000000" stroke-width="2.00" transform="matrix(1.00, 0.00, 0.00, -1.00, 565.4, 565.7)"></path></g></g></g></g></g></g></g><g><clipPath id="clip-537"><path d="M 0.0 0.0 L 1024.0 0.0 L 1024.0 768.0 L 0.0 768.0 Z M 0.0 0.0 "></path></clipPath><g clip-path="url(#clip-537)"><g><g><clipPath id="clip-538"><path d="M 0.0 0.0 L 1024.0 0.0 L 1024.0 768.0 L 0.0 768.0 Z M 0.0 0.0 "></path></clipPath><g clip-path="url(#clip-538)"><path d="M 747.0 384.0 L 647.1 246.5 C 723.0 191.3 829.3 208.1 884.5 284.1 C 939.7 360.0 922.9 466.3 846.9 521.5 C 817.9 542.6 782.9 554.0 747.0 554.0 Z M 747.0 384.0 " fill="#3FA3C1"></path></g></g><g><clipPath id="clip-539"><path d="M 747.0 384.0 L 647.1 246.5 C 723.0 191.3 829.3 208.1 884.5 284.1 C 939.7 360.0 922.9 466.3 846.9 521.5 C 817.9 542.6 782.9 554.0 747.0 554.0 Z M 747.0 384.0 "></path></clipPath><g clip-path="url(#clip-539)"><g><clipPath id="clip-540"><path d="M 0.0 0.0 L 1024.0 0.0 L 1024.0 768.0 L 0.0 768.0 Z M 0.0 0.0 "></path></clipPath><g clip-path="url(#clip-540)"><path d="M 181.6 181.7 L 81.7 319.2 C 157.7 374.4 264.0 357.6 319.2 281.6 C 374.4 205.7 357.5 99.4 281.6 44.2 C 252.5 23.1 217.5 11.7 181.6 11.7 Z M 181.6 181.7 " fill="none" stroke="#000000" stroke-width="2.00" transform="matrix(1.00, 0.00, 0.00, -1.00, 565.4, 565.7)"></path></g></g></g></g></g></g></g></g><g><image xlink:href="../../22BC393C-B913-462A-9C79-1A0EA83E9FD3/assets/A98BEB974F363F2524AB258126275CF1.png" width="78.00" height="29.00" transform="matrix(1.00, 0.00, -0.00, -1.00, 640.0, 510.0)"></image><g><clipPath id="clip-541"><path d="M 636.0 430.0 L 725.0 430.0 L 725.0 519.0 L 636.0 519.0 Z M 636.0 430.0 "></path></clipPath><g clip-path="url(#clip-541)"><text xml:space="preserve" font-family="Avenir-Light" font-size="30.0" fill="#FFFFFF" transform="matrix(1.00, 0.00, -0.00, -1.00, 643.0, 487.0)">A</text><text xml:space="preserve" font-family="Avenir-Light" font-size="30.0" fill="#FFFFFF" transform="matrix(1.00, 0.00, -0.00, -1.00, 663.5, 487.0)">u</text><text xml:space="preserve" font-family="Avenir-Light" font-size="30.0" fill="#FFFFFF" transform="matrix(1.00, 0.00, -0.00, -1.00, 680.2, 487.0)">t</text><text xml:space="preserve" font-family="Avenir-Light" font-size="30.0" fill="#FFFFFF" transform="matrix(1.00, 0.00, -0.00, -1.00, 690.2, 487.0)">r</text><text xml:space="preserve" font-family="Avenir-Light" font-size="30.0" fill="#FFFFFF" transform="matrix(1.00, 0.00, -0.00, -1.00, 699.7, 487.0)">e</text><text xml:space="preserve" font-family="Avenir-Light" font-size="30.0" fill="#FFFFFF" transform="matrix(1.00, 0.00, -0.00, -1.00, 716.4, 487.0)"> </text></g></g><image xlink:href="../../41AE67BA-D081-444E-8E4C-4A2270FF0F40/assets/926D54F52512897974115E19E364B8B6.png" width="68.00" height="31.00" transform="matrix(1.00, 0.00, -0.00, -1.00, 646.0, 470.0)"></image><g><clipPath id="clip-542"><path d="M 636.0 430.0 L 725.0 430.0 L 725.0 519.0 L 636.0 519.0 Z M 636.0 430.0 "></path></clipPath><g clip-path="url(#clip-542)"><text xml:space="preserve" font-family="Avenir-Light" font-size="30.0" fill="#FFFFFF" transform="matrix(1.00, 0.00, -0.00, -1.00, 648.0, 446.0)">2</text><text xml:space="preserve" font-family="Avenir-Light" font-size="30.0" fill="#FFFFFF" transform="matrix(1.00, 0.00, -0.00, -1.00, 663.6, 446.0)">0</text><text xml:space="preserve" font-family="Avenir-Light" font-size="30.0" fill="#FFFFFF" transform="matrix(1.00, 0.00, -0.00, -1.00, 679.2, 446.0)"> </text><text xml:space="preserve" font-family="Avenir-Light" font-size="30.0" fill="#FFFFFF" transform="matrix(1.00, 0.00, -0.00, -1.00, 687.0, 446.0)">%</text></g></g></g><g><image xlink:href="../../41AE67BA-D081-444E-8E4C-4A2270FF0F40/assets/8712ABF69B80C06A2A7165EBDB3A7E03.png" width="139.00" height="29.00" transform="matrix(1.00, 0.00, -0.00, -1.00, 569.0, 383.0)"></image><g><clipPath id="clip-543"><path d="M 562.0 303.0 L 715.0 303.0 L 715.0 392.0 L 562.0 392.0 Z M 562.0 303.0 "></path></clipPath><g clip-path="url(#clip-543)"><text xml:space="preserve" font-family="Avenir-Light" font-size="30.0" fill="#FFFFFF" transform="matrix(1.00, 0.00, -0.00, -1.00, 570.0, 360.0)">F</text><text xml:space="preserve" font-family="Avenir-Light" font-size="30.0" fill="#FFFFFF" transform="matrix(1.00, 0.00, -0.00, -1.00, 586.7, 360.0)">o</text><text xml:space="preserve" font-family="Avenir-Light" font-size="30.0" fill="#FFFFFF" transform="matrix(1.00, 0.00, -0.00, -1.00, 604.5, 360.0)">r</text><text xml:space="preserve" font-family="Avenir-Light" font-size="30.0" fill="#FFFFFF" transform="matrix(1.00, 0.00, -0.00, -1.00, 614.5, 360.0)">m</text><text xml:space="preserve" font-family="Avenir-Light" font-size="30.0" fill="#FFFFFF" transform="matrix(1.00, 0.00, -0.00, -1.00, 640.0, 360.0)">a</text><text xml:space="preserve" font-family="Avenir-Light" font-size="30.0" fill="#FFFFFF" transform="matrix(1.00, 0.00, -0.00, -1.00, 655.6, 360.0)">t</text><text xml:space="preserve" font-family="Avenir-Light" font-size="30.0" fill="#FFFFFF" transform="matrix(1.00, 0.00, -0.00, -1.00, 665.6, 360.0)">i</text><text xml:space="preserve" font-family="Avenir-Light" font-size="30.0" fill="#FFFFFF" transform="matrix(1.00, 0.00, -0.00, -1.00, 672.8, 360.0)">o</text><text xml:space="preserve" font-family="Avenir-Light" font-size="30.0" fill="#FFFFFF" transform="matrix(1.00, 0.00, -0.00, -1.00, 690.7, 360.0)">n</text><text xml:space="preserve" font-family="Avenir-Light" font-size="30.0" fill="#FFFFFF" transform="matrix(1.00, 0.00, -0.00, -1.00, 707.3, 360.0)"> </text></g></g><image xlink:href="../../41AE67BA-D081-444E-8E4C-4A2270FF0F40/assets/926D54F52512897974115E19E364B8B6.png" width="68.00" height="31.00" transform="matrix(1.00, 0.00, -0.00, -1.00, 605.0, 343.0)"></image><g><clipPath id="clip-544"><path d="M 562.0 303.0 L 715.0 303.0 L 715.0 392.0 L 562.0 392.0 Z M 562.0 303.0 "></path></clipPath><g clip-path="url(#clip-544)"><text xml:space="preserve" font-family="Avenir-Light" font-size="30.0" fill="#FFFFFF" transform="matrix(1.00, 0.00, -0.00, -1.00, 607.0, 319.0)">2</text><text xml:space="preserve" font-family="Avenir-Light" font-size="30.0" fill="#FFFFFF" transform="matrix(1.00, 0.00, -0.00, -1.00, 622.6, 319.0)">0</text><text xml:space="preserve" font-family="Avenir-Light" font-size="30.0" fill="#FFFFFF" transform="matrix(1.00, 0.00, -0.00, -1.00, 638.2, 319.0)"> </text><text xml:space="preserve" font-family="Avenir-Light" font-size="30.0" fill="#FFFFFF" transform="matrix(1.00, 0.00, -0.00, -1.00, 646.0, 319.0)">%</text></g></g></g><g><image xlink:href="../../41AE67BA-D081-444E-8E4C-4A2270FF0F40/assets/7FE34439C11AC780C1941E1694CFF3C2.png" width="99.00" height="29.00" transform="matrix(1.00, 0.00, -0.00, -1.00, 806.0, 383.0)"></image><g><clipPath id="clip-545"><path d="M 800.0 303.0 L 911.0 303.0 L 911.0 392.0 L 800.0 392.0 Z M 800.0 303.0 "></path></clipPath><g clip-path="url(#clip-545)"><text xml:space="preserve" font-family="Avenir-Light" font-size="30.0" fill="#FFFFFF" transform="matrix(1.00, 0.00, -0.00, -1.00, 808.0, 360.0)">S</text><text xml:space="preserve" font-family="Avenir-Light" font-size="30.0" fill="#FFFFFF" transform="matrix(1.00, 0.00, -0.00, -1.00, 824.7, 360.0)">e</text><text xml:space="preserve" font-family="Avenir-Light" font-size="30.0" fill="#FFFFFF" transform="matrix(1.00, 0.00, -0.00, -1.00, 841.4, 360.0)">r</text><text xml:space="preserve" font-family="Avenir-Light" font-size="30.0" fill="#FFFFFF" transform="matrix(1.00, 0.00, -0.00, -1.00, 851.4, 360.0)">v</text><text xml:space="preserve" font-family="Avenir-Light" font-size="30.0" fill="#FFFFFF" transform="matrix(1.00, 0.00, -0.00, -1.00, 865.2, 360.0)">i</text><text xml:space="preserve" font-family="Avenir-Light" font-size="30.0" fill="#FFFFFF" transform="matrix(1.00, 0.00, -0.00, -1.00, 872.4, 360.0)">c</text><text xml:space="preserve" font-family="Avenir-Light" font-size="30.0" fill="#FFFFFF" transform="matrix(1.00, 0.00, -0.00, -1.00, 886.9, 360.0)">e</text><text xml:space="preserve" font-family="Avenir-Light" font-size="30.0" fill="#FFFFFF" transform="matrix(1.00, 0.00, -0.00, -1.00, 903.5, 360.0)"> </text></g></g><image xlink:href="../../22BC393C-B913-462A-9C79-1A0EA83E9FD3/assets/D4408096FB487C5B4BE14957A2CD2EBC.png" width="69.00" height="31.00" transform="matrix(1.00, 0.00, -0.00, -1.00, 821.0, 343.0)"></image><g><clipPath id="clip-546"><path d="M 800.0 303.0 L 911.0 303.0 L 911.0 392.0 L 800.0 392.0 Z M 800.0 303.0 "></path></clipPath><g clip-path="url(#clip-546)"><text xml:space="preserve" font-family="Avenir-Light" font-size="30.0" fill="#FFFFFF" transform="matrix(1.00, 0.00, -0.00, -1.00, 824.0, 319.0)">6</text><text xml:space="preserve" font-family="Avenir-Light" font-size="30.0" fill="#FFFFFF" transform="matrix(1.00, 0.00, -0.00, -1.00, 839.6, 319.0)">0</text><text xml:space="preserve" font-family="Avenir-Light" font-size="30.0" fill="#FFFFFF" transform="matrix(1.00, 0.00, -0.00, -1.00, 855.2, 319.0)"> </text><text xml:space="preserve" font-family="Avenir-Light" font-size="30.0" fill="#FFFFFF" transform="matrix(1.00, 0.00, -0.00, -1.00, 863.0, 319.0)">%</text></g></g></g><text xml:space="preserve" font-family="Avenir-Light" font-size="45.0" fill="#FEFFFF" transform="matrix(1.00, 0.00, -0.00, -1.00, 56.0, 671.0)">E</text><text xml:space="preserve" font-family="Avenir-Light" font-size="45.0" fill="#FEFFFF" transform="matrix(1.00, 0.00, -0.00, -1.00, 89.9, 671.0)">V</text><text xml:space="preserve" font-family="Avenir-Light" font-size="45.0" fill="#FEFFFF" transform="matrix(1.00, 0.00, -0.00, -1.00, 123.8, 671.0)">O</text><text xml:space="preserve" font-family="Avenir-Light" font-size="45.0" fill="#FEFFFF" transform="matrix(1.00, 0.00, -0.00, -1.00, 168.5, 671.0)">L</text><text xml:space="preserve" font-family="Avenir-Light" font-size="45.0" fill="#FEFFFF" transform="matrix(1.00, 0.00, -0.00, -1.00, 198.2, 671.0)">U</text><text xml:space="preserve" font-family="Avenir-Light" font-size="45.0" fill="#FEFFFF" transform="matrix(1.00, 0.00, -0.00, -1.00, 236.2, 671.0)">T</text><text xml:space="preserve" font-family="Avenir-Light" font-size="45.0" fill="#FEFFFF" transform="matrix(1.00, 0.00, -0.00, -1.00, 269.2, 671.0)">I</text><text xml:space="preserve" font-family="Avenir-Light" font-size="45.0" fill="#FEFFFF" transform="matrix(1.00, 0.00, -0.00, -1.00, 288.1, 671.0)">O</text><text xml:space="preserve" font-family="Avenir-Light" font-size="45.0" fill="#FEFFFF" transform="matrix(1.00, 0.00, -0.00, -1.00, 332.8, 671.0)">N</text><text xml:space="preserve" font-family="Avenir-Light" font-size="45.0" fill="#FEFFFF" transform="matrix(1.00, 0.00, -0.00, -1.00, 375.0, 671.0)"> </text><text xml:space="preserve" font-family="Avenir-Light" font-size="45.0" fill="#FEFFFF" transform="matrix(1.00, 0.00, -0.00, -1.00, 393.9, 671.0)">D</text><text xml:space="preserve" font-family="Avenir-Light" font-size="45.0" fill="#FEFFFF" transform="matrix(1.00, 0.00, -0.00, -1.00, 434.5, 671.0)">U</text><text xml:space="preserve" font-family="Avenir-Light" font-size="45.0" fill="#FEFFFF" transform="matrix(1.00, 0.00, -0.00, -1.00, 472.5, 671.0)"> </text><text xml:space="preserve" font-family="Avenir-Light" font-size="45.0" fill="#FEFFFF" transform="matrix(1.00, 0.00, -0.00, -1.00, 491.4, 671.0)">M</text><text xml:space="preserve" font-family="Avenir-Light" font-size="45.0" fill="#FEFFFF" transform="matrix(1.00, 0.00, -0.00, -1.00, 538.6, 671.0)">O</text><text xml:space="preserve" font-family="Avenir-Light" font-size="45.0" fill="#FEFFFF" transform="matrix(1.00, 0.00, -0.00, -1.00, 583.3, 671.0)">D</text><text xml:space="preserve" font-family="Avenir-Light" font-size="45.0" fill="#FEFFFF" transform="matrix(1.00, 0.00, -0.00, -1.00, 623.9, 671.0)">E</text><text xml:space="preserve" font-family="Avenir-Light" font-size="45.0" fill="#FEFFFF" transform="matrix(1.00, 0.00, -0.00, -1.00, 657.7, 671.0)">L</text><text xml:space="preserve" font-family="Avenir-Light" font-size="45.0" fill="#FEFFFF" transform="matrix(1.00, 0.00, -0.00, -1.00, 687.4, 671.0)">E</text><text xml:space="preserve" font-family="Avenir-Light" font-size="40.0" fill="#FEFFFF" transform="matrix(1.00, 0.00, -0.00, -1.00, 669.0, 149.0)">E</text><text xml:space="preserve" font-family="Avenir-Light" font-size="40.0" fill="#FEFFFF" transform="matrix(1.00, 0.00, -0.00, -1.00, 692.7, 149.0)">x</text><text xml:space="preserve" font-family="Avenir-Light" font-size="40.0" fill="#FEFFFF" transform="matrix(1.00, 0.00, -0.00, -1.00, 712.0, 149.0)">e</text><text xml:space="preserve" font-family="Avenir-Light" font-size="40.0" fill="#FEFFFF" transform="matrix(1.00, 0.00, -0.00, -1.00, 734.2, 149.0)">m</text><text xml:space="preserve" font-family="Avenir-Light" font-size="40.0" fill="#FEFFFF" transform="matrix(1.00, 0.00, -0.00, -1.00, 768.3, 149.0)">p</text><text xml:space="preserve" font-family="Avenir-Light" font-size="40.0" fill="#FEFFFF" transform="matrix(1.00, 0.00, -0.00, -1.00, 792.7, 149.0)">l</text><text xml:space="preserve" font-family="Avenir-Light" font-size="40.0" fill="#FEFFFF" transform="matrix(1.00, 0.00, -0.00, -1.00, 802.3, 149.0)">e</text></g></svg>