<?xml version="1.0" encoding="UTF-8" standalone="no"?><svg xmlns="http://www.w3.org/2000/svg" xmlns:xlink="http://www.w3.org/1999/xlink" clip-rule="evenodd" stroke-miterlimit="4.00" viewBox="0 0 369 366"><desc>SVG generated by Keynote</desc><defs></defs><g transform="matrix(1.00, 0.00, -0.00, -1.00, 0.0, 366.0)"><path d="M 2.0 365.0 L 368.0 365.0 L 368.0 1.0 L 2.0 1.0 Z M 2.0 365.0 " fill="#000000" fill-opacity="0.00"></path><g><g><clipPath id="clip-481"><path d="M 0.0 0.0 L 369.0 0.0 L 369.0 366.0 L 0.0 366.0 Z M 0.0 0.0 "></path></clipPath><g clip-path="url(#clip-481)"><g><g><clipPath id="clip-482"><path d="M 0.0 0.0 L 369.0 0.0 L 369.0 366.0 L 0.0 366.0 Z M 0.0 0.0 "></path></clipPath><g clip-path="url(#clip-482)"><path d="M 186.0 183.0 L 86.1 45.5 C 162.0 -9.7 268.3 7.1 323.5 83.1 C 378.7 159.0 361.9 265.3 285.9 320.5 C 256.9 341.6 221.9 353.0 186.0 353.0 Z M 186.0 183.0 " fill="#3FA3C1"></path></g></g><g><clipPath id="clip-483"><path d="M 186.0 183.0 L 86.1 45.5 C 162.0 -9.7 268.3 7.1 323.5 83.1 C 378.7 159.0 361.9 265.3 285.9 320.5 C 256.9 341.6 221.9 353.0 186.0 353.0 Z M 186.0 183.0 "></path></clipPath><g clip-path="url(#clip-483)"><g><clipPath id="clip-484"><path d="M 0.0 0.0 L 369.0 0.0 L 369.0 366.0 L 0.0 366.0 Z M 0.0 0.0 "></path></clipPath><g clip-path="url(#clip-484)"><path d="M 181.6 181.7 L 81.7 319.2 C 157.7 374.4 264.0 357.6 319.2 281.6 C 374.4 205.7 357.5 99.4 281.6 44.2 C 252.5 23.1 217.5 11.7 181.6 11.7 Z M 181.6 181.7 " fill="none" stroke="#000000" stroke-width="2.00" transform="matrix(1.00, 0.00, 0.00, -1.00, 4.4, 364.7)"></path></g></g></g></g></g></g></g></g></g></svg>