<?xml version="1.0" encoding="UTF-8" standalone="no"?><svg xmlns="http://www.w3.org/2000/svg" xmlns:xlink="http://www.w3.org/1999/xlink" clip-rule="evenodd" stroke-miterlimit="4.00" viewBox="0 0 113 91"><desc>SVG generated by Keynote</desc><defs></defs><g transform="matrix(1.00, 0.00, -0.00, -1.00, 0.0, 91.0)"><g><image xlink:href="../../41AE67BA-D081-444E-8E4C-4A2270FF0F40/assets/7FE34439C11AC780C1941E1694CFF3C2.png" width="99.00" height="29.00" transform="matrix(1.00, 0.00, -0.00, -1.00, 7.0, 81.0)"></image><g><clipPath id="clip-485"><path d="M 1.0 1.0 L 112.0 1.0 L 112.0 90.0 L 1.0 90.0 Z M 1.0 1.0 "></path></clipPath><g clip-path="url(#clip-485)"><text xml:space="preserve" font-family="Avenir-Light" font-size="30.0" fill="#FFFFFF" transform="matrix(1.00, 0.00, -0.00, -1.00, 9.0, 58.0)">S</text><text xml:space="preserve" font-family="Avenir-Light" font-size="30.0" fill="#FFFFFF" transform="matrix(1.00, 0.00, -0.00, -1.00, 25.7, 58.0)">e</text><text xml:space="preserve" font-family="Avenir-Light" font-size="30.0" fill="#FFFFFF" transform="matrix(1.00, 0.00, -0.00, -1.00, 42.4, 58.0)">r</text><text xml:space="preserve" font-family="Avenir-Light" font-size="30.0" fill="#FFFFFF" transform="matrix(1.00, 0.00, -0.00, -1.00, 52.4, 58.0)">v</text><text xml:space="preserve" font-family="Avenir-Light" font-size="30.0" fill="#FFFFFF" transform="matrix(1.00, 0.00, -0.00, -1.00, 66.2, 58.0)">i</text><text xml:space="preserve" font-family="Avenir-Light" font-size="30.0" fill="#FFFFFF" transform="matrix(1.00, 0.00, -0.00, -1.00, 73.4, 58.0)">c</text><text xml:space="preserve" font-family="Avenir-Light" font-size="30.0" fill="#FFFFFF" transform="matrix(1.00, 0.00, -0.00, -1.00, 87.9, 58.0)">e</text><text xml:space="preserve" font-family="Avenir-Light" font-size="30.0" fill="#FFFFFF" transform="matrix(1.00, 0.00, -0.00, -1.00, 104.6, 58.0)"> </text></g></g><image xlink:href="D4408096FB487C5B4BE14957A2CD2EBC.png" width="69.00" height="31.00" transform="matrix(1.00, 0.00, -0.00, -1.00, 22.0, 41.0)"></image><g><clipPath id="clip-486"><path d="M 1.0 1.0 L 112.0 1.0 L 112.0 90.0 L 1.0 90.0 Z M 1.0 1.0 "></path></clipPath><g clip-path="url(#clip-486)"><text xml:space="preserve" font-family="Avenir-Light" font-size="30.0" fill="#FFFFFF" transform="matrix(1.00, 0.00, -0.00, -1.00, 25.0, 17.0)">6</text><text xml:space="preserve" font-family="Avenir-Light" font-size="30.0" fill="#FFFFFF" transform="matrix(1.00, 0.00, -0.00, -1.00, 40.6, 17.0)">0</text><text xml:space="preserve" font-family="Avenir-Light" font-size="30.0" fill="#FFFFFF" transform="matrix(1.00, 0.00, -0.00, -1.00, 56.2, 17.0)"> </text><text xml:space="preserve" font-family="Avenir-Light" font-size="30.0" fill="#FFFFFF" transform="matrix(1.00, 0.00, -0.00, -1.00, 64.0, 17.0)">%</text></g></g></g></g></svg>