<?xml version="1.0" encoding="UTF-8" standalone="no"?><svg xmlns="http://www.w3.org/2000/svg" xmlns:xlink="http://www.w3.org/1999/xlink" clip-rule="evenodd" stroke-miterlimit="4.00" viewBox="0 0 1024 768"><desc>SVG generated by Keynote</desc><defs></defs><g transform="matrix(1.00, 0.00, -0.00, -1.00, 0.0, 768.0)"><path d="M 0.0 768.0 L 1024.0 768.0 L 1024.0 0.0 L 0.0 0.0 Z M 0.0 768.0 " fill="#000000"></path><g><clipPath id="clip-434"><path d="M 514.0 768.0 L 1026.0 768.0 L 1026.0 0.0 L 514.0 0.0 Z M 514.0 768.0 "></path></clipPath><g clip-path="url(#clip-434)"><image xlink:href="../../C842AC1B-C8DE-4189-8731-CF64D7E684A8/assets/715640129A5AA77061CAAC15119923B2.png" width="1365.00" height="767.00" transform="matrix(1.04, 0.00, -0.00, -1.04, 422.0, 784.0)"></image></g></g><text xml:space="preserve" font-family="Avenir-Light" font-size="41.0" fill="#FEFFFF" transform="matrix(1.00, 0.00, -0.00, -1.00, 56.0, 675.0)">S</text><text xml:space="preserve" font-family="Avenir-Light" font-size="41.0" fill="#FEFFFF" transform="matrix(1.00, 0.00, -0.00, -1.00, 85.3, 675.0)">T</text><text xml:space="preserve" font-family="Avenir-Light" font-size="41.0" fill="#FEFFFF" transform="matrix(1.00, 0.00, -0.00, -1.00, 115.4, 675.0)">R</text><text xml:space="preserve" font-family="Avenir-Light" font-size="41.0" fill="#FEFFFF" transform="matrix(1.00, 0.00, -0.00, -1.00, 146.2, 675.0)">A</text><text xml:space="preserve" font-family="Avenir-Light" font-size="41.0" fill="#FEFFFF" transform="matrix(1.00, 0.00, -0.00, -1.00, 178.0, 675.0)">T</text><text xml:space="preserve" font-family="Avenir-Light" font-size="41.0" fill="#FEFFFF" transform="matrix(1.00, 0.00, -0.00, -1.00, 208.1, 675.0)">É</text><text xml:space="preserve" font-family="Avenir-Light" font-size="41.0" fill="#FEFFFF" transform="matrix(1.00, 0.00, -0.00, -1.00, 238.9, 675.0)">G</text><text xml:space="preserve" font-family="Avenir-Light" font-size="41.0" fill="#FEFFFF" transform="matrix(1.00, 0.00, -0.00, -1.00, 277.3, 675.0)">I</text><text xml:space="preserve" font-family="Avenir-Light" font-size="41.0" fill="#FEFFFF" transform="matrix(1.00, 0.00, -0.00, -1.00, 294.5, 675.0)">E</text><text xml:space="preserve" font-family="Avenir-Light" font-size="41.0" fill="#FEFFFF" transform="matrix(1.00, 0.00, -0.00, -1.00, 325.4, 675.0)"> </text><text xml:space="preserve" font-family="Avenir-Light" font-size="41.0" fill="#FEFFFF" transform="matrix(1.00, 0.00, -0.00, -1.00, 342.6, 675.0)">2</text><text xml:space="preserve" font-family="Avenir-Light" font-size="41.0" fill="#FEFFFF" transform="matrix(1.00, 0.00, -0.00, -1.00, 370.4, 675.0)">0</text><text xml:space="preserve" font-family="Avenir-Light" font-size="41.0" fill="#FEFFFF" transform="matrix(1.00, 0.00, -0.00, -1.00, 398.3, 675.0)">1</text><text xml:space="preserve" font-family="Avenir-Light" font-size="41.0" fill="#FEFFFF" transform="matrix(1.00, 0.00, -0.00, -1.00, 426.1, 675.0)">6</text><text xml:space="preserve" font-family="Avenir-Light" font-size="41.0" fill="#FEFFFF" transform="matrix(1.00, 0.00, -0.00, -1.00, 454.0, 675.0)"> </text><text xml:space="preserve" font-family="Avenir-Light" font-size="41.0" fill="#FEFFFF" transform="matrix(1.00, 0.00, -0.00, -1.00, 56.0, 619.0)">=</text><text xml:space="preserve" font-family="Avenir-Light" font-size="41.0" fill="#FEFFFF" transform="matrix(1.00, 0.00, -0.00, -1.00, 89.8, 619.0)"> </text><text xml:space="preserve" font-family="Avenir-Light" font-size="41.0" fill="#FEFFFF" transform="matrix(1.00, 0.00, -0.00, -1.00, 107.0, 619.0)">P</text><text xml:space="preserve" font-family="Avenir-Light" font-size="41.0" fill="#FEFFFF" transform="matrix(1.00, 0.00, -0.00, -1.00, 134.1, 619.0)">A</text><text xml:space="preserve" font-family="Avenir-Light" font-size="41.0" fill="#FEFFFF" transform="matrix(1.00, 0.00, -0.00, -1.00, 168.7, 619.0)">R</text><text xml:space="preserve" font-family="Avenir-Light" font-size="41.0" fill="#FEFFFF" transform="matrix(1.00, 0.00, -0.00, -1.00, 199.5, 619.0)">I</text><text xml:space="preserve" font-family="Avenir-Light" font-size="41.0" fill="#FEFFFF" transform="matrix(1.00, 0.00, -0.00, -1.00, 216.7, 619.0)"> </text><text xml:space="preserve" font-family="Avenir-Light" font-size="41.0" fill="#FEFFFF" transform="matrix(1.00, 0.00, -0.00, -1.00, 233.9, 619.0)">G</text><text xml:space="preserve" font-family="Avenir-Light" font-size="41.0" fill="#FEFFFF" transform="matrix(1.00, 0.00, -0.00, -1.00, 272.3, 619.0)">A</text><text xml:space="preserve" font-family="Avenir-Light" font-size="41.0" fill="#FEFFFF" transform="matrix(1.00, 0.00, -0.00, -1.00, 306.9, 619.0)">G</text><text xml:space="preserve" font-family="Avenir-Light" font-size="41.0" fill="#FEFFFF" transform="matrix(1.00, 0.00, -0.00, -1.00, 345.3, 619.0)">N</text><text xml:space="preserve" font-family="Avenir-Light" font-size="41.0" fill="#FEFFFF" transform="matrix(1.00, 0.00, -0.00, -1.00, 383.7, 619.0)">E</text><text xml:space="preserve" font-family="Avenir-Light" font-size="41.0" fill="#FEFFFF" transform="matrix(1.00, 0.00, -0.00, -1.00, 414.6, 619.0)"> </text><text xml:space="preserve" font-family="Avenir-Light" font-size="41.0" fill="#FEFFFF" transform="matrix(1.00, 0.00, -0.00, -1.00, 431.8, 619.0)">!</text><text xml:space="preserve" font-family="Avenir-Light" font-size="41.0" fill="#FEFFFF" transform="matrix(1.00, 0.00, -0.00, -1.00, 453.5, 619.0)"> </text><text xml:space="preserve" font-family="Avenir-Light" font-size="30.0" fill="#FEFFFF" transform="matrix(1.00, 0.00, -0.00, -1.00, 14.0, 443.0)">R</text><text xml:space="preserve" font-family="Avenir-Light" font-size="30.0" fill="#FEFFFF" transform="matrix(1.00, 0.00, -0.00, -1.00, 31.8, 443.0)">é</text><text xml:space="preserve" font-family="Avenir-Light" font-size="30.0" fill="#FEFFFF" transform="matrix(1.00, 0.00, -0.00, -1.00, 48.5, 443.0)">s</text><text xml:space="preserve" font-family="Avenir-Light" font-size="30.0" fill="#FEFFFF" transform="matrix(1.00, 0.00, -0.00, -1.00, 61.2, 443.0)">i</text><text xml:space="preserve" font-family="Avenir-Light" font-size="30.0" fill="#FEFFFF" transform="matrix(1.00, 0.00, -0.00, -1.00, 68.5, 443.0)">s</text><text xml:space="preserve" font-family="Avenir-Light" font-size="30.0" fill="#FEFFFF" transform="matrix(1.00, 0.00, -0.00, -1.00, 81.2, 443.0)">t</text><text xml:space="preserve" font-family="Avenir-Light" font-size="30.0" fill="#FEFFFF" transform="matrix(1.00, 0.00, -0.00, -1.00, 91.2, 443.0)">e</text><text xml:space="preserve" font-family="Avenir-Light" font-size="30.0" fill="#FEFFFF" transform="matrix(1.00, 0.00, -0.00, -1.00, 107.9, 443.0)">r</text><text xml:space="preserve" font-family="Avenir-Light" font-size="30.0" fill="#FEFFFF" transform="matrix(1.00, 0.00, -0.00, -1.00, 117.9, 443.0)"> </text><text xml:space="preserve" font-family="Avenir-Light" font-size="30.0" fill="#FEFFFF" transform="matrix(1.00, 0.00, -0.00, -1.00, 125.7, 443.0)">a</text><text xml:space="preserve" font-family="Avenir-Light" font-size="30.0" fill="#FEFFFF" transform="matrix(1.00, 0.00, -0.00, -1.00, 141.3, 443.0)">u</text><text xml:space="preserve" font-family="Avenir-Light" font-size="30.0" fill="#FEFFFF" transform="matrix(1.00, 0.00, -0.00, -1.00, 157.9, 443.0)"> </text><text xml:space="preserve" font-family="Avenir-Light" font-size="30.0" fill="#FEFFFF" transform="matrix(1.00, 0.00, -0.00, -1.00, 165.7, 443.0)">r</text><text xml:space="preserve" font-family="Avenir-Light" font-size="30.0" fill="#FEFFFF" transform="matrix(1.00, 0.00, -0.00, -1.00, 175.2, 443.0)">é</text><text xml:space="preserve" font-family="Avenir-Light" font-size="30.0" fill="#FEFFFF" transform="matrix(1.00, 0.00, -0.00, -1.00, 191.9, 443.0)">s</text><text xml:space="preserve" font-family="Avenir-Light" font-size="30.0" fill="#FEFFFF" transform="matrix(1.00, 0.00, -0.00, -1.00, 204.7, 443.0)">u</text><text xml:space="preserve" font-family="Avenir-Light" font-size="30.0" fill="#FEFFFF" transform="matrix(1.00, 0.00, -0.00, -1.00, 221.3, 443.0)">l</text><text xml:space="preserve" font-family="Avenir-Light" font-size="30.0" fill="#FEFFFF" transform="matrix(1.00, 0.00, -0.00, -1.00, 228.6, 443.0)">t</text><text xml:space="preserve" font-family="Avenir-Light" font-size="30.0" fill="#FEFFFF" transform="matrix(1.00, 0.00, -0.00, -1.00, 238.6, 443.0)">a</text><text xml:space="preserve" font-family="Avenir-Light" font-size="30.0" fill="#FEFFFF" transform="matrix(1.00, 0.00, -0.00, -1.00, 254.1, 443.0)">t</text><text xml:space="preserve" font-family="Avenir-Light" font-size="30.0" fill="#FEFFFF" transform="matrix(1.00, 0.00, -0.00, -1.00, 264.1, 443.0)"> </text><text xml:space="preserve" font-family="Avenir-Light" font-size="30.0" fill="#FEFFFF" transform="matrix(1.00, 0.00, -0.00, -1.00, 271.9, 443.0)">2</text><text xml:space="preserve" font-family="Avenir-Light" font-size="30.0" fill="#FEFFFF" transform="matrix(1.00, 0.00, -0.00, -1.00, 287.5, 443.0)">0</text><text xml:space="preserve" font-family="Avenir-Light" font-size="30.0" fill="#FEFFFF" transform="matrix(1.00, 0.00, -0.00, -1.00, 303.1, 443.0)">1</text><text xml:space="preserve" font-family="Avenir-Light" font-size="30.0" fill="#FEFFFF" transform="matrix(1.00, 0.00, -0.00, -1.00, 318.7, 443.0)">5</text><text xml:space="preserve" font-family="Avenir-Light" font-size="30.0" fill="#FEFFFF" transform="matrix(1.00, 0.00, -0.00, -1.00, 334.3, 443.0)"> </text><text xml:space="preserve" font-family="Avenir-Light" font-size="30.0" fill="#FEFFFF" transform="matrix(1.00, 0.00, -0.00, -1.00, 14.0, 370.0)">C</text><text xml:space="preserve" font-family="Avenir-Light" font-size="30.0" fill="#FEFFFF" transform="matrix(1.00, 0.00, -0.00, -1.00, 35.1, 370.0)">h</text><text xml:space="preserve" font-family="Avenir-Light" font-size="30.0" fill="#FEFFFF" transform="matrix(1.00, 0.00, -0.00, -1.00, 51.8, 370.0)">i</text><text xml:space="preserve" font-family="Avenir-Light" font-size="30.0" fill="#FEFFFF" transform="matrix(1.00, 0.00, -0.00, -1.00, 59.0, 370.0)">f</text><text xml:space="preserve" font-family="Avenir-Light" font-size="30.0" fill="#FEFFFF" transform="matrix(1.00, 0.00, -0.00, -1.00, 67.3, 370.0)">f</text><text xml:space="preserve" font-family="Avenir-Light" font-size="30.0" fill="#FEFFFF" transform="matrix(1.00, 0.00, -0.00, -1.00, 76.2, 370.0)">r</text><text xml:space="preserve" font-family="Avenir-Light" font-size="30.0" fill="#FEFFFF" transform="matrix(1.00, 0.00, -0.00, -1.00, 85.7, 370.0)">e</text><text xml:space="preserve" font-family="Avenir-Light" font-size="30.0" fill="#FEFFFF" transform="matrix(1.00, 0.00, -0.00, -1.00, 102.3, 370.0)"> </text><text xml:space="preserve" font-family="Avenir-Light" font-size="30.0" fill="#FEFFFF" transform="matrix(1.00, 0.00, -0.00, -1.00, 110.1, 370.0)">d</text><text xml:space="preserve" font-family="Avenir-Light" font-size="30.0" fill="#FEFFFF" transform="matrix(1.00, 0.00, -0.00, -1.00, 128.5, 370.0)">’</text><text xml:space="preserve" font-family="Avenir-Light" font-size="30.0" fill="#FEFFFF" transform="matrix(1.00, 0.00, -0.00, -1.00, 136.3, 370.0)">A</text><text xml:space="preserve" font-family="Avenir-Light" font-size="30.0" fill="#FEFFFF" transform="matrix(1.00, 0.00, -0.00, -1.00, 156.9, 370.0)">f</text><text xml:space="preserve" font-family="Avenir-Light" font-size="30.0" fill="#FEFFFF" transform="matrix(1.00, 0.00, -0.00, -1.00, 165.2, 370.0)">f</text><text xml:space="preserve" font-family="Avenir-Light" font-size="30.0" fill="#FEFFFF" transform="matrix(1.00, 0.00, -0.00, -1.00, 174.1, 370.0)">a</text><text xml:space="preserve" font-family="Avenir-Light" font-size="30.0" fill="#FEFFFF" transform="matrix(1.00, 0.00, -0.00, -1.00, 189.6, 370.0)">i</text><text xml:space="preserve" font-family="Avenir-Light" font-size="30.0" fill="#FEFFFF" transform="matrix(1.00, 0.00, -0.00, -1.00, 196.8, 370.0)">r</text><text xml:space="preserve" font-family="Avenir-Light" font-size="30.0" fill="#FEFFFF" transform="matrix(1.00, 0.00, -0.00, -1.00, 206.3, 370.0)">e</text><text xml:space="preserve" font-family="Avenir-Light" font-size="30.0" fill="#FEFFFF" transform="matrix(1.00, 0.00, -0.00, -1.00, 223.0, 370.0)"> </text><text xml:space="preserve" font-family="Avenir-Light" font-size="30.0" fill="#FEFFFF" transform="matrix(1.00, 0.00, -0.00, -1.00, 230.8, 370.0)">v</text><text xml:space="preserve" font-family="Avenir-Light" font-size="30.0" fill="#FEFFFF" transform="matrix(1.00, 0.00, -0.00, -1.00, 244.7, 370.0)">s</text><text xml:space="preserve" font-family="Avenir-Light" font-size="30.0" fill="#FEFFFF" transform="matrix(1.00, 0.00, -0.00, -1.00, 257.4, 370.0)"> </text><text xml:space="preserve" font-family="Avenir-Light" font-size="30.0" fill="#FEFFFF" transform="matrix(1.00, 0.00, -0.00, -1.00, 265.2, 370.0)">S</text><text xml:space="preserve" font-family="Avenir-Light" font-size="30.0" fill="#FEFFFF" transform="matrix(1.00, 0.00, -0.00, -1.00, 281.9, 370.0)">t</text><text xml:space="preserve" font-family="Avenir-Light" font-size="30.0" fill="#FEFFFF" transform="matrix(1.00, 0.00, -0.00, -1.00, 291.9, 370.0)">r</text><text xml:space="preserve" font-family="Avenir-Light" font-size="30.0" fill="#FEFFFF" transform="matrix(1.00, 0.00, -0.00, -1.00, 301.9, 370.0)">u</text><text xml:space="preserve" font-family="Avenir-Light" font-size="30.0" fill="#FEFFFF" transform="matrix(1.00, 0.00, -0.00, -1.00, 318.6, 370.0)">c</text><text xml:space="preserve" font-family="Avenir-Light" font-size="30.0" fill="#FEFFFF" transform="matrix(1.00, 0.00, -0.00, -1.00, 333.0, 370.0)">t</text><text xml:space="preserve" font-family="Avenir-Light" font-size="30.0" fill="#FEFFFF" transform="matrix(1.00, 0.00, -0.00, -1.00, 343.0, 370.0)">u</text><text xml:space="preserve" font-family="Avenir-Light" font-size="30.0" fill="#FEFFFF" transform="matrix(1.00, 0.00, -0.00, -1.00, 359.7, 370.0)">r</text><text xml:space="preserve" font-family="Avenir-Light" font-size="30.0" fill="#FEFFFF" transform="matrix(1.00, 0.00, -0.00, -1.00, 369.1, 370.0)">e</text><text xml:space="preserve" font-family="Avenir-Light" font-size="30.0" fill="#FEFFFF" transform="matrix(1.00, 0.00, -0.00, -1.00, 385.8, 370.0)"> </text><text xml:space="preserve" font-family="Avenir-Light" font-size="30.0" fill="#FEFFFF" transform="matrix(1.00, 0.00, -0.00, -1.00, 14.0, 297.0)">I</text><text xml:space="preserve" font-family="Avenir-Light" font-size="30.0" fill="#FEFFFF" transform="matrix(1.00, 0.00, -0.00, -1.00, 21.8, 297.0)">n</text><text xml:space="preserve" font-family="Avenir-Light" font-size="30.0" fill="#FEFFFF" transform="matrix(1.00, 0.00, -0.00, -1.00, 38.5, 297.0)">v</text><text xml:space="preserve" font-family="Avenir-Light" font-size="30.0" fill="#FEFFFF" transform="matrix(1.00, 0.00, -0.00, -1.00, 52.4, 297.0)">e</text><text xml:space="preserve" font-family="Avenir-Light" font-size="30.0" fill="#FEFFFF" transform="matrix(1.00, 0.00, -0.00, -1.00, 69.0, 297.0)">s</text><text xml:space="preserve" font-family="Avenir-Light" font-size="30.0" fill="#FEFFFF" transform="matrix(1.00, 0.00, -0.00, -1.00, 81.8, 297.0)">t</text><text xml:space="preserve" font-family="Avenir-Light" font-size="30.0" fill="#FEFFFF" transform="matrix(1.00, 0.00, -0.00, -1.00, 91.8, 297.0)">i</text><text xml:space="preserve" font-family="Avenir-Light" font-size="30.0" fill="#FEFFFF" transform="matrix(1.00, 0.00, -0.00, -1.00, 99.0, 297.0)">s</text><text xml:space="preserve" font-family="Avenir-Light" font-size="30.0" fill="#FEFFFF" transform="matrix(1.00, 0.00, -0.00, -1.00, 111.8, 297.0)">s</text><text xml:space="preserve" font-family="Avenir-Light" font-size="30.0" fill="#FEFFFF" transform="matrix(1.00, 0.00, -0.00, -1.00, 124.6, 297.0)">e</text><text xml:space="preserve" font-family="Avenir-Light" font-size="30.0" fill="#FEFFFF" transform="matrix(1.00, 0.00, -0.00, -1.00, 141.3, 297.0)">m</text><text xml:space="preserve" font-family="Avenir-Light" font-size="30.0" fill="#FEFFFF" transform="matrix(1.00, 0.00, -0.00, -1.00, 166.8, 297.0)">e</text><text xml:space="preserve" font-family="Avenir-Light" font-size="30.0" fill="#FEFFFF" transform="matrix(1.00, 0.00, -0.00, -1.00, 183.5, 297.0)">n</text><text xml:space="preserve" font-family="Avenir-Light" font-size="30.0" fill="#FEFFFF" transform="matrix(1.00, 0.00, -0.00, -1.00, 200.2, 297.0)">t</text><text xml:space="preserve" font-family="Avenir-Light" font-size="30.0" fill="#FEFFFF" transform="matrix(1.00, 0.00, -0.00, -1.00, 210.2, 297.0)"> </text><text xml:space="preserve" font-family="Avenir-Light" font-size="30.0" fill="#FEFFFF" transform="matrix(1.00, 0.00, -0.00, -1.00, 218.0, 297.0)">c</text><text xml:space="preserve" font-family="Avenir-Light" font-size="30.0" fill="#FEFFFF" transform="matrix(1.00, 0.00, -0.00, -1.00, 232.4, 297.0)">o</text><text xml:space="preserve" font-family="Avenir-Light" font-size="30.0" fill="#FEFFFF" transform="matrix(1.00, 0.00, -0.00, -1.00, 250.3, 297.0)">n</text><text xml:space="preserve" font-family="Avenir-Light" font-size="30.0" fill="#FEFFFF" transform="matrix(1.00, 0.00, -0.00, -1.00, 266.9, 297.0)">t</text><text xml:space="preserve" font-family="Avenir-Light" font-size="30.0" fill="#FEFFFF" transform="matrix(1.00, 0.00, -0.00, -1.00, 276.9, 297.0)">i</text><text xml:space="preserve" font-family="Avenir-Light" font-size="30.0" fill="#FEFFFF" transform="matrix(1.00, 0.00, -0.00, -1.00, 284.1, 297.0)">n</text><text xml:space="preserve" font-family="Avenir-Light" font-size="30.0" fill="#FEFFFF" transform="matrix(1.00, 0.00, -0.00, -1.00, 300.8, 297.0)">u</text><text xml:space="preserve" font-family="Avenir-Light" font-size="30.0" fill="#FEFFFF" transform="matrix(1.00, 0.00, -0.00, -1.00, 317.5, 297.0)"> </text><text xml:space="preserve" font-family="Avenir-Light" font-size="30.0" fill="#FEFFFF" transform="matrix(1.00, 0.00, -0.00, -1.00, 14.0, 224.0)">R</text><text xml:space="preserve" font-family="Avenir-Light" font-size="30.0" fill="#FEFFFF" transform="matrix(1.00, 0.00, -0.00, -1.00, 31.8, 224.0)">e</text><text xml:space="preserve" font-family="Avenir-Light" font-size="30.0" fill="#FEFFFF" transform="matrix(1.00, 0.00, -0.00, -1.00, 48.5, 224.0)">c</text><text xml:space="preserve" font-family="Avenir-Light" font-size="30.0" fill="#FEFFFF" transform="matrix(1.00, 0.00, -0.00, -1.00, 62.9, 224.0)">r</text><text xml:space="preserve" font-family="Avenir-Light" font-size="30.0" fill="#FEFFFF" transform="matrix(1.00, 0.00, -0.00, -1.00, 72.9, 224.0)">u</text><text xml:space="preserve" font-family="Avenir-Light" font-size="30.0" fill="#FEFFFF" transform="matrix(1.00, 0.00, -0.00, -1.00, 89.6, 224.0)">t</text><text xml:space="preserve" font-family="Avenir-Light" font-size="30.0" fill="#FEFFFF" transform="matrix(1.00, 0.00, -0.00, -1.00, 99.6, 224.0)">e</text><text xml:space="preserve" font-family="Avenir-Light" font-size="30.0" fill="#FEFFFF" transform="matrix(1.00, 0.00, -0.00, -1.00, 116.2, 224.0)">m</text><text xml:space="preserve" font-family="Avenir-Light" font-size="30.0" fill="#FEFFFF" transform="matrix(1.00, 0.00, -0.00, -1.00, 141.8, 224.0)">e</text><text xml:space="preserve" font-family="Avenir-Light" font-size="30.0" fill="#FEFFFF" transform="matrix(1.00, 0.00, -0.00, -1.00, 158.5, 224.0)">n</text><text xml:space="preserve" font-family="Avenir-Light" font-size="30.0" fill="#FEFFFF" transform="matrix(1.00, 0.00, -0.00, -1.00, 175.2, 224.0)">t</text><text xml:space="preserve" font-family="Avenir-Light" font-size="30.0" fill="#FEFFFF" transform="matrix(1.00, 0.00, -0.00, -1.00, 185.2, 224.0)"> </text><text xml:space="preserve" font-family="Avenir-Light" font-size="30.0" fill="#FEFFFF" transform="matrix(1.00, 0.00, -0.00, -1.00, 193.0, 224.0)">a</text><text xml:space="preserve" font-family="Avenir-Light" font-size="30.0" fill="#FEFFFF" transform="matrix(1.00, 0.00, -0.00, -1.00, 208.5, 224.0)">u</text><text xml:space="preserve" font-family="Avenir-Light" font-size="30.0" fill="#FEFFFF" transform="matrix(1.00, 0.00, -0.00, -1.00, 225.2, 224.0)"> </text><text xml:space="preserve" font-family="Avenir-Light" font-size="30.0" fill="#FEFFFF" transform="matrix(1.00, 0.00, -0.00, -1.00, 233.0, 224.0)">s</text><text xml:space="preserve" font-family="Avenir-Light" font-size="30.0" fill="#FEFFFF" transform="matrix(1.00, 0.00, -0.00, -1.00, 245.8, 224.0)">t</text><text xml:space="preserve" font-family="Avenir-Light" font-size="30.0" fill="#FEFFFF" transform="matrix(1.00, 0.00, -0.00, -1.00, 255.8, 224.0)">a</text><text xml:space="preserve" font-family="Avenir-Light" font-size="30.0" fill="#FEFFFF" transform="matrix(1.00, 0.00, -0.00, -1.00, 271.3, 224.0)">n</text><text xml:space="preserve" font-family="Avenir-Light" font-size="30.0" fill="#FEFFFF" transform="matrix(1.00, 0.00, -0.00, -1.00, 288.0, 224.0)">d</text><text xml:space="preserve" font-family="Avenir-Light" font-size="30.0" fill="#FEFFFF" transform="matrix(1.00, 0.00, -0.00, -1.00, 306.4, 224.0)">a</text><text xml:space="preserve" font-family="Avenir-Light" font-size="30.0" fill="#FEFFFF" transform="matrix(1.00, 0.00, -0.00, -1.00, 321.9, 224.0)">r</text><text xml:space="preserve" font-family="Avenir-Light" font-size="30.0" fill="#FEFFFF" transform="matrix(1.00, 0.00, -0.00, -1.00, 331.4, 224.0)">d</text><text xml:space="preserve" font-family="Avenir-Light" font-size="30.0" fill="#FEFFFF" transform="matrix(1.00, 0.00, -0.00, -1.00, 349.7, 224.0)"> </text><text xml:space="preserve" font-family="Avenir-Light" font-size="30.0" fill="#FEFFFF" transform="matrix(1.00, 0.00, -0.00, -1.00, 357.5, 224.0)">Z</text><text xml:space="preserve" font-family="Avenir-Light" font-size="30.0" fill="#FEFFFF" transform="matrix(1.00, 0.00, -0.00, -1.00, 374.2, 224.0)">e</text><text xml:space="preserve" font-family="Avenir-Light" font-size="30.0" fill="#FEFFFF" transform="matrix(1.00, 0.00, -0.00, -1.00, 390.9, 224.0)">n</text><text xml:space="preserve" font-family="Avenir-Light" font-size="30.0" fill="#FEFFFF" transform="matrix(1.00, 0.00, -0.00, -1.00, 407.5, 224.0)">i</text><text xml:space="preserve" font-family="Avenir-Light" font-size="30.0" fill="#FEFFFF" transform="matrix(1.00, 0.00, -0.00, -1.00, 414.7, 224.0)">k</text><text xml:space="preserve" font-family="Avenir-Light" font-size="30.0" fill="#FEFFFF" transform="matrix(1.00, 0.00, -0.00, -1.00, 429.2, 224.0)">a</text><text xml:space="preserve" font-family="Avenir-Light" font-size="30.0" fill="#FEFFFF" transform="matrix(1.00, 0.00, -0.00, -1.00, 444.7, 224.0)"> </text></g></svg>