<?xml version="1.0" encoding="UTF-8" standalone="no"?><svg xmlns="http://www.w3.org/2000/svg" xmlns:xlink="http://www.w3.org/1999/xlink" clip-rule="evenodd" stroke-miterlimit="4.00" viewBox="0 0 296 214"><desc>SVG generated by Keynote</desc><defs><linearGradient id="gradSh1.1" x1="0.0" y1="0.0" x2="1.0" y2="0.0" gradientUnits="userSpaceOnUse" gradientTransform="matrix(106.02, 0.00, 0.00, 210.00, 189.0, 107.0)"><stop offset="0.00000" stop-color="#000000"></stop><stop offset="0.51320" stop-color="#010000"></stop><stop offset="0.51466" stop-color="#010101"></stop><stop offset="0.51979" stop-color="#020101"></stop><stop offset="0.52273" stop-color="#020201"></stop><stop offset="0.52419" stop-color="#020202"></stop><stop offset="0.52639" stop-color="#030202"></stop><stop offset="0.53959" stop-color="#050403"></stop><stop offset="0.54179" stop-color="#050404"></stop><stop offset="0.54472" stop-color="#060404"></stop><stop offset="0.57258" stop-color="#0A0807"></stop><stop offset="0.57625" stop-color="#0B0807"></stop><stop offset="0.57771" stop-color="#0B0808"></stop><stop offset="0.58065" stop-color="#0B0908"></stop><stop offset="0.60777" stop-color="#100C0B"></stop><stop offset="0.61510" stop-color="#110D0C"></stop><stop offset="0.63930" stop-color="#15100E"></stop><stop offset="0.64150" stop-color="#15100F"></stop><stop offset="0.69941" stop-color="#201917"></stop><stop offset="0.70088" stop-color="#201918"></stop><stop offset="0.71408" stop-color="#26201E"></stop><stop offset="0.71701" stop-color="#27211F"></stop><stop offset="0.71848" stop-color="#272220"></stop><stop offset="0.71921" stop-color="#282220"></stop><stop offset="0.78299" stop-color="#42403E"></stop><stop offset="0.78446" stop-color="#43403F"></stop><stop offset="0.87757" stop-color="#80807A"></stop><stop offset="0.87830" stop-color="#80807B"></stop><stop offset="1.00000" stop-color="#FFFFFF"></stop></linearGradient></defs><g transform="matrix(1.00, 0.00, -0.00, -1.00, 0.0, 214.0)"><g><clipPath id="clip-576"><path d="M 1.0 2.0 L 295.0 2.0 L 295.0 212.0 L 1.0 212.0 Z M 1.0 2.0 "></path></clipPath><g clip-path="url(#clip-576)"><g><g><clipPath id="clip-577"><path d="M 281.6 211.9 C 229.3 205.4 189.0 160.8 189.0 107.0 L 189.0 107.0 C 189.0 53.2 229.3 8.6 281.6 2.1 L 281.6 2.1 C 282.1 2.0 282.5 2.0 283.0 2.0 L 283.0 2.0 L 283.2 2.0 C 289.7 2.0 294.9 7.3 295.0 13.8 L 295.0 13.8 L 295.0 200.2 C 295.0 200.7 295.0 201.2 294.9 201.7 L 294.9 201.7 C 294.1 207.7 289.0 212.0 283.2 212.0 L 283.2 212.0 C 282.7 212.0 282.1 212.0 281.6 211.9 "></path></clipPath><g clip-path="url(#clip-577)"><g><clipPath id="clip-578"><path d="M 1.0 2.0 L 295.0 2.0 L 295.0 212.0 L 1.0 212.0 Z M 1.0 2.0 "></path></clipPath><g clip-path="url(#clip-578)"><path d="M 1.0 2.0 L 295.0 2.0 L 295.0 212.0 L 1.0 212.0 Z M 1.0 2.0 " fill="url(#gradSh1.1)"></path></g></g></g></g><g><clipPath id="clip-579"><path d="M 1.0 212.0 L 295.0 212.0 L 295.0 2.0 L 1.0 2.0 Z M 1.0 212.0 "></path></clipPath><g clip-path="url(#clip-579)"><g><clipPath id="clip-580"><path d="M 1.0 2.0 L 295.0 2.0 L 295.0 212.0 L 1.0 212.0 Z M 1.0 2.0 "></path></clipPath><g clip-path="url(#clip-580)"><g><g><clipPath id="clip-581"><path d="M 1.0 59.6 L 261.8 59.6 L 261.8 139.8 L 1.0 139.8 Z M 1.0 59.6 "></path></clipPath><g clip-path="url(#clip-581)"><g><g><clipPath id="clip-582"><path d="M 1.0 59.6 L 261.8 59.6 L 261.8 139.8 L 1.0 139.8 Z M 1.0 59.6 "></path></clipPath><g clip-path="url(#clip-582)"><text xml:space="preserve" font-family="Lato-Hairline" font-size="72.3" fill="#020302" transform="matrix(1.00, 0.00, -0.00, -1.00, 1.0, 78.3)">D</text><text xml:space="preserve" font-family="Lato-Hairline" font-size="72.3" fill="#020302" transform="matrix(1.00, 0.00, -0.00, -1.00, 55.9, 78.3)">E</text><text xml:space="preserve" font-family="Lato-Hairline" font-size="72.3" fill="#020302" transform="matrix(1.00, 0.00, -0.00, -1.00, 98.0, 78.3)">S</text><text xml:space="preserve" font-family="Lato-Hairline" font-size="72.3" fill="#020302" transform="matrix(1.00, 0.00, -0.00, -1.00, 136.3, 78.3)">I</text><text xml:space="preserve" font-family="Lato-Hairline" font-size="72.3" fill="#020302" transform="matrix(1.00, 0.00, -0.00, -1.00, 154.0, 78.3)">G</text><text xml:space="preserve" font-family="Lato-Hairline" font-size="72.3" fill="#020302" transform="matrix(1.00, 0.00, -0.00, -1.00, 207.5, 78.3)">N</text></g></g></g></g></g></g></g></g></g></g><g><clipPath id="clip-583"><path d="M 1.0 212.0 L 295.0 212.0 L 295.0 2.0 L 1.0 2.0 Z M 1.0 212.0 "></path></clipPath><g clip-path="url(#clip-583)"><g><clipPath id="clip-584"><path d="M 1.0 2.0 L 295.0 2.0 L 295.0 212.0 L 1.0 212.0 Z M 1.0 2.0 "></path></clipPath><g clip-path="url(#clip-584)"><g opacity="0.50"><g><clipPath id="clip-585"><path d="M 2.8 6.2 L 45.2 6.2 L 45.2 74.8 L 2.8 74.8 Z M 2.8 6.2 "></path></clipPath><g clip-path="url(#clip-585)"><image xlink:href="CBD77C8382AD916162CADB42D080764B.png" width="121.00" height="196.00" transform="matrix(0.35, 0.00, -0.00, -0.35, 2.8, 74.8)"></image></g></g></g><path d="M 10.9 63.5 C 10.9 65.4 12.4 67.0 14.3 67.0 C 14.4 67.0 14.6 67.0 14.8 67.0 C 27.9 65.0 37.6 53.6 37.4 40.4 C 37.3 26.9 27.4 15.9 14.5 14.1 C 12.6 13.8 10.9 15.1 10.6 17.0 C 10.6 17.2 10.6 17.3 10.6 17.5 Z M 10.9 63.5 " fill="#020302"></path></g></g></g></g><g><clipPath id="clip-586"><path d="M 1.0 212.0 L 295.0 212.0 L 295.0 2.0 L 1.0 2.0 Z M 1.0 212.0 "></path></clipPath><g clip-path="url(#clip-586)"><g><clipPath id="clip-587"><path d="M 1.0 2.0 L 295.0 2.0 L 295.0 212.0 L 1.0 212.0 Z M 1.0 2.0 "></path></clipPath><g clip-path="url(#clip-587)"><g><g><clipPath id="clip-588"><path d="M 48.0 30.2 L 153.0 30.2 L 153.0 75.5 L 48.0 75.5 Z M 48.0 30.2 "></path></clipPath><g clip-path="url(#clip-588)"><text xml:space="preserve" font-family="Lato-Hairline" font-size="40.2" fill="#020302" transform="matrix(1.00, 0.01, 0.01, -1.00, 48.2, 40.6)">c</text><text xml:space="preserve" font-family="Lato-Hairline" font-size="40.2" fill="#020302" transform="matrix(1.00, 0.01, 0.01, -1.00, 67.0, 40.6)">r</text><text xml:space="preserve" font-family="Lato-Hairline" font-size="40.2" fill="#020302" transform="matrix(1.00, 0.01, 0.01, -1.00, 79.4, 40.6)">e</text><text xml:space="preserve" font-family="Lato-Hairline" font-size="40.2" fill="#020302" transform="matrix(1.00, 0.01, 0.01, -1.00, 100.1, 40.6)">a</text><text xml:space="preserve" font-family="Lato-Hairline" font-size="40.2" fill="#020302" transform="matrix(1.00, 0.01, 0.01, -1.00, 118.9, 40.6)">t</text><text xml:space="preserve" font-family="Lato-Hairline" font-size="40.2" fill="#020302" transform="matrix(1.00, 0.01, 0.01, -1.00, 132.1, 40.6)">e</text></g></g></g><path d="M 66.4 27.1 C 66.4 28.4 66.2 29.5 65.9 30.5 C 65.5 31.5 65.0 32.3 64.4 32.9 C 63.7 33.6 63.0 34.1 62.1 34.5 C 61.2 34.8 60.3 35.0 59.4 35.0 C 58.2 34.9 57.1 34.7 56.2 34.4 C 55.2 34.0 54.4 33.4 53.7 32.7 C 53.1 32.0 52.5 31.2 52.1 30.2 C 51.7 29.3 51.5 28.2 51.4 27.0 Z M 66.4 17.8 C 66.2 17.5 65.8 17.2 65.4 16.9 C 64.9 16.6 64.4 16.3 63.8 16.0 C 63.2 15.8 62.5 15.6 61.8 15.4 C 61.1 15.2 60.4 15.1 59.6 15.1 C 58.2 15.1 57.0 15.4 55.9 15.8 C 54.9 16.3 54.0 17.0 53.2 17.9 C 52.5 18.8 51.9 19.8 51.5 21.1 C 51.1 22.4 50.8 23.9 50.8 25.5 C 50.8 27.0 51.0 28.3 51.4 29.5 C 51.8 30.7 52.3 31.7 53.0 32.6 C 53.8 33.5 54.7 34.1 55.7 34.6 C 56.8 35.1 58.0 35.3 59.3 35.4 C 60.4 35.4 61.4 35.2 62.3 34.8 C 63.2 34.5 64.0 33.9 64.7 33.2 C 65.3 32.5 65.9 31.6 66.3 30.6 C 66.7 29.5 66.9 28.3 66.9 27.0 C 66.9 26.9 66.9 26.8 66.8 26.8 C 66.8 26.8 66.7 26.8 66.7 26.7 L 51.3 26.6 C 51.3 26.4 51.3 26.3 51.3 26.1 C 51.3 25.9 51.3 25.7 51.3 25.5 C 51.3 23.9 51.5 22.5 51.9 21.2 C 52.3 20.0 52.9 18.9 53.6 18.1 C 54.3 17.3 55.2 16.6 56.2 16.2 C 57.2 15.7 58.4 15.5 59.6 15.5 C 60.7 15.6 61.6 15.7 62.4 15.9 C 63.2 16.2 63.9 16.4 64.4 16.7 C 65.0 17.0 65.4 17.3 65.7 17.6 C 65.9 17.8 66.1 17.9 66.2 17.9 C 66.2 17.9 66.3 17.9 66.3 17.8 Z M 66.4 17.8 " fill="#020302"></path><path d="M 85.6 15.6 L 85.2 15.6 C 85.1 15.6 85.0 15.6 84.9 15.7 C 84.9 15.8 84.8 15.8 84.8 15.9 L 77.8 25.3 C 77.8 25.3 77.8 25.2 77.8 25.2 C 77.7 25.2 77.7 25.1 77.7 25.0 L 71.0 15.8 C 71.0 15.7 70.9 15.6 70.8 15.6 C 70.8 15.5 70.7 15.5 70.7 15.5 L 70.2 15.5 L 77.5 25.5 L 70.3 35.1 L 70.8 35.1 C 70.9 35.1 71.0 35.1 71.0 35.0 C 71.1 34.9 71.1 34.9 71.1 34.8 L 77.9 25.8 C 77.9 25.9 77.9 26.0 78.0 26.1 L 84.4 34.9 C 84.4 35.0 84.5 35.1 84.5 35.1 C 84.6 35.2 84.6 35.2 84.7 35.2 L 85.2 35.2 L 78.2 25.6 Z M 85.6 15.6 " fill="#020302"></path><path d="M 91.0 19.5 C 91.8 18.2 92.8 17.2 93.9 16.7 C 94.9 16.1 96.2 15.8 97.6 15.8 C 98.9 15.9 100.1 16.1 101.1 16.6 C 102.2 17.1 103.0 17.8 103.7 18.7 C 104.3 19.6 104.8 20.6 105.2 21.8 C 105.5 23.0 105.6 24.3 105.6 25.7 C 105.6 29.0 105.0 31.4 103.7 32.9 C 102.4 34.5 100.6 35.3 98.2 35.3 C 96.7 35.2 95.4 34.8 94.1 34.0 C 92.9 33.2 91.8 32.0 90.9 30.6 Z M 90.9 31.2 C 91.8 32.6 92.8 33.7 94.1 34.5 C 95.3 35.2 96.7 35.6 98.2 35.7 C 100.7 35.7 102.7 34.9 104.0 33.2 C 105.4 31.6 106.1 29.1 106.1 25.7 C 106.1 24.3 106.0 22.9 105.6 21.7 C 105.2 20.4 104.7 19.4 104.0 18.4 C 103.3 17.5 102.4 16.8 101.3 16.3 C 100.2 15.7 99.0 15.5 97.6 15.4 C 94.7 15.4 92.5 16.6 91.0 18.9 L 91.1 8.4 L 90.6 8.4 L 90.4 35.3 L 90.5 35.3 C 90.7 35.3 90.8 35.2 90.8 35.0 Z M 90.9 31.2 " fill="#020302"></path><path d="M 126.7 27.6 C 126.7 28.8 126.5 30.0 126.1 31.0 C 125.7 31.9 125.2 32.8 124.6 33.4 C 123.9 34.1 123.2 34.6 122.3 34.9 C 121.5 35.3 120.5 35.4 119.6 35.4 C 118.4 35.4 117.3 35.2 116.4 34.8 C 115.4 34.5 114.6 33.9 114.0 33.2 C 113.3 32.5 112.7 31.7 112.3 30.7 C 111.9 29.7 111.7 28.7 111.6 27.5 Z M 126.6 18.2 C 126.4 18.0 126.1 17.7 125.6 17.4 C 125.2 17.0 124.6 16.8 124.0 16.5 C 123.4 16.2 122.8 16.0 122.0 15.9 C 121.3 15.7 120.6 15.6 119.8 15.6 C 118.5 15.6 117.2 15.8 116.2 16.3 C 115.1 16.8 114.2 17.4 113.4 18.3 C 112.7 19.2 112.1 20.3 111.7 21.6 C 111.3 22.9 111.1 24.4 111.0 26.0 C 111.0 27.5 111.2 28.8 111.6 30.0 C 112.0 31.2 112.5 32.2 113.3 33.1 C 114.0 33.9 114.9 34.6 115.9 35.1 C 117.0 35.6 118.2 35.8 119.6 35.8 C 120.6 35.8 121.6 35.7 122.5 35.3 C 123.4 34.9 124.2 34.4 124.9 33.7 C 125.6 33.0 126.1 32.1 126.5 31.0 C 126.9 30.0 127.1 28.8 127.1 27.4 C 127.1 27.4 127.1 27.3 127.0 27.3 C 127.0 27.2 126.9 27.2 126.9 27.2 L 111.6 27.1 C 111.5 26.9 111.5 26.7 111.5 26.6 C 111.5 26.4 111.5 26.2 111.5 26.0 C 111.5 24.4 111.7 22.9 112.1 21.7 C 112.5 20.5 113.1 19.4 113.8 18.6 C 114.5 17.7 115.4 17.1 116.4 16.6 C 117.4 16.2 118.6 16.0 119.8 16.0 C 120.9 16.0 121.8 16.2 122.7 16.4 C 123.5 16.6 124.1 16.9 124.7 17.2 C 125.2 17.5 125.6 17.8 125.9 18.0 C 126.2 18.3 126.3 18.4 126.4 18.4 C 126.4 18.4 126.5 18.4 126.5 18.3 Z M 126.6 18.2 " fill="#020302"></path><path d="M 133.5 29.9 C 133.7 30.8 134.1 31.7 134.4 32.4 C 134.8 33.2 135.3 33.8 135.8 34.4 C 136.4 34.9 137.0 35.3 137.7 35.6 C 138.4 35.8 139.2 36.0 140.1 36.0 C 140.5 36.0 140.9 36.0 141.3 35.9 C 141.7 35.8 142.1 35.7 142.4 35.6 L 142.3 35.4 C 142.3 35.4 142.2 35.3 142.2 35.3 C 142.2 35.3 142.2 35.2 142.1 35.2 C 142.0 35.2 141.9 35.3 141.8 35.3 C 141.7 35.3 141.6 35.4 141.4 35.4 C 141.3 35.4 141.1 35.5 140.9 35.5 C 140.7 35.5 140.4 35.5 140.1 35.5 C 139.2 35.5 138.4 35.4 137.7 35.1 C 137.1 34.8 136.5 34.4 135.9 33.8 C 135.4 33.3 134.9 32.6 134.5 31.8 C 134.1 30.9 133.8 30.0 133.5 28.9 L 133.6 16.0 L 133.1 16.0 L 132.9 35.6 L 133.1 35.6 C 133.2 35.6 133.3 35.5 133.3 35.3 Z M 133.5 29.9 " fill="#020302"></path><path d="M 147.5 35.7 L 147.6 16.1 L 147.1 16.1 L 147.0 35.7 Z M 148.3 39.0 C 148.3 38.8 148.2 38.5 148.0 38.3 C 147.7 38.1 147.5 37.9 147.2 37.9 C 146.9 37.9 146.6 38.0 146.4 38.3 C 146.2 38.5 146.1 38.7 146.1 39.0 C 146.1 39.3 146.2 39.6 146.4 39.8 C 146.6 40.0 146.9 40.1 147.2 40.1 C 147.5 40.1 147.7 40.0 147.9 39.8 C 148.2 39.6 148.3 39.3 148.3 39.0 " fill="#020302"></path><path d="M 169.6 27.9 C 169.5 29.2 169.4 30.3 169.0 31.3 C 168.6 32.3 168.1 33.1 167.5 33.8 C 166.8 34.4 166.1 34.9 165.2 35.3 C 164.4 35.6 163.4 35.8 162.5 35.8 C 161.3 35.7 160.2 35.6 159.3 35.2 C 158.3 34.8 157.5 34.2 156.9 33.5 C 156.2 32.8 155.6 32.0 155.2 31.0 C 154.8 30.1 154.6 29.0 154.5 27.8 Z M 169.5 18.6 C 169.3 18.3 169.0 18.0 168.5 17.7 C 168.1 17.4 167.5 17.1 166.9 16.8 C 166.3 16.6 165.7 16.4 164.9 16.2 C 164.2 16.0 163.5 16.0 162.7 15.9 C 161.3 15.9 160.1 16.2 159.1 16.6 C 158.0 17.1 157.1 17.8 156.3 18.7 C 155.6 19.6 155.0 20.6 154.6 21.9 C 154.2 23.2 154.0 24.7 153.9 26.3 C 153.9 27.8 154.1 29.1 154.5 30.3 C 154.9 31.5 155.4 32.5 156.2 33.4 C 156.9 34.3 157.8 34.9 158.8 35.4 C 159.9 35.9 161.1 36.1 162.5 36.2 C 163.5 36.2 164.5 36.0 165.4 35.6 C 166.3 35.3 167.1 34.7 167.8 34.0 C 168.5 33.3 169.0 32.4 169.4 31.4 C 169.8 30.3 170.0 29.1 170.0 27.8 C 170.0 27.7 170.0 27.6 169.9 27.6 C 169.9 27.6 169.8 27.6 169.8 27.6 L 154.5 27.4 C 154.4 27.2 154.4 27.1 154.4 26.9 C 154.4 26.7 154.4 26.5 154.4 26.4 C 154.4 24.7 154.6 23.3 155.0 22.0 C 155.4 20.8 156.0 19.7 156.7 18.9 C 157.4 18.1 158.3 17.4 159.3 17.0 C 160.3 16.5 161.5 16.3 162.7 16.3 C 163.8 16.4 164.7 16.5 165.5 16.7 C 166.4 17.0 167.0 17.2 167.6 17.5 C 168.1 17.8 168.5 18.1 168.8 18.4 C 169.1 18.6 169.2 18.7 169.3 18.7 C 169.3 18.7 169.4 18.7 169.4 18.6 Z M 169.5 18.6 " fill="#020302"></path><path d="M 176.3 31.9 C 176.8 32.5 177.3 33.1 177.9 33.7 C 178.4 34.2 179.0 34.7 179.7 35.1 C 180.3 35.5 181.0 35.8 181.8 36.0 C 182.5 36.2 183.2 36.3 184.0 36.3 C 186.2 36.3 187.8 35.7 188.9 34.4 C 190.0 33.1 190.5 31.3 190.5 29.0 L 190.6 16.4 L 190.2 16.4 L 190.1 29.0 C 190.1 30.1 189.9 31.1 189.7 31.9 C 189.4 32.8 189.1 33.5 188.6 34.1 C 188.0 34.7 187.4 35.2 186.7 35.5 C 185.9 35.8 185.0 35.9 184.0 35.9 C 182.4 35.9 181.0 35.5 179.7 34.7 C 178.4 33.8 177.3 32.7 176.3 31.3 L 176.5 16.3 L 176.0 16.3 L 175.8 35.9 L 175.9 35.9 C 176.1 35.9 176.2 35.8 176.2 35.6 Z M 176.3 31.9 " fill="#020302"></path><path d="M 210.5 34.4 C 210.4 34.3 210.4 34.3 210.3 34.3 C 210.3 34.3 210.1 34.4 209.9 34.6 C 209.7 34.8 209.3 35.0 208.9 35.2 C 208.5 35.4 208.0 35.6 207.3 35.8 C 206.7 36.0 205.9 36.1 205.0 36.1 C 203.7 36.1 202.6 35.8 201.6 35.4 C 200.6 34.9 199.8 34.3 199.1 33.4 C 198.4 32.6 197.9 31.5 197.5 30.3 C 197.1 29.1 197.0 27.8 197.0 26.3 C 197.0 24.7 197.2 23.4 197.6 22.2 C 197.9 21.0 198.5 20.0 199.2 19.1 C 199.9 18.3 200.7 17.7 201.6 17.3 C 202.6 16.9 203.7 16.7 204.9 16.7 C 205.9 16.7 206.8 16.8 207.5 17.1 C 208.2 17.3 208.8 17.6 209.3 17.9 C 209.7 18.2 210.1 18.4 210.3 18.7 C 210.6 18.9 210.7 19.0 210.8 19.0 C 210.9 19.0 210.9 19.0 211.0 19.0 L 211.1 18.9 C 210.9 18.6 210.6 18.3 210.2 18.0 C 209.8 17.7 209.3 17.4 208.8 17.2 C 208.3 16.9 207.7 16.7 207.0 16.5 C 206.3 16.4 205.6 16.3 204.9 16.3 C 203.6 16.3 202.4 16.5 201.4 16.9 C 200.4 17.4 199.5 18.0 198.8 18.9 C 198.1 19.7 197.5 20.8 197.1 22.0 C 196.7 23.3 196.5 24.7 196.5 26.3 C 196.5 27.8 196.7 29.2 197.0 30.4 C 197.4 31.7 198.0 32.8 198.7 33.7 C 199.4 34.5 200.3 35.2 201.4 35.7 C 202.5 36.2 203.7 36.5 205.0 36.5 C 206.2 36.5 207.3 36.3 208.2 35.9 C 209.1 35.6 209.9 35.1 210.6 34.5 Z M 210.5 34.4 " fill="#020302"></path><path d="M 230.5 28.4 C 230.5 29.7 230.3 30.8 229.9 31.8 C 229.5 32.7 229.0 33.6 228.4 34.2 C 227.8 34.9 227.0 35.4 226.1 35.7 C 225.3 36.1 224.4 36.2 223.4 36.2 C 222.2 36.2 221.1 36.0 220.2 35.6 C 219.3 35.3 218.5 34.7 217.8 34.0 C 217.1 33.3 216.6 32.5 216.2 31.5 C 215.8 30.5 215.5 29.5 215.4 28.3 Z M 230.4 19.0 C 230.2 18.8 229.9 18.5 229.4 18.2 C 229.0 17.9 228.5 17.6 227.8 17.3 C 227.2 17.1 226.6 16.8 225.9 16.7 C 225.1 16.5 224.4 16.4 223.6 16.4 C 222.3 16.4 221.1 16.6 220.0 17.1 C 218.9 17.6 218.0 18.2 217.2 19.1 C 216.5 20.0 215.9 21.1 215.5 22.4 C 215.1 23.7 214.9 25.2 214.9 26.8 C 214.8 28.3 215.0 29.6 215.4 30.8 C 215.8 32.0 216.3 33.0 217.1 33.9 C 217.8 34.7 218.7 35.4 219.8 35.9 C 220.8 36.4 222.0 36.6 223.4 36.6 C 224.4 36.6 225.4 36.5 226.3 36.1 C 227.2 35.7 228.0 35.2 228.7 34.5 C 229.4 33.8 229.9 32.9 230.3 31.8 C 230.7 30.8 230.9 29.6 230.9 28.2 C 230.9 28.2 230.9 28.1 230.9 28.1 C 230.8 28.0 230.8 28.0 230.7 28.0 L 215.4 27.9 C 215.4 27.7 215.4 27.5 215.3 27.4 C 215.3 27.2 215.3 27.0 215.3 26.8 C 215.4 25.2 215.6 23.8 216.0 22.5 C 216.4 21.3 216.9 20.2 217.6 19.4 C 218.4 18.5 219.2 17.9 220.2 17.5 C 221.3 17.0 222.4 16.8 223.6 16.8 C 224.7 16.8 225.7 17.0 226.5 17.2 C 227.3 17.5 227.9 17.7 228.5 18.0 C 229.0 18.3 229.4 18.6 229.7 18.8 C 230.0 19.1 230.1 19.2 230.2 19.2 C 230.2 19.2 230.3 19.2 230.4 19.1 Z M 230.4 19.0 " fill="#020302"></path><path d="M 247.0 34.8 C 246.9 34.7 246.9 34.6 246.8 34.6 C 246.7 34.6 246.5 34.7 246.3 34.9 C 246.1 35.1 245.8 35.3 245.4 35.5 C 245.0 35.7 244.5 35.9 243.9 36.1 C 243.3 36.3 242.6 36.4 241.7 36.4 C 240.8 36.4 240.1 36.2 239.4 36.0 C 238.7 35.7 238.1 35.4 237.6 34.9 C 237.1 34.5 236.7 34.0 236.5 33.5 C 236.2 32.9 236.1 32.4 236.1 31.8 C 236.1 31.1 236.3 30.5 236.6 30.0 C 236.9 29.5 237.4 29.1 237.9 28.8 C 238.5 28.5 239.1 28.2 239.8 28.0 C 240.5 27.8 241.2 27.5 241.9 27.3 C 242.6 27.1 243.4 26.9 244.1 26.6 C 244.8 26.4 245.4 26.1 245.9 25.7 C 246.5 25.3 246.9 24.9 247.3 24.4 C 247.6 23.8 247.8 23.1 247.8 22.3 C 247.8 21.5 247.6 20.8 247.4 20.1 C 247.1 19.4 246.7 18.7 246.1 18.2 C 245.6 17.7 244.9 17.3 244.1 17.0 C 243.3 16.6 242.4 16.5 241.4 16.5 C 240.7 16.5 240.0 16.5 239.5 16.6 C 238.9 16.7 238.4 16.9 237.9 17.1 C 237.5 17.3 237.0 17.5 236.6 17.8 C 236.2 18.1 235.8 18.4 235.4 18.8 L 235.5 18.9 C 235.5 19.0 235.6 19.0 235.6 19.0 C 235.6 19.0 235.6 19.0 235.7 19.0 C 235.8 19.0 236.0 18.9 236.2 18.7 C 236.5 18.5 236.8 18.2 237.3 18.0 C 237.7 17.7 238.3 17.4 238.9 17.2 C 239.6 17.0 240.4 16.9 241.4 16.9 C 242.3 16.9 243.2 17.0 243.9 17.3 C 244.7 17.6 245.3 18.0 245.8 18.5 C 246.3 19.0 246.7 19.6 247.0 20.2 C 247.2 20.9 247.3 21.6 247.3 22.3 C 247.3 23.1 247.1 23.7 246.8 24.2 C 246.5 24.7 246.0 25.1 245.5 25.5 C 244.9 25.8 244.3 26.1 243.6 26.3 C 242.9 26.5 242.2 26.8 241.5 27.0 C 240.8 27.2 240.0 27.4 239.3 27.6 C 238.6 27.9 238.0 28.2 237.5 28.5 C 236.9 28.9 236.5 29.3 236.2 29.8 C 235.8 30.3 235.6 31.0 235.6 31.8 C 235.6 32.4 235.8 33.0 236.1 33.6 C 236.4 34.2 236.8 34.8 237.3 35.2 C 237.8 35.7 238.5 36.1 239.2 36.3 C 240.0 36.6 240.8 36.8 241.7 36.8 C 242.8 36.8 243.8 36.6 244.6 36.3 C 245.5 36.1 246.3 35.6 247.1 34.9 Z M 247.0 34.8 " fill="#020302"></path></g></g></g></g></g></g></g></g></svg>