<?xml version="1.0" encoding="UTF-8" standalone="no"?><svg xmlns="http://www.w3.org/2000/svg" xmlns:xlink="http://www.w3.org/1999/xlink" clip-rule="evenodd" stroke-miterlimit="4.00" viewBox="0 0 1024 768"><desc>SVG generated by Keynote</desc><defs></defs><g transform="matrix(1.00, 0.00, -0.00, -1.00, 0.0, 768.0)"><path d="M 0.0 768.0 L 1024.0 768.0 L 1024.0 0.0 L 0.0 0.0 Z M 0.0 768.0 " fill="#000000"></path><text xml:space="preserve" font-family="Avenir-Light" font-size="42.3" fill="#FEFFFF" transform="matrix(1.00, 0.00, -0.00, -1.00, 56.0, 674.0)">S</text><text xml:space="preserve" font-family="Avenir-Light" font-size="42.3" fill="#FEFFFF" transform="matrix(1.00, 0.00, -0.00, -1.00, 86.3, 674.0)">Y</text><text xml:space="preserve" font-family="Avenir-Light" font-size="42.3" fill="#FEFFFF" transform="matrix(1.00, 0.00, -0.00, -1.00, 117.3, 674.0)">N</text><text xml:space="preserve" font-family="Avenir-Light" font-size="42.3" fill="#FEFFFF" transform="matrix(1.00, 0.00, -0.00, -1.00, 157.0, 674.0)">T</text><text xml:space="preserve" font-family="Avenir-Light" font-size="42.3" fill="#FEFFFF" transform="matrix(1.00, 0.00, -0.00, -1.00, 188.1, 674.0)">H</text><text xml:space="preserve" font-family="Avenir-Light" font-size="42.3" fill="#FEFFFF" transform="matrix(1.00, 0.00, -0.00, -1.00, 225.4, 674.0)">È</text><text xml:space="preserve" font-family="Avenir-Light" font-size="42.3" fill="#FEFFFF" transform="matrix(1.00, 0.00, -0.00, -1.00, 257.2, 674.0)">S</text><text xml:space="preserve" font-family="Avenir-Light" font-size="42.3" fill="#FEFFFF" transform="matrix(1.00, 0.00, -0.00, -1.00, 287.5, 674.0)">E</text><text xml:space="preserve" font-family="Avenir-Light" font-size="42.3" fill="#FEFFFF" transform="matrix(1.00, 0.00, -0.00, -1.00, 319.4, 674.0)"> </text><text xml:space="preserve" font-family="Avenir-Light" font-size="42.3" fill="#FEFFFF" transform="matrix(1.00, 0.00, -0.00, -1.00, 337.1, 674.0)">A</text><text xml:space="preserve" font-family="Avenir-Light" font-size="42.3" fill="#FEFFFF" transform="matrix(1.00, 0.00, -0.00, -1.00, 370.0, 674.0)">T</text><text xml:space="preserve" font-family="Avenir-Light" font-size="42.3" fill="#FEFFFF" transform="matrix(1.00, 0.00, -0.00, -1.00, 401.0, 674.0)">E</text><text xml:space="preserve" font-family="Avenir-Light" font-size="42.3" fill="#FEFFFF" transform="matrix(1.00, 0.00, -0.00, -1.00, 432.9, 674.0)">L</text><text xml:space="preserve" font-family="Avenir-Light" font-size="42.3" fill="#FEFFFF" transform="matrix(1.00, 0.00, -0.00, -1.00, 460.8, 674.0)">I</text><text xml:space="preserve" font-family="Avenir-Light" font-size="42.3" fill="#FEFFFF" transform="matrix(1.00, 0.00, -0.00, -1.00, 478.6, 674.0)">E</text><text xml:space="preserve" font-family="Avenir-Light" font-size="42.3" fill="#FEFFFF" transform="matrix(1.00, 0.00, -0.00, -1.00, 510.4, 674.0)">R</text><text xml:space="preserve" font-family="Avenir-Light" font-size="42.3" fill="#FEFFFF" transform="matrix(1.00, 0.00, -0.00, -1.00, 542.3, 674.0)">S</text><text xml:space="preserve" font-family="Avenir-Light" font-size="42.3" fill="#FEFFFF" transform="matrix(1.00, 0.00, -0.00, -1.00, 572.6, 674.0)"> </text><text xml:space="preserve" font-family="Avenir-Light" font-size="42.3" fill="#FEFFFF" transform="matrix(1.00, 0.00, -0.00, -1.00, 590.3, 674.0)">V</text><text xml:space="preserve" font-family="Avenir-Light" font-size="42.3" fill="#FEFFFF" transform="matrix(1.00, 0.00, -0.00, -1.00, 622.2, 674.0)">I</text><text xml:space="preserve" font-family="Avenir-Light" font-size="42.3" fill="#FEFFFF" transform="matrix(1.00, 0.00, -0.00, -1.00, 640.0, 674.0)">S</text><text xml:space="preserve" font-family="Avenir-Light" font-size="42.3" fill="#FEFFFF" transform="matrix(1.00, 0.00, -0.00, -1.00, 670.2, 674.0)">I</text><text xml:space="preserve" font-family="Avenir-Light" font-size="42.3" fill="#FEFFFF" transform="matrix(1.00, 0.00, -0.00, -1.00, 688.0, 674.0)">O</text><text xml:space="preserve" font-family="Avenir-Light" font-size="42.3" fill="#FEFFFF" transform="matrix(1.00, 0.00, -0.00, -1.00, 730.1, 674.0)">N</text><text xml:space="preserve" font-family="Avenir-Light" font-size="42.3" fill="#FEFFFF" transform="matrix(1.00, 0.00, -0.00, -1.00, 769.7, 674.0)"> </text><text xml:space="preserve" font-family="Avenir-Light" font-size="42.3" fill="#FEFFFF" transform="matrix(1.00, 0.00, -0.00, -1.00, 787.5, 674.0)">1</text><text xml:space="preserve" font-family="Avenir-Light" font-size="42.3" fill="#FEFFFF" transform="matrix(1.00, 0.00, -0.00, -1.00, 816.3, 674.0)">0</text><text xml:space="preserve" font-family="Avenir-Light" font-size="42.3" fill="#FEFFFF" transform="matrix(1.00, 0.00, -0.00, -1.00, 845.0, 674.0)"> </text><text xml:space="preserve" font-family="Avenir-Light" font-size="42.3" fill="#FEFFFF" transform="matrix(1.00, 0.00, -0.00, -1.00, 862.8, 674.0)">A</text><text xml:space="preserve" font-family="Avenir-Light" font-size="42.3" fill="#FEFFFF" transform="matrix(1.00, 0.00, -0.00, -1.00, 898.5, 674.0)">N</text><text xml:space="preserve" font-family="Avenir-Light" font-size="42.3" fill="#FEFFFF" transform="matrix(1.00, 0.00, -0.00, -1.00, 938.2, 674.0)">S</text><text xml:space="preserve" font-family="Avenir-Light" font-size="31.0" fill="#FEFFFF" transform="matrix(1.00, 0.00, -0.00, -1.00, 51.0, 395.0)">h</text><text xml:space="preserve" font-family="Avenir-Light" font-size="31.0" fill="#FEFFFF" transform="matrix(1.00, 0.00, -0.00, -1.00, 68.2, 395.0)">t</text><text xml:space="preserve" font-family="Avenir-Light" font-size="31.0" fill="#FEFFFF" transform="matrix(1.00, 0.00, -0.00, -1.00, 78.6, 395.0)">t</text><text xml:space="preserve" font-family="Avenir-Light" font-size="31.0" fill="#FEFFFF" transform="matrix(1.00, 0.00, -0.00, -1.00, 88.9, 395.0)">p</text><text xml:space="preserve" font-family="Avenir-Light" font-size="31.0" fill="#FEFFFF" transform="matrix(1.00, 0.00, -0.00, -1.00, 107.9, 395.0)">s</text><text xml:space="preserve" font-family="Avenir-Light" font-size="31.0" fill="#FEFFFF" transform="matrix(1.00, 0.00, -0.00, -1.00, 121.1, 395.0)">:</text><text xml:space="preserve" font-family="Avenir-Light" font-size="31.0" fill="#FEFFFF" transform="matrix(1.00, 0.00, -0.00, -1.00, 129.1, 395.0)">/</text><text xml:space="preserve" font-family="Avenir-Light" font-size="31.0" fill="#FEFFFF" transform="matrix(1.00, 0.00, -0.00, -1.00, 140.6, 395.0)">/</text><text xml:space="preserve" font-family="Avenir-Light" font-size="31.0" fill="#FEFFFF" transform="matrix(1.00, 0.00, -0.00, -1.00, 152.1, 395.0)">d</text><text xml:space="preserve" font-family="Avenir-Light" font-size="31.0" fill="#FEFFFF" transform="matrix(1.00, 0.00, -0.00, -1.00, 171.0, 395.0)">o</text><text xml:space="preserve" font-family="Avenir-Light" font-size="31.0" fill="#FEFFFF" transform="matrix(1.00, 0.00, -0.00, -1.00, 189.4, 395.0)">c</text><text xml:space="preserve" font-family="Avenir-Light" font-size="31.0" fill="#FEFFFF" transform="matrix(1.00, 0.00, -0.00, -1.00, 204.3, 395.0)">s</text><text xml:space="preserve" font-family="Avenir-Light" font-size="31.0" fill="#FEFFFF" transform="matrix(1.00, 0.00, -0.00, -1.00, 217.5, 395.0)">.</text><text xml:space="preserve" font-family="Avenir-Light" font-size="31.0" fill="#FEFFFF" transform="matrix(1.00, 0.00, -0.00, -1.00, 225.6, 395.0)">g</text><text xml:space="preserve" font-family="Avenir-Light" font-size="31.0" fill="#FEFFFF" transform="matrix(1.00, 0.00, -0.00, -1.00, 244.5, 395.0)">o</text><text xml:space="preserve" font-family="Avenir-Light" font-size="31.0" fill="#FEFFFF" transform="matrix(1.00, 0.00, -0.00, -1.00, 262.9, 395.0)">o</text><text xml:space="preserve" font-family="Avenir-Light" font-size="31.0" fill="#FEFFFF" transform="matrix(1.00, 0.00, -0.00, -1.00, 281.4, 395.0)">g</text><text xml:space="preserve" font-family="Avenir-Light" font-size="31.0" fill="#FEFFFF" transform="matrix(1.00, 0.00, -0.00, -1.00, 300.3, 395.0)">l</text><text xml:space="preserve" font-family="Avenir-Light" font-size="31.0" fill="#FEFFFF" transform="matrix(1.00, 0.00, -0.00, -1.00, 307.7, 395.0)">e</text><text xml:space="preserve" font-family="Avenir-Light" font-size="31.0" fill="#FEFFFF" transform="matrix(1.00, 0.00, -0.00, -1.00, 325.0, 395.0)">.</text><text xml:space="preserve" font-family="Avenir-Light" font-size="31.0" fill="#FEFFFF" transform="matrix(1.00, 0.00, -0.00, -1.00, 333.0, 395.0)">c</text><text xml:space="preserve" font-family="Avenir-Light" font-size="31.0" fill="#FEFFFF" transform="matrix(1.00, 0.00, -0.00, -1.00, 347.9, 395.0)">o</text><text xml:space="preserve" font-family="Avenir-Light" font-size="31.0" fill="#FEFFFF" transform="matrix(1.00, 0.00, -0.00, -1.00, 366.4, 395.0)">m</text><text xml:space="preserve" font-family="Avenir-Light" font-size="31.0" fill="#FEFFFF" transform="matrix(1.00, 0.00, -0.00, -1.00, 392.8, 395.0)">/</text><text xml:space="preserve" font-family="Avenir-Light" font-size="31.0" fill="#FEFFFF" transform="matrix(1.00, 0.00, -0.00, -1.00, 404.2, 395.0)">d</text><text xml:space="preserve" font-family="Avenir-Light" font-size="31.0" fill="#FEFFFF" transform="matrix(1.00, 0.00, -0.00, -1.00, 423.2, 395.0)">o</text><text xml:space="preserve" font-family="Avenir-Light" font-size="31.0" fill="#FEFFFF" transform="matrix(1.00, 0.00, -0.00, -1.00, 441.6, 395.0)">c</text><text xml:space="preserve" font-family="Avenir-Light" font-size="31.0" fill="#FEFFFF" transform="matrix(1.00, 0.00, -0.00, -1.00, 456.5, 395.0)">u</text><text xml:space="preserve" font-family="Avenir-Light" font-size="31.0" fill="#FEFFFF" transform="matrix(1.00, 0.00, -0.00, -1.00, 473.7, 395.0)">m</text><text xml:space="preserve" font-family="Avenir-Light" font-size="31.0" fill="#FEFFFF" transform="matrix(1.00, 0.00, -0.00, -1.00, 500.2, 395.0)">e</text><text xml:space="preserve" font-family="Avenir-Light" font-size="31.0" fill="#FEFFFF" transform="matrix(1.00, 0.00, -0.00, -1.00, 517.4, 395.0)">n</text><text xml:space="preserve" font-family="Avenir-Light" font-size="31.0" fill="#FEFFFF" transform="matrix(1.00, 0.00, -0.00, -1.00, 534.6, 395.0)">t</text><text xml:space="preserve" font-family="Avenir-Light" font-size="31.0" fill="#FEFFFF" transform="matrix(1.00, 0.00, -0.00, -1.00, 545.0, 395.0)">/</text><text xml:space="preserve" font-family="Avenir-Light" font-size="31.0" fill="#FEFFFF" transform="matrix(1.00, 0.00, -0.00, -1.00, 556.4, 395.0)">d</text><text xml:space="preserve" font-family="Avenir-Light" font-size="31.0" fill="#FEFFFF" transform="matrix(1.00, 0.00, -0.00, -1.00, 575.4, 395.0)">/</text><text xml:space="preserve" font-family="Avenir-Light" font-size="31.0" fill="#FEFFFF" transform="matrix(1.00, 0.00, -0.00, -1.00, 586.8, 395.0)">1</text><text xml:space="preserve" font-family="Avenir-Light" font-size="31.0" fill="#FEFFFF" transform="matrix(1.00, 0.00, -0.00, -1.00, 603.0, 395.0)">O</text><text xml:space="preserve" font-family="Avenir-Light" font-size="31.0" fill="#FEFFFF" transform="matrix(1.00, 0.00, -0.00, -1.00, 628.8, 395.0)">L</text><text xml:space="preserve" font-family="Avenir-Light" font-size="31.0" fill="#FEFFFF" transform="matrix(1.00, 0.00, -0.00, -1.00, 644.3, 395.0)">O</text><text xml:space="preserve" font-family="Avenir-Light" font-size="31.0" fill="#FEFFFF" transform="matrix(1.00, 0.00, -0.00, -1.00, 670.2, 395.0)">l</text><text xml:space="preserve" font-family="Avenir-Light" font-size="31.0" fill="#FEFFFF" transform="matrix(1.00, 0.00, -0.00, -1.00, 677.6, 395.0)">F</text><text xml:space="preserve" font-family="Avenir-Light" font-size="31.0" fill="#FEFFFF" transform="matrix(1.00, 0.00, -0.00, -1.00, 694.8, 395.0)">i</text><text xml:space="preserve" font-family="Avenir-Light" font-size="31.0" fill="#FEFFFF" transform="matrix(1.00, 0.00, -0.00, -1.00, 702.3, 395.0)">A</text><text xml:space="preserve" font-family="Avenir-Light" font-size="31.0" fill="#FEFFFF" transform="matrix(1.00, 0.00, -0.00, -1.00, 723.5, 395.0)">k</text><text xml:space="preserve" font-family="Avenir-Light" font-size="31.0" fill="#FEFFFF" transform="matrix(1.00, 0.00, -0.00, -1.00, 738.4, 395.0)">e</text><text xml:space="preserve" font-family="Avenir-Light" font-size="31.0" fill="#FEFFFF" transform="matrix(1.00, 0.00, -0.00, -1.00, 755.7, 395.0)">V</text><text xml:space="preserve" font-family="Avenir-Light" font-size="31.0" fill="#FEFFFF" transform="matrix(1.00, 0.00, -0.00, -1.00, 774.0, 395.0)">c</text><text xml:space="preserve" font-family="Avenir-Light" font-size="31.0" fill="#FEFFFF" transform="matrix(1.00, 0.00, -0.00, -1.00, 789.0, 395.0)">B</text><text xml:space="preserve" font-family="Avenir-Light" font-size="31.0" fill="#FEFFFF" transform="matrix(1.00, 0.00, -0.00, -1.00, 808.5, 395.0)">W</text><text xml:space="preserve" font-family="Avenir-Light" font-size="31.0" fill="#FEFFFF" transform="matrix(1.00, 0.00, -0.00, -1.00, 837.7, 395.0)">I</text><text xml:space="preserve" font-family="Avenir-Light" font-size="31.0" fill="#FEFFFF" transform="matrix(1.00, 0.00, -0.00, -1.00, 845.8, 395.0)">W</text><text xml:space="preserve" font-family="Avenir-Light" font-size="31.0" fill="#FEFFFF" transform="matrix(1.00, 0.00, -0.00, -1.00, 875.1, 395.0)">p</text><text xml:space="preserve" font-family="Avenir-Light" font-size="31.0" fill="#FEFFFF" transform="matrix(1.00, 0.00, -0.00, -1.00, 894.0, 395.0)">j</text><text xml:space="preserve" font-family="Avenir-Light" font-size="31.0" fill="#FEFFFF" transform="matrix(1.00, 0.00, -0.00, -1.00, 901.5, 395.0)">K</text><text xml:space="preserve" font-family="Avenir-Light" font-size="31.0" fill="#FEFFFF" transform="matrix(1.00, 0.00, -0.00, -1.00, 920.4, 395.0)">B</text><text xml:space="preserve" font-family="Avenir-Light" font-size="31.0" fill="#FEFFFF" transform="matrix(1.00, 0.00, -0.00, -1.00, 939.9, 395.0)">w</text><text xml:space="preserve" font-family="Avenir-Light" font-size="31.0" fill="#FEFFFF" transform="matrix(1.00, 0.00, -0.00, -1.00, 961.7, 395.0)">-</text><text xml:space="preserve" font-family="Avenir-Light" font-size="31.0" fill="#FEFFFF" transform="matrix(1.00, 0.00, -0.00, -1.00, 270.0, 353.0)">k</text><text xml:space="preserve" font-family="Avenir-Light" font-size="31.0" fill="#FEFFFF" transform="matrix(1.00, 0.00, -0.00, -1.00, 284.9, 353.0)">A</text><text xml:space="preserve" font-family="Avenir-Light" font-size="31.0" fill="#FEFFFF" transform="matrix(1.00, 0.00, -0.00, -1.00, 306.1, 353.0)">m</text><text xml:space="preserve" font-family="Avenir-Light" font-size="31.0" fill="#FEFFFF" transform="matrix(1.00, 0.00, -0.00, -1.00, 332.6, 353.0)">N</text><text xml:space="preserve" font-family="Avenir-Light" font-size="31.0" fill="#FEFFFF" transform="matrix(1.00, 0.00, -0.00, -1.00, 356.7, 353.0)">D</text><text xml:space="preserve" font-family="Avenir-Light" font-size="31.0" fill="#FEFFFF" transform="matrix(1.00, 0.00, -0.00, -1.00, 379.6, 353.0)">6</text><text xml:space="preserve" font-family="Avenir-Light" font-size="31.0" fill="#FEFFFF" transform="matrix(1.00, 0.00, -0.00, -1.00, 395.8, 353.0)">6</text><text xml:space="preserve" font-family="Avenir-Light" font-size="31.0" fill="#FEFFFF" transform="matrix(1.00, 0.00, -0.00, -1.00, 411.9, 353.0)">I</text><text xml:space="preserve" font-family="Avenir-Light" font-size="31.0" fill="#FEFFFF" transform="matrix(1.00, 0.00, -0.00, -1.00, 419.9, 353.0)">4</text><text xml:space="preserve" font-family="Avenir-Light" font-size="31.0" fill="#FEFFFF" transform="matrix(1.00, 0.00, -0.00, -1.00, 436.1, 353.0)">B</text><text xml:space="preserve" font-family="Avenir-Light" font-size="31.0" fill="#FEFFFF" transform="matrix(1.00, 0.00, -0.00, -1.00, 455.6, 353.0)">Z</text><text xml:space="preserve" font-family="Avenir-Light" font-size="31.0" fill="#FEFFFF" transform="matrix(1.00, 0.00, -0.00, -1.00, 472.8, 353.0)">g</text><text xml:space="preserve" font-family="Avenir-Light" font-size="31.0" fill="#FEFFFF" transform="matrix(1.00, 0.00, -0.00, -1.00, 491.8, 353.0)">w</text><text xml:space="preserve" font-family="Avenir-Light" font-size="31.0" fill="#FEFFFF" transform="matrix(1.00, 0.00, -0.00, -1.00, 513.6, 353.0)">S</text><text xml:space="preserve" font-family="Avenir-Light" font-size="31.0" fill="#FEFFFF" transform="matrix(1.00, 0.00, -0.00, -1.00, 530.8, 353.0)">p</text><text xml:space="preserve" font-family="Avenir-Light" font-size="31.0" fill="#FEFFFF" transform="matrix(1.00, 0.00, -0.00, -1.00, 549.8, 353.0)">n</text><text xml:space="preserve" font-family="Avenir-Light" font-size="31.0" fill="#FEFFFF" transform="matrix(1.00, 0.00, -0.00, -1.00, 567.0, 353.0)">J</text><text xml:space="preserve" font-family="Avenir-Light" font-size="31.0" fill="#FEFFFF" transform="matrix(1.00, 0.00, -0.00, -1.00, 582.0, 353.0)">8</text><text xml:space="preserve" font-family="Avenir-Light" font-size="31.0" fill="#FEFFFF" transform="matrix(1.00, 0.00, -0.00, -1.00, 598.1, 353.0)">p</text><text xml:space="preserve" font-family="Avenir-Light" font-size="31.0" fill="#FEFFFF" transform="matrix(1.00, 0.00, -0.00, -1.00, 617.0, 353.0)">d</text><text xml:space="preserve" font-family="Avenir-Light" font-size="31.0" fill="#FEFFFF" transform="matrix(1.00, 0.00, -0.00, -1.00, 636.0, 353.0)">S</text><text xml:space="preserve" font-family="Avenir-Light" font-size="31.0" fill="#FEFFFF" transform="matrix(1.00, 0.00, -0.00, -1.00, 653.2, 353.0)">E</text><text xml:space="preserve" font-family="Avenir-Light" font-size="31.0" fill="#FEFFFF" transform="matrix(1.00, 0.00, -0.00, -1.00, 671.6, 353.0)">/</text><text xml:space="preserve" font-family="Avenir-Light" font-size="31.0" fill="#FEFFFF" transform="matrix(1.00, 0.00, -0.00, -1.00, 683.0, 353.0)">e</text><text xml:space="preserve" font-family="Avenir-Light" font-size="31.0" fill="#FEFFFF" transform="matrix(1.00, 0.00, -0.00, -1.00, 700.3, 353.0)">d</text><text xml:space="preserve" font-family="Avenir-Light" font-size="31.0" fill="#FEFFFF" transform="matrix(1.00, 0.00, -0.00, -1.00, 719.3, 353.0)">i</text><text xml:space="preserve" font-family="Avenir-Light" font-size="31.0" fill="#FEFFFF" transform="matrix(1.00, 0.00, -0.00, -1.00, 726.7, 353.0)">t</text><text xml:space="preserve" font-family="Avenir-Light" font-size="31.0" fill="#FEFFFF" transform="matrix(1.00, 0.00, -0.00, -1.00, 737.0, 353.0)">#</text></g></svg>