<?xml version="1.0" encoding="UTF-8" standalone="no"?><svg xmlns="http://www.w3.org/2000/svg" xmlns:xlink="http://www.w3.org/1999/xlink" clip-rule="evenodd" stroke-miterlimit="4.00" viewBox="0 0 960 540"><desc>SVG generated by Keynote</desc><defs></defs><g transform="matrix(1.00, 0.00, -0.00, -1.00, 0.0, 540.0)"><path d="M 0.0 540.0 L 960.0 540.0 L 960.0 0.0 L 0.0 0.0 Z M 0.0 540.0 " fill="#FFFFFF"></path><image xlink:href="DE6406978F8E4138B2FBEBCE6B980FCC.png" width="713.00" height="539.00" transform="matrix(1.35, 0.00, -0.00, -1.36, -3.0, 648.0)"></image><text xml:space="preserve" font-family="Lato-Regular" font-size="37.0" fill="#FFFFFF" transform="matrix(1.00, 0.00, -0.00, -1.00, 325.0, 323.0)">M</text><text xml:space="preserve" font-family="Lato-Regular" font-size="37.0" fill="#FFFFFF" transform="matrix(1.00, 0.00, -0.00, -1.00, 358.8, 323.0)">a</text><text xml:space="preserve" font-family="Lato-Regular" font-size="37.0" fill="#FFFFFF" transform="matrix(1.00, 0.00, -0.00, -1.00, 377.2, 323.0)">i</text><text xml:space="preserve" font-family="Lato-Regular" font-size="37.0" fill="#FFFFFF" transform="matrix(1.00, 0.00, -0.00, -1.00, 386.1, 323.0)">s</text><text xml:space="preserve" font-family="Lato-Regular" font-size="37.0" fill="#FFFFFF" transform="matrix(1.00, 0.00, -0.00, -1.00, 402.1, 323.0)"> </text><text xml:space="preserve" font-family="Lato-Regular" font-size="37.0" fill="#FFFFFF" transform="matrix(1.00, 0.00, -0.00, -1.00, 411.5, 323.0)">c</text><text xml:space="preserve" font-family="Lato-Regular" font-size="37.0" fill="#FFFFFF" transform="matrix(1.00, 0.00, -0.00, -1.00, 428.9, 323.0)">e</text><text xml:space="preserve" font-family="Lato-Regular" font-size="37.0" fill="#FFFFFF" transform="matrix(1.00, 0.00, -0.00, -1.00, 448.4, 323.0)"> </text><text xml:space="preserve" font-family="Lato-Regular" font-size="37.0" fill="#FFFFFF" transform="matrix(1.00, 0.00, -0.00, -1.00, 457.9, 323.0)">n</text><text xml:space="preserve" font-family="Lato-Regular" font-size="37.0" fill="#FFFFFF" transform="matrix(1.00, 0.00, -0.00, -1.00, 477.9, 323.0)">’</text><text xml:space="preserve" font-family="Lato-Regular" font-size="37.0" fill="#FFFFFF" transform="matrix(1.00, 0.00, -0.00, -1.00, 484.6, 323.0)">e</text><text xml:space="preserve" font-family="Lato-Regular" font-size="37.0" fill="#FFFFFF" transform="matrix(1.00, 0.00, -0.00, -1.00, 504.2, 323.0)">s</text><text xml:space="preserve" font-family="Lato-Regular" font-size="37.0" fill="#FFFFFF" transform="matrix(1.00, 0.00, -0.00, -1.00, 520.2, 323.0)">t</text><text xml:space="preserve" font-family="Lato-Regular" font-size="37.0" fill="#FFFFFF" transform="matrix(1.00, 0.00, -0.00, -1.00, 533.4, 323.0)"> </text><text xml:space="preserve" font-family="Lato-Regular" font-size="37.0" fill="#FFFFFF" transform="matrix(1.00, 0.00, -0.00, -1.00, 542.9, 323.0)">p</text><text xml:space="preserve" font-family="Lato-Regular" font-size="37.0" fill="#FFFFFF" transform="matrix(1.00, 0.00, -0.00, -1.00, 563.6, 323.0)">a</text><text xml:space="preserve" font-family="Lato-Regular" font-size="37.0" fill="#FFFFFF" transform="matrix(1.00, 0.00, -0.00, -1.00, 582.0, 323.0)">s</text><text xml:space="preserve" font-family="Lato-Regular" font-size="37.0" fill="#FFFFFF" transform="matrix(1.00, 0.00, -0.00, -1.00, 598.0, 323.0)"> </text><text xml:space="preserve" font-family="Lato-Regular" font-size="37.0" fill="#FFFFFF" transform="matrix(1.00, 0.00, -0.00, -1.00, 353.0, 278.0)">s</text><text xml:space="preserve" font-family="Lato-Regular" font-size="37.0" fill="#FFFFFF" transform="matrix(1.00, 0.00, -0.00, -1.00, 369.0, 278.0)">o</text><text xml:space="preserve" font-family="Lato-Regular" font-size="37.0" fill="#FFFFFF" transform="matrix(1.00, 0.00, -0.00, -1.00, 390.0, 278.0)">u</text><text xml:space="preserve" font-family="Lato-Regular" font-size="37.0" fill="#FFFFFF" transform="matrix(1.00, 0.00, -0.00, -1.00, 410.6, 278.0)">v</text><text xml:space="preserve" font-family="Lato-Regular" font-size="37.0" fill="#FFFFFF" transform="matrix(1.00, 0.00, -0.00, -1.00, 429.2, 278.0)">e</text><text xml:space="preserve" font-family="Lato-Regular" font-size="37.0" fill="#FFFFFF" transform="matrix(1.00, 0.00, -0.00, -1.00, 448.7, 278.0)">n</text><text xml:space="preserve" font-family="Lato-Regular" font-size="37.0" fill="#FFFFFF" transform="matrix(1.00, 0.00, -0.00, -1.00, 469.1, 278.0)">t</text><text xml:space="preserve" font-family="Lato-Regular" font-size="37.0" fill="#FFFFFF" transform="matrix(1.00, 0.00, -0.00, -1.00, 482.4, 278.0)"> </text><text xml:space="preserve" font-family="Lato-Regular" font-size="37.0" fill="#FFFFFF" transform="matrix(1.00, 0.00, -0.00, -1.00, 491.8, 278.0)">b</text><text xml:space="preserve" font-family="Lato-Regular" font-size="37.0" fill="#FFFFFF" transform="matrix(1.00, 0.00, -0.00, -1.00, 512.5, 278.0)">e</text><text xml:space="preserve" font-family="Lato-Regular" font-size="37.0" fill="#FFFFFF" transform="matrix(1.00, 0.00, -0.00, -1.00, 532.1, 278.0)">a</text><text xml:space="preserve" font-family="Lato-Regular" font-size="37.0" fill="#FFFFFF" transform="matrix(1.00, 0.00, -0.00, -1.00, 550.5, 278.0)">u</text><text xml:space="preserve" font-family="Lato-Regular" font-size="37.0" fill="#FFFFFF" transform="matrix(1.00, 0.00, -0.00, -1.00, 571.1, 278.0)"> </text><text xml:space="preserve" font-family="Lato-Regular" font-size="37.0" fill="#FFFFFF" transform="matrix(1.00, 0.00, -0.00, -1.00, 312.0, 233.0)">e</text><text xml:space="preserve" font-family="Lato-Regular" font-size="37.0" fill="#FFFFFF" transform="matrix(1.00, 0.00, -0.00, -1.00, 331.4, 233.0)">t</text><text xml:space="preserve" font-family="Lato-Regular" font-size="37.0" fill="#FFFFFF" transform="matrix(1.00, 0.00, -0.00, -1.00, 344.7, 233.0)"> </text><text xml:space="preserve" font-family="Lato-Regular" font-size="37.0" fill="#FFFFFF" transform="matrix(1.00, 0.00, -0.00, -1.00, 354.1, 233.0)">s</text><text xml:space="preserve" font-family="Lato-Regular" font-size="37.0" fill="#FFFFFF" transform="matrix(1.00, 0.00, -0.00, -1.00, 370.1, 233.0)">o</text><text xml:space="preserve" font-family="Lato-Regular" font-size="37.0" fill="#FFFFFF" transform="matrix(1.00, 0.00, -0.00, -1.00, 391.1, 233.0)">u</text><text xml:space="preserve" font-family="Lato-Regular" font-size="37.0" fill="#FFFFFF" transform="matrix(1.00, 0.00, -0.00, -1.00, 411.7, 233.0)">v</text><text xml:space="preserve" font-family="Lato-Regular" font-size="37.0" fill="#FFFFFF" transform="matrix(1.00, 0.00, -0.00, -1.00, 430.3, 233.0)">e</text><text xml:space="preserve" font-family="Lato-Regular" font-size="37.0" fill="#FFFFFF" transform="matrix(1.00, 0.00, -0.00, -1.00, 449.8, 233.0)">n</text><text xml:space="preserve" font-family="Lato-Regular" font-size="37.0" fill="#FFFFFF" transform="matrix(1.00, 0.00, -0.00, -1.00, 470.2, 233.0)">t</text><text xml:space="preserve" font-family="Lato-Regular" font-size="37.0" fill="#FFFFFF" transform="matrix(1.00, 0.00, -0.00, -1.00, 483.5, 233.0)"> </text><text xml:space="preserve" font-family="Lato-Regular" font-size="37.0" fill="#FFFFFF" transform="matrix(1.00, 0.00, -0.00, -1.00, 492.9, 233.0)">d</text><text xml:space="preserve" font-family="Lato-Regular" font-size="37.0" fill="#FFFFFF" transform="matrix(1.00, 0.00, -0.00, -1.00, 513.7, 233.0)">e</text><text xml:space="preserve" font-family="Lato-Regular" font-size="37.0" fill="#FFFFFF" transform="matrix(1.00, 0.00, -0.00, -1.00, 533.2, 233.0)">s</text><text xml:space="preserve" font-family="Lato-Regular" font-size="37.0" fill="#FFFFFF" transform="matrix(1.00, 0.00, -0.00, -1.00, 549.2, 233.0)">t</text><text xml:space="preserve" font-family="Lato-Regular" font-size="37.0" fill="#FFFFFF" transform="matrix(1.00, 0.00, -0.00, -1.00, 562.5, 233.0)">i</text><text xml:space="preserve" font-family="Lato-Regular" font-size="37.0" fill="#FFFFFF" transform="matrix(1.00, 0.00, -0.00, -1.00, 571.4, 233.0)">n</text><text xml:space="preserve" font-family="Lato-Regular" font-size="37.0" fill="#FFFFFF" transform="matrix(1.00, 0.00, -0.00, -1.00, 592.0, 233.0)">é</text><text xml:space="preserve" font-family="Lato-Regular" font-size="37.0" fill="#FFFFFF" transform="matrix(1.00, 0.00, -0.00, -1.00, 611.5, 233.0)"> </text><text xml:space="preserve" font-family="Lato-Regular" font-size="37.0" fill="#FFFFFF" transform="matrix(1.00, 0.00, -0.00, -1.00, 313.0, 188.0)">à</text><text xml:space="preserve" font-family="Lato-Regular" font-size="37.0" fill="#FFFFFF" transform="matrix(1.00, 0.00, -0.00, -1.00, 331.4, 188.0)"> </text><text xml:space="preserve" font-family="Lato-Regular" font-size="37.0" fill="#FFFFFF" transform="matrix(1.00, 0.00, -0.00, -1.00, 340.9, 188.0)">u</text><text xml:space="preserve" font-family="Lato-Regular" font-size="37.0" fill="#FFFFFF" transform="matrix(1.00, 0.00, -0.00, -1.00, 361.5, 188.0)">n</text><text xml:space="preserve" font-family="Lato-Regular" font-size="37.0" fill="#FFFFFF" transform="matrix(1.00, 0.00, -0.00, -1.00, 382.1, 188.0)"> </text><text xml:space="preserve" font-family="Lato-Regular" font-size="37.0" fill="#FFFFFF" transform="matrix(1.00, 0.00, -0.00, -1.00, 391.6, 188.0)">u</text><text xml:space="preserve" font-family="Lato-Regular" font-size="37.0" fill="#FFFFFF" transform="matrix(1.00, 0.00, -0.00, -1.00, 412.2, 188.0)">s</text><text xml:space="preserve" font-family="Lato-Regular" font-size="37.0" fill="#FFFFFF" transform="matrix(1.00, 0.00, -0.00, -1.00, 428.2, 188.0)">a</text><text xml:space="preserve" font-family="Lato-Regular" font-size="37.0" fill="#FFFFFF" transform="matrix(1.00, 0.00, -0.00, -1.00, 446.6, 188.0)">g</text><text xml:space="preserve" font-family="Lato-Regular" font-size="37.0" fill="#FFFFFF" transform="matrix(1.00, 0.00, -0.00, -1.00, 465.6, 188.0)">e</text><text xml:space="preserve" font-family="Lato-Regular" font-size="37.0" fill="#FFFFFF" transform="matrix(1.00, 0.00, -0.00, -1.00, 485.1, 188.0)"> </text><text xml:space="preserve" font-family="Lato-Regular" font-size="37.0" fill="#FFFFFF" transform="matrix(1.00, 0.00, -0.00, -1.00, 494.6, 188.0)">i</text><text xml:space="preserve" font-family="Lato-Regular" font-size="37.0" fill="#FFFFFF" transform="matrix(1.00, 0.00, -0.00, -1.00, 503.4, 188.0)">n</text><text xml:space="preserve" font-family="Lato-Regular" font-size="37.0" fill="#FFFFFF" transform="matrix(1.00, 0.00, -0.00, -1.00, 523.8, 188.0)">t</text><text xml:space="preserve" font-family="Lato-Regular" font-size="37.0" fill="#FFFFFF" transform="matrix(1.00, 0.00, -0.00, -1.00, 537.0, 188.0)">e</text><text xml:space="preserve" font-family="Lato-Regular" font-size="37.0" fill="#FFFFFF" transform="matrix(1.00, 0.00, -0.00, -1.00, 556.5, 188.0)">r</text><text xml:space="preserve" font-family="Lato-Regular" font-size="37.0" fill="#FFFFFF" transform="matrix(1.00, 0.00, -0.00, -1.00, 570.0, 188.0)">n</text><text xml:space="preserve" font-family="Lato-Regular" font-size="37.0" fill="#FFFFFF" transform="matrix(1.00, 0.00, -0.00, -1.00, 590.6, 188.0)">e</text></g></svg>