<?xml version="1.0" encoding="UTF-8" standalone="no"?><svg xmlns="http://www.w3.org/2000/svg" xmlns:xlink="http://www.w3.org/1999/xlink" clip-rule="evenodd" stroke-miterlimit="4.00" viewBox="0 0 178 104"><desc>SVG generated by Keynote</desc><defs></defs><g transform="matrix(1.00, 0.00, -0.00, -1.00, 0.0, 104.0)"><text xml:space="preserve" font-family="Lato-Thin" font-size="32.0" fill="#FFFFFF" transform="matrix(1.00, 0.00, -0.00, -1.00, 33.0, 78.0)">D</text><text xml:space="preserve" font-family="Lato-Thin" font-size="32.0" fill="#FFFFFF" transform="matrix(1.00, 0.00, -0.00, -1.00, 57.3, 78.0)">’</text><text xml:space="preserve" font-family="Lato-Thin" font-size="32.0" fill="#FFFFFF" transform="matrix(1.00, 0.00, -0.00, -1.00, 62.8, 78.0)">a</text><text xml:space="preserve" font-family="Lato-Thin" font-size="32.0" fill="#FFFFFF" transform="matrix(1.00, 0.00, -0.00, -1.00, 78.1, 78.0)">u</text><text xml:space="preserve" font-family="Lato-Thin" font-size="32.0" fill="#FFFFFF" transform="matrix(1.00, 0.00, -0.00, -1.00, 95.5, 78.0)">t</text><text xml:space="preserve" font-family="Lato-Thin" font-size="32.0" fill="#FFFFFF" transform="matrix(1.00, 0.00, -0.00, -1.00, 106.2, 78.0)">r</text><text xml:space="preserve" font-family="Lato-Thin" font-size="32.0" fill="#FFFFFF" transform="matrix(1.00, 0.00, -0.00, -1.00, 116.3, 78.0)">e</text><text xml:space="preserve" font-family="Lato-Thin" font-size="32.0" fill="#FFFFFF" transform="matrix(1.00, 0.00, -0.00, -1.00, 132.9, 78.0)">s</text><text xml:space="preserve" font-family="Lato-Thin" font-size="32.0" fill="#FFFFFF" transform="matrix(1.00, 0.00, -0.00, -1.00, 146.3, 78.0)"> </text><text xml:space="preserve" font-family="Lato-Thin" font-size="32.0" fill="#FFFFFF" transform="matrix(1.00, 0.00, -0.00, -1.00, 19.0, 43.0)">a</text><text xml:space="preserve" font-family="Lato-Thin" font-size="32.0" fill="#FFFFFF" transform="matrix(1.00, 0.00, -0.00, -1.00, 34.3, 43.0)">i</text><text xml:space="preserve" font-family="Lato-Thin" font-size="32.0" fill="#FFFFFF" transform="matrix(1.00, 0.00, -0.00, -1.00, 41.1, 43.0)">m</text><text xml:space="preserve" font-family="Lato-Thin" font-size="32.0" fill="#FFFFFF" transform="matrix(1.00, 0.00, -0.00, -1.00, 66.6, 43.0)">e</text><text xml:space="preserve" font-family="Lato-Thin" font-size="32.0" fill="#FFFFFF" transform="matrix(1.00, 0.00, -0.00, -1.00, 83.1, 43.0)">r</text><text xml:space="preserve" font-family="Lato-Thin" font-size="32.0" fill="#FFFFFF" transform="matrix(1.00, 0.00, -0.00, -1.00, 93.9, 43.0)">a</text><text xml:space="preserve" font-family="Lato-Thin" font-size="32.0" fill="#FFFFFF" transform="matrix(1.00, 0.00, -0.00, -1.00, 109.1, 43.0)">i</text><text xml:space="preserve" font-family="Lato-Thin" font-size="32.0" fill="#FFFFFF" transform="matrix(1.00, 0.00, -0.00, -1.00, 116.0, 43.0)">e</text><text xml:space="preserve" font-family="Lato-Thin" font-size="32.0" fill="#FFFFFF" transform="matrix(1.00, 0.00, -0.00, -1.00, 132.6, 43.0)">n</text><text xml:space="preserve" font-family="Lato-Thin" font-size="32.0" fill="#FFFFFF" transform="matrix(1.00, 0.00, -0.00, -1.00, 149.8, 43.0)">t</text><text xml:space="preserve" font-family="Lato-Thin" font-size="32.0" fill="#FFFFFF" transform="matrix(1.00, 0.00, -0.00, -1.00, 160.5, 43.0)"> </text><text xml:space="preserve" font-family="Lato-Thin" font-size="32.0" fill="#FFFFFF" transform="matrix(1.00, 0.00, -0.00, -1.00, 1.0, 8.0)">a</text><text xml:space="preserve" font-family="Lato-Thin" font-size="32.0" fill="#FFFFFF" transform="matrix(1.00, 0.00, -0.00, -1.00, 16.3, 8.0)">l</text><text xml:space="preserve" font-family="Lato-Thin" font-size="32.0" fill="#FFFFFF" transform="matrix(1.00, 0.00, -0.00, -1.00, 23.1, 8.0)">l</text><text xml:space="preserve" font-family="Lato-Thin" font-size="32.0" fill="#FFFFFF" transform="matrix(1.00, 0.00, -0.00, -1.00, 29.9, 8.0)">e</text><text xml:space="preserve" font-family="Lato-Thin" font-size="32.0" fill="#FFFFFF" transform="matrix(1.00, 0.00, -0.00, -1.00, 46.5, 8.0)">r</text><text xml:space="preserve" font-family="Lato-Thin" font-size="32.0" fill="#FFFFFF" transform="matrix(1.00, 0.00, -0.00, -1.00, 56.9, 8.0)"> </text><text xml:space="preserve" font-family="Lato-Thin" font-size="32.0" fill="#FFFFFF" transform="matrix(1.00, 0.00, -0.00, -1.00, 65.8, 8.0)">p</text><text xml:space="preserve" font-family="Lato-Thin" font-size="32.0" fill="#FFFFFF" transform="matrix(1.00, 0.00, -0.00, -1.00, 83.3, 8.0)">l</text><text xml:space="preserve" font-family="Lato-Thin" font-size="32.0" fill="#FFFFFF" transform="matrix(1.00, 0.00, -0.00, -1.00, 90.1, 8.0)">u</text><text xml:space="preserve" font-family="Lato-Thin" font-size="32.0" fill="#FFFFFF" transform="matrix(1.00, 0.00, -0.00, -1.00, 107.5, 8.0)">s</text><text xml:space="preserve" font-family="Lato-Thin" font-size="32.0" fill="#FFFFFF" transform="matrix(1.00, 0.00, -0.00, -1.00, 121.0, 8.0)"> </text><text xml:space="preserve" font-family="Lato-Thin" font-size="32.0" fill="#FFFFFF" transform="matrix(1.00, 0.00, -0.00, -1.00, 129.9, 8.0)">l</text><text xml:space="preserve" font-family="Lato-Thin" font-size="32.0" fill="#FFFFFF" transform="matrix(1.00, 0.00, -0.00, -1.00, 136.7, 8.0)">o</text><text xml:space="preserve" font-family="Lato-Thin" font-size="32.0" fill="#FFFFFF" transform="matrix(1.00, 0.00, -0.00, -1.00, 154.4, 8.0)">i</text><text xml:space="preserve" font-family="Lato-Thin" font-size="32.0" fill="#FFFFFF" transform="matrix(1.00, 0.00, -0.00, -1.00, 161.3, 8.0)">n</text></g></svg>