<?xml version="1.0" encoding="UTF-8" standalone="no"?><svg xmlns="http://www.w3.org/2000/svg" xmlns:xlink="http://www.w3.org/1999/xlink" clip-rule="evenodd" stroke-miterlimit="4.00" viewBox="0 0 249 20"><desc>SVG generated by Keynote</desc><defs></defs><g transform="matrix(1.00, 0.00, -0.00, -1.00, 0.0, 20.0)"><text xml:space="preserve" font-family="Lato-Thin" font-size="18.0" fill="#FFFFFF" transform="matrix(1.00, 0.00, -0.00, -1.00, 0.0, 2.0)">C</text><text xml:space="preserve" font-family="Lato-Thin" font-size="18.0" fill="#FFFFFF" transform="matrix(1.00, 0.00, -0.00, -1.00, 12.2, 2.0)">A</text><text xml:space="preserve" font-family="Lato-Thin" font-size="18.0" fill="#FFFFFF" transform="matrix(1.00, 0.00, -0.00, -1.00, 23.8, 2.0)">R</text><text xml:space="preserve" font-family="Lato-Thin" font-size="18.0" fill="#FFFFFF" transform="matrix(1.00, 0.00, -0.00, -1.00, 34.6, 2.0)">A</text><text xml:space="preserve" font-family="Lato-Thin" font-size="18.0" fill="#FFFFFF" transform="matrix(1.00, 0.00, -0.00, -1.00, 45.9, 2.0)">C</text><text xml:space="preserve" font-family="Lato-Thin" font-size="18.0" fill="#FFFFFF" transform="matrix(1.00, 0.00, -0.00, -1.00, 58.2, 2.0)">T</text><text xml:space="preserve" font-family="Lato-Thin" font-size="18.0" fill="#FFFFFF" transform="matrix(1.00, 0.00, -0.00, -1.00, 68.5, 2.0)">È</text><text xml:space="preserve" font-family="Lato-Thin" font-size="18.0" fill="#FFFFFF" transform="matrix(1.00, 0.00, -0.00, -1.00, 78.9, 2.0)">R</text><text xml:space="preserve" font-family="Lato-Thin" font-size="18.0" fill="#FFFFFF" transform="matrix(1.00, 0.00, -0.00, -1.00, 89.7, 2.0)">E</text><text xml:space="preserve" font-family="Lato-Thin" font-size="18.0" fill="#FFFFFF" transform="matrix(1.00, 0.00, -0.00, -1.00, 100.1, 2.0)"> </text><text xml:space="preserve" font-family="Lato-Thin" font-size="18.0" fill="#FFFFFF" transform="matrix(1.00, 0.00, -0.00, -1.00, 105.2, 2.0)">U</text><text xml:space="preserve" font-family="Lato-Thin" font-size="18.0" fill="#FFFFFF" transform="matrix(1.00, 0.00, -0.00, -1.00, 118.2, 2.0)">N</text><text xml:space="preserve" font-family="Lato-Thin" font-size="18.0" fill="#FFFFFF" transform="matrix(1.00, 0.00, -0.00, -1.00, 131.7, 2.0)">I</text><text xml:space="preserve" font-family="Lato-Thin" font-size="18.0" fill="#FFFFFF" transform="matrix(1.00, 0.00, -0.00, -1.00, 136.2, 2.0)">C</text><text xml:space="preserve" font-family="Lato-Thin" font-size="18.0" fill="#FFFFFF" transform="matrix(1.00, 0.00, -0.00, -1.00, 148.2, 2.0)">O</text><text xml:space="preserve" font-family="Lato-Thin" font-size="18.0" fill="#FFFFFF" transform="matrix(1.00, 0.00, -0.00, -1.00, 162.4, 2.0)">D</text><text xml:space="preserve" font-family="Lato-Thin" font-size="18.0" fill="#FFFFFF" transform="matrix(1.00, 0.00, -0.00, -1.00, 176.1, 2.0)">E</text><text xml:space="preserve" font-family="Lato-Thin" font-size="18.0" fill="#FFFFFF" transform="matrix(1.00, 0.00, -0.00, -1.00, 186.5, 2.0)"> </text><text xml:space="preserve" font-family="Lato-Thin" font-size="18.0" fill="#FFFFFF" transform="matrix(1.00, 0.00, -0.00, -1.00, 191.6, 2.0)">U</text><text xml:space="preserve" font-family="Lato-Thin" font-size="18.0" fill="#FFFFFF" transform="matrix(1.00, 0.00, -0.00, -1.00, 204.6, 2.0)">6</text><text xml:space="preserve" font-family="Lato-Thin" font-size="18.0" fill="#FFFFFF" transform="matrix(1.00, 0.00, -0.00, -1.00, 215.0, 2.0)">5</text><text xml:space="preserve" font-family="Lato-Thin" font-size="18.0" fill="#FFFFFF" transform="matrix(1.00, 0.00, -0.00, -1.00, 225.5, 2.0)">8</text><text xml:space="preserve" font-family="Lato-Thin" font-size="18.0" fill="#FFFFFF" transform="matrix(1.00, 0.00, -0.00, -1.00, 235.9, 2.0)">7</text><text xml:space="preserve" font-family="Lato-Thin" font-size="18.0" fill="#FFFFFF" transform="matrix(1.00, 0.00, -0.00, -1.00, 246.4, 2.0)"> </text></g></svg>