<?xml version="1.0" encoding="UTF-8" standalone="no"?><svg xmlns="http://www.w3.org/2000/svg" xmlns:xlink="http://www.w3.org/1999/xlink" clip-rule="evenodd" stroke-miterlimit="4.00" viewBox="0 0 586 33"><desc>SVG generated by Keynote</desc><defs></defs><g transform="matrix(1.00, 0.00, -0.00, -1.00, 0.0, 33.0)"><text xml:space="preserve" font-family="Lato-Thin" font-size="32.0" fill="#FFFFFF" transform="matrix(1.00, 0.00, -0.00, -1.00, -2.0, 8.0)">P</text><text xml:space="preserve" font-family="Lato-Thin" font-size="32.0" fill="#FFFFFF" transform="matrix(1.00, 0.00, -0.00, -1.00, 15.7, 8.0)">r</text><text xml:space="preserve" font-family="Lato-Thin" font-size="32.0" fill="#FFFFFF" transform="matrix(1.00, 0.00, -0.00, -1.00, 25.8, 8.0)">é</text><text xml:space="preserve" font-family="Lato-Thin" font-size="32.0" fill="#FFFFFF" transform="matrix(1.00, 0.00, -0.00, -1.00, 42.4, 8.0)">n</text><text xml:space="preserve" font-family="Lato-Thin" font-size="32.0" fill="#FFFFFF" transform="matrix(1.00, 0.00, -0.00, -1.00, 59.9, 8.0)">o</text><text xml:space="preserve" font-family="Lato-Thin" font-size="32.0" fill="#FFFFFF" transform="matrix(1.00, 0.00, -0.00, -1.00, 77.6, 8.0)">m</text><text xml:space="preserve" font-family="Lato-Thin" font-size="32.0" fill="#FFFFFF" transform="matrix(1.00, 0.00, -0.00, -1.00, 103.0, 8.0)"> </text><text xml:space="preserve" font-family="Lato-Thin" font-size="32.0" fill="#FFFFFF" transform="matrix(1.00, 0.00, -0.00, -1.00, 111.9, 8.0)">f</text><text xml:space="preserve" font-family="Lato-Thin" font-size="32.0" fill="#FFFFFF" transform="matrix(1.00, 0.00, -0.00, -1.00, 122.0, 8.0)">é</text><text xml:space="preserve" font-family="Lato-Thin" font-size="32.0" fill="#FFFFFF" transform="matrix(1.00, 0.00, -0.00, -1.00, 138.5, 8.0)">m</text><text xml:space="preserve" font-family="Lato-Thin" font-size="32.0" fill="#FFFFFF" transform="matrix(1.00, 0.00, -0.00, -1.00, 164.0, 8.0)">i</text><text xml:space="preserve" font-family="Lato-Thin" font-size="32.0" fill="#FFFFFF" transform="matrix(1.00, 0.00, -0.00, -1.00, 170.8, 8.0)">n</text><text xml:space="preserve" font-family="Lato-Thin" font-size="32.0" fill="#FFFFFF" transform="matrix(1.00, 0.00, -0.00, -1.00, 188.3, 8.0)">i</text><text xml:space="preserve" font-family="Lato-Thin" font-size="32.0" fill="#FFFFFF" transform="matrix(1.00, 0.00, -0.00, -1.00, 195.1, 8.0)">n</text><text xml:space="preserve" font-family="Lato-Thin" font-size="32.0" fill="#FFFFFF" transform="matrix(1.00, 0.00, -0.00, -1.00, 212.6, 8.0)"> </text><text xml:space="preserve" font-family="Lato-Thin" font-size="32.0" fill="#FFFFFF" transform="matrix(1.00, 0.00, -0.00, -1.00, 221.5, 8.0)">j</text><text xml:space="preserve" font-family="Lato-Thin" font-size="32.0" fill="#FFFFFF" transform="matrix(1.00, 0.00, -0.00, -1.00, 228.4, 8.0)">a</text><text xml:space="preserve" font-family="Lato-Thin" font-size="32.0" fill="#FFFFFF" transform="matrix(1.00, 0.00, -0.00, -1.00, 243.6, 8.0)">p</text><text xml:space="preserve" font-family="Lato-Thin" font-size="32.0" fill="#FFFFFF" transform="matrix(1.00, 0.00, -0.00, -1.00, 261.1, 8.0)">o</text><text xml:space="preserve" font-family="Lato-Thin" font-size="32.0" fill="#FFFFFF" transform="matrix(1.00, 0.00, -0.00, -1.00, 278.8, 8.0)">n</text><text xml:space="preserve" font-family="Lato-Thin" font-size="32.0" fill="#FFFFFF" transform="matrix(1.00, 0.00, -0.00, -1.00, 296.3, 8.0)">n</text><text xml:space="preserve" font-family="Lato-Thin" font-size="32.0" fill="#FFFFFF" transform="matrix(1.00, 0.00, -0.00, -1.00, 313.8, 8.0)">a</text><text xml:space="preserve" font-family="Lato-Thin" font-size="32.0" fill="#FFFFFF" transform="matrix(1.00, 0.00, -0.00, -1.00, 329.0, 8.0)">i</text><text xml:space="preserve" font-family="Lato-Thin" font-size="32.0" fill="#FFFFFF" transform="matrix(1.00, 0.00, -0.00, -1.00, 335.9, 8.0)">s</text><text xml:space="preserve" font-family="Lato-Thin" font-size="32.0" fill="#FFFFFF" transform="matrix(1.00, 0.00, -0.00, -1.00, 349.3, 8.0)">,</text><text xml:space="preserve" font-family="Lato-Thin" font-size="32.0" fill="#FFFFFF" transform="matrix(1.00, 0.00, -0.00, -1.00, 356.2, 8.0)"> </text><text xml:space="preserve" font-family="Lato-Thin" font-size="32.0" fill="#FFFFFF" transform="matrix(1.00, 0.00, -0.00, -1.00, 365.2, 8.0)">a</text><text xml:space="preserve" font-family="Lato-Thin" font-size="32.0" fill="#FFFFFF" transform="matrix(1.00, 0.00, -0.00, -1.00, 380.4, 8.0)">r</text><text xml:space="preserve" font-family="Lato-Thin" font-size="32.0" fill="#FFFFFF" transform="matrix(1.00, 0.00, -0.00, -1.00, 391.2, 8.0)">a</text><text xml:space="preserve" font-family="Lato-Thin" font-size="32.0" fill="#FFFFFF" transform="matrix(1.00, 0.00, -0.00, -1.00, 406.4, 8.0)">b</text><text xml:space="preserve" font-family="Lato-Thin" font-size="32.0" fill="#FFFFFF" transform="matrix(1.00, 0.00, -0.00, -1.00, 423.9, 8.0)">e</text><text xml:space="preserve" font-family="Lato-Thin" font-size="32.0" fill="#FFFFFF" transform="matrix(1.00, 0.00, -0.00, -1.00, 440.5, 8.0)"> </text><text xml:space="preserve" font-family="Lato-Thin" font-size="32.0" fill="#FFFFFF" transform="matrix(1.00, 0.00, -0.00, -1.00, 449.4, 8.0)">e</text><text xml:space="preserve" font-family="Lato-Thin" font-size="32.0" fill="#FFFFFF" transform="matrix(1.00, 0.00, -0.00, -1.00, 466.0, 8.0)">t</text><text xml:space="preserve" font-family="Lato-Thin" font-size="32.0" fill="#FFFFFF" transform="matrix(1.00, 0.00, -0.00, -1.00, 476.6, 8.0)"> </text><text xml:space="preserve" font-family="Lato-Thin" font-size="32.0" fill="#FFFFFF" transform="matrix(1.00, 0.00, -0.00, -1.00, 485.6, 8.0)">a</text><text xml:space="preserve" font-family="Lato-Thin" font-size="32.0" fill="#FFFFFF" transform="matrix(1.00, 0.00, -0.00, -1.00, 500.7, 8.0)">f</text><text xml:space="preserve" font-family="Lato-Thin" font-size="32.0" fill="#FFFFFF" transform="matrix(1.00, 0.00, -0.00, -1.00, 511.4, 8.0)">r</text><text xml:space="preserve" font-family="Lato-Thin" font-size="32.0" fill="#FFFFFF" transform="matrix(1.00, 0.00, -0.00, -1.00, 522.5, 8.0)">i</text><text xml:space="preserve" font-family="Lato-Thin" font-size="32.0" fill="#FFFFFF" transform="matrix(1.00, 0.00, -0.00, -1.00, 529.4, 8.0)">c</text><text xml:space="preserve" font-family="Lato-Thin" font-size="32.0" fill="#FFFFFF" transform="matrix(1.00, 0.00, -0.00, -1.00, 544.3, 8.0)">a</text><text xml:space="preserve" font-family="Lato-Thin" font-size="32.0" fill="#FFFFFF" transform="matrix(1.00, 0.00, -0.00, -1.00, 559.6, 8.0)">i</text><text xml:space="preserve" font-family="Lato-Thin" font-size="32.0" fill="#FFFFFF" transform="matrix(1.00, 0.00, -0.00, -1.00, 566.4, 8.0)">n</text><text xml:space="preserve" font-family="Lato-Thin" font-size="32.0" fill="#FFFFFF" transform="matrix(1.00, 0.00, -0.00, -1.00, 583.9, 8.0)"> </text></g></svg>