<?xml version="1.0" encoding="UTF-8" standalone="no"?><svg xmlns="http://www.w3.org/2000/svg" xmlns:xlink="http://www.w3.org/1999/xlink" clip-rule="evenodd" stroke-miterlimit="4.00" viewBox="0 0 515 34"><desc>SVG generated by Keynote</desc><defs></defs><g transform="matrix(1.00, 0.00, -0.00, -1.00, 0.0, 34.0)"><text xml:space="preserve" font-family="Lato-Thin" font-size="32.0" fill="#FFFFFF" transform="matrix(1.00, 0.00, -0.00, -1.00, -2.0, 8.0)">N</text><text xml:space="preserve" font-family="Lato-Thin" font-size="32.0" fill="#FFFFFF" transform="matrix(1.00, 0.00, -0.00, -1.00, 22.0, 8.0)">’</text><text xml:space="preserve" font-family="Lato-Thin" font-size="32.0" fill="#FFFFFF" transform="matrix(1.00, 0.00, -0.00, -1.00, 27.4, 8.0)">e</text><text xml:space="preserve" font-family="Lato-Thin" font-size="32.0" fill="#FFFFFF" transform="matrix(1.00, 0.00, -0.00, -1.00, 44.0, 8.0)">s</text><text xml:space="preserve" font-family="Lato-Thin" font-size="32.0" fill="#FFFFFF" transform="matrix(1.00, 0.00, -0.00, -1.00, 57.5, 8.0)">t</text><text xml:space="preserve" font-family="Lato-Thin" font-size="32.0" fill="#FFFFFF" transform="matrix(1.00, 0.00, -0.00, -1.00, 68.2, 8.0)"> </text><text xml:space="preserve" font-family="Lato-Thin" font-size="32.0" fill="#FFFFFF" transform="matrix(1.00, 0.00, -0.00, -1.00, 77.1, 8.0)">p</text><text xml:space="preserve" font-family="Lato-Thin" font-size="32.0" fill="#FFFFFF" transform="matrix(1.00, 0.00, -0.00, -1.00, 94.6, 8.0)">a</text><text xml:space="preserve" font-family="Lato-Thin" font-size="32.0" fill="#FFFFFF" transform="matrix(1.00, 0.00, -0.00, -1.00, 109.8, 8.0)">s</text><text xml:space="preserve" font-family="Lato-Thin" font-size="32.0" fill="#FFFFFF" transform="matrix(1.00, 0.00, -0.00, -1.00, 123.3, 8.0)"> </text><text xml:space="preserve" font-family="Lato-Thin" font-size="32.0" fill="#FFFFFF" transform="matrix(1.00, 0.00, -0.00, -1.00, 132.2, 8.0)">u</text><text xml:space="preserve" font-family="Lato-Thin" font-size="32.0" fill="#FFFFFF" transform="matrix(1.00, 0.00, -0.00, -1.00, 149.7, 8.0)">n</text><text xml:space="preserve" font-family="Lato-Thin" font-size="32.0" fill="#FFFFFF" transform="matrix(1.00, 0.00, -0.00, -1.00, 167.2, 8.0)"> </text><text xml:space="preserve" font-family="Lato-Thin" font-size="32.0" fill="#FFFFFF" transform="matrix(1.00, 0.00, -0.00, -1.00, 176.1, 8.0)">a</text><text xml:space="preserve" font-family="Lato-Thin" font-size="32.0" fill="#FFFFFF" transform="matrix(1.00, 0.00, -0.00, -1.00, 191.3, 8.0)">c</text><text xml:space="preserve" font-family="Lato-Thin" font-size="32.0" fill="#FFFFFF" transform="matrix(1.00, 0.00, -0.00, -1.00, 206.3, 8.0)">r</text><text xml:space="preserve" font-family="Lato-Thin" font-size="32.0" fill="#FFFFFF" transform="matrix(1.00, 0.00, -0.00, -1.00, 216.4, 8.0)">o</text><text xml:space="preserve" font-family="Lato-Thin" font-size="32.0" fill="#FFFFFF" transform="matrix(1.00, 0.00, -0.00, -1.00, 234.1, 8.0)">n</text><text xml:space="preserve" font-family="Lato-Thin" font-size="32.0" fill="#FFFFFF" transform="matrix(1.00, 0.00, -0.00, -1.00, 251.3, 8.0)">y</text><text xml:space="preserve" font-family="Lato-Thin" font-size="32.0" fill="#FFFFFF" transform="matrix(1.00, 0.00, -0.00, -1.00, 267.1, 8.0)">m</text><text xml:space="preserve" font-family="Lato-Thin" font-size="32.0" fill="#FFFFFF" transform="matrix(1.00, 0.00, -0.00, -1.00, 292.5, 8.0)">e</text><text xml:space="preserve" font-family="Lato-Thin" font-size="32.0" fill="#FFFFFF" transform="matrix(1.00, 0.00, -0.00, -1.00, 309.1, 8.0)"> </text><text xml:space="preserve" font-family="Lato-Thin" font-size="32.0" fill="#FFFFFF" transform="matrix(1.00, 0.00, -0.00, -1.00, 318.0, 8.0)">!</text><text xml:space="preserve" font-family="Lato-Thin" font-size="16.0" fill="#FFFFFF" transform="matrix(1.00, 0.00, -0.00, -1.00, 326.2, 8.0)"> </text><text xml:space="preserve" font-family="Lato-Thin" font-size="21.0" fill="#FFFFFF" transform="matrix(1.00, 0.00, -0.00, -1.00, 330.6, 8.0)">(</text><text xml:space="preserve" font-family="Lato-Thin" font-size="21.0" fill="#FFFFFF" transform="matrix(1.00, 0.00, -0.00, -1.00, 335.6, 8.0)">m</text><text xml:space="preserve" font-family="Lato-Thin" font-size="21.0" fill="#FFFFFF" transform="matrix(1.00, 0.00, -0.00, -1.00, 352.3, 8.0)">a</text><text xml:space="preserve" font-family="Lato-Thin" font-size="21.0" fill="#FFFFFF" transform="matrix(1.00, 0.00, -0.00, -1.00, 362.3, 8.0)">i</text><text xml:space="preserve" font-family="Lato-Thin" font-size="21.0" fill="#FFFFFF" transform="matrix(1.00, 0.00, -0.00, -1.00, 366.8, 8.0)">s</text><text xml:space="preserve" font-family="Lato-Thin" font-size="21.0" fill="#FFFFFF" transform="matrix(1.00, 0.00, -0.00, -1.00, 375.7, 8.0)"> </text><text xml:space="preserve" font-family="Lato-Thin" font-size="21.0" fill="#FFFFFF" transform="matrix(1.00, 0.00, -0.00, -1.00, 381.5, 8.0)">u</text><text xml:space="preserve" font-family="Lato-Thin" font-size="21.0" fill="#FFFFFF" transform="matrix(1.00, 0.00, -0.00, -1.00, 393.0, 8.0)">n</text><text xml:space="preserve" font-family="Lato-Thin" font-size="21.0" fill="#FFFFFF" transform="matrix(1.00, 0.00, -0.00, -1.00, 404.4, 8.0)"> </text><text xml:space="preserve" font-family="Lato-Thin" font-size="21.0" fill="#FFFFFF" transform="matrix(1.00, 0.00, -0.00, -1.00, 410.3, 8.0)">p</text><text xml:space="preserve" font-family="Lato-Thin" font-size="21.0" fill="#FFFFFF" transform="matrix(1.00, 0.00, -0.00, -1.00, 421.8, 8.0)">a</text><text xml:space="preserve" font-family="Lato-Thin" font-size="21.0" fill="#FFFFFF" transform="matrix(1.00, 0.00, -0.00, -1.00, 431.8, 8.0)">l</text><text xml:space="preserve" font-family="Lato-Thin" font-size="21.0" fill="#FFFFFF" transform="matrix(1.00, 0.00, -0.00, -1.00, 436.2, 8.0)">i</text><text xml:space="preserve" font-family="Lato-Thin" font-size="21.0" fill="#FFFFFF" transform="matrix(1.00, 0.00, -0.00, -1.00, 440.7, 8.0)">n</text><text xml:space="preserve" font-family="Lato-Thin" font-size="21.0" fill="#FFFFFF" transform="matrix(1.00, 0.00, -0.00, -1.00, 452.2, 8.0)">d</text><text xml:space="preserve" font-family="Lato-Thin" font-size="21.0" fill="#FFFFFF" transform="matrix(1.00, 0.00, -0.00, -1.00, 463.7, 8.0)">r</text><text xml:space="preserve" font-family="Lato-Thin" font-size="21.0" fill="#FFFFFF" transform="matrix(1.00, 0.00, -0.00, -1.00, 470.3, 8.0)">o</text><text xml:space="preserve" font-family="Lato-Thin" font-size="21.0" fill="#FFFFFF" transform="matrix(1.00, 0.00, -0.00, -1.00, 481.9, 8.0)">m</text><text xml:space="preserve" font-family="Lato-Thin" font-size="21.0" fill="#FFFFFF" transform="matrix(1.00, 0.00, -0.00, -1.00, 498.6, 8.0)">e</text><text xml:space="preserve" font-family="Lato-Thin" font-size="21.0" fill="#FFFFFF" transform="matrix(1.00, 0.00, -0.00, -1.00, 509.0, 8.0)">)</text><text xml:space="preserve" font-family="Lato-Thin" font-size="32.0" fill="#FFFFFF" transform="matrix(1.00, 0.00, -0.00, -1.00, 514.4, 8.0)"> </text></g></svg>