<?xml version="1.0" encoding="UTF-8" standalone="no"?><svg xmlns="http://www.w3.org/2000/svg" xmlns:xlink="http://www.w3.org/1999/xlink" clip-rule="evenodd" stroke-miterlimit="4.00" viewBox="0 0 380 344"><desc>SVG generated by Keynote</desc><defs></defs><g transform="matrix(1.00, 0.00, -0.00, -1.00, 0.0, 344.0)"><g><clipPath id="clip-94"><path d="M 1.0 2.0 L 379.0 2.0 L 379.0 342.0 L 1.0 342.0 Z M 1.0 2.0 "></path></clipPath><g clip-path="url(#clip-94)"><g><g><clipPath id="clip-95"><path d="M 1.0 342.0 L 379.0 342.0 L 379.0 2.0 L 1.0 2.0 Z M 1.0 342.0 "></path></clipPath><g clip-path="url(#clip-95)"><g><clipPath id="clip-96"><path d="M 1.0 1.0 L 379.0 1.0 L 379.0 342.0 L 1.0 342.0 Z M 1.0 1.0 "></path></clipPath><g clip-path="url(#clip-96)"><text xml:space="preserve" font-family="Lato-Light" font-size="23.9" fill="#FDFDFD" transform="matrix(1.07, 0.00, -0.00, -1.06, 43.2, 8.7)">&lt;</text><text xml:space="preserve" font-family="Lato-Light" font-size="23.9" fill="#FDFDFD" transform="matrix(1.07, 0.00, -0.00, -1.06, 60.0, 8.7)">a</text><text xml:space="preserve" font-family="Lato-Light" font-size="23.9" fill="#FDFDFD" transform="matrix(1.07, 0.00, -0.00, -1.06, 74.4, 8.7)">n</text><text xml:space="preserve" font-family="Lato-Light" font-size="23.9" fill="#FDFDFD" transform="matrix(1.07, 0.00, -0.00, -1.06, 90.5, 8.7)">i</text><text xml:space="preserve" font-family="Lato-Light" font-size="23.9" fill="#FDFDFD" transform="matrix(1.07, 0.00, -0.00, -1.06, 98.2, 8.7)">m</text><text xml:space="preserve" font-family="Lato-Light" font-size="23.9" fill="#FDFDFD" transform="matrix(1.07, 0.00, -0.00, -1.06, 120.7, 8.7)">é</text><text xml:space="preserve" font-family="Lato-Light" font-size="23.9" fill="#FDFDFD" transform="matrix(1.07, 0.00, -0.00, -1.06, 136.1, 8.7)"> </text><text xml:space="preserve" font-family="Lato-Light" font-size="23.9" fill="#FDFDFD" transform="matrix(1.07, 0.00, -0.00, -1.06, 145.0, 8.7)">p</text><text xml:space="preserve" font-family="Lato-Light" font-size="23.9" fill="#FDFDFD" transform="matrix(1.07, 0.00, -0.00, -1.06, 161.1, 8.7)">a</text><text xml:space="preserve" font-family="Lato-Light" font-size="23.9" fill="#FDFDFD" transform="matrix(1.07, 0.00, -0.00, -1.06, 175.5, 8.7)">r</text><text xml:space="preserve" font-family="Lato-Light" font-size="23.9" fill="#FDFDFD" transform="matrix(1.07, 0.00, -0.00, -1.06, 186.0, 8.7)"> </text><text xml:space="preserve" font-family="Lato-Light" font-size="23.9" fill="#FDFDFD" transform="matrix(1.07, 0.00, -0.00, -1.06, 194.9, 8.7)">l</text><text xml:space="preserve" font-family="Lato-Light" font-size="23.9" fill="#FDFDFD" transform="matrix(1.07, 0.00, -0.00, -1.06, 202.6, 8.7)">a</text><text xml:space="preserve" font-family="Lato-Light" font-size="23.9" fill="#FDFDFD" transform="matrix(1.07, 0.00, -0.00, -1.06, 217.0, 8.7)"> </text><text xml:space="preserve" font-family="Lato-Light" font-size="23.9" fill="#FDFDFD" transform="matrix(1.07, 0.00, -0.00, -1.06, 225.9, 8.7)">p</text><text xml:space="preserve" font-family="Lato-Light" font-size="23.9" fill="#FDFDFD" transform="matrix(1.07, 0.00, -0.00, -1.06, 242.0, 8.7)">a</text><text xml:space="preserve" font-family="Lato-Light" font-size="23.9" fill="#FDFDFD" transform="matrix(1.07, 0.00, -0.00, -1.06, 256.4, 8.7)">s</text><text xml:space="preserve" font-family="Lato-Light" font-size="23.9" fill="#FDFDFD" transform="matrix(1.07, 0.00, -0.00, -1.06, 269.3, 8.7)">s</text><text xml:space="preserve" font-family="Lato-Light" font-size="23.9" fill="#FDFDFD" transform="matrix(1.07, 0.00, -0.00, -1.06, 282.2, 8.7)">i</text><text xml:space="preserve" font-family="Lato-Light" font-size="23.9" fill="#FDFDFD" transform="matrix(1.07, 0.00, -0.00, -1.06, 289.8, 8.7)">o</text><text xml:space="preserve" font-family="Lato-Light" font-size="23.9" fill="#FDFDFD" transform="matrix(1.07, 0.00, -0.00, -1.06, 306.1, 8.7)">n</text><text xml:space="preserve" font-family="Lato-Light" font-size="23.9" fill="#FDFDFD" transform="matrix(1.07, 0.00, -0.00, -1.06, 322.2, 8.7)">&gt;</text></g></g></g></g><g><clipPath id="clip-97"><path d="M 1.0 342.0 L 379.0 342.0 L 379.0 2.0 L 1.0 2.0 Z M 1.0 342.0 "></path></clipPath><g clip-path="url(#clip-97)"><g><clipPath id="clip-98"><path d="M 1.0 1.0 L 379.0 1.0 L 379.0 342.0 L 1.0 342.0 Z M 1.0 1.0 "></path></clipPath><g clip-path="url(#clip-98)"><g opacity="0.50"><g><clipPath id="clip-99"><path d="M 1.0 25.0 L 379.0 25.0 L 379.0 342.0 L 1.0 342.0 Z M 1.0 25.0 "></path></clipPath><g clip-path="url(#clip-99)"><image xlink:href="321C412199DDBEEBA279DD7A2A7280CA.png" width="1473.00" height="1241.00" transform="matrix(0.26, 0.00, -0.00, -0.26, 1.0, 342.0)"></image></g></g></g><path d="M 42.7 67.1 C 39.9 63.4 37.6 60.6 37.6 59.6 C 37.6 57.9 41.1 57.9 43.1 57.9 C 54.8 57.9 65.2 59.0 73.8 67.6 C 74.5 68.4 75.0 68.9 75.3 68.9 C 75.5 68.9 75.6 68.7 75.6 68.5 C 75.6 67.8 75.1 66.5 74.9 65.8 L 71.1 55.3 L 20.2 55.3 L 55.4 100.3 C 56.8 102.0 57.9 103.5 57.9 104.3 C 57.9 106.2 54.7 106.2 51.3 106.2 C 39.0 106.2 32.1 105.3 24.0 95.8 C 23.8 95.6 23.4 95.2 23.1 95.2 C 22.9 95.2 22.9 95.5 22.9 95.6 C 23.0 96.2 23.1 96.7 23.3 97.2 L 27.6 108.7 L 73.5 108.7 Z M 42.7 67.1 " fill="#FDFDFD"></path><path d="M 94.2 89.2 C 94.0 86.9 93.9 84.7 93.9 82.5 C 93.9 63.4 103.8 56.4 113.8 56.4 C 125.7 56.4 134.4 64.5 137.9 76.5 L 140.1 76.5 C 136.8 62.3 126.5 53.8 112.5 53.8 C 94.9 53.8 81.9 65.6 81.9 82.0 C 81.9 98.5 94.9 110.3 112.5 110.3 C 123.7 110.3 137.3 103.5 138.8 89.2 Z M 125.8 91.2 C 125.8 101.2 120.9 108.3 110.2 108.3 C 100.8 108.3 95.7 100.0 94.6 91.2 Z M 125.8 91.2 " fill="#FDFDFD"></path><path d="M 160.6 94.3 L 160.8 94.3 C 163.2 103.1 168.3 110.3 181.9 110.3 C 193.2 110.3 203.8 104.4 203.8 88.1 L 203.8 68.3 C 203.6 58.5 205.0 57.1 208.0 56.1 C 208.7 55.8 209.3 55.5 209.3 55.3 C 209.3 55.0 208.8 55.0 207.8 55.0 C 206.8 55.0 204.1 55.3 198.5 55.3 C 192.9 55.3 189.2 55.0 187.9 55.0 C 187.2 55.0 186.7 55.0 186.7 55.3 C 186.7 55.5 186.9 55.8 187.6 56.0 C 191.4 56.4 193.2 59.1 193.2 68.3 L 193.2 88.2 C 193.2 97.6 189.0 107.7 178.1 107.7 C 165.8 107.7 161.8 95.2 161.8 80.8 L 161.8 68.3 C 161.8 61.8 162.1 57.0 166.7 56.2 C 167.4 56.1 167.8 55.8 167.8 55.5 C 167.8 55.1 167.5 55.0 166.9 55.0 C 166.2 55.0 162.0 55.3 156.4 55.3 C 150.8 55.3 146.1 55.0 145.4 55.0 C 144.7 55.0 144.4 55.1 144.4 55.5 C 144.4 55.8 144.8 56.1 145.6 56.2 C 150.7 57.0 151.1 61.8 151.1 68.3 L 151.1 93.7 C 151.1 99.9 150.4 103.4 147.5 104.6 C 146.4 105.1 145.7 105.4 145.7 105.6 C 145.7 105.9 146.4 105.9 147.6 106.2 C 152.6 107.1 156.8 107.8 160.6 109.1 Z M 160.6 94.3 " fill="#FDFDFD"></path><path d="M 219.4 98.1 C 219.4 103.3 217.4 103.9 215.8 104.8 C 215.2 105.1 214.0 105.1 214.0 105.4 C 214.0 105.6 215.2 105.7 215.9 105.8 C 220.7 106.8 225.1 107.8 230.0 109.1 L 230.0 68.3 C 230.0 61.8 230.6 57.2 235.4 56.3 C 236.0 56.2 236.4 56.0 236.4 55.3 C 236.4 55.0 235.9 55.0 235.0 55.0 C 234.0 55.0 230.2 55.3 224.7 55.3 C 219.1 55.3 215.4 55.0 214.4 55.0 C 213.4 55.0 212.9 55.0 212.9 55.3 C 212.9 56.0 213.3 56.2 213.9 56.3 C 218.7 57.2 219.4 61.8 219.4 68.3 Z M 217.8 121.9 C 217.8 125.1 220.5 128.0 223.8 128.0 C 227.4 128.0 230.0 125.1 230.0 121.9 C 230.0 118.6 227.4 115.8 223.8 115.8 C 220.5 115.8 217.8 118.6 217.8 121.9 " fill="#FDFDFD"></path><path d="M 273.8 71.6 C 271.6 75.1 267.1 84.2 261.5 84.2 C 257.9 84.2 257.9 80.1 257.9 75.7 L 257.9 68.3 C 257.9 61.8 258.4 57.9 263.5 56.2 C 264.0 56.1 264.4 55.8 264.4 55.5 C 264.4 55.2 263.9 55.0 263.2 55.0 C 262.7 55.0 258.2 55.3 252.5 55.3 C 247.0 55.3 242.8 55.0 242.2 55.0 C 241.7 55.0 241.2 55.2 241.2 55.5 C 241.2 55.8 241.5 56.0 241.9 56.2 C 246.8 57.7 247.3 63.8 247.3 72.4 L 247.3 113.1 C 247.3 119.2 246.8 123.9 243.4 124.4 C 242.3 124.6 241.7 124.9 241.7 125.4 C 241.7 125.7 242.6 125.9 243.6 126.2 C 248.6 127.4 252.9 128.4 257.9 129.8 L 257.9 85.4 L 275.2 99.8 C 277.6 101.7 279.0 103.4 279.0 105.1 C 279.0 106.6 277.8 107.4 277.3 107.9 C 276.9 108.2 276.2 108.2 276.2 108.7 C 276.2 109.1 276.9 109.1 277.7 109.1 C 278.6 109.1 282.2 108.7 287.6 108.7 C 292.6 108.7 293.9 109.1 297.2 109.1 C 298.1 109.1 298.6 109.1 298.6 108.5 C 298.6 108.0 296.9 107.9 295.2 107.5 C 289.3 106.1 283.4 102.5 278.5 98.8 L 263.2 87.3 L 263.2 87.1 C 277.3 86.7 280.4 81.4 287.5 70.1 C 291.0 64.6 295.3 58.8 300.9 56.3 C 301.4 56.1 301.9 55.8 301.9 55.5 C 301.9 55.2 301.4 55.0 300.8 55.0 C 300.3 55.0 295.6 55.3 290.5 55.3 C 288.1 55.3 285.7 55.0 283.7 55.0 Z M 273.8 71.6 " fill="#FDFDFD"></path><path d="M 354.9 64.3 C 354.9 60.9 355.5 57.8 358.6 56.4 C 359.3 56.1 359.7 56.1 359.7 55.7 C 359.7 55.4 359.1 55.3 358.3 55.3 L 347.2 55.3 C 345.8 58.6 344.9 62.2 344.7 65.8 L 344.5 65.8 C 340.5 57.5 334.5 53.8 325.4 53.8 C 314.7 53.8 303.7 58.7 303.7 70.9 C 303.7 86.5 327.6 88.1 338.4 88.1 L 344.3 88.1 L 344.3 91.5 C 344.3 101.3 339.7 108.3 329.3 108.3 C 319.8 108.3 314.2 105.5 310.5 96.5 C 310.1 95.6 309.9 94.8 309.7 94.8 C 309.5 94.8 309.3 95.3 309.1 95.9 L 306.5 105.1 C 314.9 109.5 321.6 110.3 330.8 110.3 C 342.6 110.3 354.9 106.0 354.9 93.1 Z M 344.3 86.1 L 338.2 86.1 C 327.1 86.1 315.6 82.8 315.6 69.3 C 315.6 61.8 321.1 56.4 328.4 56.4 C 340.6 56.4 344.3 69.1 344.3 78.9 Z M 344.3 86.1 " fill="#FDFDFD"></path></g></g></g></g><g><clipPath id="clip-100"><path d="M 100.6 165.2 L 268.5 165.2 L 268.5 332.3 L 100.6 332.3 Z M 100.6 165.2 "></path></clipPath><g clip-path="url(#clip-100)"><path d="M 260.4 248.7 C 260.4 210.3 227.4 179.2 186.7 179.2 C 145.9 179.2 112.9 210.3 112.9 248.7 C 112.9 287.2 145.9 318.3 186.7 318.3 C 227.4 318.3 260.4 287.2 260.4 248.7 " fill="#B01F3F"></path><path d="M 234.9 222.3 C 234.8 222.0 234.8 221.5 234.7 221.4 C 233.9 221.0 233.1 220.7 232.3 220.4 C 230.6 219.6 228.8 218.8 226.8 219.8 C 225.8 220.2 224.7 220.0 223.4 220.1 C 223.8 217.9 224.2 215.9 224.4 213.8 C 224.9 209.8 225.4 205.8 225.7 201.8 C 225.8 200.5 225.6 199.1 225.2 197.9 C 224.0 193.9 220.4 192.2 216.3 193.7 C 214.8 194.3 213.4 195.1 212.2 196.0 C 209.5 198.0 206.9 200.0 204.3 202.1 C 204.0 202.3 203.8 202.7 203.5 203.0 C 203.4 203.1 203.2 203.2 203.1 203.3 C 202.5 203.7 201.8 204.0 201.1 204.5 C 192.0 210.5 183.0 216.7 173.4 221.9 C 167.3 225.1 160.9 227.9 154.3 230.0 C 153.4 230.3 152.5 230.5 151.6 230.6 C 150.3 230.7 149.6 230.0 149.5 228.7 C 149.2 224.5 149.4 220.3 150.1 216.2 C 151.1 210.7 153.5 205.9 156.3 201.2 C 156.5 200.7 157.1 200.4 157.3 199.9 C 157.6 199.2 157.9 198.4 157.7 197.8 C 157.5 197.3 156.6 196.8 156.0 196.8 C 149.3 197.0 144.5 200.0 143.3 207.4 C 142.2 214.7 141.3 222.1 142.0 229.5 C 142.2 230.8 142.4 232.2 142.6 233.5 C 143.2 236.9 145.2 239.0 148.5 240.2 C 155.9 242.7 163.2 245.4 170.4 248.1 C 183.9 253.2 197.4 258.3 210.8 263.5 C 211.2 263.6 211.5 263.8 211.9 263.9 L 211.9 264.3 C 209.4 264.6 207.0 265.0 204.5 265.1 C 191.9 265.6 179.4 265.4 166.8 264.6 C 162.1 264.3 157.4 263.9 152.6 263.4 C 150.4 263.1 148.2 262.6 145.9 262.1 C 144.8 261.8 143.7 261.7 142.9 262.7 C 142.2 263.7 142.5 264.8 143.2 265.8 C 145.0 268.6 147.5 270.1 150.9 270.1 C 157.3 270.1 163.6 270.1 169.9 270.1 C 174.8 270.1 179.8 270.2 184.7 270.1 C 186.5 270.1 188.2 269.9 189.9 269.8 L 190.1 270.1 C 186.0 272.7 181.9 275.3 177.9 277.8 C 178.0 278.0 178.1 278.2 178.2 278.4 C 179.2 277.9 180.3 277.4 181.4 276.9 C 178.1 280.2 155.6 291.0 148.8 292.4 C 149.4 292.0 149.9 291.7 150.3 291.4 C 150.3 291.3 150.3 291.3 150.3 291.2 C 149.8 291.2 149.3 291.2 148.8 291.3 C 145.6 292.1 142.4 293.0 139.2 293.9 C 138.6 294.1 137.7 294.9 137.7 295.4 C 137.7 296.0 138.4 296.9 139.0 297.1 C 144.3 298.9 149.7 300.0 155.2 297.8 C 162.8 294.8 169.7 290.6 176.5 286.3 C 178.7 284.8 180.9 283.3 183.2 281.8 C 183.6 281.6 184.3 281.5 184.6 281.7 C 194.0 286.6 203.6 291.2 212.6 297.0 C 214.6 298.3 216.6 299.7 218.6 301.1 C 219.3 301.6 219.8 302.3 220.3 303.1 C 220.9 304.0 221.9 304.5 223.0 304.2 C 225.9 303.4 227.8 301.6 229.1 299.0 C 229.8 297.8 228.9 295.8 227.4 295.0 C 223.0 292.5 218.7 289.9 214.3 287.4 C 207.0 283.3 199.6 279.1 192.2 274.9 C 194.4 273.4 196.6 271.9 198.8 270.3 C 199.1 270.1 199.5 270.2 199.9 270.1 C 206.4 269.9 212.8 269.3 219.1 267.5 C 219.9 267.2 220.7 266.9 221.4 266.5 C 223.8 265.2 224.0 263.0 221.8 261.4 C 220.4 260.4 218.9 259.6 217.3 258.9 C 212.4 256.8 207.4 254.7 202.5 252.7 C 190.0 247.6 177.4 242.7 164.9 237.6 C 164.3 237.4 163.7 237.1 163.2 236.9 C 180.6 234.6 198.1 232.3 215.6 229.9 C 215.6 230.8 215.7 231.9 215.6 233.0 C 215.4 234.9 215.2 236.8 215.0 238.7 C 214.9 239.6 215.2 240.3 216.1 240.6 C 217.0 240.9 218.1 240.9 218.5 240.0 C 219.3 238.2 219.9 236.3 220.6 234.4 C 220.4 234.4 220.3 234.3 220.2 234.3 C 219.7 235.8 219.2 237.3 218.7 238.8 C 218.6 238.8 218.6 238.8 218.5 238.8 C 219.2 236.1 219.8 233.5 220.5 230.9 C 220.6 230.4 220.7 230.0 220.8 229.5 C 221.1 228.4 221.8 227.9 223.0 228.0 C 224.0 228.0 225.0 228.1 225.9 227.9 C 227.9 227.4 229.9 226.9 231.8 226.2 C 232.9 225.8 233.9 225.1 234.9 224.5 C 235.9 223.8 235.6 223.0 234.9 222.3 M 184.5 332.3 C 138.2 332.3 100.6 294.9 100.6 248.7 C 100.6 202.6 138.2 165.2 184.5 165.2 C 230.9 165.2 268.5 202.6 268.5 248.7 C 268.5 294.9 230.9 332.3 184.5 332.3 " fill="#FDFDFD"></path><path d="M 216.0 221.1 C 215.9 221.9 216.3 223.1 215.0 223.4 C 213.0 224.0 211.0 224.7 209.0 225.1 C 205.9 225.9 202.7 226.5 199.5 227.1 C 198.7 227.3 197.8 227.6 197.0 227.9 C 196.2 228.1 195.5 228.4 194.7 228.5 C 193.5 228.7 192.3 228.6 191.1 228.8 C 185.5 229.6 180.0 230.4 174.5 231.2 C 173.3 231.4 172.0 231.5 170.8 231.6 C 170.8 231.5 170.8 231.5 170.8 231.4 C 173.4 229.8 176.0 228.3 178.9 226.6 C 178.3 226.3 178.1 226.2 177.7 226.0 C 179.3 225.0 180.8 224.0 182.5 223.0 C 182.6 224.4 183.4 223.9 183.9 223.5 C 190.1 219.5 196.3 215.5 202.5 211.5 C 204.1 210.4 205.5 209.1 207.0 207.8 C 209.1 206.1 211.1 204.4 213.2 202.6 C 213.8 202.1 214.3 202.0 214.5 202.9 C 215.1 205.9 215.7 208.9 216.0 211.9 C 216.2 213.7 215.9 215.5 215.8 217.4 C 215.8 218.6 216.1 219.9 216.0 221.1 " fill="#FDFDFD"></path></g></g></g></g></g></g></svg>