<?xml version="1.0" encoding="UTF-8" standalone="no"?><svg xmlns="http://www.w3.org/2000/svg" xmlns:xlink="http://www.w3.org/1999/xlink" clip-rule="evenodd" stroke-miterlimit="4.00" viewBox="0 0 1024 768"><desc>SVG generated by Keynote</desc><defs></defs><g transform="matrix(1.00, 0.00, -0.00, -1.00, 0.0, 768.0)"><path d="M 0.0 768.0 L 1024.0 768.0 L 1024.0 0.0 L 0.0 0.0 Z M 0.0 768.0 " fill="#000000"></path><g><clipPath id="clip-432"><path d="M 512.0 768.0 L 1024.0 768.0 L 1024.0 0.0 L 512.0 0.0 Z M 512.0 768.0 "></path></clipPath><g clip-path="url(#clip-432)"><image xlink:href="../../8A58E4C2-AC0F-4626-B59D-5AB7FD772C05/assets/19EB84BDC53AA0BA163674EB88C8CF49.png" width="1365.00" height="767.00" transform="matrix(1.02, 0.00, -0.00, -1.02, -158.0, 775.0)"></image></g></g><text xml:space="preserve" font-family="Avenir-Light" font-size="45.0" fill="#FEFFFF" transform="matrix(1.00, 0.00, -0.00, -1.00, 56.0, 671.0)">C</text><text xml:space="preserve" font-family="Avenir-Light" font-size="45.0" fill="#FEFFFF" transform="matrix(1.00, 0.00, -0.00, -1.00, 94.9, 671.0)">E</text><text xml:space="preserve" font-family="Avenir-Light" font-size="45.0" fill="#FEFFFF" transform="matrix(1.00, 0.00, -0.00, -1.00, 128.8, 671.0)"> </text><text xml:space="preserve" font-family="Avenir-Light" font-size="45.0" fill="#FEFFFF" transform="matrix(1.00, 0.00, -0.00, -1.00, 147.7, 671.0)">Q</text><text xml:space="preserve" font-family="Avenir-Light" font-size="45.0" fill="#FEFFFF" transform="matrix(1.00, 0.00, -0.00, -1.00, 192.4, 671.0)">U</text><text xml:space="preserve" font-family="Avenir-Light" font-size="45.0" fill="#FEFFFF" transform="matrix(1.00, 0.00, -0.00, -1.00, 230.4, 671.0)">I</text><text xml:space="preserve" font-family="Avenir-Light" font-size="45.0" fill="#FEFFFF" transform="matrix(1.00, 0.00, -0.00, -1.00, 249.3, 671.0)"> </text><text xml:space="preserve" font-family="Avenir-Light" font-size="45.0" fill="#FEFFFF" transform="matrix(1.00, 0.00, -0.00, -1.00, 268.2, 671.0)">N</text><text xml:space="preserve" font-family="Avenir-Light" font-size="45.0" fill="#FEFFFF" transform="matrix(1.00, 0.00, -0.00, -1.00, 310.4, 671.0)">O</text><text xml:space="preserve" font-family="Avenir-Light" font-size="45.0" fill="#FEFFFF" transform="matrix(1.00, 0.00, -0.00, -1.00, 355.1, 671.0)">U</text><text xml:space="preserve" font-family="Avenir-Light" font-size="45.0" fill="#FEFFFF" transform="matrix(1.00, 0.00, -0.00, -1.00, 393.1, 671.0)">S</text><text xml:space="preserve" font-family="Avenir-Light" font-size="45.0" fill="#FEFFFF" transform="matrix(1.00, 0.00, -0.00, -1.00, 425.3, 671.0)"> </text><text xml:space="preserve" font-family="Avenir-Light" font-size="45.0" fill="#FEFFFF" transform="matrix(1.00, 0.00, -0.00, -1.00, 56.0, 610.0)">D</text><text xml:space="preserve" font-family="Avenir-Light" font-size="45.0" fill="#FEFFFF" transform="matrix(1.00, 0.00, -0.00, -1.00, 96.5, 610.0)">I</text><text xml:space="preserve" font-family="Avenir-Light" font-size="45.0" fill="#FEFFFF" transform="matrix(1.00, 0.00, -0.00, -1.00, 115.4, 610.0)">S</text><text xml:space="preserve" font-family="Avenir-Light" font-size="45.0" fill="#FEFFFF" transform="matrix(1.00, 0.00, -0.00, -1.00, 147.7, 610.0)">T</text><text xml:space="preserve" font-family="Avenir-Light" font-size="45.0" fill="#FEFFFF" transform="matrix(1.00, 0.00, -0.00, -1.00, 180.7, 610.0)">I</text><text xml:space="preserve" font-family="Avenir-Light" font-size="45.0" fill="#FEFFFF" transform="matrix(1.00, 0.00, -0.00, -1.00, 199.6, 610.0)">N</text><text xml:space="preserve" font-family="Avenir-Light" font-size="45.0" fill="#FEFFFF" transform="matrix(1.00, 0.00, -0.00, -1.00, 241.8, 610.0)">G</text><text xml:space="preserve" font-family="Avenir-Light" font-size="45.0" fill="#FEFFFF" transform="matrix(1.00, 0.00, -0.00, -1.00, 284.0, 610.0)">U</text><text xml:space="preserve" font-family="Avenir-Light" font-size="45.0" fill="#FEFFFF" transform="matrix(1.00, 0.00, -0.00, -1.00, 322.0, 610.0)">E</text><text xml:space="preserve" font-family="Avenir-Book" font-size="30.0" fill="#FEFFFF" transform="matrix(1.00, 0.00, -0.00, -1.00, 53.0, 415.0)">U</text><text xml:space="preserve" font-family="Avenir-Book" font-size="30.0" fill="#FEFFFF" transform="matrix(1.00, 0.00, -0.00, -1.00, 73.6, 415.0)">n</text><text xml:space="preserve" font-family="Avenir-Book" font-size="30.0" fill="#FEFFFF" transform="matrix(1.00, 0.00, -0.00, -1.00, 90.3, 415.0)">e</text><text xml:space="preserve" font-family="Avenir-Book" font-size="30.0" fill="#FEFFFF" transform="matrix(1.00, 0.00, -0.00, -1.00, 106.9, 415.0)"> </text><text xml:space="preserve" font-family="Avenir-Book" font-size="30.0" fill="#FEFFFF" transform="matrix(1.00, 0.00, -0.00, -1.00, 115.3, 415.0)">D</text><text xml:space="preserve" font-family="Avenir-Book" font-size="30.0" fill="#FEFFFF" transform="matrix(1.00, 0.00, -0.00, -1.00, 137.5, 415.0)">S</text><text xml:space="preserve" font-family="Avenir-Book" font-size="30.0" fill="#FEFFFF" transform="matrix(1.00, 0.00, -0.00, -1.00, 154.2, 415.0)">I</text><text xml:space="preserve" font-family="Avenir-Book" font-size="30.0" fill="#FEFFFF" transform="matrix(1.00, 0.00, -0.00, -1.00, 162.1, 415.0)"> </text><text xml:space="preserve" font-family="Avenir-Book" font-size="30.0" fill="#FEFFFF" transform="matrix(1.00, 0.00, -0.00, -1.00, 53.0, 342.0)">U</text><text xml:space="preserve" font-family="Avenir-Book" font-size="30.0" fill="#FEFFFF" transform="matrix(1.00, 0.00, -0.00, -1.00, 73.6, 342.0)">n</text><text xml:space="preserve" font-family="Avenir-Book" font-size="30.0" fill="#FEFFFF" transform="matrix(1.00, 0.00, -0.00, -1.00, 90.3, 342.0)">e</text><text xml:space="preserve" font-family="Avenir-Book" font-size="30.0" fill="#FEFFFF" transform="matrix(1.00, 0.00, -0.00, -1.00, 106.9, 342.0)"> </text><text xml:space="preserve" font-family="Avenir-Book" font-size="30.0" fill="#FEFFFF" transform="matrix(1.00, 0.00, -0.00, -1.00, 115.3, 342.0)">D</text><text xml:space="preserve" font-family="Avenir-Book" font-size="30.0" fill="#FEFFFF" transform="matrix(1.00, 0.00, -0.00, -1.00, 137.5, 342.0)">i</text><text xml:space="preserve" font-family="Avenir-Book" font-size="30.0" fill="#FEFFFF" transform="matrix(1.00, 0.00, -0.00, -1.00, 144.7, 342.0)">r</text><text xml:space="preserve" font-family="Avenir-Book" font-size="30.0" fill="#FEFFFF" transform="matrix(1.00, 0.00, -0.00, -1.00, 154.1, 342.0)">e</text><text xml:space="preserve" font-family="Avenir-Book" font-size="30.0" fill="#FEFFFF" transform="matrix(1.00, 0.00, -0.00, -1.00, 170.8, 342.0)">c</text><text xml:space="preserve" font-family="Avenir-Book" font-size="30.0" fill="#FEFFFF" transform="matrix(1.00, 0.00, -0.00, -1.00, 185.3, 342.0)">t</text><text xml:space="preserve" font-family="Avenir-Book" font-size="30.0" fill="#FEFFFF" transform="matrix(1.00, 0.00, -0.00, -1.00, 195.2, 342.0)">i</text><text xml:space="preserve" font-family="Avenir-Book" font-size="30.0" fill="#FEFFFF" transform="matrix(1.00, 0.00, -0.00, -1.00, 202.4, 342.0)">o</text><text xml:space="preserve" font-family="Avenir-Book" font-size="30.0" fill="#FEFFFF" transform="matrix(1.00, 0.00, -0.00, -1.00, 220.2, 342.0)">n</text><text xml:space="preserve" font-family="Avenir-Book" font-size="30.0" fill="#FEFFFF" transform="matrix(1.00, 0.00, -0.00, -1.00, 236.9, 342.0)"> </text><text xml:space="preserve" font-family="Avenir-Book" font-size="30.0" fill="#FEFFFF" transform="matrix(1.00, 0.00, -0.00, -1.00, 245.2, 342.0)">T</text><text xml:space="preserve" font-family="Avenir-Book" font-size="30.0" fill="#FEFFFF" transform="matrix(1.00, 0.00, -0.00, -1.00, 259.1, 342.0)">e</text><text xml:space="preserve" font-family="Avenir-Book" font-size="30.0" fill="#FEFFFF" transform="matrix(1.00, 0.00, -0.00, -1.00, 275.8, 342.0)">c</text><text xml:space="preserve" font-family="Avenir-Book" font-size="30.0" fill="#FEFFFF" transform="matrix(1.00, 0.00, -0.00, -1.00, 290.3, 342.0)">h</text><text xml:space="preserve" font-family="Avenir-Book" font-size="30.0" fill="#FEFFFF" transform="matrix(1.00, 0.00, -0.00, -1.00, 307.0, 342.0)">n</text><text xml:space="preserve" font-family="Avenir-Book" font-size="30.0" fill="#FEFFFF" transform="matrix(1.00, 0.00, -0.00, -1.00, 323.6, 342.0)">i</text><text xml:space="preserve" font-family="Avenir-Book" font-size="30.0" fill="#FEFFFF" transform="matrix(1.00, 0.00, -0.00, -1.00, 330.8, 342.0)">q</text><text xml:space="preserve" font-family="Avenir-Book" font-size="30.0" fill="#FEFFFF" transform="matrix(1.00, 0.00, -0.00, -1.00, 349.2, 342.0)">u</text><text xml:space="preserve" font-family="Avenir-Book" font-size="30.0" fill="#FEFFFF" transform="matrix(1.00, 0.00, -0.00, -1.00, 365.8, 342.0)">e</text><text xml:space="preserve" font-family="Avenir-Book" font-size="30.0" fill="#FEFFFF" transform="matrix(1.00, 0.00, -0.00, -1.00, 382.5, 342.0)"> </text><text xml:space="preserve" font-family="Avenir-Book" font-size="30.0" fill="#FEFFFF" transform="matrix(1.00, 0.00, -0.00, -1.00, 390.9, 342.0)">q</text><text xml:space="preserve" font-family="Avenir-Book" font-size="30.0" fill="#FEFFFF" transform="matrix(1.00, 0.00, -0.00, -1.00, 409.2, 342.0)">u</text><text xml:space="preserve" font-family="Avenir-Book" font-size="30.0" fill="#FEFFFF" transform="matrix(1.00, 0.00, -0.00, -1.00, 425.9, 342.0)">i</text><text xml:space="preserve" font-family="Avenir-Book" font-size="30.0" fill="#FEFFFF" transform="matrix(1.00, 0.00, -0.00, -1.00, 433.1, 342.0)"> </text><text xml:space="preserve" font-family="Avenir-Book" font-size="30.0" fill="#FEFFFF" transform="matrix(1.00, 0.00, -0.00, -1.00, 53.0, 301.0)">n</text><text xml:space="preserve" font-family="Avenir-Book" font-size="30.0" fill="#FEFFFF" transform="matrix(1.00, 0.00, -0.00, -1.00, 69.7, 301.0)">e</text><text xml:space="preserve" font-family="Avenir-Book" font-size="30.0" fill="#FEFFFF" transform="matrix(1.00, 0.00, -0.00, -1.00, 86.4, 301.0)"> </text><text xml:space="preserve" font-family="Avenir-Book" font-size="30.0" fill="#FEFFFF" transform="matrix(1.00, 0.00, -0.00, -1.00, 94.7, 301.0)">f</text><text xml:space="preserve" font-family="Avenir-Book" font-size="30.0" fill="#FEFFFF" transform="matrix(1.00, 0.00, -0.00, -1.00, 103.6, 301.0)">a</text><text xml:space="preserve" font-family="Avenir-Book" font-size="30.0" fill="#FEFFFF" transform="matrix(1.00, 0.00, -0.00, -1.00, 119.2, 301.0)">c</text><text xml:space="preserve" font-family="Avenir-Book" font-size="30.0" fill="#FEFFFF" transform="matrix(1.00, 0.00, -0.00, -1.00, 133.6, 301.0)">t</text><text xml:space="preserve" font-family="Avenir-Book" font-size="30.0" fill="#FEFFFF" transform="matrix(1.00, 0.00, -0.00, -1.00, 143.6, 301.0)">u</text><text xml:space="preserve" font-family="Avenir-Book" font-size="30.0" fill="#FEFFFF" transform="matrix(1.00, 0.00, -0.00, -1.00, 160.2, 301.0)">r</text><text xml:space="preserve" font-family="Avenir-Book" font-size="30.0" fill="#FEFFFF" transform="matrix(1.00, 0.00, -0.00, -1.00, 169.7, 301.0)">e</text><text xml:space="preserve" font-family="Avenir-Book" font-size="30.0" fill="#FEFFFF" transform="matrix(1.00, 0.00, -0.00, -1.00, 186.3, 301.0)"> </text><text xml:space="preserve" font-family="Avenir-Book" font-size="30.0" fill="#FEFFFF" transform="matrix(1.00, 0.00, -0.00, -1.00, 194.7, 301.0)">p</text><text xml:space="preserve" font-family="Avenir-Book" font-size="30.0" fill="#FEFFFF" transform="matrix(1.00, 0.00, -0.00, -1.00, 213.0, 301.0)">a</text><text xml:space="preserve" font-family="Avenir-Book" font-size="30.0" fill="#FEFFFF" transform="matrix(1.00, 0.00, -0.00, -1.00, 228.6, 301.0)">s</text><text xml:space="preserve" font-family="Avenir-Book" font-size="30.0" fill="#FEFFFF" transform="matrix(1.00, 0.00, -0.00, -1.00, 241.4, 301.0)"> </text><text xml:space="preserve" font-family="Avenir-Book" font-size="30.0" fill="#FEFFFF" transform="matrix(1.00, 0.00, -0.00, -1.00, 53.0, 228.0)">U</text><text xml:space="preserve" font-family="Avenir-Book" font-size="30.0" fill="#FEFFFF" transform="matrix(1.00, 0.00, -0.00, -1.00, 73.6, 228.0)">n</text><text xml:space="preserve" font-family="Avenir-Book" font-size="30.0" fill="#FEFFFF" transform="matrix(1.00, 0.00, -0.00, -1.00, 90.3, 228.0)">e</text><text xml:space="preserve" font-family="Avenir-Book" font-size="30.0" fill="#FEFFFF" transform="matrix(1.00, 0.00, -0.00, -1.00, 106.9, 228.0)"> </text><text xml:space="preserve" font-family="Avenir-Book" font-size="30.0" fill="#FEFFFF" transform="matrix(1.00, 0.00, -0.00, -1.00, 115.3, 228.0)">u</text><text xml:space="preserve" font-family="Avenir-Book" font-size="30.0" fill="#FEFFFF" transform="matrix(1.00, 0.00, -0.00, -1.00, 132.0, 228.0)">t</text><text xml:space="preserve" font-family="Avenir-Book" font-size="30.0" fill="#FEFFFF" transform="matrix(1.00, 0.00, -0.00, -1.00, 141.9, 228.0)">i</text><text xml:space="preserve" font-family="Avenir-Book" font-size="30.0" fill="#FEFFFF" transform="matrix(1.00, 0.00, -0.00, -1.00, 149.1, 228.0)">l</text><text xml:space="preserve" font-family="Avenir-Book" font-size="30.0" fill="#FEFFFF" transform="matrix(1.00, 0.00, -0.00, -1.00, 156.3, 228.0)">i</text><text xml:space="preserve" font-family="Avenir-Book" font-size="30.0" fill="#FEFFFF" transform="matrix(1.00, 0.00, -0.00, -1.00, 163.5, 228.0)">s</text><text xml:space="preserve" font-family="Avenir-Book" font-size="30.0" fill="#FEFFFF" transform="matrix(1.00, 0.00, -0.00, -1.00, 176.3, 228.0)">a</text><text xml:space="preserve" font-family="Avenir-Book" font-size="30.0" fill="#FEFFFF" transform="matrix(1.00, 0.00, -0.00, -1.00, 191.9, 228.0)">t</text><text xml:space="preserve" font-family="Avenir-Book" font-size="30.0" fill="#FEFFFF" transform="matrix(1.00, 0.00, -0.00, -1.00, 201.8, 228.0)">i</text><text xml:space="preserve" font-family="Avenir-Book" font-size="30.0" fill="#FEFFFF" transform="matrix(1.00, 0.00, -0.00, -1.00, 209.0, 228.0)">o</text><text xml:space="preserve" font-family="Avenir-Book" font-size="30.0" fill="#FEFFFF" transform="matrix(1.00, 0.00, -0.00, -1.00, 226.8, 228.0)">n</text><text xml:space="preserve" font-family="Avenir-Book" font-size="30.0" fill="#FEFFFF" transform="matrix(1.00, 0.00, -0.00, -1.00, 243.5, 228.0)"> </text><text xml:space="preserve" font-family="Avenir-Book" font-size="30.0" fill="#FEFFFF" transform="matrix(1.00, 0.00, -0.00, -1.00, 251.8, 228.0)">d</text><text xml:space="preserve" font-family="Avenir-Book" font-size="30.0" fill="#FEFFFF" transform="matrix(1.00, 0.00, -0.00, -1.00, 270.2, 228.0)">u</text><text xml:space="preserve" font-family="Avenir-Book" font-size="30.0" fill="#FEFFFF" transform="matrix(1.00, 0.00, -0.00, -1.00, 286.9, 228.0)"> </text><text xml:space="preserve" font-family="Avenir-Book" font-size="30.0" fill="#FEFFFF" transform="matrix(1.00, 0.00, -0.00, -1.00, 295.2, 228.0)">r</text><text xml:space="preserve" font-family="Avenir-Book" font-size="30.0" fill="#FEFFFF" transform="matrix(1.00, 0.00, -0.00, -1.00, 304.6, 228.0)">é</text><text xml:space="preserve" font-family="Avenir-Book" font-size="30.0" fill="#FEFFFF" transform="matrix(1.00, 0.00, -0.00, -1.00, 321.3, 228.0)">s</text><text xml:space="preserve" font-family="Avenir-Book" font-size="30.0" fill="#FEFFFF" transform="matrix(1.00, 0.00, -0.00, -1.00, 334.1, 228.0)">u</text><text xml:space="preserve" font-family="Avenir-Book" font-size="30.0" fill="#FEFFFF" transform="matrix(1.00, 0.00, -0.00, -1.00, 350.8, 228.0)">l</text><text xml:space="preserve" font-family="Avenir-Book" font-size="30.0" fill="#FEFFFF" transform="matrix(1.00, 0.00, -0.00, -1.00, 357.9, 228.0)">t</text><text xml:space="preserve" font-family="Avenir-Book" font-size="30.0" fill="#FEFFFF" transform="matrix(1.00, 0.00, -0.00, -1.00, 367.9, 228.0)">a</text><text xml:space="preserve" font-family="Avenir-Book" font-size="30.0" fill="#FEFFFF" transform="matrix(1.00, 0.00, -0.00, -1.00, 383.5, 228.0)">t</text></g></svg>