<?xml version="1.0" encoding="UTF-8" standalone="no"?><svg xmlns="http://www.w3.org/2000/svg" xmlns:xlink="http://www.w3.org/1999/xlink" clip-rule="evenodd" stroke-miterlimit="4.00" viewBox="0 0 1024 768"><desc>SVG generated by Keynote</desc><defs></defs><g transform="matrix(1.00, 0.00, -0.00, -1.00, 0.0, 768.0)"><path d="M 0.0 768.0 L 1024.0 768.0 L 1024.0 0.0 L 0.0 0.0 Z M 0.0 768.0 " fill="#000000"></path><path d="M 82.0 554.0 L 423.0 554.0 L 423.0 214.0 L 82.0 214.0 Z M 82.0 554.0 " fill="#000000" fill-opacity="0.00"></path><g><g><clipPath id="clip-457"><path d="M 0.0 0.0 L 1024.0 0.0 L 1024.0 768.0 L 0.0 768.0 Z M 0.0 0.0 "></path></clipPath><g clip-path="url(#clip-457)"><g><g><clipPath id="clip-458"><path d="M 0.0 0.0 L 1024.0 0.0 L 1024.0 768.0 L 0.0 768.0 Z M 0.0 0.0 "></path></clipPath><g clip-path="url(#clip-458)"><path d="M 253.0 384.0 L 253.0 554.0 C 179.4 554.0 114.1 506.6 91.3 436.5 Z M 253.0 384.0 " fill="#44740E"></path></g></g><g><clipPath id="clip-459"><path d="M 253.0 384.0 L 253.0 554.0 C 179.4 554.0 114.1 506.6 91.3 436.5 Z M 253.0 384.0 "></path></clipPath><g clip-path="url(#clip-459)"><g><clipPath id="clip-460"><path d="M 0.0 0.0 L 1024.0 0.0 L 1024.0 768.0 L 0.0 768.0 Z M 0.0 0.0 "></path></clipPath><g clip-path="url(#clip-460)"><path d="M 171.0 170.5 L 171.0 0.5 C 97.3 0.5 32.0 47.9 9.3 118.0 Z M 171.0 170.5 " fill="none" stroke="#000000" stroke-width="2.00" transform="matrix(1.00, 0.00, 0.00, -1.00, 82.0, 554.5)"></path></g></g></g></g></g></g></g><g><clipPath id="clip-461"><path d="M 0.0 0.0 L 1024.0 0.0 L 1024.0 768.0 L 0.0 768.0 Z M 0.0 0.0 "></path></clipPath><g clip-path="url(#clip-461)"><g><g><clipPath id="clip-462"><path d="M 0.0 0.0 L 1024.0 0.0 L 1024.0 768.0 L 0.0 768.0 Z M 0.0 0.0 "></path></clipPath><g clip-path="url(#clip-462)"><path d="M 253.0 384.0 L 91.3 436.5 C 62.3 347.2 111.2 251.3 200.5 222.3 C 289.8 193.3 385.7 242.2 414.7 331.5 C 443.7 420.8 394.8 516.7 305.5 545.7 C 288.6 551.2 270.8 554.0 253.0 554.0 Z M 253.0 384.0 " fill="#3FA3C1"></path></g></g><g><clipPath id="clip-463"><path d="M 253.0 384.0 L 91.3 436.5 C 62.3 347.2 111.2 251.3 200.5 222.3 C 289.8 193.3 385.7 242.2 414.7 331.5 C 443.7 420.8 394.8 516.7 305.5 545.7 C 288.6 551.2 270.8 554.0 253.0 554.0 Z M 253.0 384.0 "></path></clipPath><g clip-path="url(#clip-463)"><g><clipPath id="clip-464"><path d="M 0.0 0.0 L 1024.0 0.0 L 1024.0 768.0 L 0.0 768.0 Z M 0.0 0.0 "></path></clipPath><g clip-path="url(#clip-464)"><path d="M 171.0 170.5 L 9.3 118.0 C -19.7 207.2 29.1 303.2 118.4 332.2 C 207.7 361.2 303.6 312.3 332.6 223.0 C 361.7 133.7 312.8 37.8 223.5 8.8 C 206.5 3.3 188.8 0.5 171.0 0.5 Z M 171.0 170.5 " fill="none" stroke="#000000" stroke-width="2.00" transform="matrix(1.00, 0.00, 0.00, -1.00, 82.0, 554.5)"></path></g></g></g></g></g></g></g></g><g><image xlink:href="8712ABF69B80C06A2A7165EBDB3A7E03.png" width="139.00" height="29.00" transform="matrix(1.00, 0.00, -0.00, -1.00, 116.0, 510.0)"></image><g><clipPath id="clip-465"><path d="M 109.0 430.0 L 262.0 430.0 L 262.0 519.0 L 109.0 519.0 Z M 109.0 430.0 "></path></clipPath><g clip-path="url(#clip-465)"><text xml:space="preserve" font-family="Avenir-Light" font-size="30.0" fill="#FFFFFF" transform="matrix(1.00, 0.00, -0.00, -1.00, 117.0, 487.0)">F</text><text xml:space="preserve" font-family="Avenir-Light" font-size="30.0" fill="#FFFFFF" transform="matrix(1.00, 0.00, -0.00, -1.00, 133.7, 487.0)">o</text><text xml:space="preserve" font-family="Avenir-Light" font-size="30.0" fill="#FFFFFF" transform="matrix(1.00, 0.00, -0.00, -1.00, 151.5, 487.0)">r</text><text xml:space="preserve" font-family="Avenir-Light" font-size="30.0" fill="#FFFFFF" transform="matrix(1.00, 0.00, -0.00, -1.00, 161.5, 487.0)">m</text><text xml:space="preserve" font-family="Avenir-Light" font-size="30.0" fill="#FFFFFF" transform="matrix(1.00, 0.00, -0.00, -1.00, 187.1, 487.0)">a</text><text xml:space="preserve" font-family="Avenir-Light" font-size="30.0" fill="#FFFFFF" transform="matrix(1.00, 0.00, -0.00, -1.00, 202.6, 487.0)">t</text><text xml:space="preserve" font-family="Avenir-Light" font-size="30.0" fill="#FFFFFF" transform="matrix(1.00, 0.00, -0.00, -1.00, 212.6, 487.0)">i</text><text xml:space="preserve" font-family="Avenir-Light" font-size="30.0" fill="#FFFFFF" transform="matrix(1.00, 0.00, -0.00, -1.00, 219.8, 487.0)">o</text><text xml:space="preserve" font-family="Avenir-Light" font-size="30.0" fill="#FFFFFF" transform="matrix(1.00, 0.00, -0.00, -1.00, 237.7, 487.0)">n</text><text xml:space="preserve" font-family="Avenir-Light" font-size="30.0" fill="#FFFFFF" transform="matrix(1.00, 0.00, -0.00, -1.00, 254.3, 487.0)"> </text></g></g><image xlink:href="926D54F52512897974115E19E364B8B6.png" width="68.00" height="31.00" transform="matrix(1.00, 0.00, -0.00, -1.00, 152.0, 470.0)"></image><g><clipPath id="clip-466"><path d="M 109.0 430.0 L 262.0 430.0 L 262.0 519.0 L 109.0 519.0 Z M 109.0 430.0 "></path></clipPath><g clip-path="url(#clip-466)"><text xml:space="preserve" font-family="Avenir-Light" font-size="30.0" fill="#FFFFFF" transform="matrix(1.00, 0.00, -0.00, -1.00, 154.0, 446.0)">2</text><text xml:space="preserve" font-family="Avenir-Light" font-size="30.0" fill="#FFFFFF" transform="matrix(1.00, 0.00, -0.00, -1.00, 169.6, 446.0)">0</text><text xml:space="preserve" font-family="Avenir-Light" font-size="30.0" fill="#FFFFFF" transform="matrix(1.00, 0.00, -0.00, -1.00, 185.2, 446.0)"> </text><text xml:space="preserve" font-family="Avenir-Light" font-size="30.0" fill="#FFFFFF" transform="matrix(1.00, 0.00, -0.00, -1.00, 193.0, 446.0)">%</text></g></g></g><g><image xlink:href="7FE34439C11AC780C1941E1694CFF3C2.png" width="99.00" height="29.00" transform="matrix(1.00, 0.00, -0.00, -1.00, 270.0, 326.0)"></image><g><clipPath id="clip-467"><path d="M 264.0 246.0 L 375.0 246.0 L 375.0 335.0 L 264.0 335.0 Z M 264.0 246.0 "></path></clipPath><g clip-path="url(#clip-467)"><text xml:space="preserve" font-family="Avenir-Light" font-size="30.0" fill="#FFFFFF" transform="matrix(1.00, 0.00, -0.00, -1.00, 272.0, 303.0)">S</text><text xml:space="preserve" font-family="Avenir-Light" font-size="30.0" fill="#FFFFFF" transform="matrix(1.00, 0.00, -0.00, -1.00, 288.7, 303.0)">e</text><text xml:space="preserve" font-family="Avenir-Light" font-size="30.0" fill="#FFFFFF" transform="matrix(1.00, 0.00, -0.00, -1.00, 305.4, 303.0)">r</text><text xml:space="preserve" font-family="Avenir-Light" font-size="30.0" fill="#FFFFFF" transform="matrix(1.00, 0.00, -0.00, -1.00, 315.4, 303.0)">v</text><text xml:space="preserve" font-family="Avenir-Light" font-size="30.0" fill="#FFFFFF" transform="matrix(1.00, 0.00, -0.00, -1.00, 329.2, 303.0)">i</text><text xml:space="preserve" font-family="Avenir-Light" font-size="30.0" fill="#FFFFFF" transform="matrix(1.00, 0.00, -0.00, -1.00, 336.4, 303.0)">c</text><text xml:space="preserve" font-family="Avenir-Light" font-size="30.0" fill="#FFFFFF" transform="matrix(1.00, 0.00, -0.00, -1.00, 350.9, 303.0)">e</text><text xml:space="preserve" font-family="Avenir-Light" font-size="30.0" fill="#FFFFFF" transform="matrix(1.00, 0.00, -0.00, -1.00, 367.6, 303.0)"> </text></g></g><image xlink:href="88EDFC077E0C7A5B8500B788AE343056.png" width="68.00" height="31.00" transform="matrix(1.00, 0.00, -0.00, -1.00, 286.0, 286.0)"></image><g><clipPath id="clip-468"><path d="M 264.0 246.0 L 375.0 246.0 L 375.0 335.0 L 264.0 335.0 Z M 264.0 246.0 "></path></clipPath><g clip-path="url(#clip-468)"><text xml:space="preserve" font-family="Avenir-Light" font-size="30.0" fill="#FFFFFF" transform="matrix(1.00, 0.00, -0.00, -1.00, 288.0, 262.0)">8</text><text xml:space="preserve" font-family="Avenir-Light" font-size="30.0" fill="#FFFFFF" transform="matrix(1.00, 0.00, -0.00, -1.00, 303.6, 262.0)">0</text><text xml:space="preserve" font-family="Avenir-Light" font-size="30.0" fill="#FFFFFF" transform="matrix(1.00, 0.00, -0.00, -1.00, 319.2, 262.0)"> </text><text xml:space="preserve" font-family="Avenir-Light" font-size="30.0" fill="#FFFFFF" transform="matrix(1.00, 0.00, -0.00, -1.00, 327.0, 262.0)">%</text></g></g></g><text xml:space="preserve" font-family="Avenir-Light" font-size="45.0" fill="#FEFFFF" transform="matrix(1.00, 0.00, -0.00, -1.00, 56.0, 671.0)">E</text><text xml:space="preserve" font-family="Avenir-Light" font-size="45.0" fill="#FEFFFF" transform="matrix(1.00, 0.00, -0.00, -1.00, 89.9, 671.0)">V</text><text xml:space="preserve" font-family="Avenir-Light" font-size="45.0" fill="#FEFFFF" transform="matrix(1.00, 0.00, -0.00, -1.00, 123.8, 671.0)">O</text><text xml:space="preserve" font-family="Avenir-Light" font-size="45.0" fill="#FEFFFF" transform="matrix(1.00, 0.00, -0.00, -1.00, 168.5, 671.0)">L</text><text xml:space="preserve" font-family="Avenir-Light" font-size="45.0" fill="#FEFFFF" transform="matrix(1.00, 0.00, -0.00, -1.00, 198.2, 671.0)">U</text><text xml:space="preserve" font-family="Avenir-Light" font-size="45.0" fill="#FEFFFF" transform="matrix(1.00, 0.00, -0.00, -1.00, 236.2, 671.0)">T</text><text xml:space="preserve" font-family="Avenir-Light" font-size="45.0" fill="#FEFFFF" transform="matrix(1.00, 0.00, -0.00, -1.00, 269.2, 671.0)">I</text><text xml:space="preserve" font-family="Avenir-Light" font-size="45.0" fill="#FEFFFF" transform="matrix(1.00, 0.00, -0.00, -1.00, 288.1, 671.0)">O</text><text xml:space="preserve" font-family="Avenir-Light" font-size="45.0" fill="#FEFFFF" transform="matrix(1.00, 0.00, -0.00, -1.00, 332.8, 671.0)">N</text><text xml:space="preserve" font-family="Avenir-Light" font-size="45.0" fill="#FEFFFF" transform="matrix(1.00, 0.00, -0.00, -1.00, 375.0, 671.0)"> </text><text xml:space="preserve" font-family="Avenir-Light" font-size="45.0" fill="#FEFFFF" transform="matrix(1.00, 0.00, -0.00, -1.00, 393.9, 671.0)">D</text><text xml:space="preserve" font-family="Avenir-Light" font-size="45.0" fill="#FEFFFF" transform="matrix(1.00, 0.00, -0.00, -1.00, 434.5, 671.0)">U</text><text xml:space="preserve" font-family="Avenir-Light" font-size="45.0" fill="#FEFFFF" transform="matrix(1.00, 0.00, -0.00, -1.00, 472.5, 671.0)"> </text><text xml:space="preserve" font-family="Avenir-Light" font-size="45.0" fill="#FEFFFF" transform="matrix(1.00, 0.00, -0.00, -1.00, 491.4, 671.0)">M</text><text xml:space="preserve" font-family="Avenir-Light" font-size="45.0" fill="#FEFFFF" transform="matrix(1.00, 0.00, -0.00, -1.00, 538.6, 671.0)">O</text><text xml:space="preserve" font-family="Avenir-Light" font-size="45.0" fill="#FEFFFF" transform="matrix(1.00, 0.00, -0.00, -1.00, 583.3, 671.0)">D</text><text xml:space="preserve" font-family="Avenir-Light" font-size="45.0" fill="#FEFFFF" transform="matrix(1.00, 0.00, -0.00, -1.00, 623.9, 671.0)">E</text><text xml:space="preserve" font-family="Avenir-Light" font-size="45.0" fill="#FEFFFF" transform="matrix(1.00, 0.00, -0.00, -1.00, 657.7, 671.0)">L</text><text xml:space="preserve" font-family="Avenir-Light" font-size="45.0" fill="#FEFFFF" transform="matrix(1.00, 0.00, -0.00, -1.00, 687.4, 671.0)">E</text></g></svg>